<?xml version="1.0" encoding="UTF-8" standalone="no"?>
<svg width="21px" height="27px" viewBox="0 0 21 27" version="1.1" xmlns="http://www.w3.org/2000/svg" xmlns:xlink="http://www.w3.org/1999/xlink">
    <!-- Generator: Sketch 3.7 (28169) - http://www.bohemiancoding.com/sketch -->
    <title>120 - iPhone</title>
    <desc>Created with Sketch.</desc>
    <defs></defs>
    <g id="Page-1" stroke="none" stroke-width="1" fill="none" fill-rule="evenodd">
        <g id="120---iPhone">
            <path d="M18.1254385,23.3000709 C18.1254385,24.4220213 17.218504,25.3307504 16.1010311,25.3307504 L4.96679024,25.3307504 C3.84931734,25.3307504 2.94238281,24.4220213 2.94238281,23.3000709 L2.94238281,4.00861568 C2.94238281,2.8876806 3.84931734,1.97793618 4.96679024,1.97793618 L16.1010311,1.97793618 C17.218504,1.97793618 18.1254385,2.8876806 18.1254385,4.00861568 L18.1254385,23.3000709 L18.1254385,23.3000709 Z" id="Stroke-366" stroke="#00EF98" stroke-width="1.5" stroke-linecap="round" stroke-linejoin="round"></path>
            <path d="M18.1254385,6 L2.94238281,6" id="Stroke-367" stroke="#00EF98" stroke-width="1.5" stroke-linecap="round" stroke-linejoin="round"></path>
            <path d="M8.00340137,4 L13.0644199,4" id="Stroke-369" stroke="#00EF98" stroke-linecap="round" stroke-linejoin="round"></path>
            <path d="M18.1254385,20 L2.94238281,20" id="Stroke-368" stroke="#00EF98" stroke-width="1.5" stroke-linecap="round" stroke-linejoin="round"></path>
            <path d="M11.5492718,23.2478778 C11.5492718,23.844613 11.0664608,24.3289197 10.4715688,24.3289197 C9.87667682,24.3289197 9.39386592,23.844613 9.39386592,23.2478778 C9.39386592,22.6511427 9.87667682,22.166836 10.4715688,22.166836 C11.0664608,22.166836 11.5492718,22.6511427 11.5492718,23.2478778 L11.5492718,23.2478778 Z" id="Stroke-370" fill="#00EF98"></path>
        </g>
    </g>
</svg>