<?xml version="1.0" encoding="UTF-8" standalone="no"?>
<svg width="135px" height="118px" viewBox="0 0 135 118" version="1.1" xmlns="http://www.w3.org/2000/svg" xmlns:xlink="http://www.w3.org/1999/xlink">
    <!-- Generator: Sketch 3.7 (28169) - http://www.bohemiancoding.com/sketch -->
    <title>120 - iPhone</title>
    <desc>Created with Sketch.</desc>
    <defs>
        <path d="M8,12 L115.020811,12 L119.099206,12 C124.616883,12 129.089844,16.4796589 129.089844,21.9989273 L129.089844,104.339041 C129.089844,109.861296 124.618482,114.337969 119.090436,114.337969 L17.999408,114.337969 C12.4768875,114.337969 8,109.85831 8,104.339041 L8,12 Z" id="path-1"></path>
        <mask id="mask-2" maskContentUnits="userSpaceOnUse" maskUnits="objectBoundingBox" x="0" y="0" width="121.089844" height="102.337969" fill="white">
            <use xlink:href="#path-1"></use>
        </mask>
    </defs>
    <g id="Page-1" stroke="none" stroke-width="1" fill="none" fill-rule="evenodd">
        <g id="120---iPhone">
            <g id="Rectangle-11-Copy-Copy" transform="translate(10.185183, 6.000000)" stroke="#343438" stroke-width="4" fill="#F4F6FC">
                <rect id="path-1" x="0.836334812" y="0" width="53.7018873" height="30.9238838" rx="4"></rect>
            </g>
            <use id="Rectangle-129-Copy" stroke="#343438" mask="url(#mask-2)" stroke-width="8" fill="#F4F6FC" xlink:href="#path-1"></use>
            <g id="Group" transform="translate(22.203687, 33.000000)" stroke-width="3" stroke-linecap="round">
                <path d="M12.0810097,3.30713317 L29.9004412,3.30713318" id="Line-Copy-7" stroke="#343439"></path>
                <path d="M39.6388419,37.7958077 L57.4582735,37.7958077" id="Line-Copy-14" stroke="#343439"></path>
                <path d="M62.7607621,44.9599851 L66.5430724,34.7927014" id="Line-Copy-15" stroke="#343439"></path>
                <path d="M0.331336883,63.4518787 L4.1136471,53.284595" id="Line-Copy-16" stroke="#9F9FAA"></path>
                <path d="M4.23250966,63.4518787 L8.01481987,53.284595" id="Line-Copy-17" stroke="#9F9FAA"></path>
                <path d="M13.1236443,13.2285327 L30.9430759,13.2285327" id="Line-Copy-10" stroke="#343439"></path>
                <path d="M38.5962073,2.83468558 L56.4156388,2.83468561" id="Line-Copy-8" stroke="#343439"></path>
                <path d="M39.1175246,14.1734279 L56.9369562,14.1734279" id="Line-Copy-11" stroke="#00EB8E"></path>
                <path d="M67.2686603,2.83468558 L85.0880919,2.83468561" id="Line-Copy-9" stroke="#343439"></path>
                <path d="M12.0810097,25.5121702 L29.9004412,25.5121702" id="Line-Copy-23" stroke="#343439"></path>
                <path d="M38.5962073,25.5121702 L56.4156388,25.5121702" id="Line-Copy-22" stroke="#343439"></path>
                <path d="M67.2686603,25.5121702 L85.0880919,25.5121702" id="Line-Copy-21" stroke="#343439"></path>
                <path d="M67.1966742,14.1734279 L85.0161057,14.1734279" id="Line-Copy-12" stroke="#00EB8E"></path>
                <path d="M13.0493295,37.7958077 L30.8687611,37.7958077" id="Line-Copy-13" stroke="#343439"></path>
                <path d="M13.6066399,57.6386068 L31.4260715,57.6386068" id="Line-Copy-18" stroke="#9F9FAA"></path>
                <path d="M39.8002285,57.6386068 L57.6196601,57.6386068" id="Line-Copy-19" stroke="#9F9FAA"></path>
                <path d="M68.7803692,57.6386068 L86.5998007,57.6386068" id="Line-Copy-20" stroke="#9F9FAA"></path>
                <polyline id="Path-18" stroke="#343439" points="6.2832077 0.399356154 1.1779634 4.44241789 6.01847624 9.39979294"></polyline>
                <polyline id="Path-18-Copy" stroke="#343439" points="69.4740264 44.3535278 74.5792706 40.3104661 69.7387579 35.353091"></polyline>
            </g>
        </g>
    </g>
</svg>