<?xml version="1.0" encoding="utf-8"?>
<!-- Generator: Adobe Illustrator 18.0.0, SVG Export Plug-In . SVG Version: 6.00 Build 0)  -->
<!DOCTYPE svg PUBLIC "-//W3C//DTD SVG 1.1//EN" "http://www.w3.org/Graphics/SVG/1.1/DTD/svg11.dtd">
<svg version="1.1" id="Layer_1" xmlns="http://www.w3.org/2000/svg" xmlns:xlink="http://www.w3.org/1999/xlink" x="0px" y="0px"
	 viewBox="0 0 83.2 77" enable-background="new 0 0 83.2 77" xml:space="preserve">
<path fill="#00EB8E" d="M41.5,2.4c-21,0-39.8,14-39.8,33.2c0,6.8,2.4,13.5,6.8,18.7C8.7,60.3,5.1,69,1.9,75.3
	c8.6-1.6,20.9-5,26.5-8.4c30.6,7.5,53-11.3,53-31.4C81.3,16.3,62.4,2.4,41.5,2.4z M41.5,35.6c0,7.7-5.1,13-12.2,14.4l-1.3-2.9
	c3.3-1.2,5.4-5.3,5.4-8.3h-5.1V25.6h13.3V35.6z M58.1,35.6c0,7.7-5.1,13-12.2,14.4l-1.3-2.9c3.3-1.2,5.4-5.3,5.4-8.3h-5.1V25.6h13.3
	V35.6z"/>
</svg>
