<?xml version="1.0" encoding="UTF-8" standalone="no"?>
<svg width="271px" height="162px" viewBox="0 0 271 162" version="1.1" xmlns="http://www.w3.org/2000/svg" xmlns:xlink="http://www.w3.org/1999/xlink">
    <!-- Generator: Sketch 3.7 (28169) - http://www.bohemiancoding.com/sketch -->
    <title>180 - iPhone 6 Plus</title>
    <desc>Created with Sketch.</desc>
    <defs>
        <rect id="path-1" x="-5.1159077e-13" y="6" width="32" height="66" rx="12"></rect>
        <mask id="mask-2" maskContentUnits="userSpaceOnUse" maskUnits="objectBoundingBox" x="0" y="0" width="32" height="66" fill="white">
            <use xlink:href="#path-1"></use>
        </mask>
        <rect id="path-3" x="-5.61328761e-13" y="6" width="32" height="66" rx="12"></rect>
        <mask id="mask-4" maskContentUnits="userSpaceOnUse" maskUnits="objectBoundingBox" x="0" y="0" width="32" height="66" fill="white">
            <use xlink:href="#path-3"></use>
        </mask>
    </defs>
    <g id="Page-1" stroke="none" stroke-width="1" fill="none" fill-rule="evenodd">
        <g id="180---iPhone-6-Plus">
            <polygon id="Path-253" fill="#FFFFFF" points="38.7539062 92.3828125 55.0625 87.4082031 62.6796875 68.6484375 68.3710938 63.8261719 83.6054688 58.2929688 93.3554688 57.2929688 98.6523438 59.6367188 102.365234 63.7207031 113.458984 61.7207031 117.412109 62.7207031 121.470703 66.9335938 119.255859 73.1484375 126.660156 76.3613281 129.982422 79.9453125 127.398438 85.6347656 123.708984 90.2167969 128.267578 91.2167969 131.351562 96.1699219 131.482422 101.525391 124.791016 105.845703 127.613281 108.191406 131.064453 113.40625 128.351562 118.119141 124.767578 121.333984 81.9394531 132.904297 72.9296875 129.820312 65.7871094 125.761719 50.6113281 131.558594"></polygon>
            <g id="Group-11" transform="translate(5.000000, 10.000000)">
                <path d="M126,19.6670494 L126,0" id="Line-Copy-Copy" stroke="#00EB8E" stroke-width="5" stroke-linecap="round"></path>
                <path d="M111.83204,21.8831285 L103,13" id="Line-Copy-2-Copy" stroke="#00EB8E" stroke-width="5" stroke-linecap="round"></path>
                <path d="M140,21.8831285 L148.83204,13" id="Line-Copy-3-Copy" stroke="#00EB8E" stroke-width="5" stroke-linecap="round"></path>
                <polygon id="Path-253" fill="#FFFFFF" transform="translate(181.118164, 87.098633) scale(-1, 1) translate(-181.118164, -87.098633) " points="134.753906 84.3828125 151.0625 79.4082031 158.679688 60.6484375 164.371094 55.8261719 179.605469 50.2929688 189.355469 49.2929688 194.652344 51.6367188 198.365234 55.7207031 209.458984 53.7207031 213.412109 54.7207031 217.470703 58.9335938 215.255859 65.1484375 222.660156 68.3613281 225.982422 71.9453125 223.398438 77.6347656 219.708984 82.2167969 224.267578 83.2167969 227.351562 88.1699219 227.482422 93.5253906 220.791016 97.8457031 223.613281 100.191406 227.064453 105.40625 224.351562 110.119141 220.767578 113.333984 177.939453 124.904297 168.929688 121.820312 161.787109 117.761719 146.611328 123.558594"></polygon>
                <g id="Group-10" transform="translate(194.273035, 91.302472) scale(-1, 1) rotate(-15.000000) translate(-194.273035, -91.302472) translate(134.273035, 55.302472)">
                    <use id="Rectangle-151" stroke="#343438" mask="url(#mask-2)" stroke-width="8" fill="#F4F6FC" xlink:href="#path-1"></use>
                    <circle id="Oval-52" fill="#00EF98" cx="18" cy="22" r="4"></circle>
                    <path d="M32,20.5820313 L45.4085949,20.5820313 L59.2349764,3.84717818 C60.9904407,1.72244034 64.6444543,1.84741111e-13 67.4146481,1.84741111e-13 L85.8433494,1.84741111e-13 C88.6053931,1.84741111e-13 92.0644688,1.87556469 93.567173,4.18575001 L97.5384598,10.2910156" id="Path-227" stroke="#343438" stroke-width="4"></path>
                    <path d="M31,61.3660996 L45.8787416,61.3660996 L53.6959913,67.4936637 C56.6736861,69.8277348 62.1605241,71.7198732 65.9452793,71.7198732 L103.287204,71.7198732 C103.287204,71.7198732 112.033926,70.8943162 112.033926,64.0008116 C112.033926,57.107307 108.531534,58.0426089 103.775992,58.0426089 C99.0204506,58.0426089 93.951505,58.0426089 93.951505,58.0426089" id="Path-228" stroke="#343438" stroke-width="4"></path>
                    <path d="M94.8719185,57.6772643 L107.288417,57.6772643 C107.288417,57.6772643 117.5418,56.8517074 117.5418,49.9582028 C117.5418,43.0646981 112.413995,42 106.839291,42 C101.264587,42 94,42 94,42" id="Path-228-Copy" stroke="#343438" stroke-width="4" stroke-linecap="round"></path>
                    <path d="M95.743837,41.6772643 L109.032254,41.6772643 C109.032254,41.6772643 119.285637,40.8517074 119.285637,33.9582028 C119.285637,27.0646981 114.157832,26 108.583128,26 C103.008424,26 94,26 94,26" id="Path-228-Copy-2" stroke="#343438" stroke-width="4" stroke-linecap="round"></path>
                    <path d="M93.5650256,25.6772643 L106.005512,25.6772643 C106.005512,25.6772643 114.49107,24.8517074 114.49107,17.9582028 C114.49107,11.0646981 110.247369,10 105.633821,10 C101.020273,10 92,10 92,10" id="Path-228-Copy-3" stroke="#343438" stroke-width="4" stroke-linecap="round"></path>
                </g>
                <g id="Group-10-Copy" transform="translate(67.273035, 88.302472) rotate(-15.000000) translate(-67.273035, -88.302472) translate(7.273035, 52.302472)">
                    <use id="Rectangle-151" stroke="#343438" mask="url(#mask-4)" stroke-width="8" fill="#F4F6FC" xlink:href="#path-3"></use>
                    <circle id="Oval-52" fill="#00EF98" cx="18" cy="22" r="4"></circle>
                    <path d="M32,20.5820313 L45.4085949,20.5820313 L59.2349764,3.84717818 C60.9904407,1.72244034 64.6444543,1.84741111e-13 67.4146481,1.84741111e-13 L85.8433494,1.84741111e-13 C88.6053931,1.84741111e-13 92.1940066,1.78080953 93.8596711,3.97877533 L98.643219,10.2910156" id="Path-227" stroke="#343438" stroke-width="4"></path>
                    <path d="M31,61.3660996 L45.8787416,61.3660996 L53.6959913,67.4936637 C56.6736861,69.8277348 62.1605241,71.7198732 65.9452793,71.7198732 L103.287204,71.7198732 C103.287204,71.7198732 112.033926,70.8943162 112.033926,64.0008116 C112.033926,57.107307 108.531534,58.0426089 103.775992,58.0426089 C99.0204506,58.0426089 93.951505,58.0426089 93.951505,58.0426089" id="Path-228" stroke="#343438" stroke-width="4"></path>
                    <path d="M94.8719185,57.6772643 L107.288417,57.6772643 C107.288417,57.6772643 117.5418,56.8517074 117.5418,49.9582028 C117.5418,43.0646981 112.413995,42 106.839291,42 C101.264587,42 94,42 94,42" id="Path-228-Copy" stroke="#343438" stroke-width="4" stroke-linecap="round"></path>
                    <path d="M95.743837,41.6772643 L109.032254,41.6772643 C109.032254,41.6772643 119.285637,40.8517074 119.285637,33.9582028 C119.285637,27.0646981 114.157832,26 108.583128,26 C103.008424,26 94,26 94,26" id="Path-228-Copy-2" stroke="#343438" stroke-width="4" stroke-linecap="round"></path>
                    <path d="M93.5650256,25.6772643 L106.005512,25.6772643 C106.005512,25.6772643 114.49107,24.8517074 114.49107,17.9582028 C114.49107,11.0646981 110.247369,10 105.633821,10 C101.020273,10 92,10 92,10" id="Path-228-Copy-3" stroke="#343438" stroke-width="4" stroke-linecap="round"></path>
                </g>
            </g>
        </g>
    </g>
</svg>