<?xml version="1.0" encoding="UTF-8" standalone="no"?>
<svg width="98px" height="118px" viewBox="0 0 98 118" version="1.1" xmlns="http://www.w3.org/2000/svg" xmlns:xlink="http://www.w3.org/1999/xlink">
    <!-- Generator: Sketch 3.7 (28169) - http://www.bohemiancoding.com/sketch -->
    <title>120 - iPhone</title>
    <desc>Created with Sketch.</desc>
    <defs></defs>
    <g id="Page-1" stroke="none" stroke-width="1" fill="none" fill-rule="evenodd">
        <g id="120---iPhone">
            <g id="Group-6" transform="translate(15.000000, 12.000000)">
                <g id="257" transform="translate(0.000000, 0.000000)">
                    <g id="256">
                        <g id="Page-1">
                            <g id="256">
                                <g id="Group-2">
                                    <g id="Group" transform="translate(0.000000, 27.931051)">
                                        <path d="M13.8283855,3.05700307 C15.02969,1.72727242 17.4462234,0.649312748 19.2372211,0.649312748 L49.5719036,0.649312748 C51.3578166,0.649312748 53.7677915,1.74192722 54.9508833,3.08536377 L66.8155804,16.5580859 C68.0003959,17.9034797 68.127287,20.1748672 67.0917503,21.641641 L36.0648026,65.5893812 C35.0325115,67.0515569 33.3620829,67.0561546 32.3265459,65.5893812 L1.29959835,21.6416408 C0.267307246,20.1794648 0.405317619,17.9150724 1.60562407,16.5864465 L13.8283855,3.05700307 L13.8283855,3.05700307 Z" id="Path-30-Copy" fill="#F3F6FC"></path>
                                        <path d="M35.8770543,0.600663802 L17.972614,20.5873218 L33.5768223,66.2966565 L52.0266523,18.7015248 L35.8770543,0.600663802 Z" id="Path-205" fill="#FFFFFF"></path>
                                        <path d="M13.7282621,3.50504657 C14.9295665,2.17531592 17.3461001,1.09735625 19.1370978,1.09735625 L49.4717802,1.09735625 C51.2576932,1.09735625 53.6676681,2.18997071 54.8507599,3.53340726 L66.7154569,17.0061295 C67.9002724,18.3515233 68.0271635,20.6229107 66.9916268,22.0896845 L35.9646792,66.0374245 C34.9323881,67.4996008 33.2619595,67.5041986 32.2264224,66.0374245 L1.19947494,22.0896844 C0.167183844,20.6275082 0.305194217,18.363116 1.50550067,17.03449 L13.7282621,3.50504657 L13.7282621,3.50504657 Z" id="Path-30" stroke="#343439" stroke-width="4"></path>
                                        <path d="M1.49765379,19.6596357 L66.5708147,19.6596357" id="Line" stroke="#343439" stroke-width="4"></path>
                                        <polyline id="Path-32" stroke="#343439" stroke-width="4" transform="translate(34.954249, 10.699653) rotate(180.000000) translate(-34.954249, -10.699653) " points="17.503314 1.6307702 35.3443789 19.7685352 52.4051844 1.79016422"></polyline>
                                        <path d="M17.288035,19.6596357 L34.3942812,66.5171114" id="Path-33" stroke="#343439" stroke-width="4"></path>
                                        <path d="M51.3457198,19.0259583 L34.3942812,66.5171114" id="Path-33-Copy" stroke="#343439" stroke-width="4"></path>
                                    </g>
                                    <path d="M34.288859,19.981482 L34.288859,0.314432511" id="Line-Copy" stroke="#00EB8E" stroke-width="5" stroke-linecap="round"></path>
                                    <path d="M19.8494537,21.9350379 L11.0174138,13.0519094" id="Line-Copy-2" stroke="#00EB8E" stroke-width="5" stroke-linecap="round"></path>
                                    <path d="M48.5323116,21.9350379 L57.3643515,13.0519094" id="Line-Copy-3" stroke="#00EB8E" stroke-width="5" stroke-linecap="round"></path>
                                </g>
                            </g>
                        </g>
                    </g>
                </g>
            </g>
        </g>
    </g>
</svg>