<?xml version="1.0" encoding="UTF-8" standalone="no"?>
<svg width="20px" height="20px" viewBox="0 0 20 20" version="1.1" xmlns="http://www.w3.org/2000/svg" xmlns:xlink="http://www.w3.org/1999/xlink">
    <!-- Generator: Sketch 3.7 (28169) - http://www.bohemiancoding.com/sketch -->
    <title>180 - iPhone 6 Plus</title>
    <desc>Created with Sketch.</desc>
    <defs>
        <path d="M10.009375,6.93877551 C12.97875,6.93877551 15.04875,8.78285714 15.949375,9.77714286 C15.07375,10.9018367 13.00375,13.0612245 10.009375,13.0612245 C7.246875,13.0612245 5.053125,10.8963265 4.085625,9.75081633 C5.01875,8.74244898 7.09625,6.93877551 10.009375,6.93877551 L10.009375,6.93877551 Z M10.009375,5.71428571 C5.27875,5.71428571 2.5,9.72510204 2.5,9.72510204 C2.5,9.72510204 5.521875,14.2857143 10.009375,14.2857143 C14.8425,14.2857143 17.5,9.72510204 17.5,9.72510204 C17.5,9.72510204 14.818125,5.71428571 10.009375,5.71428571 L10.009375,5.71428571 Z M10,7.55102041 C8.61875,7.55102041 7.5,8.64755102 7.5,10 C7.5,11.352449 8.61875,12.4489796 10,12.4489796 C11.380625,12.4489796 12.5,11.352449 12.5,10 C12.5,8.64755102 11.380625,7.55102041 10,7.55102041 L10,7.55102041 Z M9.9975,9.99938776 C9.645,10.3446939 9.073125,10.3446939 8.72,9.99938776 C8.366875,9.65408163 8.366875,9.09326531 8.72,8.74795918 C9.0725,8.40265306 9.644375,8.40265306 9.9975,8.74795918 C10.350625,9.09326531 10.350625,9.65346939 9.9975,9.99938776 L9.9975,9.99938776 Z" id="path-1"></path>
        <filter x="-50%" y="-50%" width="200%" height="200%" filterUnits="objectBoundingBox" id="filter-2">
            <feOffset dx="0" dy="1" in="SourceAlpha" result="shadowOffsetOuter1"></feOffset>
            <feColorMatrix values="0 0 0 0 1   0 0 0 0 1   0 0 0 0 1  0 0 0 0.745046422 0" type="matrix" in="shadowOffsetOuter1"></feColorMatrix>
        </filter>
    </defs>
    <g id="Page-1" stroke="none" stroke-width="1" fill="none" fill-rule="evenodd">
        <g id="180---iPhone-6-Plus">
            <g id="Shape">
                <use fill="black" fill-opacity="1" filter="url(#filter-2)" xlink:href="#path-1"></use>
                <use fill="#000000" fill-rule="evenodd" xlink:href="#path-1"></use>
            </g>
        </g>
    </g>
</svg>