<?xml version="1.0" encoding="UTF-8" standalone="no"?>
<svg width="71px" height="26px" viewBox="0 0 71 26" version="1.1" xmlns="http://www.w3.org/2000/svg" xmlns:xlink="http://www.w3.org/1999/xlink">
    <!-- Generator: Sketch 3.7 (28169) - http://www.bohemiancoding.com/sketch -->
    <title>180 - iPhone 6 Plus</title>
    <desc>Created with Sketch.</desc>
    <defs>
        <path d="M48.5617187,4 C41.1464472,4 40.4842057,6.14025452 35.4979168,6.1150481 C30.5116278,6.14025452 29.8585523,4 22.4341148,4 C17.578441,4 12.3584198,4.7607757 8,5.63841754 L8,8.9885804 C8.75160972,9.62103248 10.2892016,10.0128778 10.2937846,12.2379176 C10.3075335,21.0074615 13.9326755,22.2906976 20.8415271,22.3319445 C30.122074,22.3319445 31.3755207,20.2077304 32.92457,12.8268313 C33.268294,11.1884137 34.100106,10.1961972 35.4956253,10.1961972 C36.8911445,10.1961972 37.7229565,11.1907052 38.0666805,12.8268313 C39.6203128,20.2077304 40.8737595,22.3319445 50.1543064,22.3319445 C57.0654495,22.2906976 60.6905915,21.0074615 60.7043404,12.2379176 C60.7089234,10.0128778 62.2465153,9.62103248 62.998125,8.9885804 L62.998125,5.63841754 C58.6374137,4.7607757 53.4173925,4 48.5617187,4 L48.5617187,4 Z M30.6995303,12.2127111 C29.4162942,18.3126657 29.1229831,20.1000303 20.8529846,20.0404514 C14.3474358,20.0014961 12.5829861,18.7343004 12.5829861,12.1897962 C12.5829861,8.71589272 12.5829861,6.29149306 22.4341148,6.29149306 C26.8452389,6.29149306 29.5514923,7.3020415 30.4795469,8.64714793 C30.972218,9.36438526 31.0478372,10.5628361 30.6995303,12.2127111 L30.6995303,12.2127111 Z M50.1428489,20.0404514 C41.8751419,20.1000303 41.5818308,18.3126657 40.2963032,12.2127111 C39.9502878,10.5628361 40.0236156,9.36209377 40.5185781,8.64714793 C41.4443413,7.3020415 44.1505946,6.29149306 48.5617187,6.29149306 C58.4128474,6.29149306 58.4128474,8.71589272 58.4128474,12.1897962 C58.4128474,18.7343004 56.6483977,20.0014961 50.1428489,20.0404514 L50.1428489,20.0404514 Z M48.3783993,8.23926217 C56.2565524,8.23926217 56.2565524,10.1801568 56.2565524,12.9597379 C56.2565524,13.4913643 56.2290545,13.9496629 56.1992651,14.3987955 C55.0466441,10.4436785 53.1859517,9.51333231 48.3783993,8.23926217 L48.3783993,8.23926217 Z M14.7965684,14.3987955 C14.7644875,13.9496629 14.7369896,13.4913643 14.7369896,12.9597379 C14.7369896,10.1801568 14.7369896,8.23926217 22.6151428,8.23926217 C17.8098818,9.51333231 15.9491894,10.4436785 14.7965684,14.3987955 L14.7965684,14.3987955 Z" id="path-1"></path>
        <filter x="-50%" y="-50%" width="200%" height="200%" filterUnits="objectBoundingBox" id="filter-2">
            <feOffset dx="0" dy="1" in="SourceAlpha" result="shadowOffsetOuter1"></feOffset>
            <feColorMatrix values="0 0 0 0 1   0 0 0 0 1   0 0 0 0 1  0 0 0 0.78832654 0" type="matrix" in="shadowOffsetOuter1"></feColorMatrix>
        </filter>
    </defs>
    <g id="Page-1" stroke="none" stroke-width="1" fill="none" fill-rule="evenodd">
        <g id="180---iPhone-6-Plus">
            <g id="Shape">
                <use fill="black" fill-opacity="1" filter="url(#filter-2)" xlink:href="#path-1"></use>
                <use fill="#232429" fill-rule="evenodd" xlink:href="#path-1"></use>
            </g>
        </g>
    </g>
</svg>