<?xml version="1.0" encoding="UTF-8" standalone="no"?>
<svg width="225px" height="225px" viewBox="0 0 225 225" version="1.1" xmlns="http://www.w3.org/2000/svg" xmlns:xlink="http://www.w3.org/1999/xlink">
    <!-- Generator: Sketch 3.7 (28169) - http://www.bohemiancoding.com/sketch -->
    <title>180 - iPhone 6 Plus</title>
    <desc>Created with Sketch.</desc>
    <defs></defs>
    <g id="Page-1" stroke="none" stroke-width="1" fill="none" fill-rule="evenodd" stroke-linecap="round">
        <g id="180---iPhone-6-Plus" stroke="#00EB8E" stroke-width="10">
            <g id="diamond" transform="translate(40.000000, 14.000000)">
                <g id="Page-1">
                    <g id="120---iPhone">
                        <g id="Group-6">
                            <g id="257">
                                <g id="256">
                                    <g id="Page-1">
                                        <g id="256">
                                            <g id="Group-2">
                                                <g id="Group" transform="translate(0.000000, 59.696933)">
                                                    <path d="M27.4300866,5.16896522 C29.9198041,2.42517133 34.9280983,0.200886912 38.6399621,0.200886912 L101.508948,0.200886912 C105.210273,0.200886912 110.204974,2.45541033 112.656946,5.22748526 L137.24667,33.0273807 C139.702214,35.8034943 139.965197,40.4903223 137.819035,43.5168939 L73.5153221,134.199575 C71.3758867,137.21666 67.9139038,137.226147 65.767741,134.199575 L1.46402809,43.5168937 C-0.675407331,40.4998089 -0.389379212,35.8274149 2.09827,33.0859003 L27.4300866,5.16896522 L27.4300866,5.16896522 L27.4300866,5.16896522 Z" id="Path-30"></path>
                                                    <path d="M2.08200725,38 L136.946897,38" id="Line"></path>
                                                    <polyline id="Path-32" transform="translate(71.421193, 20.014466) rotate(180.000000) translate(-71.421193, -20.014466) " points="35.2539251 1.3015456 72.2297416 38.7273873 107.588461 1.63044253"></polyline>
                                                    <path d="M34.8077577,38.5026806 L70.2606538,135.189371" id="Path-33"></path>
                                                    <path d="M105.392709,37.1951375 L70.2606538,135.189371" id="Path-33-Copy"></path>
                                                </g>
                                                <path d="M70,41.2302058 L70,0.648806587" id="Line-Copy"></path>
                                                <path d="M40.116328,45.2612137 L21.8118216,26.9315815" id="Line-Copy-2"></path>
                                                <path d="M99.5618878,45.2612137 L117.866394,26.9315815" id="Line-Copy-3"></path>
                                            </g>
                                        </g>
                                    </g>
                                </g>
                            </g>
                        </g>
                    </g>
                </g>
            </g>
        </g>
    </g>
</svg>