<?xml version="1.0" encoding="utf-8"?>
<!-- Generator: Adobe Illustrator 18.0.0, SVG Export Plug-In . SVG Version: 6.00 Build 0)  -->
<!DOCTYPE svg PUBLIC "-//W3C//DTD SVG 1.1//EN" "http://www.w3.org/Graphics/SVG/1.1/DTD/svg11.dtd">
<svg version="1.1" id="Layer_1" xmlns="http://www.w3.org/2000/svg" xmlns:xlink="http://www.w3.org/1999/xlink" x="0px" y="0px"
	 viewBox="0 0 96.9 91.8" enable-background="new 0 0 96.9 91.8" xml:space="preserve">
<g>
	<path fill="#00EB8E" d="M51.9,71.2H39.6c-0.9,0-1.7-0.8-1.7-1.7c0-0.1-0.2-6.7-8.2-15.9c-4.2-4.7-4.9-11.8-1.9-18.3
		C31,28,37.8,23.5,45.6,23.5c7.3,0,13.7,3.9,17.2,10.3c3.2,6.1,3.2,13.1-0.1,18c-0.6,0.9-1.4,1.9-2.2,3c-3.1,4-6.9,9-6.9,14.8
		C53.6,70.5,52.8,71.2,51.9,71.2z M41.1,67.8h9.2c0.6-6.2,4.5-11.3,7.5-15.1c0.8-1,1.5-2,2.1-2.8c2.6-3.8,2.6-9.5-0.1-14.5
		c-2.9-5.4-8-8.5-14.2-8.5c-7.6,0-12.6,5.1-14.8,9.8c-2.4,5.3-1.9,11,1.4,14.7C38.8,58.9,40.6,65,41.1,67.8z"/>
</g>
<g>
	<path fill="#00EB8E" d="M52.2,75.7H38.6c-0.9,0-1.7-0.7-1.7-1.7l0,0c0-0.9,0.7-1.7,1.7-1.7h13.7c0.9,0,1.7,0.8,1.7,1.7l0,0
		C53.9,74.9,53.2,75.7,52.2,75.7z"/>
</g>
<g>
	<path fill="#00EB8E" d="M39.9,77.2c0.3,3,2.7,5.3,5.8,5.3s5.5-2.3,5.8-5.3H39.9z"/>
</g>
<g>
	<path fill="#00EB8E" d="M43,69.8C43,69.8,42.9,69.8,43,69.8c-0.7,0-1.2-0.6-1.1-1.2c0.4-6-1.6-17.5-1.6-17.6
		c-0.1-0.6,0.3-1.2,0.9-1.3c0.6-0.1,1.2,0.3,1.3,0.9c0.1,0.5,2,11.8,1.6,18.1C44.1,69.4,43.6,69.8,43,69.8z"/>
</g>
<g>
	<path fill="#00EB8E" d="M47.9,69.8c-0.6,0-1.1-0.5-1.1-1.1c-0.4-6.3,1.6-17.7,1.6-18.1c0.1-0.6,0.7-1,1.3-0.9
		c0.6,0.1,1,0.7,0.9,1.3c0,0.1-2,11.6-1.6,17.6C49.1,69.3,48.6,69.8,47.9,69.8C48,69.8,47.9,69.8,47.9,69.8z"/>
</g>
<g>
	<path fill="#00EB8E" d="M53.9,52.2c-0.2,0-0.5-0.1-0.7-0.2c-7.4-4.2-15.6,0-15.6,0c-0.7,0.4-1.5,0.1-1.9-0.6
		c-0.4-0.7-0.1-1.5,0.6-1.9c0.4-0.2,9.6-4.9,18.4,0c0.7,0.4,0.9,1.2,0.5,1.9C54.9,52,54.4,52.2,53.9,52.2z"/>
</g>
<g>
	<path fill="#00EB8E" d="M47.1,17.7C47,17.7,47,17.7,47.1,17.7c-0.7,0-1.2-0.5-1.2-1.1l0-7.5c0-0.6,0.5-1.1,1.1-1.1
		c0.6,0,1.1,0.5,1.1,1.1l0,7.5C48.2,17.2,47.7,17.7,47.1,17.7z"/>
</g>
<g>
	<path fill="#00EB8E" d="M63.1,24.5c-0.2,0-0.4-0.1-0.6-0.2c-0.5-0.3-0.7-1-0.3-1.6l6.6-10.3c0.3-0.5,1-0.7,1.6-0.3
		c0.5,0.3,0.7,1,0.3,1.6l-6.6,10.3C63.9,24.3,63.5,24.5,63.1,24.5z"/>
</g>
<g>
	<path fill="#00EB8E" d="M30.3,25.1c-0.3,0-0.6-0.1-0.9-0.4l-7.9-9.4c-0.4-0.5-0.3-1.2,0.1-1.6c0.5-0.4,1.2-0.3,1.6,0.1l7.9,9.4
		c0.4,0.5,0.3,1.2-0.1,1.6C30.9,25,30.6,25.1,30.3,25.1z"/>
</g>
</svg>
