<?xml version="1.0" encoding="utf-8"?>
<!-- Generator: Adobe Illustrator 18.0.0, SVG Export Plug-In . SVG Version: 6.00 Build 0)  -->
<!DOCTYPE svg PUBLIC "-//W3C//DTD SVG 1.1//EN" "http://www.w3.org/Graphics/SVG/1.1/DTD/svg11.dtd">
<svg version="1.1" id="Layer_1" xmlns="http://www.w3.org/2000/svg" xmlns:xlink="http://www.w3.org/1999/xlink" x="0px" y="0px"
	 viewBox="0 0 1008 612" enable-background="new 0 0 1008 612" xml:space="preserve">
<g>
	<path fill="#00EB8E" d="M527,474.7h-82c-6,0-11.3-5.3-11.3-11.3c0-0.7-1.3-44.7-54.7-106c-28-31.3-32.7-78.7-12.7-122
		c21.3-48.7,66.7-78.7,118.7-78.7c48.7,0,91.3,26,114.7,68.7c21.3,40.7,21.3,87.3-0.7,120c-4,6-9.3,12.7-14.7,20
		c-20.7,26.7-46,60-46,98.7C538.3,470,533,474.7,527,474.7z M455,452h61.3c4-41.3,30-75.3,50-100.7c5.3-6.7,10-13.3,14-18.7
		c17.3-25.3,17.3-63.3-0.7-96.7c-19.3-36-53.3-56.7-94.7-56.7c-50.7,0-84,34-98.7,65.3c-16,35.3-12.7,73.3,9.3,98
		C439.7,392.7,451.7,433.3,455,452z"/>
</g>
<g>
	<path fill="#00EB8E" d="M529,504.7h-90.7c-6,0-11.3-4.7-11.3-11.3l0,0c0-6,4.7-11.3,11.3-11.3h91.3c6,0,11.3,5.3,11.3,11.3l0,0
		C540.3,499.3,535.7,504.7,529,504.7z"/>
</g>
<g>
	<path fill="#00EB8E" d="M447,514.7c2,20,18,35.3,38.7,35.3s36.7-15.3,38.7-35.3H447z"/>
</g>
<g>
	<path fill="#00EB8E" d="M467.7,465.3C467.7,465.3,467,465.3,467.7,465.3c-4.7,0-8-4-7.3-8c2.7-40-10.7-116.7-10.7-117.3
		c-0.7-4,2-8,6-8.7s8,2,8.7,6C465,340.7,477.7,416,475,458C475,462.7,471.7,465.3,467.7,465.3z"/>
</g>
<g>
	<path fill="#00EB8E" d="M500.3,465.3c-4,0-7.3-3.3-7.3-7.3c-2.7-42,10.7-118,10.7-120.7c0.7-4,4.7-6.7,8.7-6c4,0.7,6.7,4.7,6,8.7
		c0,0.7-13.3,77.3-10.7,117.3C508.3,462,505,465.3,500.3,465.3C501,465.3,500.3,465.3,500.3,465.3z"/>
</g>
<g>
	<path fill="#00EB8E" d="M540.3,348c-1.3,0-3.3-0.7-4.7-1.3c-49.3-28-104,0-104,0c-4.7,2.7-10,0.7-12.7-4s-0.7-10,4-12.7
		c2.7-1.3,64-32.7,122.7,0c4.7,2.7,6,8,3.3,12.7C547,346.7,543.7,348,540.3,348z"/>
</g>
</svg>
