<?xml version="1.0" encoding="utf-8"?>
<!-- Generator: Adobe Illustrator 18.0.0, SVG Export Plug-In . SVG Version: 6.00 Build 0)  -->
<!DOCTYPE svg PUBLIC "-//W3C//DTD SVG 1.1//EN" "http://www.w3.org/Graphics/SVG/1.1/DTD/svg11.dtd">
<svg version="1.1" id="Layer_1" xmlns="http://www.w3.org/2000/svg" xmlns:xlink="http://www.w3.org/1999/xlink" x="0px" y="0px"
	 viewBox="0 0 1008 612" enable-background="new 0 0 1008 612" xml:space="preserve">
<g>
	<path fill="#FFFFFF" d="M504.4,279.3c-0.2,0-0.4,0-0.6,0.1c-7.2,0.7-13.6-4.6-14.3-11.8l-8.2-86c-0.7-7.2,4.3-13.6,11.8-14.3
		c7.2-0.7,13.6,4.6,14.3,11.8l8.2,86C516.4,272.1,511.4,278.3,504.4,279.3z"/>
</g>
<g>
	<path fill="#FFFFFF" d="M697.5,338.2c-2.4,0.2-4.9-0.2-7.2-1.3c-6.5-3.3-9.1-11.2-5.8-17.6l64-126.7c3.3-6.5,11.1-9.1,17.6-5.8
		s9.1,11.2,5.8,17.6l-64,126.7C705.8,335.3,701.8,337.8,697.5,338.2z"/>
</g>
<g>
	<path fill="#FFFFFF" d="M320.3,383.9c-3.7,0.4-7.6-0.8-10.5-3.7l-101.6-99.1c-5.2-5.1-5.3-13.4-0.2-18.6s13.4-5.3,18.6-0.2
		l101.6,99.1c5.2,5.1,5.3,13.4,0.2,18.6C326.2,382.3,323.3,383.6,320.3,383.9z"/>
</g>
</svg>
