<?xml version="1.0" encoding="UTF-8" standalone="no"?>
<svg width="30px" height="39px" viewBox="0 0 30 39" version="1.1" xmlns="http://www.w3.org/2000/svg" xmlns:xlink="http://www.w3.org/1999/xlink">
    <!-- Generator: Sketch 3.7 (28169) - http://www.bohemiancoding.com/sketch -->
    <title>180 - iPhone 6 Plus</title>
    <desc>Created with Sketch.</desc>
    <defs>
        <path d="M9,2 L17.937,14 L12,14 L3,2 L9,2 L9,2 Z M18.906,12.791 L27,2 L21,2 L15.936,8.801 L18.906,12.791 L18.906,12.791 Z M15,20 C10.857,20 7.5,23.3585 7.5,27.5 C7.5,31.6415 10.857,35 15,35 C19.143,35 22.5,31.6415 22.5,27.5 C22.5,23.3585 19.143,20 15,20 L15,20 Z M17.781,31.6325 L15,30.1445 L12.219,31.6325 L12.7725,28.5275 L10.5,26.342 L13.6245,25.9115 L15,23.0735 L16.3755,25.9115 L19.5,26.342 L17.226,28.5275 L17.781,31.6325 L17.781,31.6325 Z M15,17 C9.2025,17 4.5,21.701 4.5,27.5 C4.5,33.299 9.2025,38 15,38 C20.7975,38 25.5,33.299 25.5,27.5 C25.5,21.701 20.7975,17 15,17 L15,17 Z M15,36.5 C10.029,36.5 6,32.4695 6,27.5 C6,22.5305 10.029,18.5 15,18.5 C19.971,18.5 24,22.5305 24,27.5 C24,32.4695 19.971,36.5 15,36.5 L15,36.5 Z" id="path-1"></path>
        <filter x="-50%" y="-50%" width="200%" height="200%" filterUnits="objectBoundingBox" id="filter-2">
            <feOffset dx="0" dy="1" in="SourceAlpha" result="shadowOffsetOuter1"></feOffset>
            <feColorMatrix values="0 0 0 0 1   0 0 0 0 1   0 0 0 0 1  0 0 0 0.722826087 0" type="matrix" in="shadowOffsetOuter1"></feColorMatrix>
        </filter>
    </defs>
    <g id="Page-1" stroke="none" stroke-width="1" fill="none" fill-rule="evenodd">
        <g id="180---iPhone-6-Plus">
            <g id="Shape">
                <use fill="black" fill-opacity="1" filter="url(#filter-2)" xlink:href="#path-1"></use>
                <use fill="#232429" fill-rule="evenodd" xlink:href="#path-1"></use>
            </g>
        </g>
    </g>
</svg>