<?xml version="1.0" encoding="UTF-8" standalone="no"?>
<svg width="271px" height="162px" viewBox="0 0 271 162" version="1.1" xmlns="http://www.w3.org/2000/svg" xmlns:xlink="http://www.w3.org/1999/xlink">
    <!-- Generator: Sketch 3.7 (28169) - http://www.bohemiancoding.com/sketch -->
    <title>180 - iPhone 6 Plus</title>
    <desc>Created with Sketch.</desc>
    <defs>
        <rect id="path-1" x="48.796317" y="12.5976562" width="148.738467" height="108.64375" rx="13"></rect>
        <mask id="mask-2" maskContentUnits="userSpaceOnUse" maskUnits="objectBoundingBox" x="0" y="0" width="148.738467" height="108.64375" fill="white">
            <use xlink:href="#path-1"></use>
        </mask>
        <rect id="path-3" x="57.8499628" y="20.3579241" width="131.924554" height="77.3697889" rx="7"></rect>
        <mask id="mask-4" maskContentUnits="userSpaceOnUse" maskUnits="objectBoundingBox" x="0" y="0" width="131.924554" height="77.3697889" fill="white">
            <use xlink:href="#path-3"></use>
        </mask>
        <rect id="path-5" x="1.28138351" y="0.241138267" width="82.1922845" height="108.64375" rx="7"></rect>
        <mask id="mask-6" maskContentUnits="userSpaceOnUse" maskUnits="objectBoundingBox" x="0" y="0" width="82.1922845" height="108.64375" fill="white">
            <use xlink:href="#path-5"></use>
        </mask>
        <rect id="path-7" x="11.1206749" y="9.00839728" width="63.2066598" height="83.4686322" rx="3"></rect>
        <mask id="mask-8" maskContentUnits="userSpaceOnUse" maskUnits="objectBoundingBox" x="0" y="0" width="63.2066598" height="83.4686322" fill="white">
            <use xlink:href="#path-7"></use>
        </mask>
        <rect id="path-9" x="-1.8189894e-12" y="0.0678079928" width="37.6924942" height="62.0143349" rx="3"></rect>
        <mask id="mask-10" maskContentUnits="userSpaceOnUse" maskUnits="objectBoundingBox" x="-3" y="-3" width="43.6924942" height="68.0143349">
            <rect x="-3" y="-2.93219201" width="43.6924942" height="68.0143349" fill="white"></rect>
            <use xlink:href="#path-9" fill="black"></use>
        </mask>
        <rect id="path-11" x="2.74310455" y="5.15691006" width="31.9412092" height="49.1649649" rx="4"></rect>
        <mask id="mask-12" maskContentUnits="userSpaceOnUse" maskUnits="objectBoundingBox" x="0" y="0" width="31.9412092" height="49.1649649" fill="white">
            <use xlink:href="#path-11"></use>
        </mask>
        <rect id="path-13" x="100.531436" y="130.295052" width="49.1483631" height="10.3470238" rx="3"></rect>
        <mask id="mask-14" maskContentUnits="userSpaceOnUse" maskUnits="objectBoundingBox" x="0" y="0" width="49.1483631" height="10.3470238" fill="white">
            <use xlink:href="#path-13"></use>
        </mask>
    </defs>
    <g id="Page-1" stroke="none" stroke-width="1" fill="none" fill-rule="evenodd">
        <g id="180---iPhone-6-Plus">
            <use id="Rectangle-155" stroke="#343438" mask="url(#mask-2)" stroke-width="6" fill="#F4F6FC" xlink:href="#path-1"></use>
            <use id="Rectangle-155-Copy-4" stroke="#343438" mask="url(#mask-4)" stroke-width="6" fill="#FFFFFF" xlink:href="#path-3"></use>
            <rect id="Rectangle-162" fill="#EFF2F8" x="68.1969866" y="43.6387277" width="111.230506" height="10.3470238" rx="3"></rect>
            <rect id="Rectangle-162-Copy-11" fill="#00EF98" x="68.1969866" y="31.9983259" width="111.230506" height="6.46688988" rx="3"></rect>
            <rect id="Rectangle-162-Copy" fill="#EFF2F8" x="69.4903646" y="59.1592634" width="52.3181838" height="25.9367636" rx="3"></rect>
            <rect id="Rectangle-162-Copy-2" fill="#EFF2F8" x="127.692374" y="59.1592634" width="42.6814732" height="25.9367636" rx="3"></rect>
            <ellipse id="Oval-56" fill="#00EF98" cx="124.645908" cy="107.834038" rx="4.71380264" ry="4.69992383"></ellipse>
            <g id="Group-13" transform="translate(160.026823, 38.465216)">
                <ellipse id="Oval-56" stroke="#343438" stroke-width="2" cx="45.2821618" cy="99.1452549" rx="2.89576909" ry="2.88724311"></ellipse>
                <use id="Rectangle-155" stroke="#343438" mask="url(#mask-6)" stroke-width="6" fill="#F4F6FC" xlink:href="#path-5"></use>
                <use id="Rectangle-155-Copy" stroke="#343438" mask="url(#mask-8)" stroke-width="6" fill="#FFFFFF" xlink:href="#path-7"></use>
                <path d="M43.3440045,102.777834 C45.3015048,102.777834 46.8883723,101.195639 46.8883723,99.2439023 C46.8883723,97.2921655 45.3015048,95.7099702 43.3440045,95.7099702 C41.3865043,95.7099702 39.7996368,97.2921655 39.7996368,99.2439023 C39.7996368,101.195639 41.3865043,102.777834 43.3440045,102.777834 Z" id="Oval-56" fill="#00EF98"></path>
            </g>
            <rect id="Rectangle-162-Copy-3" fill="#EFF2F8" x="179.427493" y="82.440067" width="29.7476935" height="15.9906358" rx="1"></rect>
            <rect id="Rectangle-162-Copy-4" fill="#EFF2F8" x="213.05532" y="82.440067" width="11.4087197" height="15.9906358" rx="1"></rect>
            <rect id="Rectangle-162-Copy-6" fill="#EFF2F8" x="179.427493" y="101.840737" width="29.7476935" height="15.9906358" rx="1"></rect>
            <rect id="Rectangle-162-Copy-5" fill="#EFF2F8" x="213.05532" y="101.840737" width="11.4087197" height="15.9906358" rx="1"></rect>
            <g id="Group-12" transform="translate(32.000000, 82.000000)">
                <g id="Rectangle-155-Copy-2">
                    <use fill="#F4F6FC" fill-rule="evenodd" xlink:href="#path-9"></use>
                    <use stroke="#343438" mask="url(#mask-10)" stroke-width="6" xlink:href="#path-9"></use>
                </g>
                <path d="M18.0877172,60.749616 C19.5055324,60.749616 20.6548987,59.6002497 20.6548987,58.1824345 C20.6548987,56.7646193 19.5055324,55.615253 18.0877172,55.615253 C16.669902,55.615253 15.5205357,56.7646193 15.5205357,58.1824345 C15.5205357,59.6002497 16.669902,60.749616 18.0877172,60.749616 Z" id="Oval-56" fill="#00EF98"></path>
                <use id="Rectangle-155-Copy-3" stroke="#343438" mask="url(#mask-12)" stroke-width="4" fill="#FFFFFF" xlink:href="#path-11"></use>
                <rect id="Rectangle-162-Copy-7" fill="#EFF2F8" x="7.76026786" y="12.9337798" width="21.9874256" height="11.6404018" rx="1"></rect>
                <rect id="Rectangle-162-Copy-11" fill="#00EF98" x="8" y="10" width="21.9874256" height="2" rx="3"></rect>
                <rect id="Rectangle-162-Copy-8" fill="#EFF2F8" x="7.76026786" y="26.5059476" width="21.9874256" height="5.13436299" rx="1"></rect>
                <rect id="Rectangle-162-Copy-9" fill="#EFF2F8" x="7.76026786" y="33.6278274" width="21.9874256" height="5.13436299" rx="1"></rect>
                <rect id="Rectangle-162-Copy-10" fill="#EFF2F8" x="7.76026786" y="40.6939564" width="21.9874256" height="5.13436299" rx="1"></rect>
                <path d="M15.0622337,2.57845503 L23.4383435,2.57845503" id="Line" stroke="#343438" stroke-linecap="round"></path>
            </g>
            <g id="Group" transform="translate(27.642499, 72.851074) rotate(-29.000000) translate(-27.642499, -72.851074) translate(16.642499, 68.351074)" stroke="#00EB8E" stroke-width="2" stroke-linecap="round">
                <path d="M10.1390495,8.25997073 L10.1390495,0.912693174" id="Line-Copy-Copy"></path>
                <path d="M4.86995959,8.94823171 L0.74963645,5.50150212" id="Line-Copy-2-Copy"></path>
                <path d="M17.747093,8.94823171 L21.8674162,5.50150212" id="Line-Copy-3-Copy"></path>
            </g>
            <polyline id="Path-258" stroke="#343438" stroke-width="3" points="112.171838 119.415045 112.171838 134.645286 138.792184 134.645286 138.792184 118.65465"></polyline>
            <use id="Rectangle-161" stroke="#424246" mask="url(#mask-14)" stroke-width="6" fill="#FFFFFF" xlink:href="#path-13"></use>
            <rect id="Rectangle-162" fill="#EFF2F8" x="178.96875" y="67.2460193" width="45.261756" height="10.3470238" rx="3"></rect>
            <rect id="Rectangle-162-Copy-11" fill="#00EF98" x="178.96875" y="56.2460193" width="45.261756" height="6.46688988" rx="3"></rect>
        </g>
    </g>
</svg>