<?xml version="1.0" encoding="UTF-8" standalone="no"?>
<svg width="42px" height="28px" viewBox="0 0 42 28" version="1.1" xmlns="http://www.w3.org/2000/svg" xmlns:xlink="http://www.w3.org/1999/xlink">
    <!-- Generator: Sketch 3.7 (28169) - http://www.bohemiancoding.com/sketch -->
    <title>120 - iPhone</title>
    <desc>Created with Sketch.</desc>
    <defs>
        <path d="M34.3340564,7.27982646 C30.6290487,9.10196139 28.7765727,11.2429378 28.7765727,13.70282 C30.3557563,13.8850334 31.6616,14.5303632 32.6941432,15.6388286 C33.7266863,16.747294 34.2429501,18.0303615 34.2429501,19.4880694 C34.2429501,21.0368841 33.7418705,22.3427279 32.7396963,23.4056399 C31.7375221,24.468552 30.477231,25 28.9587852,25 C27.258126,25 25.7852557,24.3091175 24.5401302,22.9273319 C23.2950046,21.5455462 22.6724512,19.8676888 22.6724512,17.8937093 C22.6724512,11.9717708 25.9826133,7.34058069 32.6030369,4 L34.3340564,7.27982646 Z M17.6616052,7.27982646 C13.9262286,9.10196139 12.0585683,11.2429378 12.0585683,13.70282 C13.6681208,13.8850334 14.9891489,14.5303632 16.021692,15.6388286 C17.0542351,16.747294 17.5704989,18.0303615 17.5704989,19.4880694 C17.5704989,21.0368841 17.0618272,22.3427279 16.0444685,23.4056399 C15.0271099,24.468552 13.7592267,25 12.2407809,25 C10.5401216,25 9.07484346,24.3091175 7.84490239,22.9273319 C6.61496131,21.5455462 6,19.8676888 6,17.8937093 C6,11.9717708 9.2949779,7.34058069 15.8850325,4 L17.6616052,7.27982646 Z" id="path-1"></path>
        <filter x="-50%" y="-50%" width="200%" height="200%" filterUnits="objectBoundingBox" id="filter-2">
            <feMorphology radius="2" operator="dilate" in="SourceAlpha" result="shadowSpreadOuter1"></feMorphology>
            <feOffset dx="0" dy="1" in="shadowSpreadOuter1" result="shadowOffsetOuter1"></feOffset>
            <feComposite in="shadowOffsetOuter1" in2="SourceAlpha" operator="out" result="shadowOffsetOuter1"></feComposite>
            <feColorMatrix values="0 0 0 0 1   0 0 0 0 1   0 0 0 0 1  0 0 0 0.5 0" type="matrix" in="shadowOffsetOuter1"></feColorMatrix>
        </filter>
    </defs>
    <g id="Page-1" stroke="none" stroke-width="1" fill="none" fill-rule="evenodd">
        <g id="120---iPhone">
            <g id="“">
                <use fill="black" fill-opacity="1" filter="url(#filter-2)" xlink:href="#path-1"></use>
                <use fill-opacity="0" fill="#F3F6FC" fill-rule="evenodd" xlink:href="#path-1"></use>
                <use stroke="#232429" stroke-width="4" stroke-linecap="round" stroke-linejoin="round" xlink:href="#path-1"></use>
            </g>
        </g>
    </g>
</svg>