<svg width="115" height="109" viewBox="0 0 115 109" fill="none" xmlns="http://www.w3.org/2000/svg">
<mask id="mask0_113_15861" style="mask-type:alpha" maskUnits="userSpaceOnUse" x="0" y="0" width="84" height="101">
<path d="M72.162 0H11.5C5.42487 0 0.5 4.59537 0.5 10.264V90.5685C0.5 96.2372 5.42487 100.833 11.5 100.833H72.162C78.2372 100.833 83.162 96.2372 83.162 90.5685V10.264C83.162 4.59537 78.2372 0 72.162 0Z" fill="white"/>
</mask>
<g mask="url(#mask0_113_15861)">
<path d="M72.162 0H11.5C5.42487 0 0.5 4.59537 0.5 10.264V90.5685C0.5 96.2372 5.42487 100.833 11.5 100.833H72.162C78.2372 100.833 83.162 96.2372 83.162 90.5685V10.264C83.162 4.59537 78.2372 0 72.162 0Z" fill="#F4F6FC" stroke="#343438" stroke-width="8"/>
</g>
<path d="M67.2228 15.4614H15.7187C14.0619 15.4614 12.7188 16.7147 12.7188 18.2607V30.1399C12.7188 31.6859 14.0619 32.9392 15.7187 32.9392H67.2228C68.8796 32.9392 70.2228 31.6859 70.2228 30.1399V18.2607C70.2228 16.7147 68.8796 15.4614 67.2228 15.4614Z" fill="white" stroke="#343439" stroke-width="3"/>
<path d="M15.2266 40.6694H68.427" stroke="#C9F1E1" stroke-width="3"/>
<path d="M47.582 49.408H67.8007" stroke="#343439" stroke-width="3"/>
<path d="M47.582 56.1304H67.8007" stroke="#343439" stroke-width="3"/>
<path d="M47.582 62.8528H67.8007" stroke="#343439" stroke-width="3"/>
<mask id="mask1_113_15861" style="mask-type:alpha" maskUnits="userSpaceOnUse" x="12" y="47" width="29" height="18">
<path d="M37.7521 47.1663H15C13.3431 47.1663 12 48.4196 12 49.9657V61.8454C12 63.3914 13.3431 64.6448 15 64.6448H37.7521C39.4089 64.6448 40.7521 63.3914 40.7521 61.8454V49.9657C40.7521 48.4196 39.4089 47.1663 37.7521 47.1663Z" fill="white"/>
</mask>
<g mask="url(#mask1_113_15861)">
<path d="M37.7521 47.1663H15C13.3431 47.1663 12 48.4196 12 49.9657V61.8454C12 63.3914 13.3431 64.6448 15 64.6448H37.7521C39.4089 64.6448 40.7521 63.3914 40.7521 61.8454V49.9657C40.7521 48.4196 39.4089 47.1663 37.7521 47.1663Z" fill="white" stroke="#343439" stroke-width="6"/>
</g>
<mask id="mask2_113_15861" style="mask-type:alpha" maskUnits="userSpaceOnUse" x="12" y="70" width="29" height="19">
<path d="M37.7521 70.8992H15C13.3431 70.8992 12 72.1525 12 73.6985V85.5776C12 87.1237 13.3431 88.377 15 88.377H37.7521C39.4089 88.377 40.7521 87.1237 40.7521 85.5776V73.6985C40.7521 72.1525 39.4089 70.8992 37.7521 70.8992Z" fill="white"/>
</mask>
<g mask="url(#mask2_113_15861)">
<path d="M37.7521 70.8992H15C13.3431 70.8992 12 72.1525 12 73.6985V85.5776C12 87.1237 13.3431 88.377 15 88.377H37.7521C39.4089 88.377 40.7521 87.1237 40.7521 85.5776V73.6985C40.7521 72.1525 39.4089 70.8992 37.7521 70.8992Z" fill="white" stroke="#343439" stroke-width="6"/>
</g>
<path d="M47.582 73.0647H67.8007" stroke="#343439" stroke-width="3"/>
<path d="M47.582 79.1292H67.8007" stroke="#343439" stroke-width="3"/>
<path d="M47.582 86.7112H67.8007" stroke="#343439" stroke-width="3"/>
<mask id="mask3_113_15861" style="mask-type:alpha" maskUnits="userSpaceOnUse" x="56" y="37" width="59" height="72">
<path d="M103.48 37.9729H67.2793C61.2042 37.9729 56.2793 42.5683 56.2793 48.237V98.6068C56.2793 104.275 61.2042 108.871 67.2793 108.871H103.48C109.555 108.871 114.48 104.275 114.48 98.6068V48.237C114.48 42.5683 109.555 37.9729 103.48 37.9729Z" fill="white"/>
</mask>
<g mask="url(#mask3_113_15861)">
<path d="M103.48 37.9729H67.2793C61.2042 37.9729 56.2793 42.5683 56.2793 48.237V98.6068C56.2793 104.275 61.2042 108.871 67.2793 108.871H103.48C109.555 108.871 114.48 104.275 114.48 98.6068V48.237C114.48 42.5683 109.555 37.9729 103.48 37.9729Z" fill="#F4F6FC" stroke="#343438" stroke-width="8"/>
</g>
<path d="M102.37 48.8442H67.8828C66.226 48.8442 64.8828 50.0975 64.8828 51.6435V58.3338C64.8828 59.8798 66.226 61.1331 67.8828 61.1331H102.37C104.027 61.1331 105.37 59.8798 105.37 58.3338V51.6435C105.37 50.0975 104.027 48.8442 102.37 48.8442Z" fill="white" stroke="#343439" stroke-width="3"/>
<path d="M66.6484 66.5688H104.106" stroke="#C9F1E1" stroke-width="3"/>
<path d="M89.4277 72.7129H103.663" stroke="#343439" stroke-width="3"/>
<path d="M89.4277 77.4392H103.663" stroke="#343439" stroke-width="3"/>
<path d="M89.4277 82.1655H103.663" stroke="#343439" stroke-width="3"/>
<mask id="mask4_113_15861" style="mask-type:alpha" maskUnits="userSpaceOnUse" x="64" y="71" width="21" height="13">
<path d="M81.6207 71.1365H67.3769C65.7201 71.1365 64.377 72.3898 64.377 73.9359V80.6266C64.377 82.1727 65.7201 83.426 67.3769 83.426H81.6207C83.2775 83.426 84.6207 82.1727 84.6207 80.6266V73.9359C84.6207 72.3898 83.2775 71.1365 81.6207 71.1365Z" fill="white"/>
</mask>
<g mask="url(#mask4_113_15861)">
<path d="M81.6207 71.1365H67.3769C65.7201 71.1365 64.377 72.3898 64.377 73.9359V80.6266C64.377 82.1727 65.7201 83.426 67.3769 83.426H81.6207C83.2775 83.426 84.6207 82.1727 84.6207 80.6266V73.9359C84.6207 72.3898 83.2775 71.1365 81.6207 71.1365Z" fill="white" stroke="#343439" stroke-width="6"/>
</g>
<mask id="mask5_113_15861" style="mask-type:alpha" maskUnits="userSpaceOnUse" x="64" y="87" width="21" height="14">
<path d="M81.6207 87.8235H67.3769C65.7201 87.8235 64.377 89.0768 64.377 90.6229V97.3136C64.377 98.8597 65.7201 100.113 67.3769 100.113H81.6207C83.2775 100.113 84.6207 98.8597 84.6207 97.3136V90.6229C84.6207 89.0768 83.2775 87.8235 81.6207 87.8235Z" fill="white"/>
</mask>
<g mask="url(#mask5_113_15861)">
<path d="M81.6207 87.8235H67.3769C65.7201 87.8235 64.377 89.0768 64.377 90.6229V97.3136C64.377 98.8597 65.7201 100.113 67.3769 100.113H81.6207C83.2775 100.113 84.6207 98.8597 84.6207 97.3136V90.6229C84.6207 89.0768 83.2775 87.8235 81.6207 87.8235Z" fill="white" stroke="#343439" stroke-width="6"/>
</g>
<path d="M89.4277 89.3459H103.663" stroke="#343439" stroke-width="3"/>
<path d="M89.4277 93.6108H103.663" stroke="#343439" stroke-width="3"/>
<path d="M89.4277 98.9417H103.663" stroke="#343439" stroke-width="3"/>
</svg>
