<svg width="136" height="118" viewBox="0 0 136 118" fill="none" xmlns="http://www.w3.org/2000/svg">
<path d="M56.3032 5H20.0156C17.8065 5 16.0156 6.79086 16.0156 9V29.779C16.0156 31.9881 17.8065 33.779 20.0156 33.779H56.3032C58.5124 33.779 60.3032 31.9881 60.3032 29.779V9C60.3032 6.79086 58.5124 5 56.3032 5Z" fill="#F4F6FC" stroke="#343438" stroke-width="4"/>
<path d="M13.5 11.3435H101.759H103.361C108.884 11.3435 113.362 15.8252 113.362 21.3446V96.5821C113.362 102.106 108.877 106.583 103.353 106.583H23.5093C17.9813 106.583 13.5 102.101 13.5 96.5821V11.3435Z" fill="#F4F6FC" stroke="#343438" stroke-width="4"/>
<path d="M88.2094 36.9204H41.2812V81.7614H88.2094V36.9204Z" stroke="#B5C0E2" stroke-width="4"/>
<path d="M49.1028 29.447H32.4824V45.3282H49.1028V29.447Z" fill="white" stroke="#C9F1E1" stroke-width="8"/>
<path d="M96.0305 29.447H79.4102V45.3282H96.0305V29.447Z" fill="white" stroke="#C9F1E1" stroke-width="8"/>
<path d="M96.0305 73.3538H79.4102V89.235H96.0305V73.3538Z" fill="white" stroke="#C9F1E1" stroke-width="8"/>
<path d="M49.1028 73.3538H32.4824V89.235H49.1028V73.3538Z" fill="white" stroke="#C9F1E1" stroke-width="8"/>
<path d="M49.1028 29.447H32.4824V45.3282H49.1028V29.447Z" fill="white"/>
<path d="M96.0305 29.447H79.4102V45.3282H96.0305V29.447Z" fill="white"/>
<path d="M96.0305 73.3538H79.4102V89.235H96.0305V73.3538Z" fill="white"/>
<path d="M49.1028 73.3538H32.4824V89.235H49.1028V73.3538Z" fill="white"/>
<path fill-rule="evenodd" clip-rule="evenodd" d="M108.476 93.0524L112.412 91.3347C116.451 89.5726 116.316 87.0671 112.095 85.7459L85.0959 77.2949C82.988 76.6351 81.925 77.7721 82.7132 79.8318L92.2977 104.879C93.6826 108.498 96.2366 108.628 98.0086 105.186L100.516 100.316L100.653 100.163L114.585 111.479C116.729 113.221 119.904 112.918 121.678 110.805L121.735 110.737C123.509 108.623 123.233 105.467 121.119 103.689L108.476 93.0524Z" fill="white" stroke="#343438" stroke-width="4" stroke-linecap="round" stroke-linejoin="round"/>
</svg>
