<svg width="48" height="48" viewBox="0 0 48 48" fill="none" xmlns="http://www.w3.org/2000/svg">
<path d="M16.456 30.02H12V26H16.522C20.278 26 20.528 30.02 16.456 30.02ZM29.972 24.666H36.008C35.774 21.236 30.548 20.712 29.972 24.666ZM16.364 18H12V22H16.778C20.124 22 20.652 18 16.364 18ZM48 10V38C48 43.522 43.524 48 38 48H10C4.476 48 0 43.522 0 38V10C0 4.478 4.476 0 10 0H38C43.524 0 48 4.478 48 10ZM28 16H38V14H28V16ZM20.896 23.236C24.71 21.288 24.57 14.136 17.27 14.028H8V33.984H16.622C25.666 33.984 25.512 24.916 20.896 23.236ZM39.87 24.44C39.322 20.914 36.814 18.54 32.704 18.54C28.516 18.54 26 21.22 26 26.434C26 31.696 28.734 34 32.832 34C36.93 34 39.044 31.73 39.632 30H35.41C33.938 31.71 29.624 31.042 29.876 27.294H39.996C40.016 26.026 39.972 25.116 39.87 24.44Z" fill="white"/>
</svg>
