<svg width="631" height="962" viewBox="0 0 631 962" fill="none" xmlns="http://www.w3.org/2000/svg">
<path d="M588 280C476.991 280 387 369.991 387 481C387 592.009 476.991 682 588 682" stroke="url(#paint0_linear_310_1864)" stroke-width="2"/>
<path d="M588 161C411.269 161 268 304.269 268 481C268 657.731 411.269 801 588 801" stroke="url(#paint1_linear_310_1864)" stroke-width="2"/>
<path d="M588 0.999979C322.903 0.999991 108 215.903 108 481C108 746.097 322.903 961 588 961" stroke="url(#paint2_linear_310_1864)" stroke-width="2"/>
<path d="M508.547 544V542.291L510.08 541.969V531.832L508.547 531.5V529.781H514.787C516.057 529.781 517.176 530.081 518.146 530.68C519.117 531.272 519.872 532.096 520.412 533.151C520.959 534.199 521.232 535.403 521.232 536.764V537.028C521.232 538.375 520.962 539.576 520.422 540.631C519.888 541.679 519.139 542.503 518.176 543.102C517.212 543.701 516.096 544 514.826 544H508.547ZM512.932 541.822H514.68C515.467 541.822 516.135 541.617 516.682 541.207C517.235 540.791 517.655 540.221 517.941 539.498C518.228 538.776 518.371 537.952 518.371 537.028V536.754C518.371 535.817 518.228 534.99 517.941 534.274C517.655 533.551 517.235 532.988 516.682 532.584C516.135 532.174 515.467 531.969 514.68 531.969H512.932V541.822ZM527.6 544.205C526.584 544.205 525.699 543.984 524.943 543.541C524.195 543.092 523.612 542.477 523.195 541.696C522.785 540.914 522.58 540.022 522.58 539.02V538.629C522.58 537.581 522.775 536.653 523.166 535.846C523.557 535.032 524.107 534.394 524.816 533.932C525.533 533.463 526.376 533.232 527.346 533.238C528.771 533.238 529.862 533.658 530.617 534.498C531.372 535.332 531.75 536.503 531.75 538.014V539.567H525.539L525.52 539.625C525.572 540.322 525.803 540.895 526.213 541.344C526.623 541.793 527.206 542.018 527.961 542.018C528.482 542.018 528.967 541.953 529.416 541.822C529.872 541.686 530.314 541.487 530.744 541.227L531.516 542.985C531.079 543.336 530.529 543.629 529.865 543.863C529.208 544.091 528.452 544.205 527.6 544.205ZM525.559 537.682H529.084V537.428C529.084 536.79 528.951 536.285 528.684 535.914C528.423 535.537 527.993 535.348 527.395 535.348C526.822 535.348 526.385 535.566 526.086 536.002C525.786 536.432 525.601 536.975 525.529 537.633L525.559 537.682ZM537.6 544.205C536.812 544.205 536.076 544.13 535.393 543.981C534.715 543.831 534.064 543.616 533.439 543.336L533.41 540.348H535.393L535.773 541.871C535.995 541.982 536.236 542.07 536.496 542.135C536.763 542.2 537.066 542.233 537.404 542.233C538.042 542.233 538.492 542.128 538.752 541.92C539.012 541.712 539.143 541.451 539.143 541.139C539.143 540.846 539.003 540.589 538.723 540.367C538.443 540.14 537.893 539.941 537.072 539.772C535.816 539.511 534.891 539.108 534.299 538.561C533.713 538.014 533.42 537.314 533.42 536.461C533.42 535.882 533.566 535.348 533.859 534.86C534.159 534.371 534.611 533.984 535.217 533.697C535.829 533.405 536.61 533.258 537.561 533.258C538.355 533.258 539.081 533.336 539.738 533.492C540.402 533.642 540.959 533.841 541.408 534.088L541.438 536.979H539.465L539.162 535.592C538.785 535.332 538.309 535.201 537.736 535.201C537.242 535.201 536.857 535.306 536.584 535.514C536.317 535.716 536.184 535.973 536.184 536.285C536.184 536.559 536.301 536.806 536.535 537.028C536.776 537.242 537.3 537.441 538.107 537.623C539.416 537.923 540.37 538.323 540.969 538.824C541.568 539.319 541.867 540.016 541.867 540.914C541.867 541.897 541.509 542.692 540.793 543.297C540.083 543.903 539.019 544.205 537.6 544.205ZM543.078 544V542.291L544.455 541.998V535.446L542.932 535.153V533.434H547.307V541.998L548.674 542.291V544H543.078ZM544.357 531.197V528.766H547.307V531.197H544.357ZM554.289 548.268C553.755 548.268 553.156 548.196 552.492 548.053C551.828 547.916 551.242 547.724 550.734 547.477L551.262 545.446C551.717 545.641 552.199 545.794 552.707 545.905C553.221 546.022 553.7 546.08 554.143 546.08C554.904 546.08 555.461 545.869 555.812 545.446C556.171 545.022 556.35 544.433 556.35 543.678V542.985C555.705 543.798 554.852 544.205 553.791 544.205C552.925 544.205 552.186 543.99 551.574 543.561C550.962 543.125 550.49 542.516 550.158 541.735C549.833 540.953 549.67 540.045 549.67 539.01V538.805C549.67 537.692 549.833 536.718 550.158 535.885C550.484 535.052 550.949 534.404 551.555 533.942C552.16 533.473 552.886 533.238 553.732 533.238C554.364 533.238 554.908 533.372 555.363 533.639C555.819 533.899 556.206 534.274 556.525 534.762L556.73 533.434H560.451V535.153L559.211 535.416V543.688C559.211 545.081 558.771 546.191 557.893 547.018C557.02 547.851 555.819 548.268 554.289 548.268ZM554.592 541.988C555.393 541.988 555.979 541.676 556.35 541.051V536.461C555.965 535.791 555.383 535.455 554.602 535.455C553.872 535.455 553.342 535.765 553.01 536.383C552.684 537.002 552.521 537.809 552.521 538.805V539.01C552.521 539.934 552.681 540.664 553 541.197C553.319 541.725 553.85 541.988 554.592 541.988ZM561.223 544V542.291L562.59 541.998V535.446L561.076 535.153V533.434H565.246L565.373 534.947C565.725 534.407 566.158 533.987 566.672 533.688C567.193 533.388 567.785 533.238 568.449 533.238C569.491 533.238 570.308 533.574 570.9 534.244C571.499 534.915 571.799 535.966 571.799 537.399V541.998L573.166 542.291V544H567.717V542.291L568.938 541.998V537.408C568.938 536.699 568.794 536.197 568.508 535.905C568.228 535.605 567.814 535.455 567.268 535.455C566.473 535.455 565.865 535.787 565.441 536.451V541.998L566.594 542.291V544H561.223ZM583.156 544.205C582.173 544.205 581.415 543.935 580.881 543.395C580.354 542.854 580.09 541.998 580.09 540.826V535.436H578.635V533.434H580.09V530.846H582.932V533.434H584.875V535.436H582.932V540.817C582.932 541.227 583.016 541.52 583.186 541.696C583.361 541.871 583.599 541.959 583.898 541.959C584.055 541.959 584.224 541.949 584.406 541.93C584.589 541.904 584.745 541.878 584.875 541.852L585.119 543.912C584.833 543.997 584.517 544.065 584.172 544.117C583.827 544.176 583.488 544.205 583.156 544.205ZM590.998 544.205C589.982 544.205 589.097 543.984 588.342 543.541C587.593 543.092 587.01 542.477 586.594 541.696C586.184 540.914 585.979 540.022 585.979 539.02V538.629C585.979 537.581 586.174 536.653 586.564 535.846C586.955 535.032 587.505 534.394 588.215 533.932C588.931 533.463 589.774 533.232 590.744 533.238C592.17 533.238 593.26 533.658 594.016 534.498C594.771 535.332 595.148 536.503 595.148 538.014V539.567H588.938L588.918 539.625C588.97 540.322 589.201 540.895 589.611 541.344C590.021 541.793 590.604 542.018 591.359 542.018C591.88 542.018 592.365 541.953 592.814 541.822C593.27 541.686 593.713 541.487 594.143 541.227L594.914 542.985C594.478 543.336 593.928 543.629 593.264 543.863C592.606 544.091 591.851 544.205 590.998 544.205ZM588.957 537.682H592.482V537.428C592.482 536.79 592.349 536.285 592.082 535.914C591.822 535.537 591.392 535.348 590.793 535.348C590.22 535.348 589.784 535.566 589.484 536.002C589.185 536.432 588.999 536.975 588.928 537.633L588.957 537.682ZM600.002 544.205C598.954 544.205 598.12 543.925 597.502 543.365C596.883 542.799 596.574 542.031 596.574 541.061C596.574 540.071 596.975 539.264 597.775 538.639C598.583 538.014 599.768 537.701 601.33 537.701H602.727V536.92C602.727 536.412 602.577 536.002 602.277 535.69C601.984 535.371 601.542 535.211 600.949 535.211C600.643 535.211 600.367 535.25 600.119 535.328C599.878 535.4 599.66 535.504 599.465 535.641L599.24 537.037H597.189L597.15 534.293C597.704 533.981 598.303 533.727 598.947 533.531C599.592 533.336 600.311 533.238 601.105 533.238C602.486 533.238 603.576 533.561 604.377 534.205C605.178 534.85 605.578 535.765 605.578 536.949V541.305C605.578 541.448 605.578 541.588 605.578 541.725C605.585 541.862 605.598 541.998 605.617 542.135L606.721 542.291V544H603.186C603.114 543.818 603.042 543.623 602.971 543.414C602.899 543.206 602.847 542.998 602.814 542.789C602.476 543.219 602.076 543.564 601.613 543.824C601.158 544.078 600.62 544.205 600.002 544.205ZM600.764 542.096C601.161 542.096 601.535 542.008 601.887 541.832C602.245 541.65 602.525 541.412 602.727 541.119V539.449H601.32C600.695 539.449 600.22 539.593 599.895 539.879C599.576 540.166 599.416 540.511 599.416 540.914C599.416 541.292 599.533 541.585 599.768 541.793C600.008 541.995 600.34 542.096 600.764 542.096ZM607.629 544V542.291L609.006 541.998V535.446L607.482 535.153V533.434H611.652L611.77 534.83C612.108 534.322 612.531 533.932 613.039 533.658C613.553 533.378 614.146 533.238 614.816 533.238C615.493 533.238 616.073 533.388 616.555 533.688C617.036 533.987 617.401 534.44 617.648 535.045C617.974 534.479 618.397 534.036 618.918 533.717C619.439 533.398 620.051 533.238 620.754 533.238C621.796 533.238 622.616 533.593 623.215 534.303C623.82 535.013 624.123 536.093 624.123 537.545V541.998L625.5 542.291V544H620.041V542.291L621.271 541.998V537.535C621.271 536.761 621.141 536.22 620.881 535.914C620.627 535.608 620.256 535.455 619.768 535.455C619.325 535.455 618.951 535.582 618.645 535.836C618.339 536.084 618.117 536.412 617.98 536.822V541.998L619.133 542.291V544H613.986V542.291L615.139 541.998V537.535C615.139 536.774 615.008 536.237 614.748 535.924C614.494 535.612 614.117 535.455 613.615 535.455C612.827 535.455 612.238 535.771 611.848 536.403V541.998L613.078 542.291V544H607.629ZM627.111 544V541.5H629.953V544H627.111Z" fill="#13262F"/>
<circle cx="449.5" cy="632.5" r="16.5" transform="rotate(-90 449.5 632.5)" fill="white" stroke="#FF95C8" stroke-width="2"/>
<path d="M404.516 681V679.797L405.766 679.555V671.086L404.516 670.836V669.625H409.281C410.292 669.625 411.18 669.865 411.945 670.344C412.711 670.823 413.307 671.482 413.734 672.32C414.161 673.159 414.375 674.12 414.375 675.203V675.43C414.375 676.497 414.164 677.453 413.742 678.297C413.326 679.135 412.74 679.797 411.984 680.281C411.229 680.76 410.346 681 409.336 681H404.516ZM407.734 679.484H409.234C409.901 679.484 410.469 679.307 410.938 678.953C411.411 678.594 411.773 678.109 412.023 677.5C412.273 676.885 412.398 676.195 412.398 675.43V675.195C412.398 674.414 412.273 673.719 412.023 673.109C411.773 672.5 411.411 672.021 410.938 671.672C410.469 671.323 409.901 671.148 409.234 671.148H407.734V679.484ZM419.414 681.164C418.612 681.164 417.917 680.987 417.328 680.633C416.74 680.273 416.281 679.779 415.953 679.148C415.63 678.518 415.469 677.797 415.469 676.984V676.656C415.469 675.833 415.628 675.102 415.945 674.461C416.268 673.815 416.708 673.31 417.266 672.945C417.828 672.576 418.471 672.391 419.195 672.391C420.336 672.391 421.203 672.729 421.797 673.406C422.396 674.083 422.695 675.013 422.695 676.195V677.32H417.508L417.492 677.359C417.523 678.026 417.716 678.576 418.07 679.008C418.424 679.435 418.93 679.648 419.586 679.648C420.044 679.648 420.461 679.586 420.836 679.461C421.211 679.336 421.56 679.159 421.883 678.93L422.492 680.164C422.159 680.451 421.734 680.69 421.219 680.883C420.708 681.07 420.107 681.164 419.414 681.164ZM417.539 675.938H420.812V675.734C420.812 675.182 420.682 674.734 420.422 674.391C420.167 674.047 419.766 673.875 419.219 673.875C418.74 673.875 418.352 674.068 418.055 674.453C417.763 674.839 417.583 675.32 417.516 675.898L417.539 675.938ZM426.922 681L424.18 673.891L423.281 673.758V672.547H427.148V673.758L426.172 673.914L427.695 678.156L427.898 678.828H427.945L428.18 678.156L429.719 673.914L428.648 673.758V672.547H432.508V673.758L431.586 673.898L428.836 681H426.922ZM437.023 681.164C436.221 681.164 435.526 680.987 434.938 680.633C434.349 680.273 433.891 679.779 433.562 679.148C433.24 678.518 433.078 677.797 433.078 676.984V676.656C433.078 675.833 433.237 675.102 433.555 674.461C433.878 673.815 434.318 673.31 434.875 672.945C435.438 672.576 436.081 672.391 436.805 672.391C437.945 672.391 438.812 672.729 439.406 673.406C440.005 674.083 440.305 675.013 440.305 676.195V677.32H435.117L435.102 677.359C435.133 678.026 435.326 678.576 435.68 679.008C436.034 679.435 436.539 679.648 437.195 679.648C437.654 679.648 438.07 679.586 438.445 679.461C438.82 679.336 439.169 679.159 439.492 678.93L440.102 680.164C439.768 680.451 439.344 680.69 438.828 680.883C438.318 681.07 437.716 681.164 437.023 681.164ZM435.148 675.938H438.422V675.734C438.422 675.182 438.292 674.734 438.031 674.391C437.776 674.047 437.375 673.875 436.828 673.875C436.349 673.875 435.961 674.068 435.664 674.453C435.372 674.839 435.193 675.32 435.125 675.898L435.148 675.938ZM441.312 681V679.797L442.492 679.562V670.258L441.242 670.023V668.812H444.461V679.562L445.633 679.797V681H441.312ZM450.312 681.164C449.5 681.164 448.802 680.982 448.219 680.617C447.635 680.247 447.188 679.74 446.875 679.094C446.562 678.448 446.406 677.703 446.406 676.859V676.695C446.406 675.857 446.562 675.115 446.875 674.469C447.188 673.823 447.635 673.315 448.219 672.945C448.802 672.576 449.495 672.391 450.297 672.391C451.109 672.391 451.807 672.576 452.391 672.945C452.974 673.31 453.422 673.818 453.734 674.469C454.047 675.115 454.203 675.857 454.203 676.695V676.859C454.203 677.708 454.047 678.456 453.734 679.102C453.422 679.747 452.974 680.253 452.391 680.617C451.812 680.982 451.12 681.164 450.312 681.164ZM450.312 679.648C450.964 679.648 451.448 679.391 451.766 678.875C452.083 678.354 452.242 677.682 452.242 676.859V676.695C452.242 675.888 452.081 675.224 451.758 674.703C451.44 674.177 450.953 673.914 450.297 673.914C449.646 673.914 449.161 674.177 448.844 674.703C448.531 675.224 448.375 675.888 448.375 676.695V676.859C448.375 677.682 448.531 678.354 448.844 678.875C449.161 679.391 449.651 679.648 450.312 679.648ZM455.164 684.25V683.039L456.305 682.805V673.992L455.062 673.758V672.547H458.07L458.195 673.547C458.461 673.177 458.779 672.893 459.148 672.695C459.523 672.492 459.966 672.391 460.477 672.391C461.164 672.391 461.753 672.578 462.242 672.953C462.732 673.328 463.104 673.852 463.359 674.523C463.62 675.195 463.75 675.982 463.75 676.883V677.047C463.75 677.87 463.62 678.591 463.359 679.211C463.099 679.826 462.724 680.305 462.234 680.648C461.745 680.992 461.159 681.164 460.477 681.164C459.529 681.164 458.792 680.831 458.266 680.164V682.805L459.469 683.039V684.25H455.164ZM459.883 679.648C460.529 679.648 461.005 679.411 461.312 678.938C461.625 678.458 461.781 677.828 461.781 677.047V676.883C461.781 676.013 461.622 675.307 461.305 674.766C460.992 674.219 460.513 673.945 459.867 673.945C459.503 673.945 459.185 674.029 458.914 674.195C458.643 674.357 458.427 674.586 458.266 674.883V678.758C458.604 679.352 459.143 679.648 459.883 679.648ZM464.695 681V679.797L465.875 679.562V673.992L464.633 673.758V672.547H467.68L467.773 673.656C468.044 673.255 468.388 672.945 468.805 672.727C469.221 672.503 469.703 672.391 470.25 672.391C470.802 672.391 471.273 672.516 471.664 672.766C472.06 673.01 472.359 673.383 472.562 673.883C472.823 673.419 473.164 673.055 473.586 672.789C474.013 672.523 474.513 672.391 475.086 672.391C475.93 672.391 476.596 672.68 477.086 673.258C477.576 673.836 477.82 674.711 477.82 675.883V679.562L479 679.797V681H474.742V679.797L475.852 679.562V675.867C475.852 675.159 475.732 674.661 475.492 674.375C475.253 674.089 474.901 673.945 474.438 673.945C474.005 673.945 473.648 674.083 473.367 674.359C473.091 674.63 472.911 674.982 472.828 675.414V679.562L473.898 679.797V681H469.797V679.797L470.867 679.562V675.867C470.867 675.185 470.745 674.695 470.5 674.398C470.255 674.096 469.901 673.945 469.438 673.945C469.052 673.945 468.727 674.023 468.461 674.18C468.201 674.336 467.992 674.557 467.836 674.844V679.562L468.945 679.797V681H464.695ZM483.789 681.164C482.987 681.164 482.292 680.987 481.703 680.633C481.115 680.273 480.656 679.779 480.328 679.148C480.005 678.518 479.844 677.797 479.844 676.984V676.656C479.844 675.833 480.003 675.102 480.32 674.461C480.643 673.815 481.083 673.31 481.641 672.945C482.203 672.576 482.846 672.391 483.57 672.391C484.711 672.391 485.578 672.729 486.172 673.406C486.771 674.083 487.07 675.013 487.07 676.195V677.32H481.883L481.867 677.359C481.898 678.026 482.091 678.576 482.445 679.008C482.799 679.435 483.305 679.648 483.961 679.648C484.419 679.648 484.836 679.586 485.211 679.461C485.586 679.336 485.935 679.159 486.258 678.93L486.867 680.164C486.534 680.451 486.109 680.69 485.594 680.883C485.083 681.07 484.482 681.164 483.789 681.164ZM481.914 675.938H485.188V675.734C485.188 675.182 485.057 674.734 484.797 674.391C484.542 674.047 484.141 673.875 483.594 673.875C483.115 673.875 482.727 674.068 482.43 674.453C482.138 674.839 481.958 675.32 481.891 675.898L481.914 675.938ZM488.133 681V679.797L489.305 679.562V673.992L488.07 673.758V672.547H491.117L491.219 673.773C491.5 673.336 491.849 672.997 492.266 672.758C492.688 672.513 493.164 672.391 493.695 672.391C494.565 672.391 495.242 672.659 495.727 673.195C496.211 673.732 496.453 674.565 496.453 675.695V679.562L497.625 679.797V681H493.383V679.797L494.484 679.562V675.711C494.484 675.07 494.357 674.617 494.102 674.352C493.846 674.081 493.466 673.945 492.961 673.945C492.586 673.945 492.255 674.031 491.969 674.203C491.682 674.37 491.451 674.604 491.273 674.906V679.562L492.344 679.797V681H488.133ZM501.398 681.148C500.68 681.148 500.12 680.948 499.719 680.547C499.318 680.141 499.117 679.495 499.117 678.609V673.953H497.883V672.547H499.117V670.492H501.078V672.547H502.75V673.953H501.078V678.609C501.078 678.969 501.151 679.229 501.297 679.391C501.448 679.552 501.651 679.633 501.906 679.633C502.052 679.633 502.214 679.622 502.391 679.602C502.573 679.576 502.721 679.549 502.836 679.523L503.031 680.906C502.807 680.974 502.547 681.031 502.25 681.078C501.953 681.125 501.669 681.148 501.398 681.148ZM504.484 681V679.18H506.445V681H504.484Z" fill="#6C7E86"/>
<path d="M465 633H448" stroke="#FF95C8" stroke-width="2" stroke-linecap="round"/>
<path d="M465 629H455" stroke="#FF95C8" stroke-width="2" stroke-linecap="round"/>
<circle cx="455.5" cy="330.5" r="16.5" transform="rotate(-90 455.5 330.5)" fill="white" stroke="#FF95C8" stroke-width="2"/>
<circle cx="463.5" cy="334.5" r="3.5" transform="rotate(-90 463.5 334.5)" fill="#FEBCDB"/>
<circle cx="463" cy="326" r="2" transform="rotate(-90 463 326)" fill="#FEBCDB"/>
<path d="M409.414 379V377.797L410.242 377.68L414.008 367.625H415.922L419.641 377.68L420.469 377.797V379H416.852V377.797L417.664 377.649L417.062 375.86H412.828L412.211 377.649L413.031 377.797V379H409.414ZM413.344 374.344H416.555L415.078 370.141L414.977 369.836H414.93L414.82 370.156L413.344 374.344ZM424.547 379.164C423.865 379.164 423.281 378.992 422.797 378.649C422.312 378.305 421.94 377.826 421.68 377.211C421.424 376.591 421.297 375.87 421.297 375.047V374.883C421.297 373.987 421.424 373.203 421.68 372.531C421.94 371.854 422.312 371.328 422.797 370.953C423.281 370.578 423.862 370.391 424.539 370.391C425.023 370.391 425.445 370.485 425.805 370.672C426.169 370.854 426.482 371.117 426.742 371.461V368.258L425.5 368.024V366.813H428.711V377.563L429.883 377.797V379H427.008L426.852 377.977C426.305 378.768 425.536 379.164 424.547 379.164ZM425.102 377.61C425.477 377.61 425.799 377.526 426.07 377.36C426.341 377.193 426.565 376.956 426.742 376.649V372.922C426.57 372.615 426.346 372.375 426.07 372.203C425.799 372.031 425.482 371.946 425.117 371.946C424.477 371.946 424.008 372.216 423.711 372.758C423.414 373.3 423.266 374.008 423.266 374.883V375.047C423.266 375.828 423.409 376.451 423.695 376.914C423.987 377.378 424.456 377.61 425.102 377.61ZM434.047 379L431.305 371.891L430.406 371.758V370.547H434.273V371.758L433.297 371.914L434.82 376.156L435.023 376.828H435.07L435.305 376.156L436.844 371.914L435.773 371.758V370.547H439.633V371.758L438.711 371.899L435.961 379H434.047ZM444.148 379.164C443.346 379.164 442.651 378.987 442.062 378.633C441.474 378.274 441.016 377.779 440.688 377.149C440.365 376.518 440.203 375.797 440.203 374.985V374.656C440.203 373.834 440.362 373.102 440.68 372.461C441.003 371.815 441.443 371.31 442 370.946C442.562 370.576 443.206 370.391 443.93 370.391C445.07 370.391 445.938 370.729 446.531 371.406C447.13 372.084 447.43 373.013 447.43 374.196V375.321H442.242L442.227 375.36C442.258 376.026 442.451 376.576 442.805 377.008C443.159 377.435 443.664 377.649 444.32 377.649C444.779 377.649 445.195 377.586 445.57 377.461C445.945 377.336 446.294 377.159 446.617 376.93L447.227 378.164C446.893 378.451 446.469 378.69 445.953 378.883C445.443 379.071 444.841 379.164 444.148 379.164ZM442.273 373.938H445.547V373.735C445.547 373.183 445.417 372.735 445.156 372.391C444.901 372.047 444.5 371.875 443.953 371.875C443.474 371.875 443.086 372.068 442.789 372.453C442.497 372.839 442.318 373.321 442.25 373.899L442.273 373.938ZM448.641 379V377.797L449.805 377.563V371.992L448.57 371.758V370.547H451.617L451.719 371.61L451.734 371.781C452.188 370.854 452.844 370.391 453.703 370.391C454.026 370.391 454.315 370.433 454.57 370.516L454.344 372.336L453.242 372.274C452.883 372.253 452.586 372.323 452.352 372.485C452.117 372.646 451.924 372.87 451.773 373.156V377.563L452.945 377.797V379H448.641ZM458.773 379.149C458.055 379.149 457.495 378.948 457.094 378.547C456.693 378.141 456.492 377.495 456.492 376.61V371.953H455.258V370.547H456.492V368.492H458.453V370.547H460.125V371.953H458.453V376.61C458.453 376.969 458.526 377.229 458.672 377.391C458.823 377.552 459.026 377.633 459.281 377.633C459.427 377.633 459.589 377.623 459.766 377.602C459.948 377.576 460.096 377.55 460.211 377.524L460.406 378.906C460.182 378.974 459.922 379.031 459.625 379.078C459.328 379.125 459.044 379.149 458.773 379.149ZM461.375 379V377.797L462.547 377.563V371.992L461.305 371.758V370.547H464.516V377.563L465.68 377.797V379H461.375ZM462.469 368.633V366.813H464.516V368.633H462.469ZM470.117 379.164C469.513 379.164 468.948 379.107 468.422 378.992C467.901 378.873 467.378 378.698 466.852 378.469L466.828 376.235H468.242L468.539 377.453C468.768 377.558 469 377.636 469.234 377.688C469.469 377.74 469.732 377.766 470.023 377.766C470.586 377.766 470.982 377.667 471.211 377.469C471.445 377.271 471.562 377.026 471.562 376.735C471.562 376.459 471.44 376.219 471.195 376.016C470.956 375.813 470.495 375.638 469.812 375.492C468.797 375.274 468.052 374.956 467.578 374.539C467.104 374.117 466.867 373.571 466.867 372.899C466.867 372.44 466.99 372.021 467.234 371.641C467.484 371.261 467.849 370.959 468.328 370.735C468.812 370.511 469.406 370.399 470.109 370.399C470.75 370.399 471.318 370.466 471.812 370.602C472.312 370.732 472.737 370.906 473.086 371.125L473.141 373.274H471.734L471.492 372.156C471.154 371.917 470.721 371.797 470.195 371.797C469.763 371.797 469.422 371.893 469.172 372.086C468.922 372.274 468.797 372.511 468.797 372.797C468.797 373.047 468.896 373.263 469.094 373.446C469.292 373.628 469.729 373.794 470.406 373.946C471.505 374.201 472.292 374.534 472.766 374.946C473.24 375.357 473.477 375.901 473.477 376.578C473.477 377.334 473.201 377.953 472.648 378.438C472.096 378.922 471.253 379.164 470.117 379.164ZM474.562 379V377.797L475.734 377.563V371.992L474.492 371.758V370.547H477.703V377.563L478.867 377.797V379H474.562ZM475.656 368.633V366.813H477.703V368.633H475.656ZM479.711 379V377.797L480.883 377.563V371.992L479.648 371.758V370.547H482.695L482.797 371.774C483.078 371.336 483.427 370.998 483.844 370.758C484.266 370.513 484.742 370.391 485.273 370.391C486.143 370.391 486.82 370.659 487.305 371.196C487.789 371.732 488.031 372.565 488.031 373.696V377.563L489.203 377.797V379H484.961V377.797L486.062 377.563V373.711C486.062 373.071 485.935 372.617 485.68 372.352C485.424 372.081 485.044 371.946 484.539 371.946C484.164 371.946 483.833 372.031 483.547 372.203C483.26 372.37 483.029 372.604 482.852 372.906V377.563L483.922 377.797V379H479.711ZM493.719 382.414C493.302 382.414 492.839 382.357 492.328 382.242C491.823 382.133 491.378 381.979 490.992 381.781L491.398 380.336C491.732 380.492 492.099 380.617 492.5 380.711C492.901 380.805 493.281 380.852 493.641 380.852C494.286 380.852 494.758 380.672 495.055 380.313C495.357 379.959 495.508 379.456 495.508 378.805V378.141C494.971 378.823 494.25 379.164 493.344 379.164C492.651 379.164 492.057 378.992 491.562 378.649C491.068 378.305 490.688 377.823 490.422 377.203C490.161 376.584 490.031 375.865 490.031 375.047V374.883C490.031 373.987 490.161 373.203 490.422 372.531C490.688 371.854 491.065 371.328 491.555 370.953C492.044 370.578 492.633 370.391 493.32 370.391C493.836 370.391 494.284 370.498 494.664 370.711C495.044 370.919 495.367 371.219 495.633 371.61L495.781 370.547H498.492V371.758L497.477 371.977V378.813C497.477 379.917 497.146 380.792 496.484 381.438C495.823 382.089 494.901 382.414 493.719 382.414ZM493.875 377.61C494.609 377.61 495.154 377.294 495.508 376.664V372.899C495.336 372.602 495.115 372.37 494.844 372.203C494.573 372.031 494.253 371.946 493.883 371.946C493.237 371.946 492.76 372.219 492.453 372.766C492.151 373.308 492 374.013 492 374.883V375.047C492 375.828 492.148 376.451 492.445 376.914C492.747 377.378 493.224 377.61 493.875 377.61ZM499.766 379V377.18H501.727V379H499.766Z" fill="#6C7E86"/>
<circle cx="187.5" cy="751.5" r="16.5" transform="rotate(-90 187.5 751.5)" fill="white" stroke="#FF95C8" stroke-width="2"/>
<path d="M139.516 800V798.797L140.758 798.562V790.07L139.516 789.836V788.625H144.508C145.784 788.625 146.779 788.885 147.492 789.406C148.211 789.922 148.57 790.695 148.57 791.727C148.57 792.242 148.422 792.706 148.125 793.117C147.833 793.523 147.422 793.826 146.891 794.023C147.573 794.169 148.096 794.492 148.461 794.992C148.826 795.492 149.008 796.07 149.008 796.727C149.008 797.799 148.656 798.615 147.953 799.172C147.255 799.724 146.281 800 145.031 800H139.516ZM142.727 793.422H144.727C145.31 793.422 145.768 793.281 146.102 793C146.435 792.719 146.602 792.326 146.602 791.82C146.602 790.706 145.904 790.148 144.508 790.148H142.727V793.422ZM142.727 798.484H145.031C145.677 798.484 146.172 798.336 146.516 798.039C146.865 797.737 147.039 797.302 147.039 796.734C147.039 796.13 146.891 795.664 146.594 795.336C146.302 795.003 145.846 794.836 145.227 794.836H142.727V798.484ZM153.609 800.164C152.703 800.164 151.995 799.878 151.484 799.305C150.979 798.727 150.727 797.831 150.727 796.617V792.992L149.773 792.758V791.547H152.695V796.633C152.695 797.362 152.81 797.875 153.039 798.172C153.273 798.464 153.633 798.609 154.117 798.609C154.961 798.609 155.562 798.284 155.922 797.633V792.992L154.859 792.758V791.547H157.891V798.562L158.891 798.797V800H156.148L156.016 798.852C155.75 799.273 155.411 799.599 155 799.828C154.594 800.052 154.13 800.164 153.609 800.164ZM163.367 800.164C162.763 800.164 162.198 800.107 161.672 799.992C161.151 799.872 160.628 799.698 160.102 799.469L160.078 797.234H161.492L161.789 798.453C162.018 798.557 162.25 798.635 162.484 798.688C162.719 798.74 162.982 798.766 163.273 798.766C163.836 798.766 164.232 798.667 164.461 798.469C164.695 798.271 164.812 798.026 164.812 797.734C164.812 797.458 164.69 797.219 164.445 797.016C164.206 796.812 163.745 796.638 163.062 796.492C162.047 796.273 161.302 795.956 160.828 795.539C160.354 795.117 160.117 794.57 160.117 793.898C160.117 793.44 160.24 793.021 160.484 792.641C160.734 792.26 161.099 791.958 161.578 791.734C162.062 791.51 162.656 791.398 163.359 791.398C164 791.398 164.568 791.466 165.062 791.602C165.562 791.732 165.987 791.906 166.336 792.125L166.391 794.273H164.984L164.742 793.156C164.404 792.917 163.971 792.797 163.445 792.797C163.013 792.797 162.672 792.893 162.422 793.086C162.172 793.273 162.047 793.51 162.047 793.797C162.047 794.047 162.146 794.263 162.344 794.445C162.542 794.628 162.979 794.794 163.656 794.945C164.755 795.201 165.542 795.534 166.016 795.945C166.49 796.357 166.727 796.901 166.727 797.578C166.727 798.333 166.451 798.953 165.898 799.438C165.346 799.922 164.503 800.164 163.367 800.164ZM167.812 800V798.797L168.984 798.562V792.992L167.742 792.758V791.547H170.953V798.562L172.117 798.797V800H167.812ZM168.906 789.633V787.812H170.953V789.633H168.906ZM172.961 800V798.797L174.133 798.562V792.992L172.898 792.758V791.547H175.945L176.047 792.773C176.328 792.336 176.677 791.997 177.094 791.758C177.516 791.513 177.992 791.391 178.523 791.391C179.393 791.391 180.07 791.659 180.555 792.195C181.039 792.732 181.281 793.565 181.281 794.695V798.562L182.453 798.797V800H178.211V798.797L179.312 798.562V794.711C179.312 794.07 179.185 793.617 178.93 793.352C178.674 793.081 178.294 792.945 177.789 792.945C177.414 792.945 177.083 793.031 176.797 793.203C176.51 793.37 176.279 793.604 176.102 793.906V798.562L177.172 798.797V800H172.961ZM187.211 800.164C186.409 800.164 185.714 799.987 185.125 799.633C184.536 799.273 184.078 798.779 183.75 798.148C183.427 797.518 183.266 796.797 183.266 795.984V795.656C183.266 794.833 183.424 794.102 183.742 793.461C184.065 792.815 184.505 792.31 185.062 791.945C185.625 791.576 186.268 791.391 186.992 791.391C188.133 791.391 189 791.729 189.594 792.406C190.193 793.083 190.492 794.013 190.492 795.195V796.32H185.305L185.289 796.359C185.32 797.026 185.513 797.576 185.867 798.008C186.221 798.435 186.727 798.648 187.383 798.648C187.841 798.648 188.258 798.586 188.633 798.461C189.008 798.336 189.357 798.159 189.68 797.93L190.289 799.164C189.956 799.451 189.531 799.69 189.016 799.883C188.505 800.07 187.904 800.164 187.211 800.164ZM185.336 794.938H188.609V794.734C188.609 794.182 188.479 793.734 188.219 793.391C187.964 793.047 187.562 792.875 187.016 792.875C186.536 792.875 186.148 793.068 185.852 793.453C185.56 793.839 185.38 794.32 185.312 794.898L185.336 794.938ZM195.164 800.164C194.56 800.164 193.995 800.107 193.469 799.992C192.948 799.872 192.424 799.698 191.898 799.469L191.875 797.234H193.289L193.586 798.453C193.815 798.557 194.047 798.635 194.281 798.688C194.516 798.74 194.779 798.766 195.07 798.766C195.633 798.766 196.029 798.667 196.258 798.469C196.492 798.271 196.609 798.026 196.609 797.734C196.609 797.458 196.487 797.219 196.242 797.016C196.003 796.812 195.542 796.638 194.859 796.492C193.844 796.273 193.099 795.956 192.625 795.539C192.151 795.117 191.914 794.57 191.914 793.898C191.914 793.44 192.036 793.021 192.281 792.641C192.531 792.26 192.896 791.958 193.375 791.734C193.859 791.51 194.453 791.398 195.156 791.398C195.797 791.398 196.365 791.466 196.859 791.602C197.359 791.732 197.784 791.906 198.133 792.125L198.188 794.273H196.781L196.539 793.156C196.201 792.917 195.768 792.797 195.242 792.797C194.81 792.797 194.469 792.893 194.219 793.086C193.969 793.273 193.844 793.51 193.844 793.797C193.844 794.047 193.943 794.263 194.141 794.445C194.339 794.628 194.776 794.794 195.453 794.945C196.552 795.201 197.339 795.534 197.812 795.945C198.286 796.357 198.523 796.901 198.523 797.578C198.523 798.333 198.247 798.953 197.695 799.438C197.143 799.922 196.299 800.164 195.164 800.164ZM203.211 800.164C202.607 800.164 202.042 800.107 201.516 799.992C200.995 799.872 200.471 799.698 199.945 799.469L199.922 797.234H201.336L201.633 798.453C201.862 798.557 202.094 798.635 202.328 798.688C202.562 798.74 202.826 798.766 203.117 798.766C203.68 798.766 204.076 798.667 204.305 798.469C204.539 798.271 204.656 798.026 204.656 797.734C204.656 797.458 204.534 797.219 204.289 797.016C204.049 796.812 203.589 796.638 202.906 796.492C201.891 796.273 201.146 795.956 200.672 795.539C200.198 795.117 199.961 794.57 199.961 793.898C199.961 793.44 200.083 793.021 200.328 792.641C200.578 792.26 200.943 791.958 201.422 791.734C201.906 791.51 202.5 791.398 203.203 791.398C203.844 791.398 204.411 791.466 204.906 791.602C205.406 791.732 205.831 791.906 206.18 792.125L206.234 794.273H204.828L204.586 793.156C204.247 792.917 203.815 792.797 203.289 792.797C202.857 792.797 202.516 792.893 202.266 793.086C202.016 793.273 201.891 793.51 201.891 793.797C201.891 794.047 201.99 794.263 202.188 794.445C202.385 794.628 202.823 794.794 203.5 794.945C204.599 795.201 205.385 795.534 205.859 795.945C206.333 796.357 206.57 796.901 206.57 797.578C206.57 798.333 206.294 798.953 205.742 799.438C205.19 799.922 204.346 800.164 203.211 800.164ZM208.25 800V798.18H210.211V800H208.25Z" fill="#6C7E86"/>
<path d="M208.016 751.494H165.016" stroke="#FF95C8" stroke-width="4" stroke-linecap="round"/>
<circle cx="570" cy="481" r="29" transform="rotate(-90 570 481)" stroke="#88B8FF" stroke-width="2"/>
<path d="M597.167 478H573" stroke="#88B8FF" stroke-width="3.33333" stroke-linecap="round"/>
<circle cx="568.753" cy="499.75" r="2.91667" transform="rotate(-90 568.753 499.75)" fill="#88B8FF"/>
<path d="M597.169 483.828H583.836" stroke="#88B8FF" stroke-width="3.33333" stroke-linecap="round"/>
<circle cx="203.5" cy="191.504" r="16.5" transform="rotate(-90 203.5 191.504)" fill="white" stroke="#FF95C8" stroke-width="2"/>
<path d="M139.516 240V238.797L140.758 238.563V230.071L139.516 229.836V228.625H143.969V229.836L142.727 230.071V233.617H147.703V230.071L146.461 229.836V228.625H150.906V229.836L149.664 230.071V238.563L150.906 238.797V240H146.461V238.797L147.703 238.563V235.149H142.727V238.563L143.969 238.797V240H139.516ZM155.609 240.164C154.703 240.164 153.995 239.878 153.484 239.305C152.979 238.727 152.727 237.831 152.727 236.617V232.992L151.773 232.758V231.547H154.695V236.633C154.695 237.362 154.81 237.875 155.039 238.172C155.273 238.464 155.633 238.61 156.117 238.61C156.961 238.61 157.562 238.284 157.922 237.633V232.992L156.859 232.758V231.547H159.891V238.563L160.891 238.797V240H158.148L158.016 238.852C157.75 239.274 157.411 239.599 157 239.828C156.594 240.052 156.13 240.164 155.609 240.164ZM161.773 240V238.797L162.953 238.563V232.992L161.711 232.758V231.547H164.758L164.852 232.656C165.122 232.255 165.466 231.946 165.883 231.727C166.299 231.503 166.781 231.391 167.328 231.391C167.88 231.391 168.352 231.516 168.742 231.766C169.138 232.011 169.438 232.383 169.641 232.883C169.901 232.419 170.242 232.055 170.664 231.789C171.091 231.524 171.591 231.391 172.164 231.391C173.008 231.391 173.674 231.68 174.164 232.258C174.654 232.836 174.898 233.711 174.898 234.883V238.563L176.078 238.797V240H171.82V238.797L172.93 238.563V234.867C172.93 234.159 172.81 233.662 172.57 233.375C172.331 233.089 171.979 232.946 171.516 232.946C171.083 232.946 170.727 233.084 170.445 233.36C170.169 233.63 169.99 233.982 169.906 234.414V238.563L170.977 238.797V240H166.875V238.797L167.945 238.563V234.867C167.945 234.185 167.823 233.696 167.578 233.399C167.333 233.097 166.979 232.946 166.516 232.946C166.13 232.946 165.805 233.024 165.539 233.18C165.279 233.336 165.07 233.557 164.914 233.844V238.563L166.023 238.797V240H161.773ZM179.789 240.164C178.93 240.164 178.26 239.943 177.781 239.5C177.302 239.057 177.062 238.448 177.062 237.672C177.062 236.875 177.385 236.229 178.031 235.735C178.682 235.24 179.615 234.992 180.828 234.992H182.117V234.281C182.117 233.834 181.982 233.477 181.711 233.211C181.445 232.946 181.057 232.813 180.547 232.813C180.255 232.813 179.997 232.849 179.773 232.922C179.549 232.99 179.349 233.089 179.172 233.219L179 234.36H177.547L177.531 232.274C177.943 231.998 178.404 231.781 178.914 231.625C179.43 231.469 180 231.391 180.625 231.391C181.698 231.391 182.542 231.643 183.156 232.149C183.776 232.654 184.086 233.373 184.086 234.305V238.031C184.086 238.146 184.086 238.258 184.086 238.367C184.091 238.472 184.099 238.578 184.109 238.688L184.969 238.797V240H182.398C182.346 239.818 182.297 239.641 182.25 239.469C182.208 239.297 182.177 239.125 182.156 238.953C181.875 239.307 181.534 239.599 181.133 239.828C180.732 240.052 180.284 240.164 179.789 240.164ZM180.234 238.641C180.635 238.641 181.005 238.55 181.344 238.367C181.688 238.18 181.945 237.946 182.117 237.664V236.25H180.805C180.216 236.25 179.771 236.388 179.469 236.664C179.172 236.935 179.023 237.253 179.023 237.617C179.023 238.3 179.427 238.641 180.234 238.641ZM185.898 240V238.797L187.07 238.563V232.992L185.836 232.758V231.547H188.883L188.984 232.774C189.266 232.336 189.615 231.998 190.031 231.758C190.453 231.513 190.93 231.391 191.461 231.391C192.331 231.391 193.008 231.659 193.492 232.196C193.977 232.732 194.219 233.565 194.219 234.696V238.563L195.391 238.797V240H191.148V238.797L192.25 238.563V234.711C192.25 234.071 192.122 233.617 191.867 233.352C191.612 233.081 191.232 232.946 190.727 232.946C190.352 232.946 190.021 233.031 189.734 233.203C189.448 233.37 189.216 233.604 189.039 233.906V238.563L190.109 238.797V240H185.898ZM200.219 240V238.797L201.461 238.563V230.071L200.219 229.836V228.625H205.477C206.758 228.625 207.753 228.917 208.461 229.5C209.169 230.078 209.523 230.886 209.523 231.922C209.523 232.636 209.341 233.253 208.977 233.774C208.617 234.289 208.122 234.672 207.492 234.922L209.133 238.594L210.023 238.781V240H207.617L205.648 235.242L203.43 235.266V238.563L204.672 238.797V240H200.219ZM203.43 233.735H205.391C206.13 233.735 206.677 233.586 207.031 233.289C207.385 232.987 207.562 232.55 207.562 231.977C207.562 231.419 207.388 230.977 207.039 230.649C206.695 230.315 206.174 230.149 205.477 230.149H203.43V233.735ZM215.117 240.164C214.315 240.164 213.62 239.987 213.031 239.633C212.443 239.274 211.984 238.779 211.656 238.149C211.333 237.518 211.172 236.797 211.172 235.985V235.656C211.172 234.834 211.331 234.102 211.648 233.461C211.971 232.815 212.411 232.31 212.969 231.946C213.531 231.576 214.174 231.391 214.898 231.391C216.039 231.391 216.906 231.729 217.5 232.406C218.099 233.084 218.398 234.013 218.398 235.196V236.321H213.211L213.195 236.36C213.227 237.026 213.419 237.576 213.773 238.008C214.128 238.435 214.633 238.649 215.289 238.649C215.747 238.649 216.164 238.586 216.539 238.461C216.914 238.336 217.263 238.159 217.586 237.93L218.195 239.164C217.862 239.451 217.438 239.69 216.922 239.883C216.411 240.071 215.81 240.164 215.117 240.164ZM213.242 234.938H216.516V234.735C216.516 234.182 216.385 233.735 216.125 233.391C215.87 233.047 215.469 232.875 214.922 232.875C214.443 232.875 214.055 233.068 213.758 233.453C213.466 233.839 213.286 234.321 213.219 234.899L213.242 234.938ZM223.07 240.164C222.466 240.164 221.901 240.107 221.375 239.992C220.854 239.873 220.331 239.698 219.805 239.469L219.781 237.235H221.195L221.492 238.453C221.721 238.557 221.953 238.636 222.188 238.688C222.422 238.74 222.685 238.766 222.977 238.766C223.539 238.766 223.935 238.667 224.164 238.469C224.398 238.271 224.516 238.026 224.516 237.735C224.516 237.459 224.393 237.219 224.148 237.016C223.909 236.813 223.448 236.638 222.766 236.492C221.75 236.274 221.005 235.956 220.531 235.539C220.057 235.117 219.82 234.571 219.82 233.899C219.82 233.44 219.943 233.021 220.188 232.641C220.438 232.261 220.802 231.959 221.281 231.735C221.766 231.511 222.359 231.399 223.062 231.399C223.703 231.399 224.271 231.466 224.766 231.602C225.266 231.732 225.69 231.906 226.039 232.125L226.094 234.274H224.688L224.445 233.156C224.107 232.917 223.674 232.797 223.148 232.797C222.716 232.797 222.375 232.893 222.125 233.086C221.875 233.274 221.75 233.511 221.75 233.797C221.75 234.047 221.849 234.263 222.047 234.446C222.245 234.628 222.682 234.794 223.359 234.946C224.458 235.201 225.245 235.534 225.719 235.946C226.193 236.357 226.43 236.901 226.43 237.578C226.43 238.334 226.154 238.953 225.602 239.438C225.049 239.922 224.206 240.164 223.07 240.164ZM231.516 240.164C230.703 240.164 230.005 239.982 229.422 239.617C228.839 239.248 228.391 238.74 228.078 238.094C227.766 237.448 227.609 236.703 227.609 235.86V235.696C227.609 234.857 227.766 234.115 228.078 233.469C228.391 232.823 228.839 232.315 229.422 231.946C230.005 231.576 230.698 231.391 231.5 231.391C232.312 231.391 233.01 231.576 233.594 231.946C234.177 232.31 234.625 232.818 234.938 233.469C235.25 234.115 235.406 234.857 235.406 235.696V235.86C235.406 236.709 235.25 237.456 234.938 238.102C234.625 238.748 234.177 239.253 233.594 239.617C233.016 239.982 232.323 240.164 231.516 240.164ZM231.516 238.649C232.167 238.649 232.651 238.391 232.969 237.875C233.286 237.354 233.445 236.682 233.445 235.86V235.696C233.445 234.888 233.284 234.224 232.961 233.703C232.643 233.177 232.156 232.914 231.5 232.914C230.849 232.914 230.365 233.177 230.047 233.703C229.734 234.224 229.578 234.888 229.578 235.696V235.86C229.578 236.682 229.734 237.354 230.047 237.875C230.365 238.391 230.854 238.649 231.516 238.649ZM240.141 240.164C239.234 240.164 238.526 239.878 238.016 239.305C237.51 238.727 237.258 237.831 237.258 236.617V232.992L236.305 232.758V231.547H239.227V236.633C239.227 237.362 239.341 237.875 239.57 238.172C239.805 238.464 240.164 238.61 240.648 238.61C241.492 238.61 242.094 238.284 242.453 237.633V232.992L241.391 232.758V231.547H244.422V238.563L245.422 238.797V240H242.68L242.547 238.852C242.281 239.274 241.943 239.599 241.531 239.828C241.125 240.052 240.661 240.164 240.141 240.164ZM246.453 240V238.797L247.617 238.563V232.992L246.383 232.758V231.547H249.43L249.531 232.61L249.547 232.781C250 231.854 250.656 231.391 251.516 231.391C251.839 231.391 252.128 231.432 252.383 231.516L252.156 233.336L251.055 233.274C250.695 233.253 250.398 233.323 250.164 233.485C249.93 233.646 249.737 233.87 249.586 234.156V238.563L250.758 238.797V240H246.453ZM256.938 240.164C256.146 240.164 255.458 239.985 254.875 239.625C254.297 239.261 253.849 238.761 253.531 238.125C253.219 237.485 253.062 236.748 253.062 235.914V235.641C253.062 234.823 253.219 234.094 253.531 233.453C253.844 232.813 254.289 232.31 254.867 231.946C255.451 231.576 256.138 231.391 256.93 231.391C257.654 231.391 258.284 231.508 258.82 231.742C259.357 231.972 259.797 232.258 260.141 232.602L260.148 234.86H258.648L258.359 233.367C258.214 233.216 258.029 233.097 257.805 233.008C257.581 232.914 257.336 232.867 257.07 232.867C256.419 232.867 255.917 233.125 255.562 233.641C255.208 234.151 255.031 234.818 255.031 235.641V235.914C255.031 236.81 255.208 237.49 255.562 237.953C255.922 238.417 256.383 238.649 256.945 238.649C257.393 238.649 257.76 238.526 258.047 238.281C258.333 238.037 258.521 237.698 258.609 237.266H260.312L260.336 237.313C260.242 238.141 259.922 238.823 259.375 239.36C258.833 239.896 258.021 240.164 256.938 240.164ZM265.477 240.164C264.674 240.164 263.979 239.987 263.391 239.633C262.802 239.274 262.344 238.779 262.016 238.149C261.693 237.518 261.531 236.797 261.531 235.985V235.656C261.531 234.834 261.69 234.102 262.008 233.461C262.331 232.815 262.771 232.31 263.328 231.946C263.891 231.576 264.534 231.391 265.258 231.391C266.398 231.391 267.266 231.729 267.859 232.406C268.458 233.084 268.758 234.013 268.758 235.196V236.321H263.57L263.555 236.36C263.586 237.026 263.779 237.576 264.133 238.008C264.487 238.435 264.992 238.649 265.648 238.649C266.107 238.649 266.523 238.586 266.898 238.461C267.273 238.336 267.622 238.159 267.945 237.93L268.555 239.164C268.221 239.451 267.797 239.69 267.281 239.883C266.771 240.071 266.169 240.164 265.477 240.164ZM263.602 234.938H266.875V234.735C266.875 234.182 266.745 233.735 266.484 233.391C266.229 233.047 265.828 232.875 265.281 232.875C264.802 232.875 264.414 233.068 264.117 233.453C263.826 233.839 263.646 234.321 263.578 234.899L263.602 234.938ZM273.43 240.164C272.826 240.164 272.26 240.107 271.734 239.992C271.214 239.873 270.69 239.698 270.164 239.469L270.141 237.235H271.555L271.852 238.453C272.081 238.557 272.312 238.636 272.547 238.688C272.781 238.74 273.044 238.766 273.336 238.766C273.898 238.766 274.294 238.667 274.523 238.469C274.758 238.271 274.875 238.026 274.875 237.735C274.875 237.459 274.753 237.219 274.508 237.016C274.268 236.813 273.807 236.638 273.125 236.492C272.109 236.274 271.365 235.956 270.891 235.539C270.417 235.117 270.18 234.571 270.18 233.899C270.18 233.44 270.302 233.021 270.547 232.641C270.797 232.261 271.161 231.959 271.641 231.735C272.125 231.511 272.719 231.399 273.422 231.399C274.062 231.399 274.63 231.466 275.125 231.602C275.625 231.732 276.049 231.906 276.398 232.125L276.453 234.274H275.047L274.805 233.156C274.466 232.917 274.034 232.797 273.508 232.797C273.076 232.797 272.734 232.893 272.484 233.086C272.234 233.274 272.109 233.511 272.109 233.797C272.109 234.047 272.208 234.263 272.406 234.446C272.604 234.628 273.042 234.794 273.719 234.946C274.818 235.201 275.604 235.534 276.078 235.946C276.552 236.357 276.789 236.901 276.789 237.578C276.789 238.334 276.513 238.953 275.961 239.438C275.409 239.922 274.565 240.164 273.43 240.164ZM278.469 240V238.18H280.43V240H278.469Z" fill="#6C7E86"/>
<circle cx="200.5" cy="194.504" r="3.5" transform="rotate(-90 200.5 194.504)" fill="#FEBCDB"/>
<circle cx="209.5" cy="199.504" r="1.5" transform="rotate(-90 209.5 199.504)" fill="#FEBCDB"/>
<circle cx="272.5" cy="469.501" r="16.5" transform="rotate(-90 272.5 469.501)" fill="white" stroke="#FF95C8" stroke-width="2"/>
<path d="M251.414 518V516.797L252.242 516.68L256.008 506.625H257.922L261.641 516.68L262.469 516.797V518H258.852V516.797L259.664 516.648L259.062 514.859H254.828L254.211 516.648L255.031 516.797V518H251.414ZM255.344 513.344H258.555L257.078 509.141L256.977 508.836H256.93L256.82 509.156L255.344 513.344ZM266.984 521.414C266.568 521.414 266.104 521.357 265.594 521.242C265.089 521.133 264.643 520.979 264.258 520.781L264.664 519.336C264.997 519.492 265.365 519.617 265.766 519.711C266.167 519.805 266.547 519.852 266.906 519.852C267.552 519.852 268.023 519.672 268.32 519.312C268.622 518.958 268.773 518.456 268.773 517.805V517.141C268.237 517.823 267.516 518.164 266.609 518.164C265.917 518.164 265.323 517.992 264.828 517.648C264.333 517.305 263.953 516.823 263.688 516.203C263.427 515.583 263.297 514.865 263.297 514.047V513.883C263.297 512.987 263.427 512.203 263.688 511.531C263.953 510.854 264.331 510.328 264.82 509.953C265.31 509.578 265.898 509.391 266.586 509.391C267.102 509.391 267.549 509.497 267.93 509.711C268.31 509.919 268.633 510.219 268.898 510.609L269.047 509.547H271.758V510.758L270.742 510.977V517.812C270.742 518.917 270.411 519.792 269.75 520.438C269.089 521.089 268.167 521.414 266.984 521.414ZM267.141 516.609C267.875 516.609 268.419 516.294 268.773 515.664V511.898C268.602 511.602 268.38 511.37 268.109 511.203C267.839 511.031 267.518 510.945 267.148 510.945C266.503 510.945 266.026 511.219 265.719 511.766C265.417 512.307 265.266 513.013 265.266 513.883V514.047C265.266 514.828 265.414 515.451 265.711 515.914C266.013 516.378 266.49 516.609 267.141 516.609ZM272.438 518V516.797L273.609 516.562V510.992L272.367 510.758V509.547H275.578V516.562L276.742 516.797V518H272.438ZM273.531 507.633V505.812H275.578V507.633H273.531ZM277.531 518V516.797L278.711 516.562V507.258L277.461 507.023V505.812H280.68V516.562L281.852 516.797V518H277.531ZM286.555 518.164C285.753 518.164 285.057 517.987 284.469 517.633C283.88 517.273 283.422 516.779 283.094 516.148C282.771 515.518 282.609 514.797 282.609 513.984V513.656C282.609 512.833 282.768 512.102 283.086 511.461C283.409 510.815 283.849 510.31 284.406 509.945C284.969 509.576 285.612 509.391 286.336 509.391C287.477 509.391 288.344 509.729 288.938 510.406C289.536 511.083 289.836 512.013 289.836 513.195V514.32H284.648L284.633 514.359C284.664 515.026 284.857 515.576 285.211 516.008C285.565 516.435 286.07 516.648 286.727 516.648C287.185 516.648 287.602 516.586 287.977 516.461C288.352 516.336 288.701 516.159 289.023 515.93L289.633 517.164C289.299 517.451 288.875 517.69 288.359 517.883C287.849 518.07 287.247 518.164 286.555 518.164ZM284.68 512.938H287.953V512.734C287.953 512.182 287.823 511.734 287.562 511.391C287.307 511.047 286.906 510.875 286.359 510.875C285.88 510.875 285.492 511.068 285.195 511.453C284.904 511.839 284.724 512.32 284.656 512.898L284.68 512.938ZM291.484 518V516.18H293.445V518H291.484Z" fill="#6C7E86"/>
<circle cx="264.5" cy="472.501" r="3.5" transform="rotate(-90 264.5 472.501)" fill="#FEBCDB"/>
<circle cx="264" cy="464.001" r="2" transform="rotate(-90 264 464.001)" fill="#FEBCDB"/>
<circle cx="393" cy="867" r="5" transform="rotate(-90 393 867)" fill="#DBE0E7"/>
<circle cx="162" cy="453" r="2" transform="rotate(-90 162 453)" fill="#DBE0E7"/>
<circle cx="364" cy="642" r="2" transform="rotate(-90 364 642)" fill="#DBE0E7"/>
<circle cx="174" cy="230" r="2" fill="#DBE0E7"/>
<circle cx="301" cy="165" r="2" transform="rotate(-90 301 165)" fill="#DBE0E7"/>
<circle cx="228" cy="60.0002" r="2" transform="rotate(-90 228 60.0002)" fill="#DBE0E7"/>
<circle cx="243" cy="652" r="2" transform="rotate(-90 243 652)" fill="#DBE0E7"/>
<circle cx="561" cy="67.0002" r="5" transform="rotate(-90 561 67.0002)" fill="#DBE0E7"/>
<circle cx="103" cy="23.0001" r="5" transform="rotate(-90 103 23.0001)" fill="#DBE0E7"/>
<path d="M8.62524 658.933L2.10629 656.095C1.30513 655.746 1.30513 654.61 2.10629 654.261L8.61803 651.427C8.8625 651.32 9.05434 651.12 9.15095 650.872L11.8753 643.864C12.1739 643.096 13.2212 642.999 13.6564 643.698L18.1999 651.003C18.3043 651.171 18.4561 651.304 18.6361 651.385L24.9915 654.267C25.7742 654.622 25.7742 655.734 24.9915 656.089L18.6273 658.975C18.4528 659.054 18.3047 659.181 18.2006 659.342L13.6453 666.384C13.2055 667.064 12.1821 666.966 11.8786 666.216L9.1532 659.475C9.05501 659.232 8.86544 659.037 8.62524 658.933Z" fill="#DBE0E7" fill-opacity="0.5"/>
<path d="M494.625 878.933L488.106 876.095C487.305 875.746 487.305 874.61 488.106 874.261L494.618 871.427C494.862 871.32 495.054 871.12 495.151 870.872L497.875 863.864C498.174 863.096 499.221 862.999 499.656 863.698L504.2 871.003C504.304 871.171 504.456 871.304 504.636 871.385L510.992 874.267C511.774 874.622 511.774 875.734 510.992 876.089L504.627 878.975C504.453 879.054 504.305 879.181 504.201 879.342L499.645 886.384C499.206 887.064 498.182 886.966 497.879 886.216L495.153 879.475C495.055 879.232 494.865 879.037 494.625 878.933Z" fill="#DBE0E7" fill-opacity="0.5"/>
<path d="M230.625 888.933L224.106 886.095C223.305 885.746 223.305 884.61 224.106 884.261L230.618 881.427C230.862 881.32 231.054 881.12 231.151 880.872L233.875 873.864C234.174 873.096 235.221 872.999 235.656 873.698L240.2 881.003C240.304 881.171 240.456 881.304 240.636 881.385L246.992 884.267C247.774 884.622 247.774 885.734 246.992 886.089L240.627 888.975C240.453 889.054 240.305 889.181 240.201 889.342L235.645 896.384C235.206 897.064 234.182 896.966 233.879 896.216L231.153 889.475C231.055 889.232 230.865 889.037 230.625 888.933Z" fill="#DBE0E7" fill-opacity="0.5"/>
<defs>
<linearGradient id="paint0_linear_310_1864" x1="387" y1="481" x2="588" y2="481" gradientUnits="userSpaceOnUse">
<stop stop-color="#FF95C8"/>
<stop offset="1" stop-color="#FF95C8" stop-opacity="0"/>
</linearGradient>
<linearGradient id="paint1_linear_310_1864" x1="268" y1="481" x2="588" y2="481" gradientUnits="userSpaceOnUse">
<stop stop-color="#88B8FF"/>
<stop offset="1" stop-color="#88B8FF" stop-opacity="0"/>
</linearGradient>
<linearGradient id="paint2_linear_310_1864" x1="108" y1="481" x2="588" y2="481" gradientUnits="userSpaceOnUse">
<stop stop-color="#FF95C8"/>
<stop offset="1" stop-color="#FF95C8" stop-opacity="0"/>
</linearGradient>
</defs>
</svg>
