<svg width="1221" height="99" viewBox="0 0 1221 99" fill="none" xmlns="http://www.w3.org/2000/svg">
<path d="M600 59L33 59" stroke="#55BC91"/>
<path d="M580.5 19.5L565 4" stroke="#FF4773"/>
<path d="M587.5 16.5L579.5 8.5" stroke="#FF4773"/>
<path d="M622 19.5L637.5 4" stroke="#55BC91"/>
<path d="M615 16.5L623 8.5" stroke="#55BC91"/>
<path d="M1195 59H599.5" stroke="#FF4773"/>
<path d="M516.516 93V91.7969L517.766 91.5547V83.0859L516.516 82.8359V81.625H521.281C522.292 81.625 523.18 81.8646 523.945 82.3438C524.711 82.8229 525.307 83.4818 525.734 84.3203C526.161 85.1589 526.375 86.1198 526.375 87.2031V87.4297C526.375 88.4974 526.164 89.4531 525.742 90.2969C525.326 91.1354 524.74 91.7969 523.984 92.2812C523.229 92.7604 522.346 93 521.336 93H516.516ZM519.734 91.4844H521.234C521.901 91.4844 522.469 91.3073 522.938 90.9531C523.411 90.5938 523.773 90.1094 524.023 89.5C524.273 88.8854 524.398 88.1953 524.398 87.4297V87.1953C524.398 86.4141 524.273 85.7188 524.023 85.1094C523.773 84.5 523.411 84.0208 522.938 83.6719C522.469 83.3229 521.901 83.1484 521.234 83.1484H519.734V91.4844ZM530.934 93.1641C530.132 93.1641 529.437 92.987 528.848 92.6328C528.26 92.2734 527.801 91.7786 527.473 91.1484C527.15 90.5182 526.989 89.7969 526.989 88.9844V88.6562C526.989 87.8333 527.148 87.1016 527.465 86.4609C527.788 85.8151 528.228 85.3099 528.786 84.9453C529.348 84.5755 529.991 84.3906 530.715 84.3906C531.856 84.3906 532.723 84.7292 533.317 85.4062C533.916 86.0833 534.215 87.013 534.215 88.1953V89.3203H529.028L529.012 89.3594C529.043 90.026 529.236 90.5755 529.59 91.0078C529.944 91.4349 530.45 91.6484 531.106 91.6484C531.564 91.6484 531.981 91.5859 532.356 91.4609C532.731 91.3359 533.08 91.1589 533.403 90.9297L534.012 92.1641C533.679 92.4505 533.254 92.6901 532.739 92.8828C532.228 93.0703 531.627 93.1641 530.934 93.1641ZM529.059 87.9375H532.333V87.7344C532.333 87.1823 532.202 86.7344 531.942 86.3906C531.687 86.0469 531.286 85.875 530.739 85.875C530.26 85.875 529.872 86.0677 529.575 86.4531C529.283 86.8385 529.103 87.3203 529.036 87.8984L529.059 87.9375ZM538.407 93.1641C537.803 93.1641 537.238 93.1068 536.712 92.9922C536.191 92.8724 535.668 92.6979 535.142 92.4688L535.118 90.2344H536.532L536.829 91.4531C537.058 91.5573 537.29 91.6354 537.524 91.6875C537.759 91.7396 538.022 91.7656 538.313 91.7656C538.876 91.7656 539.272 91.6667 539.501 91.4688C539.735 91.2708 539.853 91.026 539.853 90.7344C539.853 90.4583 539.73 90.2188 539.485 90.0156C539.246 89.8125 538.785 89.638 538.103 89.4922C537.087 89.2734 536.342 88.9557 535.868 88.5391C535.394 88.1172 535.157 87.5703 535.157 86.8984C535.157 86.4401 535.28 86.0208 535.524 85.6406C535.774 85.2604 536.139 84.9583 536.618 84.7344C537.103 84.5104 537.696 84.3984 538.399 84.3984C539.04 84.3984 539.608 84.4661 540.103 84.6016C540.603 84.7318 541.027 84.9062 541.376 85.125L541.431 87.2734H540.024L539.782 86.1562C539.444 85.9167 539.011 85.7969 538.485 85.7969C538.053 85.7969 537.712 85.8932 537.462 86.0859C537.212 86.2734 537.087 86.5104 537.087 86.7969C537.087 87.0469 537.186 87.263 537.384 87.4453C537.582 87.6276 538.019 87.7943 538.696 87.9453C539.795 88.2005 540.582 88.5339 541.056 88.9453C541.53 89.3568 541.767 89.901 541.767 90.5781C541.767 91.3333 541.491 91.9531 540.938 92.4375C540.386 92.9219 539.543 93.1641 538.407 93.1641ZM542.372 93V91.7969L543.544 91.5625V85.9922L542.302 85.7578V84.5469H545.513V91.5625L546.677 91.7969V93H542.372ZM543.466 82.6328V80.8125H545.513V82.6328H543.466ZM550.814 96.4141C550.398 96.4141 549.934 96.3568 549.424 96.2422C548.919 96.1328 548.473 95.9792 548.088 95.7812L548.494 94.3359C548.827 94.4922 549.195 94.6172 549.596 94.7109C549.997 94.8047 550.377 94.8516 550.736 94.8516C551.382 94.8516 551.853 94.6719 552.15 94.3125C552.452 93.9583 552.603 93.4557 552.603 92.8047V92.1406C552.067 92.8229 551.346 93.1641 550.439 93.1641C549.747 93.1641 549.153 92.9922 548.658 92.6484C548.163 92.3047 547.783 91.8229 547.517 91.2031C547.257 90.5833 547.127 89.8646 547.127 89.0469V88.8828C547.127 87.987 547.257 87.2031 547.517 86.5312C547.783 85.8542 548.161 85.3281 548.65 84.9531C549.14 84.5781 549.728 84.3906 550.416 84.3906C550.932 84.3906 551.379 84.4974 551.76 84.7109C552.14 84.9193 552.463 85.2188 552.728 85.6094L552.877 84.5469H555.588V85.7578L554.572 85.9766V92.8125C554.572 93.9167 554.241 94.7917 553.58 95.4375C552.919 96.0885 551.997 96.4141 550.814 96.4141ZM550.971 91.6094C551.705 91.6094 552.249 91.2943 552.603 90.6641V86.8984C552.432 86.6016 552.21 86.3698 551.939 86.2031C551.669 86.0312 551.348 85.9453 550.978 85.9453C550.333 85.9453 549.856 86.2188 549.549 86.7656C549.247 87.3073 549.096 88.013 549.096 88.8828V89.0469C549.096 89.8281 549.244 90.4505 549.541 90.9141C549.843 91.3776 550.32 91.6094 550.971 91.6094ZM555.795 93V91.7969L556.967 91.5625V85.9922L555.733 85.7578V84.5469H558.78L558.881 85.7734C559.162 85.3359 559.511 84.9974 559.928 84.7578C560.35 84.513 560.827 84.3906 561.358 84.3906C562.228 84.3906 562.905 84.6589 563.389 85.1953C563.873 85.7318 564.116 86.5651 564.116 87.6953V91.5625L565.287 91.7969V93H561.045V91.7969L562.147 91.5625V87.7109C562.147 87.0703 562.019 86.6172 561.764 86.3516C561.509 86.0807 561.129 85.9453 560.623 85.9453C560.248 85.9453 559.918 86.0312 559.631 86.2031C559.345 86.3698 559.113 86.6042 558.936 86.9062V91.5625L560.006 91.7969V93H555.795ZM572.351 93.1484C571.632 93.1484 571.072 92.9479 570.671 92.5469C570.27 92.1406 570.07 91.4948 570.07 90.6094V85.9531H568.835V84.5469H570.07V82.4922H572.031V84.5469H573.702V85.9531H572.031V90.6094C572.031 90.9688 572.104 91.2292 572.249 91.3906C572.4 91.5521 572.604 91.6328 572.859 91.6328C573.005 91.6328 573.166 91.6224 573.343 91.6016C573.525 91.5755 573.674 91.5495 573.788 91.5234L573.984 92.9062C573.76 92.974 573.499 93.0312 573.202 93.0781C572.906 93.125 572.622 93.1484 572.351 93.1484ZM578.199 93.1641C577.397 93.1641 576.702 92.987 576.113 92.6328C575.525 92.2734 575.066 91.7786 574.738 91.1484C574.415 90.5182 574.254 89.7969 574.254 88.9844V88.6562C574.254 87.8333 574.413 87.1016 574.73 86.4609C575.053 85.8151 575.493 85.3099 576.051 84.9453C576.613 84.5755 577.256 84.3906 577.98 84.3906C579.121 84.3906 579.988 84.7292 580.582 85.4062C581.181 86.0833 581.48 87.013 581.48 88.1953V89.3203H576.293L576.277 89.3594C576.308 90.026 576.501 90.5755 576.855 91.0078C577.209 91.4349 577.715 91.6484 578.371 91.6484C578.829 91.6484 579.246 91.5859 579.621 91.4609C579.996 91.3359 580.345 91.1589 580.668 90.9297L581.277 92.1641C580.944 92.4505 580.519 92.6901 580.004 92.8828C579.493 93.0703 578.892 93.1641 578.199 93.1641ZM576.324 87.9375H579.597V87.7344C579.597 87.1823 579.467 86.7344 579.207 86.3906C578.952 86.0469 578.551 85.875 578.004 85.875C577.525 85.875 577.137 86.0677 576.84 86.4531C576.548 86.8385 576.368 87.3203 576.301 87.8984L576.324 87.9375ZM584.953 93.1641C584.094 93.1641 583.425 92.9427 582.946 92.5C582.466 92.0573 582.227 91.4479 582.227 90.6719C582.227 89.875 582.55 89.2292 583.196 88.7344C583.847 88.2396 584.779 87.9922 585.993 87.9922H587.282V87.2812C587.282 86.8333 587.146 86.4766 586.875 86.2109C586.61 85.9453 586.222 85.8125 585.711 85.8125C585.42 85.8125 585.162 85.849 584.938 85.9219C584.714 85.9896 584.513 86.0885 584.336 86.2188L584.164 87.3594H582.711L582.696 85.2734C583.107 84.9974 583.568 84.7812 584.078 84.625C584.594 84.4688 585.164 84.3906 585.789 84.3906C586.862 84.3906 587.706 84.6432 588.321 85.1484C588.94 85.6536 589.25 86.3724 589.25 87.3047V91.0312C589.25 91.1458 589.25 91.2578 589.25 91.3672C589.256 91.4714 589.263 91.5781 589.274 91.6875L590.133 91.7969V93H587.563C587.511 92.8177 587.461 92.6406 587.414 92.4688C587.373 92.2969 587.341 92.125 587.321 91.9531C587.039 92.3073 586.698 92.599 586.297 92.8281C585.896 93.0521 585.448 93.1641 584.953 93.1641ZM585.399 91.6406C585.8 91.6406 586.17 91.5495 586.508 91.3672C586.852 91.1797 587.11 90.9453 587.282 90.6641V89.25H585.969C585.381 89.25 584.935 89.388 584.633 89.6641C584.336 89.9349 584.188 90.2526 584.188 90.6172C584.188 91.2995 584.591 91.6406 585.399 91.6406ZM590.583 93V91.7969L591.762 91.5625V85.9922L590.52 85.7578V84.5469H593.567L593.661 85.6562C593.932 85.2552 594.276 84.9453 594.692 84.7266C595.109 84.5026 595.591 84.3906 596.137 84.3906C596.69 84.3906 597.161 84.5156 597.552 84.7656C597.947 85.0104 598.247 85.3828 598.45 85.8828C598.71 85.4193 599.052 85.0547 599.473 84.7891C599.901 84.5234 600.401 84.3906 600.973 84.3906C601.817 84.3906 602.484 84.6797 602.973 85.2578C603.463 85.8359 603.708 86.7109 603.708 87.8828V91.5625L604.887 91.7969V93H600.63V91.7969L601.739 91.5625V87.8672C601.739 87.1589 601.619 86.6615 601.38 86.375C601.14 86.0885 600.789 85.9453 600.325 85.9453C599.893 85.9453 599.536 86.0833 599.255 86.3594C598.979 86.6302 598.799 86.9818 598.716 87.4141V91.5625L599.786 91.7969V93H595.684V91.7969L596.755 91.5625V87.8672C596.755 87.1849 596.632 86.6953 596.387 86.3984C596.143 86.0964 595.789 85.9453 595.325 85.9453C594.94 85.9453 594.614 86.0234 594.348 86.1797C594.088 86.3359 593.88 86.5573 593.723 86.8438V91.5625L594.833 91.7969V93H590.583ZM612.427 93.1641C611.672 93.1641 611.016 93.0286 610.459 92.7578C609.907 92.4818 609.477 92.1016 609.17 91.6172C608.868 91.1328 608.717 90.5729 608.717 89.9375C608.717 89.3333 608.881 88.8073 609.209 88.3594C609.542 87.9115 610.039 87.4557 610.701 86.9922C610.727 86.9766 610.75 86.9609 610.771 86.9453C610.792 86.9297 610.813 86.9167 610.834 86.9062C610.454 86.4115 610.172 85.9635 609.99 85.5625C609.808 85.1615 609.717 84.7526 609.717 84.3359C609.717 83.4453 609.985 82.7448 610.521 82.2344C611.063 81.7188 611.795 81.4609 612.717 81.4609C613.263 81.4609 613.745 81.5755 614.162 81.8047C614.584 82.0339 614.912 82.3411 615.146 82.7266C615.386 83.112 615.506 83.5391 615.506 84.0078C615.506 84.5182 615.373 84.974 615.107 85.375C614.847 85.776 614.477 86.151 613.998 86.5L613.217 87.0547L615.584 89.8594C615.782 89.5365 615.935 89.1823 616.045 88.7969C616.154 88.4115 616.209 88.0052 616.209 87.5781H617.779C617.779 89 617.404 90.1823 616.654 91.125L618.201 92.9609L618.185 93H615.967L615.342 92.2578C614.467 92.862 613.495 93.1641 612.427 93.1641ZM612.287 85.9531L613.131 85.3828C613.422 85.1901 613.62 84.9896 613.724 84.7812C613.829 84.5677 613.881 84.3333 613.881 84.0781C613.881 83.7917 613.771 83.5391 613.552 83.3203C613.339 83.0964 613.058 82.9844 612.709 82.9844C612.334 82.9844 612.045 83.112 611.842 83.3672C611.644 83.6224 611.545 83.9401 611.545 84.3203C611.545 84.7786 611.792 85.3229 612.287 85.9531ZM612.498 91.6484C613.144 91.6484 613.758 91.4609 614.342 91.0859L611.795 88.0859L611.576 88.2344C611.227 88.5312 610.99 88.8177 610.865 89.0938C610.745 89.3646 610.685 89.6224 610.685 89.8672C610.685 90.3828 610.847 90.8099 611.17 91.1484C611.493 91.4818 611.935 91.6484 612.498 91.6484ZM621.811 93V91.7969L623.061 91.5547V83.0859L621.811 82.8359V81.625H626.577C627.587 81.625 628.475 81.8646 629.241 82.3438C630.007 82.8229 630.603 83.4818 631.03 84.3203C631.457 85.1589 631.671 86.1198 631.671 87.2031V87.4297C631.671 88.4974 631.46 89.4531 631.038 90.2969C630.621 91.1354 630.035 91.7969 629.28 92.2812C628.525 92.7604 627.642 93 626.632 93H621.811ZM625.03 91.4844H626.53C627.197 91.4844 627.764 91.3073 628.233 90.9531C628.707 90.5938 629.069 90.1094 629.319 89.5C629.569 88.8854 629.694 88.1953 629.694 87.4297V87.1953C629.694 86.4141 629.569 85.7188 629.319 85.1094C629.069 84.5 628.707 84.0208 628.233 83.6719C627.764 83.3229 627.197 83.1484 626.53 83.1484H625.03V91.4844ZM636.23 93.1641C635.428 93.1641 634.732 92.987 634.144 92.6328C633.555 92.2734 633.097 91.7786 632.769 91.1484C632.446 90.5182 632.284 89.7969 632.284 88.9844V88.6562C632.284 87.8333 632.443 87.1016 632.761 86.4609C633.084 85.8151 633.524 85.3099 634.081 84.9453C634.644 84.5755 635.287 84.3906 636.011 84.3906C637.152 84.3906 638.019 84.7292 638.613 85.4062C639.211 86.0833 639.511 87.013 639.511 88.1953V89.3203H634.323L634.308 89.3594C634.339 90.026 634.532 90.5755 634.886 91.0078C635.24 91.4349 635.745 91.6484 636.402 91.6484C636.86 91.6484 637.277 91.5859 637.652 91.4609C638.027 91.3359 638.376 91.1589 638.698 90.9297L639.308 92.1641C638.974 92.4505 638.55 92.6901 638.034 92.8828C637.524 93.0703 636.922 93.1641 636.23 93.1641ZM634.355 87.9375H637.628V87.7344C637.628 87.1823 637.498 86.7344 637.238 86.3906C636.982 86.0469 636.581 85.875 636.034 85.875C635.555 85.875 635.167 86.0677 634.87 86.4531C634.579 86.8385 634.399 87.3203 634.331 87.8984L634.355 87.9375ZM643.257 93L640.515 85.8906L639.617 85.7578V84.5469H643.484V85.7578L642.507 85.9141L644.031 90.1562L644.234 90.8281H644.281L644.515 90.1562L646.054 85.9141L644.984 85.7578V84.5469H648.843V85.7578L647.922 85.8984L645.172 93H643.257ZM652.879 93.1641C652.077 93.1641 651.382 92.987 650.793 92.6328C650.205 92.2734 649.746 91.7786 649.418 91.1484C649.095 90.5182 648.934 89.7969 648.934 88.9844V88.6562C648.934 87.8333 649.093 87.1016 649.41 86.4609C649.733 85.8151 650.173 85.3099 650.731 84.9453C651.293 84.5755 651.936 84.3906 652.66 84.3906C653.801 84.3906 654.668 84.7292 655.262 85.4062C655.861 86.0833 656.16 87.013 656.16 88.1953V89.3203H650.973L650.957 89.3594C650.988 90.026 651.181 90.5755 651.535 91.0078C651.889 91.4349 652.395 91.6484 653.051 91.6484C653.509 91.6484 653.926 91.5859 654.301 91.4609C654.676 91.3359 655.025 91.1589 655.348 90.9297L655.957 92.1641C655.624 92.4505 655.199 92.6901 654.684 92.8828C654.173 93.0703 653.572 93.1641 652.879 93.1641ZM651.004 87.9375H654.277V87.7344C654.277 87.1823 654.147 86.7344 653.887 86.3906C653.632 86.0469 653.231 85.875 652.684 85.875C652.205 85.875 651.817 86.0677 651.52 86.4531C651.228 86.8385 651.048 87.3203 650.981 87.8984L651.004 87.9375ZM656.688 93V91.7969L657.868 91.5625V82.2578L656.618 82.0234V80.8125H659.837V91.5625L661.008 91.7969V93H656.688ZM665.208 93.1641C664.396 93.1641 663.698 92.9818 663.114 92.6172C662.531 92.2474 662.083 91.7396 661.771 91.0938C661.458 90.4479 661.302 89.7031 661.302 88.8594V88.6953C661.302 87.8568 661.458 87.1146 661.771 86.4688C662.083 85.8229 662.531 85.3151 663.114 84.9453C663.698 84.5755 664.39 84.3906 665.193 84.3906C666.005 84.3906 666.703 84.5755 667.286 84.9453C667.87 85.3099 668.318 85.8177 668.63 86.4688C668.943 87.1146 669.099 87.8568 669.099 88.6953V88.8594C669.099 89.7083 668.943 90.4557 668.63 91.1016C668.318 91.7474 667.87 92.2526 667.286 92.6172C666.708 92.9818 666.015 93.1641 665.208 93.1641ZM665.208 91.6484C665.859 91.6484 666.344 91.3906 666.661 90.875C666.979 90.3542 667.138 89.6823 667.138 88.8594V88.6953C667.138 87.888 666.976 87.224 666.653 86.7031C666.336 86.1771 665.849 85.9141 665.193 85.9141C664.541 85.9141 664.057 86.1771 663.739 86.7031C663.427 87.224 663.271 87.888 663.271 88.6953V88.8594C663.271 89.6823 663.427 90.3542 663.739 90.875C664.057 91.3906 664.547 91.6484 665.208 91.6484ZM669.58 96.25V95.0391L670.72 94.8047V85.9922L669.478 85.7578V84.5469H672.486L672.611 85.5469C672.877 85.1771 673.194 84.8932 673.564 84.6953C673.939 84.4922 674.382 84.3906 674.892 84.3906C675.58 84.3906 676.168 84.5781 676.658 84.9531C677.147 85.3281 677.52 85.8516 677.775 86.5234C678.035 87.1953 678.166 87.9818 678.166 88.8828V89.0469C678.166 89.8698 678.035 90.5911 677.775 91.2109C677.515 91.8255 677.14 92.3047 676.65 92.6484C676.16 92.9922 675.574 93.1641 674.892 93.1641C673.944 93.1641 673.207 92.8307 672.681 92.1641V94.8047L673.884 95.0391V96.25H669.58ZM674.298 91.6484C674.944 91.6484 675.421 91.4115 675.728 90.9375C676.041 90.4583 676.197 89.8281 676.197 89.0469V88.8828C676.197 88.013 676.038 87.3073 675.72 86.7656C675.408 86.2188 674.929 85.9453 674.283 85.9453C673.918 85.9453 673.601 86.0286 673.33 86.1953C673.059 86.3568 672.843 86.5859 672.681 86.8828V90.7578C673.02 91.3516 673.559 91.6484 674.298 91.6484ZM682.943 93.1641C682.141 93.1641 681.446 92.987 680.857 92.6328C680.269 92.2734 679.811 91.7786 679.482 91.1484C679.16 90.5182 678.998 89.7969 678.998 88.9844V88.6562C678.998 87.8333 679.157 87.1016 679.475 86.4609C679.798 85.8151 680.238 85.3099 680.795 84.9453C681.357 84.5755 682.001 84.3906 682.725 84.3906C683.865 84.3906 684.732 84.7292 685.326 85.4062C685.925 86.0833 686.225 87.013 686.225 88.1953V89.3203H681.037L681.022 89.3594C681.053 90.026 681.246 90.5755 681.6 91.0078C681.954 91.4349 682.459 91.6484 683.115 91.6484C683.574 91.6484 683.99 91.5859 684.365 91.4609C684.74 91.3359 685.089 91.1589 685.412 90.9297L686.022 92.1641C685.688 92.4505 685.264 92.6901 684.748 92.8828C684.238 93.0703 683.636 93.1641 682.943 93.1641ZM681.068 87.9375H684.342V87.7344C684.342 87.1823 684.212 86.7344 683.951 86.3906C683.696 86.0469 683.295 85.875 682.748 85.875C682.269 85.875 681.881 86.0677 681.584 86.4531C681.292 86.8385 681.113 87.3203 681.045 87.8984L681.068 87.9375ZM686.956 93V91.7969L688.12 91.5625V85.9922L686.885 85.7578V84.5469H689.932L690.034 85.6094L690.049 85.7812C690.503 84.8542 691.159 84.3906 692.018 84.3906C692.341 84.3906 692.63 84.4323 692.885 84.5156L692.659 86.3359L691.557 86.2734C691.198 86.2526 690.901 86.3229 690.667 86.4844C690.432 86.6458 690.239 86.8698 690.088 87.1562V91.5625L691.26 91.7969V93H686.956ZM696.749 93.1641C696.145 93.1641 695.58 93.1068 695.054 92.9922C694.533 92.8724 694.009 92.6979 693.483 92.4688L693.46 90.2344H694.874L695.171 91.4531C695.4 91.5573 695.632 91.6354 695.866 91.6875C696.101 91.7396 696.364 91.7656 696.655 91.7656C697.218 91.7656 697.614 91.6667 697.843 91.4688C698.077 91.2708 698.194 91.026 698.194 90.7344C698.194 90.4583 698.072 90.2188 697.827 90.0156C697.588 89.8125 697.127 89.638 696.444 89.4922C695.429 89.2734 694.684 88.9557 694.21 88.5391C693.736 88.1172 693.499 87.5703 693.499 86.8984C693.499 86.4401 693.621 86.0208 693.866 85.6406C694.116 85.2604 694.481 84.9583 694.96 84.7344C695.444 84.5104 696.038 84.3984 696.741 84.3984C697.382 84.3984 697.95 84.4661 698.444 84.6016C698.944 84.7318 699.369 84.9062 699.718 85.125L699.773 87.2734H698.366L698.124 86.1562C697.786 85.9167 697.353 85.7969 696.827 85.7969C696.395 85.7969 696.054 85.8932 695.804 86.0859C695.554 86.2734 695.429 86.5104 695.429 86.7969C695.429 87.0469 695.528 87.263 695.726 87.4453C695.924 87.6276 696.361 87.7943 697.038 87.9453C698.137 88.2005 698.924 88.5339 699.398 88.9453C699.871 89.3568 700.108 89.901 700.108 90.5781C700.108 91.3333 699.832 91.9531 699.28 92.4375C698.728 92.9219 697.884 93.1641 696.749 93.1641ZM701.308 93V91.1797H703.269V93H701.308Z" fill="white"/>
<path opacity="0.5" d="M0.451172 17V15.9473L1.53809 15.7422V8.31152L0.451172 8.10645V7.04688H4.34082V8.10645L3.26074 8.31152V15.7422L4.34082 15.9473V17H0.451172ZM4.79582 17V15.9473L5.82121 15.7422V10.8682L4.74113 10.6631V9.60352H7.40715L7.49602 10.6768C7.74211 10.2939 8.04745 9.99772 8.41203 9.78809C8.78117 9.57389 9.19816 9.4668 9.66301 9.4668C10.4241 9.4668 11.0165 9.7015 11.4404 10.1709C11.8642 10.6403 12.0761 11.3695 12.0761 12.3584V15.7422L13.1015 15.9473V17H9.38957V15.9473L10.3534 15.7422V12.3721C10.3534 11.8115 10.2418 11.415 10.0185 11.1826C9.79517 10.9456 9.46249 10.8271 9.02043 10.8271C8.6923 10.8271 8.40292 10.9023 8.15227 11.0527C7.90161 11.1986 7.69882 11.4036 7.54387 11.668V15.7422L8.48039 15.9473V17H4.79582ZM13.3446 19.8438V18.7842L14.3426 18.5791V10.8682L13.2557 10.6631V9.60352H15.8875L15.9969 10.4785C16.2293 10.1549 16.5073 9.90658 16.8309 9.7334C17.159 9.55566 17.5464 9.4668 17.993 9.4668C18.5946 9.4668 19.1095 9.63086 19.5379 9.95898C19.9663 10.2871 20.2922 10.7451 20.5155 11.333C20.7433 11.9209 20.8573 12.609 20.8573 13.3975V13.541C20.8573 14.2611 20.7433 14.8923 20.5155 15.4346C20.2876 15.9723 19.9595 16.3916 19.5311 16.6924C19.1027 16.9932 18.59 17.1436 17.993 17.1436C17.1636 17.1436 16.5187 16.8519 16.0584 16.2686V18.5791L17.1112 18.7842V19.8438H13.3446ZM17.4735 15.8174C18.0386 15.8174 18.4556 15.61 18.7245 15.1953C18.9979 14.776 19.1346 14.2246 19.1346 13.541V13.3975C19.1346 12.6364 18.9956 12.0189 18.7176 11.5449C18.4442 11.0664 18.0249 10.8271 17.4598 10.8271C17.1408 10.8271 16.8628 10.9001 16.6258 11.0459C16.3888 11.1872 16.1997 11.3877 16.0584 11.6475V15.0381C16.3547 15.5576 16.8263 15.8174 17.4735 15.8174ZM24.5798 17.1436C23.7869 17.1436 23.1671 16.8929 22.7205 16.3916C22.2784 15.8857 22.0574 15.1019 22.0574 14.04V10.8682L21.2234 10.6631V9.60352H23.78V14.0537C23.78 14.6917 23.8803 15.1406 24.0808 15.4004C24.2859 15.6556 24.6004 15.7832 25.0242 15.7832C25.7625 15.7832 26.2888 15.4984 26.6033 14.9287V10.8682L25.6736 10.6631V9.60352H28.3259V15.7422L29.2009 15.9473V17H26.8015L26.6853 15.9951C26.4529 16.3643 26.1567 16.6491 25.7966 16.8496C25.4412 17.0456 25.0356 17.1436 24.5798 17.1436ZM32.3835 17.1299C31.7546 17.1299 31.2647 16.9544 30.9137 16.6035C30.5628 16.248 30.3874 15.6829 30.3874 14.9082V10.834H29.3073V9.60352H30.3874V7.80566H32.1032V9.60352H33.5661V10.834H32.1032V14.9082C32.1032 15.2227 32.167 15.4505 32.2946 15.5918C32.4268 15.7331 32.6045 15.8037 32.8278 15.8037C32.9554 15.8037 33.0967 15.7946 33.2516 15.7764C33.4111 15.7536 33.541 15.7308 33.6413 15.708L33.8122 16.918C33.6162 16.9772 33.3884 17.0273 33.1286 17.0684C32.8688 17.1094 32.6205 17.1299 32.3835 17.1299ZM34.6637 17V15.4072H36.3795V17H34.6637Z" fill="white"/>
<path opacity="0.5" d="M1178.81 17.1436C1177.93 17.1436 1177.16 16.9271 1176.51 16.4941C1175.86 16.0612 1175.35 15.4665 1174.99 14.71C1174.64 13.9489 1174.46 13.0785 1174.46 12.0986V11.9482C1174.46 10.973 1174.64 10.1071 1174.99 9.35059C1175.35 8.58952 1175.85 7.99251 1176.5 7.55957C1177.15 7.12207 1177.92 6.90332 1178.8 6.90332C1179.7 6.90332 1180.48 7.12207 1181.13 7.55957C1181.79 7.99251 1182.29 8.58952 1182.64 9.35059C1182.99 10.1071 1183.17 10.973 1183.17 11.9482V12.0986C1183.17 13.0785 1182.99 13.9489 1182.64 14.71C1182.29 15.4665 1181.79 16.0612 1181.14 16.4941C1180.49 16.9271 1179.71 17.1436 1178.81 17.1436ZM1178.81 15.7764C1179.41 15.7764 1179.9 15.6237 1180.29 15.3184C1180.68 15.0085 1180.97 14.5778 1181.16 14.0264C1181.35 13.4749 1181.44 12.8324 1181.44 12.0986V11.9346C1181.44 11.2145 1181.35 10.5811 1181.16 10.0342C1180.97 9.48275 1180.67 9.05208 1180.28 8.74219C1179.89 8.43229 1179.4 8.27734 1178.8 8.27734C1178.22 8.27734 1177.74 8.43229 1177.36 8.74219C1176.97 9.04753 1176.68 9.47591 1176.48 10.0273C1176.29 10.5742 1176.19 11.21 1176.19 11.9346V12.0986C1176.19 12.8278 1176.29 13.4704 1176.48 14.0264C1176.68 14.5778 1176.97 15.0085 1177.36 15.3184C1177.75 15.6237 1178.23 15.7764 1178.81 15.7764ZM1186.84 17.1436C1186.05 17.1436 1185.43 16.8929 1184.98 16.3916C1184.54 15.8857 1184.32 15.1019 1184.32 14.04V10.8682L1183.49 10.6631V9.60352H1186.04V14.0537C1186.04 14.6917 1186.14 15.1406 1186.34 15.4004C1186.55 15.6556 1186.86 15.7832 1187.29 15.7832C1188.02 15.7832 1188.55 15.4984 1188.87 14.9287V10.8682L1187.94 10.6631V9.60352H1190.59V15.7422L1191.46 15.9473V17H1189.06L1188.95 15.9951C1188.71 16.3643 1188.42 16.6491 1188.06 16.8496C1187.7 17.0456 1187.3 17.1436 1186.84 17.1436ZM1194.65 17.1299C1194.02 17.1299 1193.53 16.9544 1193.18 16.6035C1192.82 16.248 1192.65 15.6829 1192.65 14.9082V10.834H1191.57V9.60352H1192.65V7.80566H1194.37V9.60352H1195.83V10.834H1194.37V14.9082C1194.37 15.2227 1194.43 15.4505 1194.56 15.5918C1194.69 15.7331 1194.87 15.8037 1195.09 15.8037C1195.22 15.8037 1195.36 15.7946 1195.51 15.7764C1195.67 15.7536 1195.8 15.7308 1195.9 15.708L1196.07 16.918C1195.88 16.9772 1195.65 17.0273 1195.39 17.0684C1195.13 17.1094 1194.88 17.1299 1194.65 17.1299ZM1196.44 19.8438V18.7842L1197.44 18.5791V10.8682L1196.35 10.6631V9.60352H1198.98L1199.09 10.4785C1199.32 10.1549 1199.6 9.90658 1199.93 9.7334C1200.25 9.55566 1200.64 9.4668 1201.09 9.4668C1201.69 9.4668 1202.21 9.63086 1202.63 9.95898C1203.06 10.2871 1203.39 10.7451 1203.61 11.333C1203.84 11.9209 1203.95 12.609 1203.95 13.3975V13.541C1203.95 14.2611 1203.84 14.8923 1203.61 15.4346C1203.38 15.9723 1203.06 16.3916 1202.63 16.6924C1202.2 16.9932 1201.69 17.1436 1201.09 17.1436C1200.26 17.1436 1199.61 16.8519 1199.15 16.2686V18.5791L1200.21 18.7842V19.8438H1196.44ZM1200.57 15.8174C1201.13 15.8174 1201.55 15.61 1201.82 15.1953C1202.09 14.776 1202.23 14.2246 1202.23 13.541V13.3975C1202.23 12.6364 1202.09 12.0189 1201.81 11.5449C1201.54 11.0664 1201.12 10.8271 1200.56 10.8271C1200.24 10.8271 1199.96 10.9001 1199.72 11.0459C1199.48 11.1872 1199.3 11.3877 1199.15 11.6475V15.0381C1199.45 15.5576 1199.92 15.8174 1200.57 15.8174ZM1207.68 17.1436C1206.88 17.1436 1206.26 16.8929 1205.82 16.3916C1205.37 15.8857 1205.15 15.1019 1205.15 14.04V10.8682L1204.32 10.6631V9.60352H1206.88V14.0537C1206.88 14.6917 1206.98 15.1406 1207.18 15.4004C1207.38 15.6556 1207.7 15.7832 1208.12 15.7832C1208.86 15.7832 1209.38 15.4984 1209.7 14.9287V10.8682L1208.77 10.6631V9.60352H1211.42V15.7422L1212.3 15.9473V17H1209.9L1209.78 15.9951C1209.55 16.3643 1209.25 16.6491 1208.89 16.8496C1208.54 17.0456 1208.13 17.1436 1207.68 17.1436ZM1215.48 17.1299C1214.85 17.1299 1214.36 16.9544 1214.01 16.6035C1213.66 16.248 1213.48 15.6829 1213.48 14.9082V10.834H1212.4V9.60352H1213.48V7.80566H1215.2V9.60352H1216.66V10.834H1215.2V14.9082C1215.2 15.2227 1215.26 15.4505 1215.39 15.5918C1215.52 15.7331 1215.7 15.8037 1215.92 15.8037C1216.05 15.8037 1216.19 15.7946 1216.35 15.7764C1216.51 15.7536 1216.64 15.7308 1216.74 15.708L1216.91 16.918C1216.71 16.9772 1216.48 17.0273 1216.22 17.0684C1215.96 17.1094 1215.72 17.1299 1215.48 17.1299ZM1217.76 17V15.4072H1219.48V17H1217.76Z" fill="white"/>
</svg>
