<svg width="1221" height="99" viewBox="0 0 1221 99" fill="none" xmlns="http://www.w3.org/2000/svg">
<path d="M487 59H33" stroke="#55BC91"/>
<path d="M1195 59H741" stroke="#FF4773"/>
<path opacity="0.5" d="M234.516 93V91.7969L235.766 91.5547V83.0859L234.516 82.8359V81.625H239.281C240.292 81.625 241.18 81.8646 241.945 82.3438C242.711 82.8229 243.307 83.4818 243.734 84.3203C244.161 85.1589 244.375 86.1198 244.375 87.2031V87.4297C244.375 88.4974 244.164 89.4531 243.742 90.2969C243.326 91.1354 242.74 91.7969 241.984 92.2812C241.229 92.7604 240.346 93 239.336 93H234.516ZM237.734 91.4844H239.234C239.901 91.4844 240.469 91.3073 240.938 90.9531C241.411 90.5938 241.773 90.1094 242.023 89.5C242.273 88.8854 242.398 88.1953 242.398 87.4297V87.1953C242.398 86.4141 242.273 85.7188 242.023 85.1094C241.773 84.5 241.411 84.0208 240.938 83.6719C240.469 83.3229 239.901 83.1484 239.234 83.1484H237.734V91.4844ZM248.934 93.1641C248.132 93.1641 247.437 92.987 246.848 92.6328C246.26 92.2734 245.801 91.7786 245.473 91.1484C245.15 90.5182 244.989 89.7969 244.989 88.9844V88.6562C244.989 87.8333 245.148 87.1016 245.465 86.4609C245.788 85.8151 246.228 85.3099 246.786 84.9453C247.348 84.5755 247.991 84.3906 248.715 84.3906C249.856 84.3906 250.723 84.7292 251.317 85.4062C251.916 86.0833 252.215 87.013 252.215 88.1953V89.3203H247.028L247.012 89.3594C247.043 90.026 247.236 90.5755 247.59 91.0078C247.944 91.4349 248.45 91.6484 249.106 91.6484C249.564 91.6484 249.981 91.5859 250.356 91.4609C250.731 91.3359 251.08 91.1589 251.403 90.9297L252.012 92.1641C251.679 92.4505 251.254 92.6901 250.739 92.8828C250.228 93.0703 249.627 93.1641 248.934 93.1641ZM247.059 87.9375H250.333V87.7344C250.333 87.1823 250.202 86.7344 249.942 86.3906C249.687 86.0469 249.286 85.875 248.739 85.875C248.26 85.875 247.872 86.0677 247.575 86.4531C247.283 86.8385 247.103 87.3203 247.036 87.8984L247.059 87.9375ZM256.407 93.1641C255.803 93.1641 255.238 93.1068 254.712 92.9922C254.191 92.8724 253.668 92.6979 253.142 92.4688L253.118 90.2344H254.532L254.829 91.4531C255.058 91.5573 255.29 91.6354 255.524 91.6875C255.759 91.7396 256.022 91.7656 256.313 91.7656C256.876 91.7656 257.272 91.6667 257.501 91.4688C257.735 91.2708 257.853 91.026 257.853 90.7344C257.853 90.4583 257.73 90.2188 257.485 90.0156C257.246 89.8125 256.785 89.638 256.103 89.4922C255.087 89.2734 254.342 88.9557 253.868 88.5391C253.394 88.1172 253.157 87.5703 253.157 86.8984C253.157 86.4401 253.28 86.0208 253.524 85.6406C253.774 85.2604 254.139 84.9583 254.618 84.7344C255.103 84.5104 255.696 84.3984 256.399 84.3984C257.04 84.3984 257.608 84.4661 258.103 84.6016C258.603 84.7318 259.027 84.9062 259.376 85.125L259.431 87.2734H258.024L257.782 86.1562C257.444 85.9167 257.011 85.7969 256.485 85.7969C256.053 85.7969 255.712 85.8932 255.462 86.0859C255.212 86.2734 255.087 86.5104 255.087 86.7969C255.087 87.0469 255.186 87.263 255.384 87.4453C255.582 87.6276 256.019 87.7943 256.696 87.9453C257.795 88.2005 258.582 88.5339 259.056 88.9453C259.53 89.3568 259.767 89.901 259.767 90.5781C259.767 91.3333 259.491 91.9531 258.938 92.4375C258.386 92.9219 257.543 93.1641 256.407 93.1641ZM260.372 93V91.7969L261.544 91.5625V85.9922L260.302 85.7578V84.5469H263.513V91.5625L264.677 91.7969V93H260.372ZM261.466 82.6328V80.8125H263.513V82.6328H261.466ZM268.814 96.4141C268.398 96.4141 267.934 96.3568 267.424 96.2422C266.919 96.1328 266.473 95.9792 266.088 95.7812L266.494 94.3359C266.827 94.4922 267.195 94.6172 267.596 94.7109C267.997 94.8047 268.377 94.8516 268.736 94.8516C269.382 94.8516 269.853 94.6719 270.15 94.3125C270.452 93.9583 270.603 93.4557 270.603 92.8047V92.1406C270.067 92.8229 269.346 93.1641 268.439 93.1641C267.747 93.1641 267.153 92.9922 266.658 92.6484C266.163 92.3047 265.783 91.8229 265.517 91.2031C265.257 90.5833 265.127 89.8646 265.127 89.0469V88.8828C265.127 87.987 265.257 87.2031 265.517 86.5312C265.783 85.8542 266.161 85.3281 266.65 84.9531C267.14 84.5781 267.728 84.3906 268.416 84.3906C268.932 84.3906 269.379 84.4974 269.76 84.7109C270.14 84.9193 270.463 85.2188 270.728 85.6094L270.877 84.5469H273.588V85.7578L272.572 85.9766V92.8125C272.572 93.9167 272.241 94.7917 271.58 95.4375C270.919 96.0885 269.997 96.4141 268.814 96.4141ZM268.971 91.6094C269.705 91.6094 270.249 91.2943 270.603 90.6641V86.8984C270.432 86.6016 270.21 86.3698 269.939 86.2031C269.669 86.0312 269.348 85.9453 268.978 85.9453C268.333 85.9453 267.856 86.2188 267.549 86.7656C267.247 87.3073 267.096 88.013 267.096 88.8828V89.0469C267.096 89.8281 267.244 90.4505 267.541 90.9141C267.843 91.3776 268.32 91.6094 268.971 91.6094ZM273.795 93V91.7969L274.967 91.5625V85.9922L273.733 85.7578V84.5469H276.78L276.881 85.7734C277.162 85.3359 277.511 84.9974 277.928 84.7578C278.35 84.513 278.827 84.3906 279.358 84.3906C280.228 84.3906 280.905 84.6589 281.389 85.1953C281.873 85.7318 282.116 86.5651 282.116 87.6953V91.5625L283.287 91.7969V93H279.045V91.7969L280.147 91.5625V87.7109C280.147 87.0703 280.019 86.6172 279.764 86.3516C279.509 86.0807 279.129 85.9453 278.623 85.9453C278.248 85.9453 277.918 86.0312 277.631 86.2031C277.345 86.3698 277.113 86.6042 276.936 86.9062V91.5625L278.006 91.7969V93H273.795ZM290.351 93.1484C289.632 93.1484 289.072 92.9479 288.671 92.5469C288.27 92.1406 288.07 91.4948 288.07 90.6094V85.9531H286.835V84.5469H288.07V82.4922H290.031V84.5469H291.702V85.9531H290.031V90.6094C290.031 90.9688 290.104 91.2292 290.249 91.3906C290.4 91.5521 290.604 91.6328 290.859 91.6328C291.005 91.6328 291.166 91.6224 291.343 91.6016C291.525 91.5755 291.674 91.5495 291.788 91.5234L291.984 92.9062C291.76 92.974 291.499 93.0312 291.202 93.0781C290.906 93.125 290.622 93.1484 290.351 93.1484ZM296.199 93.1641C295.397 93.1641 294.702 92.987 294.113 92.6328C293.525 92.2734 293.066 91.7786 292.738 91.1484C292.415 90.5182 292.254 89.7969 292.254 88.9844V88.6562C292.254 87.8333 292.413 87.1016 292.73 86.4609C293.053 85.8151 293.493 85.3099 294.051 84.9453C294.613 84.5755 295.256 84.3906 295.98 84.3906C297.121 84.3906 297.988 84.7292 298.582 85.4062C299.181 86.0833 299.48 87.013 299.48 88.1953V89.3203H294.293L294.277 89.3594C294.308 90.026 294.501 90.5755 294.855 91.0078C295.209 91.4349 295.715 91.6484 296.371 91.6484C296.829 91.6484 297.246 91.5859 297.621 91.4609C297.996 91.3359 298.345 91.1589 298.668 90.9297L299.277 92.1641C298.944 92.4505 298.519 92.6901 298.004 92.8828C297.493 93.0703 296.892 93.1641 296.199 93.1641ZM294.324 87.9375H297.597V87.7344C297.597 87.1823 297.467 86.7344 297.207 86.3906C296.952 86.0469 296.551 85.875 296.004 85.875C295.525 85.875 295.137 86.0677 294.84 86.4531C294.548 86.8385 294.368 87.3203 294.301 87.8984L294.324 87.9375ZM302.953 93.1641C302.094 93.1641 301.425 92.9427 300.946 92.5C300.466 92.0573 300.227 91.4479 300.227 90.6719C300.227 89.875 300.55 89.2292 301.196 88.7344C301.847 88.2396 302.779 87.9922 303.993 87.9922H305.282V87.2812C305.282 86.8333 305.146 86.4766 304.875 86.2109C304.61 85.9453 304.222 85.8125 303.711 85.8125C303.42 85.8125 303.162 85.849 302.938 85.9219C302.714 85.9896 302.513 86.0885 302.336 86.2188L302.164 87.3594H300.711L300.696 85.2734C301.107 84.9974 301.568 84.7812 302.078 84.625C302.594 84.4688 303.164 84.3906 303.789 84.3906C304.862 84.3906 305.706 84.6432 306.321 85.1484C306.94 85.6536 307.25 86.3724 307.25 87.3047V91.0312C307.25 91.1458 307.25 91.2578 307.25 91.3672C307.256 91.4714 307.263 91.5781 307.274 91.6875L308.133 91.7969V93H305.563C305.511 92.8177 305.461 92.6406 305.414 92.4688C305.373 92.2969 305.341 92.125 305.321 91.9531C305.039 92.3073 304.698 92.599 304.297 92.8281C303.896 93.0521 303.448 93.1641 302.953 93.1641ZM303.399 91.6406C303.8 91.6406 304.17 91.5495 304.508 91.3672C304.852 91.1797 305.11 90.9453 305.282 90.6641V89.25H303.969C303.381 89.25 302.935 89.388 302.633 89.6641C302.336 89.9349 302.188 90.2526 302.188 90.6172C302.188 91.2995 302.591 91.6406 303.399 91.6406ZM308.583 93V91.7969L309.762 91.5625V85.9922L308.52 85.7578V84.5469H311.567L311.661 85.6562C311.932 85.2552 312.276 84.9453 312.692 84.7266C313.109 84.5026 313.591 84.3906 314.137 84.3906C314.69 84.3906 315.161 84.5156 315.552 84.7656C315.947 85.0104 316.247 85.3828 316.45 85.8828C316.71 85.4193 317.052 85.0547 317.473 84.7891C317.901 84.5234 318.401 84.3906 318.973 84.3906C319.817 84.3906 320.484 84.6797 320.973 85.2578C321.463 85.8359 321.708 86.7109 321.708 87.8828V91.5625L322.887 91.7969V93H318.63V91.7969L319.739 91.5625V87.8672C319.739 87.1589 319.619 86.6615 319.38 86.375C319.14 86.0885 318.789 85.9453 318.325 85.9453C317.893 85.9453 317.536 86.0833 317.255 86.3594C316.979 86.6302 316.799 86.9818 316.716 87.4141V91.5625L317.786 91.7969V93H313.684V91.7969L314.755 91.5625V87.8672C314.755 87.1849 314.632 86.6953 314.387 86.3984C314.143 86.0964 313.789 85.9453 313.325 85.9453C312.94 85.9453 312.614 86.0234 312.348 86.1797C312.088 86.3359 311.88 86.5573 311.723 86.8438V91.5625L312.833 91.7969V93H308.583ZM323.861 93V91.1797H325.822V93H323.861Z" fill="white"/>
<path d="M525.789 57.7422H522.375V67H519.633V57.7422H516.281V55.625H525.789V57.7422ZM542.381 67H539.654V62.25H535.615V67H532.873V55.625H535.615V60.1406H539.654V55.625H542.381V67ZM557.098 62.1797H552.785V64.8906H557.879V67H550.043V55.625H557.895V57.7422H552.785V60.1406H557.098V62.1797ZM574.821 67V55.625H578.485C579.49 55.625 580.394 55.8542 581.196 56.3125C581.998 56.7656 582.623 57.4089 583.071 58.2422C583.524 59.0703 583.753 60 583.758 61.0312V61.5547C583.758 62.5964 583.537 63.5312 583.094 64.3594C582.657 65.1823 582.037 65.8281 581.235 66.2969C580.438 66.7604 579.547 66.9948 578.563 67H574.821ZM577.563 57.7422V64.8906H578.516C579.302 64.8906 579.907 64.612 580.328 64.0547C580.75 63.4922 580.961 62.6589 580.961 61.5547V61.0625C580.961 59.9635 580.75 59.1354 580.328 58.5781C579.907 58.0208 579.292 57.7422 578.485 57.7422H577.563ZM597.373 64.875H593.616L592.959 67H590.03L594.202 55.625H596.78L600.983 67H598.037L597.373 64.875ZM594.272 62.7578H596.717L595.491 58.8125L594.272 62.7578ZM611.965 62.9844H610.481V67H607.739V55.625H612.215C613.564 55.625 614.619 55.9245 615.379 56.5234C616.14 57.1224 616.52 57.9688 616.52 59.0625C616.52 59.8542 616.359 60.5104 616.036 61.0312C615.718 61.5521 615.218 61.974 614.536 62.2969L616.911 66.8828V67H613.973L611.965 62.9844ZM610.481 60.8672H612.215C612.736 60.8672 613.127 60.7318 613.387 60.4609C613.653 60.1849 613.786 59.8021 613.786 59.3125C613.786 58.8229 613.653 58.4401 613.387 58.1641C613.122 57.8828 612.731 57.7422 612.215 57.7422H610.481V60.8672ZM627.963 62.7656L626.838 64V67H624.096V55.625H626.838V60.6406L627.792 59.1953L630.245 55.625H633.635L629.792 60.6562L633.635 67H630.385L627.963 62.7656ZM656.022 63.9766C656.022 63.5755 655.879 63.263 655.592 63.0391C655.311 62.8151 654.814 62.5833 654.1 62.3438C653.387 62.1042 652.803 61.8724 652.35 61.6484C650.876 60.9245 650.139 59.9297 650.139 58.6641C650.139 58.0339 650.322 57.4792 650.686 57C651.056 56.5156 651.577 56.1406 652.249 55.875C652.921 55.6042 653.676 55.4688 654.514 55.4688C655.332 55.4688 656.064 55.6146 656.71 55.9062C657.361 56.1979 657.866 56.6146 658.225 57.1562C658.585 57.6927 658.764 58.3073 658.764 59H656.03C656.03 58.5365 655.887 58.1771 655.6 57.9219C655.319 57.6667 654.936 57.5391 654.452 57.5391C653.962 57.5391 653.574 57.6484 653.288 57.8672C653.007 58.0807 652.866 58.3542 652.866 58.6875C652.866 58.9792 653.022 59.2448 653.335 59.4844C653.647 59.7188 654.197 59.9635 654.983 60.2188C655.77 60.4688 656.415 60.7396 656.921 61.0312C658.15 61.7396 658.764 62.7161 658.764 63.9609C658.764 64.9557 658.389 65.737 657.639 66.3047C656.889 66.8724 655.861 67.1562 654.553 67.1562C653.632 67.1562 652.796 66.9922 652.046 66.6641C651.301 66.3307 650.738 65.8776 650.358 65.3047C649.983 64.7266 649.796 64.0625 649.796 63.3125H652.546C652.546 63.9219 652.702 64.3724 653.014 64.6641C653.332 64.9505 653.845 65.0938 654.553 65.0938C655.007 65.0938 655.363 64.9974 655.624 64.8047C655.889 64.6068 656.022 64.3307 656.022 63.9766ZM669.012 67H666.278V55.625H669.012V67ZM676.839 67V55.625H680.503C681.508 55.625 682.412 55.8542 683.214 56.3125C684.016 56.7656 684.641 57.4089 685.089 58.2422C685.542 59.0703 685.771 60 685.776 61.0312V61.5547C685.776 62.5964 685.555 63.5312 685.112 64.3594C684.675 65.1823 684.055 65.8281 683.253 66.2969C682.456 66.7604 681.565 66.9948 680.581 67H676.839ZM679.581 57.7422V64.8906H680.534C681.321 64.8906 681.925 64.612 682.347 64.0547C682.768 63.4922 682.979 62.6589 682.979 61.5547V61.0625C682.979 59.9635 682.768 59.1354 682.347 58.5781C681.925 58.0208 681.31 57.7422 680.503 57.7422H679.581ZM700.157 62.1797H695.845V64.8906H700.938V67H693.103V55.625H700.954V57.7422H695.845V60.1406H700.157V62.1797Z" fill="white"/>
<path opacity="0.5" d="M0.451172 17V15.9473L1.53809 15.7422V8.31152L0.451172 8.10645V7.04688H4.34082V8.10645L3.26074 8.31152V15.7422L4.34082 15.9473V17H0.451172ZM4.79582 17V15.9473L5.82121 15.7422V10.8682L4.74113 10.6631V9.60352H7.40715L7.49602 10.6768C7.74211 10.2939 8.04745 9.99772 8.41203 9.78809C8.78117 9.57389 9.19816 9.4668 9.66301 9.4668C10.4241 9.4668 11.0165 9.7015 11.4404 10.1709C11.8642 10.6403 12.0761 11.3695 12.0761 12.3584V15.7422L13.1015 15.9473V17H9.38957V15.9473L10.3534 15.7422V12.3721C10.3534 11.8115 10.2418 11.415 10.0185 11.1826C9.79517 10.9456 9.46249 10.8271 9.02043 10.8271C8.6923 10.8271 8.40292 10.9023 8.15227 11.0527C7.90161 11.1986 7.69882 11.4036 7.54387 11.668V15.7422L8.48039 15.9473V17H4.79582ZM13.3446 19.8438V18.7842L14.3426 18.5791V10.8682L13.2557 10.6631V9.60352H15.8875L15.9969 10.4785C16.2293 10.1549 16.5073 9.90658 16.8309 9.7334C17.159 9.55566 17.5464 9.4668 17.993 9.4668C18.5946 9.4668 19.1095 9.63086 19.5379 9.95898C19.9663 10.2871 20.2922 10.7451 20.5155 11.333C20.7433 11.9209 20.8573 12.609 20.8573 13.3975V13.541C20.8573 14.2611 20.7433 14.8923 20.5155 15.4346C20.2876 15.9723 19.9595 16.3916 19.5311 16.6924C19.1027 16.9932 18.59 17.1436 17.993 17.1436C17.1636 17.1436 16.5187 16.8519 16.0584 16.2686V18.5791L17.1112 18.7842V19.8438H13.3446ZM17.4735 15.8174C18.0386 15.8174 18.4556 15.61 18.7245 15.1953C18.9979 14.776 19.1346 14.2246 19.1346 13.541V13.3975C19.1346 12.6364 18.9956 12.0189 18.7176 11.5449C18.4442 11.0664 18.0249 10.8271 17.4598 10.8271C17.1408 10.8271 16.8628 10.9001 16.6258 11.0459C16.3888 11.1872 16.1997 11.3877 16.0584 11.6475V15.0381C16.3547 15.5576 16.8263 15.8174 17.4735 15.8174ZM24.5798 17.1436C23.7869 17.1436 23.1671 16.8929 22.7205 16.3916C22.2784 15.8857 22.0574 15.1019 22.0574 14.04V10.8682L21.2234 10.6631V9.60352H23.78V14.0537C23.78 14.6917 23.8803 15.1406 24.0808 15.4004C24.2859 15.6556 24.6004 15.7832 25.0242 15.7832C25.7625 15.7832 26.2888 15.4984 26.6033 14.9287V10.8682L25.6736 10.6631V9.60352H28.3259V15.7422L29.2009 15.9473V17H26.8015L26.6853 15.9951C26.4529 16.3643 26.1567 16.6491 25.7966 16.8496C25.4412 17.0456 25.0356 17.1436 24.5798 17.1436ZM32.3835 17.1299C31.7546 17.1299 31.2647 16.9544 30.9137 16.6035C30.5628 16.248 30.3874 15.6829 30.3874 14.9082V10.834H29.3073V9.60352H30.3874V7.80566H32.1032V9.60352H33.5661V10.834H32.1032V14.9082C32.1032 15.2227 32.167 15.4505 32.2946 15.5918C32.4268 15.7331 32.6045 15.8037 32.8278 15.8037C32.9554 15.8037 33.0967 15.7946 33.2516 15.7764C33.4111 15.7536 33.541 15.7308 33.6413 15.708L33.8122 16.918C33.6162 16.9772 33.3884 17.0273 33.1286 17.0684C32.8688 17.1094 32.6205 17.1299 32.3835 17.1299ZM34.6637 17V15.4072H36.3795V17H34.6637Z" fill="white"/>
<path opacity="0.5" d="M470.806 17.1436C469.926 17.1436 469.16 16.9271 468.509 16.4941C467.857 16.0612 467.351 15.4665 466.991 14.71C466.636 13.9489 466.458 13.0785 466.458 12.0986V11.9482C466.458 10.973 466.636 10.1071 466.991 9.35059C467.351 8.58952 467.855 7.99251 468.502 7.55957C469.154 7.12207 469.919 6.90332 470.799 6.90332C471.701 6.90332 472.478 7.12207 473.13 7.55957C473.786 7.99251 474.29 8.58952 474.641 9.35059C474.992 10.1071 475.167 10.973 475.167 11.9482V12.0986C475.167 13.0785 474.992 13.9489 474.641 14.71C474.29 15.4665 473.788 16.0612 473.137 16.4941C472.485 16.9271 471.708 17.1436 470.806 17.1436ZM470.806 15.7764C471.407 15.7764 471.902 15.6237 472.289 15.3184C472.681 15.0085 472.97 14.5778 473.157 14.0264C473.349 13.4749 473.444 12.8324 473.444 12.0986V11.9346C473.444 11.2145 473.349 10.5811 473.157 10.0342C472.966 9.48275 472.674 9.05208 472.282 8.74219C471.89 8.43229 471.396 8.27734 470.799 8.27734C470.225 8.27734 469.744 8.43229 469.356 8.74219C468.969 9.04753 468.677 9.47591 468.481 10.0273C468.285 10.5742 468.188 11.21 468.188 11.9346V12.0986C468.188 12.8278 468.285 13.4704 468.481 14.0264C468.677 14.5778 468.969 15.0085 469.356 15.3184C469.748 15.6237 470.231 15.7764 470.806 15.7764ZM478.842 17.1436C478.049 17.1436 477.429 16.8929 476.982 16.3916C476.54 15.8857 476.319 15.1019 476.319 14.04V10.8682L475.485 10.6631V9.60352H478.042V14.0537C478.042 14.6917 478.142 15.1406 478.343 15.4004C478.548 15.6556 478.862 15.7832 479.286 15.7832C480.024 15.7832 480.551 15.4984 480.865 14.9287V10.8682L479.935 10.6631V9.60352H482.588V15.7422L483.463 15.9473V17H481.063L480.947 15.9951C480.715 16.3643 480.419 16.6491 480.059 16.8496C479.703 17.0456 479.297 17.1436 478.842 17.1436ZM486.645 17.1299C486.016 17.1299 485.527 16.9544 485.176 16.6035C484.825 16.248 484.649 15.6829 484.649 14.9082V10.834H483.569V9.60352H484.649V7.80566H486.365V9.60352H487.828V10.834H486.365V14.9082C486.365 15.2227 486.429 15.4505 486.556 15.5918C486.689 15.7331 486.866 15.8037 487.09 15.8037C487.217 15.8037 487.359 15.7946 487.514 15.7764C487.673 15.7536 487.803 15.7308 487.903 15.708L488.074 16.918C487.878 16.9772 487.65 17.0273 487.39 17.0684C487.131 17.1094 486.882 17.1299 486.645 17.1299ZM488.44 19.8438V18.7842L489.438 18.5791V10.8682L488.351 10.6631V9.60352H490.983L491.093 10.4785C491.325 10.1549 491.603 9.90658 491.927 9.7334C492.255 9.55566 492.642 9.4668 493.089 9.4668C493.69 9.4668 494.205 9.63086 494.634 9.95898C495.062 10.2871 495.388 10.7451 495.611 11.333C495.839 11.9209 495.953 12.609 495.953 13.3975V13.541C495.953 14.2611 495.839 14.8923 495.611 15.4346C495.383 15.9723 495.055 16.3916 494.627 16.6924C494.198 16.9932 493.686 17.1436 493.089 17.1436C492.259 17.1436 491.614 16.8519 491.154 16.2686V18.5791L492.207 18.7842V19.8438H488.44ZM492.569 15.8174C493.134 15.8174 493.551 15.61 493.82 15.1953C494.094 14.776 494.23 14.2246 494.23 13.541V13.3975C494.23 12.6364 494.091 12.0189 493.813 11.5449C493.54 11.0664 493.121 10.8271 492.555 10.8271C492.236 10.8271 491.958 10.9001 491.721 11.0459C491.484 11.1872 491.295 11.3877 491.154 11.6475V15.0381C491.45 15.5576 491.922 15.8174 492.569 15.8174ZM499.675 17.1436C498.882 17.1436 498.263 16.8929 497.816 16.3916C497.374 15.8857 497.153 15.1019 497.153 14.04V10.8682L496.319 10.6631V9.60352H498.876V14.0537C498.876 14.6917 498.976 15.1406 499.176 15.4004C499.382 15.6556 499.696 15.7832 500.12 15.7832C500.858 15.7832 501.384 15.4984 501.699 14.9287V10.8682L500.769 10.6631V9.60352H503.422V15.7422L504.297 15.9473V17H501.897L501.781 15.9951C501.549 16.3643 501.252 16.6491 500.892 16.8496C500.537 17.0456 500.131 17.1436 499.675 17.1436ZM507.479 17.1299C506.85 17.1299 506.36 16.9544 506.009 16.6035C505.658 16.248 505.483 15.6829 505.483 14.9082V10.834H504.403V9.60352H505.483V7.80566H507.199V9.60352H508.662V10.834H507.199V14.9082C507.199 15.2227 507.263 15.4505 507.39 15.5918C507.522 15.7331 507.7 15.8037 507.923 15.8037C508.051 15.8037 508.192 15.7946 508.347 15.7764C508.507 15.7536 508.637 15.7308 508.737 15.708L508.908 16.918C508.712 16.9772 508.484 17.0273 508.224 17.0684C507.964 17.1094 507.716 17.1299 507.479 17.1299ZM509.759 17V15.4072H511.475V17H509.759Z" fill="white"/>
<path opacity="0.5" d="M718.451 17V15.9473L719.538 15.7422V8.31152L718.451 8.10645V7.04688H722.341V8.10645L721.261 8.31152V15.7422L722.341 15.9473V17H718.451ZM722.796 17V15.9473L723.821 15.7422V10.8682L722.741 10.6631V9.60352H725.407L725.496 10.6768C725.742 10.2939 726.047 9.99772 726.412 9.78809C726.781 9.57389 727.198 9.4668 727.663 9.4668C728.424 9.4668 729.017 9.7015 729.44 10.1709C729.864 10.6403 730.076 11.3695 730.076 12.3584V15.7422L731.101 15.9473V17H727.39V15.9473L728.353 15.7422V12.3721C728.353 11.8115 728.242 11.415 728.018 11.1826C727.795 10.9456 727.462 10.8271 727.02 10.8271C726.692 10.8271 726.403 10.9023 726.152 11.0527C725.902 11.1986 725.699 11.4036 725.544 11.668V15.7422L726.48 15.9473V17H722.796ZM731.345 19.8438V18.7842L732.343 18.5791V10.8682L731.256 10.6631V9.60352H733.888L733.997 10.4785C734.229 10.1549 734.507 9.90658 734.831 9.7334C735.159 9.55566 735.546 9.4668 735.993 9.4668C736.595 9.4668 737.11 9.63086 737.538 9.95898C737.966 10.2871 738.292 10.7451 738.515 11.333C738.743 11.9209 738.857 12.609 738.857 13.3975V13.541C738.857 14.2611 738.743 14.8923 738.515 15.4346C738.288 15.9723 737.959 16.3916 737.531 16.6924C737.103 16.9932 736.59 17.1436 735.993 17.1436C735.164 17.1436 734.519 16.8519 734.058 16.2686V18.5791L735.111 18.7842V19.8438H731.345ZM735.473 15.8174C736.039 15.8174 736.456 15.61 736.724 15.1953C736.998 14.776 737.135 14.2246 737.135 13.541V13.3975C737.135 12.6364 736.996 12.0189 736.718 11.5449C736.444 11.0664 736.025 10.8271 735.46 10.8271C735.141 10.8271 734.863 10.9001 734.626 11.0459C734.389 11.1872 734.2 11.3877 734.058 11.6475V15.0381C734.355 15.5576 734.826 15.8174 735.473 15.8174ZM742.58 17.1436C741.787 17.1436 741.167 16.8929 740.72 16.3916C740.278 15.8857 740.057 15.1019 740.057 14.04V10.8682L739.223 10.6631V9.60352H741.78V14.0537C741.78 14.6917 741.88 15.1406 742.081 15.4004C742.286 15.6556 742.6 15.7832 743.024 15.7832C743.762 15.7832 744.289 15.4984 744.603 14.9287V10.8682L743.674 10.6631V9.60352H746.326V15.7422L747.201 15.9473V17H744.802L744.685 15.9951C744.453 16.3643 744.157 16.6491 743.797 16.8496C743.441 17.0456 743.036 17.1436 742.58 17.1436ZM750.383 17.1299C749.755 17.1299 749.265 16.9544 748.914 16.6035C748.563 16.248 748.387 15.6829 748.387 14.9082V10.834H747.307V9.60352H748.387V7.80566H750.103V9.60352H751.566V10.834H750.103V14.9082C750.103 15.2227 750.167 15.4505 750.295 15.5918C750.427 15.7331 750.605 15.8037 750.828 15.8037C750.955 15.8037 751.097 15.7946 751.252 15.7764C751.411 15.7536 751.541 15.7308 751.641 15.708L751.812 16.918C751.616 16.9772 751.388 17.0273 751.129 17.0684C750.869 17.1094 750.62 17.1299 750.383 17.1299ZM752.664 17V15.4072H754.379V17H752.664Z" fill="white"/>
<path opacity="0.5" d="M1178.81 17.1436C1177.93 17.1436 1177.16 16.9271 1176.51 16.4941C1175.86 16.0612 1175.35 15.4665 1174.99 14.71C1174.64 13.9489 1174.46 13.0785 1174.46 12.0986V11.9482C1174.46 10.973 1174.64 10.1071 1174.99 9.35059C1175.35 8.58952 1175.85 7.99251 1176.5 7.55957C1177.15 7.12207 1177.92 6.90332 1178.8 6.90332C1179.7 6.90332 1180.48 7.12207 1181.13 7.55957C1181.79 7.99251 1182.29 8.58952 1182.64 9.35059C1182.99 10.1071 1183.17 10.973 1183.17 11.9482V12.0986C1183.17 13.0785 1182.99 13.9489 1182.64 14.71C1182.29 15.4665 1181.79 16.0612 1181.14 16.4941C1180.49 16.9271 1179.71 17.1436 1178.81 17.1436ZM1178.81 15.7764C1179.41 15.7764 1179.9 15.6237 1180.29 15.3184C1180.68 15.0085 1180.97 14.5778 1181.16 14.0264C1181.35 13.4749 1181.44 12.8324 1181.44 12.0986V11.9346C1181.44 11.2145 1181.35 10.5811 1181.16 10.0342C1180.97 9.48275 1180.67 9.05208 1180.28 8.74219C1179.89 8.43229 1179.4 8.27734 1178.8 8.27734C1178.22 8.27734 1177.74 8.43229 1177.36 8.74219C1176.97 9.04753 1176.68 9.47591 1176.48 10.0273C1176.29 10.5742 1176.19 11.21 1176.19 11.9346V12.0986C1176.19 12.8278 1176.29 13.4704 1176.48 14.0264C1176.68 14.5778 1176.97 15.0085 1177.36 15.3184C1177.75 15.6237 1178.23 15.7764 1178.81 15.7764ZM1186.84 17.1436C1186.05 17.1436 1185.43 16.8929 1184.98 16.3916C1184.54 15.8857 1184.32 15.1019 1184.32 14.04V10.8682L1183.49 10.6631V9.60352H1186.04V14.0537C1186.04 14.6917 1186.14 15.1406 1186.34 15.4004C1186.55 15.6556 1186.86 15.7832 1187.29 15.7832C1188.02 15.7832 1188.55 15.4984 1188.87 14.9287V10.8682L1187.94 10.6631V9.60352H1190.59V15.7422L1191.46 15.9473V17H1189.06L1188.95 15.9951C1188.71 16.3643 1188.42 16.6491 1188.06 16.8496C1187.7 17.0456 1187.3 17.1436 1186.84 17.1436ZM1194.65 17.1299C1194.02 17.1299 1193.53 16.9544 1193.18 16.6035C1192.82 16.248 1192.65 15.6829 1192.65 14.9082V10.834H1191.57V9.60352H1192.65V7.80566H1194.37V9.60352H1195.83V10.834H1194.37V14.9082C1194.37 15.2227 1194.43 15.4505 1194.56 15.5918C1194.69 15.7331 1194.87 15.8037 1195.09 15.8037C1195.22 15.8037 1195.36 15.7946 1195.51 15.7764C1195.67 15.7536 1195.8 15.7308 1195.9 15.708L1196.07 16.918C1195.88 16.9772 1195.65 17.0273 1195.39 17.0684C1195.13 17.1094 1194.88 17.1299 1194.65 17.1299ZM1196.44 19.8438V18.7842L1197.44 18.5791V10.8682L1196.35 10.6631V9.60352H1198.98L1199.09 10.4785C1199.32 10.1549 1199.6 9.90658 1199.93 9.7334C1200.25 9.55566 1200.64 9.4668 1201.09 9.4668C1201.69 9.4668 1202.21 9.63086 1202.63 9.95898C1203.06 10.2871 1203.39 10.7451 1203.61 11.333C1203.84 11.9209 1203.95 12.609 1203.95 13.3975V13.541C1203.95 14.2611 1203.84 14.8923 1203.61 15.4346C1203.38 15.9723 1203.06 16.3916 1202.63 16.6924C1202.2 16.9932 1201.69 17.1436 1201.09 17.1436C1200.26 17.1436 1199.61 16.8519 1199.15 16.2686V18.5791L1200.21 18.7842V19.8438H1196.44ZM1200.57 15.8174C1201.13 15.8174 1201.55 15.61 1201.82 15.1953C1202.09 14.776 1202.23 14.2246 1202.23 13.541V13.3975C1202.23 12.6364 1202.09 12.0189 1201.81 11.5449C1201.54 11.0664 1201.12 10.8271 1200.56 10.8271C1200.24 10.8271 1199.96 10.9001 1199.72 11.0459C1199.48 11.1872 1199.3 11.3877 1199.15 11.6475V15.0381C1199.45 15.5576 1199.92 15.8174 1200.57 15.8174ZM1207.68 17.1436C1206.88 17.1436 1206.26 16.8929 1205.82 16.3916C1205.37 15.8857 1205.15 15.1019 1205.15 14.04V10.8682L1204.32 10.6631V9.60352H1206.88V14.0537C1206.88 14.6917 1206.98 15.1406 1207.18 15.4004C1207.38 15.6556 1207.7 15.7832 1208.12 15.7832C1208.86 15.7832 1209.38 15.4984 1209.7 14.9287V10.8682L1208.77 10.6631V9.60352H1211.42V15.7422L1212.3 15.9473V17H1209.9L1209.78 15.9951C1209.55 16.3643 1209.25 16.6491 1208.89 16.8496C1208.54 17.0456 1208.13 17.1436 1207.68 17.1436ZM1215.48 17.1299C1214.85 17.1299 1214.36 16.9544 1214.01 16.6035C1213.66 16.248 1213.48 15.6829 1213.48 14.9082V10.834H1212.4V9.60352H1213.48V7.80566H1215.2V9.60352H1216.66V10.834H1215.2V14.9082C1215.2 15.2227 1215.26 15.4505 1215.39 15.5918C1215.52 15.7331 1215.7 15.8037 1215.92 15.8037C1216.05 15.8037 1216.19 15.7946 1216.35 15.7764C1216.51 15.7536 1216.64 15.7308 1216.74 15.708L1216.91 16.918C1216.71 16.9772 1216.48 17.0273 1216.22 17.0684C1215.96 17.1094 1215.72 17.1299 1215.48 17.1299ZM1217.76 17V15.4072H1219.48V17H1217.76Z" fill="white"/>
<path opacity="0.5" d="M922.516 93V91.7969L923.766 91.5547V83.0859L922.516 82.8359V81.625H927.281C928.292 81.625 929.18 81.8646 929.945 82.3438C930.711 82.8229 931.307 83.4818 931.734 84.3203C932.161 85.1589 932.375 86.1198 932.375 87.2031V87.4297C932.375 88.4974 932.164 89.4531 931.742 90.2969C931.326 91.1354 930.74 91.7969 929.984 92.2812C929.229 92.7604 928.346 93 927.336 93H922.516ZM925.734 91.4844H927.234C927.901 91.4844 928.469 91.3073 928.938 90.9531C929.411 90.5938 929.773 90.1094 930.023 89.5C930.273 88.8854 930.398 88.1953 930.398 87.4297V87.1953C930.398 86.4141 930.273 85.7188 930.023 85.1094C929.773 84.5 929.411 84.0208 928.938 83.6719C928.469 83.3229 927.901 83.1484 927.234 83.1484H925.734V91.4844ZM936.934 93.1641C936.132 93.1641 935.437 92.987 934.848 92.6328C934.26 92.2734 933.801 91.7786 933.473 91.1484C933.15 90.5182 932.989 89.7969 932.989 88.9844V88.6562C932.989 87.8333 933.148 87.1016 933.465 86.4609C933.788 85.8151 934.228 85.3099 934.786 84.9453C935.348 84.5755 935.991 84.3906 936.715 84.3906C937.856 84.3906 938.723 84.7292 939.317 85.4062C939.916 86.0833 940.215 87.013 940.215 88.1953V89.3203H935.028L935.012 89.3594C935.043 90.026 935.236 90.5755 935.59 91.0078C935.944 91.4349 936.45 91.6484 937.106 91.6484C937.564 91.6484 937.981 91.5859 938.356 91.4609C938.731 91.3359 939.08 91.1589 939.403 90.9297L940.012 92.1641C939.679 92.4505 939.254 92.6901 938.739 92.8828C938.228 93.0703 937.627 93.1641 936.934 93.1641ZM935.059 87.9375H938.333V87.7344C938.333 87.1823 938.202 86.7344 937.942 86.3906C937.687 86.0469 937.286 85.875 936.739 85.875C936.26 85.875 935.872 86.0677 935.575 86.4531C935.283 86.8385 935.103 87.3203 935.036 87.8984L935.059 87.9375ZM943.962 93L941.22 85.8906L940.321 85.7578V84.5469H944.188V85.7578L943.212 85.9141L944.735 90.1562L944.938 90.8281H944.985L945.22 90.1562L946.759 85.9141L945.688 85.7578V84.5469H949.548V85.7578L948.626 85.8984L945.876 93H943.962ZM953.583 93.1641C952.781 93.1641 952.086 92.987 951.497 92.6328C950.909 92.2734 950.451 91.7786 950.122 91.1484C949.8 90.5182 949.638 89.7969 949.638 88.9844V88.6562C949.638 87.8333 949.797 87.1016 950.115 86.4609C950.438 85.8151 950.878 85.3099 951.435 84.9453C951.997 84.5755 952.641 84.3906 953.365 84.3906C954.505 84.3906 955.372 84.7292 955.966 85.4062C956.565 86.0833 956.865 87.013 956.865 88.1953V89.3203H951.677L951.662 89.3594C951.693 90.026 951.886 90.5755 952.24 91.0078C952.594 91.4349 953.099 91.6484 953.755 91.6484C954.214 91.6484 954.63 91.5859 955.005 91.4609C955.38 91.3359 955.729 91.1589 956.052 90.9297L956.662 92.1641C956.328 92.4505 955.904 92.6901 955.388 92.8828C954.878 93.0703 954.276 93.1641 953.583 93.1641ZM951.708 87.9375H954.982V87.7344C954.982 87.1823 954.852 86.7344 954.591 86.3906C954.336 86.0469 953.935 85.875 953.388 85.875C952.909 85.875 952.521 86.0677 952.224 86.4531C951.932 86.8385 951.753 87.3203 951.685 87.8984L951.708 87.9375ZM957.393 93V91.7969L958.572 91.5625V82.2578L957.322 82.0234V80.8125H960.541V91.5625L961.713 91.7969V93H957.393ZM965.912 93.1641C965.1 93.1641 964.402 92.9818 963.819 92.6172C963.235 92.2474 962.787 91.7396 962.475 91.0938C962.162 90.4479 962.006 89.7031 962.006 88.8594V88.6953C962.006 87.8568 962.162 87.1146 962.475 86.4688C962.787 85.8229 963.235 85.3151 963.819 84.9453C964.402 84.5755 965.095 84.3906 965.897 84.3906C966.709 84.3906 967.407 84.5755 967.991 84.9453C968.574 85.3099 969.022 85.8177 969.334 86.4688C969.647 87.1146 969.803 87.8568 969.803 88.6953V88.8594C969.803 89.7083 969.647 90.4557 969.334 91.1016C969.022 91.7474 968.574 92.2526 967.991 92.6172C967.412 92.9818 966.72 93.1641 965.912 93.1641ZM965.912 91.6484C966.564 91.6484 967.048 91.3906 967.366 90.875C967.683 90.3542 967.842 89.6823 967.842 88.8594V88.6953C967.842 87.888 967.681 87.224 967.358 86.7031C967.04 86.1771 966.553 85.9141 965.897 85.9141C965.246 85.9141 964.761 86.1771 964.444 86.7031C964.131 87.224 963.975 87.888 963.975 88.6953V88.8594C963.975 89.6823 964.131 90.3542 964.444 90.875C964.761 91.3906 965.251 91.6484 965.912 91.6484ZM970.284 96.25V95.0391L971.425 94.8047V85.9922L970.182 85.7578V84.5469H973.19L973.315 85.5469C973.581 85.1771 973.899 84.8932 974.268 84.6953C974.643 84.4922 975.086 84.3906 975.597 84.3906C976.284 84.3906 976.873 84.5781 977.362 84.9531C977.852 85.3281 978.224 85.8516 978.479 86.5234C978.74 87.1953 978.87 87.9818 978.87 88.8828V89.0469C978.87 89.8698 978.74 90.5911 978.479 91.2109C978.219 91.8255 977.844 92.3047 977.354 92.6484C976.865 92.9922 976.279 93.1641 975.597 93.1641C974.649 93.1641 973.912 92.8307 973.386 92.1641V94.8047L974.589 95.0391V96.25H970.284ZM975.003 91.6484C975.649 91.6484 976.125 91.4115 976.432 90.9375C976.745 90.4583 976.901 89.8281 976.901 89.0469V88.8828C976.901 88.013 976.742 87.3073 976.425 86.7656C976.112 86.2188 975.633 85.9453 974.987 85.9453C974.623 85.9453 974.305 86.0286 974.034 86.1953C973.763 86.3568 973.547 86.5859 973.386 86.8828V90.7578C973.724 91.3516 974.263 91.6484 975.003 91.6484ZM983.648 93.1641C982.846 93.1641 982.15 92.987 981.562 92.6328C980.973 92.2734 980.515 91.7786 980.187 91.1484C979.864 90.5182 979.702 89.7969 979.702 88.9844V88.6562C979.702 87.8333 979.861 87.1016 980.179 86.4609C980.502 85.8151 980.942 85.3099 981.499 84.9453C982.062 84.5755 982.705 84.3906 983.429 84.3906C984.57 84.3906 985.437 84.7292 986.031 85.4062C986.63 86.0833 986.929 87.013 986.929 88.1953V89.3203H981.742L981.726 89.3594C981.757 90.026 981.95 90.5755 982.304 91.0078C982.658 91.4349 983.163 91.6484 983.82 91.6484C984.278 91.6484 984.695 91.5859 985.07 91.4609C985.445 91.3359 985.794 91.1589 986.117 90.9297L986.726 92.1641C986.393 92.4505 985.968 92.6901 985.452 92.8828C984.942 93.0703 984.341 93.1641 983.648 93.1641ZM981.773 87.9375H985.046V87.7344C985.046 87.1823 984.916 86.7344 984.656 86.3906C984.4 86.0469 983.999 85.875 983.452 85.875C982.973 85.875 982.585 86.0677 982.288 86.4531C981.997 86.8385 981.817 87.3203 981.749 87.8984L981.773 87.9375ZM987.66 93V91.7969L988.824 91.5625V85.9922L987.59 85.7578V84.5469H990.637L990.738 85.6094L990.754 85.7812C991.207 84.8542 991.863 84.3906 992.723 84.3906C993.045 84.3906 993.334 84.4323 993.59 84.5156L993.363 86.3359L992.262 86.2734C991.902 86.2526 991.605 86.3229 991.371 86.4844C991.137 86.6458 990.944 86.8698 990.793 87.1562V91.5625L991.965 91.7969V93H987.66ZM997.453 93.1641C996.849 93.1641 996.284 93.1068 995.758 92.9922C995.237 92.8724 994.714 92.6979 994.188 92.4688L994.164 90.2344H995.578L995.875 91.4531C996.104 91.5573 996.336 91.6354 996.571 91.6875C996.805 91.7396 997.068 91.7656 997.36 91.7656C997.922 91.7656 998.318 91.6667 998.547 91.4688C998.782 91.2708 998.899 91.026 998.899 90.7344C998.899 90.4583 998.776 90.2188 998.532 90.0156C998.292 89.8125 997.831 89.638 997.149 89.4922C996.133 89.2734 995.388 88.9557 994.914 88.5391C994.44 88.1172 994.203 87.5703 994.203 86.8984C994.203 86.4401 994.326 86.0208 994.571 85.6406C994.821 85.2604 995.185 84.9583 995.664 84.7344C996.149 84.5104 996.743 84.3984 997.446 84.3984C998.086 84.3984 998.654 84.4661 999.149 84.6016C999.649 84.7318 1000.07 84.9062 1000.42 85.125L1000.48 87.2734H999.071L998.828 86.1562C998.49 85.9167 998.058 85.7969 997.532 85.7969C997.099 85.7969 996.758 85.8932 996.508 86.0859C996.258 86.2734 996.133 86.5104 996.133 86.7969C996.133 87.0469 996.232 87.263 996.43 87.4453C996.628 87.6276 997.065 87.7943 997.743 87.9453C998.841 88.2005 999.628 88.5339 1000.1 88.9453C1000.58 89.3568 1000.81 89.901 1000.81 90.5781C1000.81 91.3333 1000.54 91.9531 999.985 92.4375C999.433 92.9219 998.589 93.1641 997.453 93.1641ZM1002.01 93V91.1797H1003.97V93H1002.01Z" fill="white"/>
</svg>
