<svg width="283" height="176" viewBox="0 0 283 176" fill="none" xmlns="http://www.w3.org/2000/svg">
<mask id="mask0_252_1917" style="mask-type:alpha" maskUnits="userSpaceOnUse" x="79" y="25" width="126" height="126">
<circle cx="142" cy="88" r="62.2254" transform="rotate(45 142 88)" fill="#DA3C72" fill-opacity="0.48"/>
</mask>
<g mask="url(#mask0_252_1917)">
<path fill-rule="evenodd" clip-rule="evenodd" d="M140.641 -10.7764L236.967 85.5489L236.655 85.8602L140.33 -10.4652L140.641 -10.7764ZM212.069 110.447L115.743 14.1221L115.432 14.4333L211.757 110.759L212.069 110.447ZM162.273 160.244L65.9472 63.9186L65.636 64.2298L161.961 160.555L162.273 160.244ZM187.171 135.346L90.8453 39.0202L90.534 39.3314L186.859 135.657L187.171 135.346ZM103.294 26.5711L199.62 122.896L199.308 123.208L102.983 26.8823L103.294 26.5711ZM149.824 172.693L53.4982 76.3678L53.187 76.6791L149.512 173.004L149.824 172.693ZM128.192 1.67282L224.518 97.9982L224.206 98.3094L127.881 1.98405L128.192 1.67282ZM174.722 147.795L78.3962 51.4693L78.085 51.7806L174.41 148.106L174.722 147.795ZM113.254 16.6118L209.58 112.937L209.268 113.248L112.943 16.9231L113.254 16.6118ZM159.784 162.734L63.4582 66.4086L63.147 66.7198L159.472 163.045L159.784 162.734ZM138.152 -8.28656L234.478 88.0388L234.166 88.35L137.841 -7.97533L138.152 -8.28656ZM184.682 137.836L88.3562 41.5102L88.045 41.8214L184.37 138.147L184.682 137.836ZM100.805 29.061L197.131 125.386L196.819 125.698L100.494 29.3722L100.805 29.061ZM147.335 175.183L51.0092 78.8576L50.698 79.1688L147.023 175.494L147.335 175.183ZM125.703 4.16257L222.029 100.488L221.717 100.799L125.392 4.4738L125.703 4.16257ZM172.233 150.285L75.9072 53.9593L75.596 54.2706L171.921 150.596L172.233 150.285ZM105.783 24.0813L202.109 120.407L201.797 120.718L105.472 24.3926L105.783 24.0813ZM152.313 170.203L55.9873 73.8778L55.676 74.1891L152.001 170.514L152.313 170.203ZM130.681 -0.817056L227.007 95.5083L226.695 95.8196L130.37 -0.505826L130.681 -0.817056ZM177.211 145.305L80.8853 48.9795L80.574 49.2907L176.899 145.616L177.211 145.305ZM93.3343 36.5305L189.66 132.856L189.348 133.167L93.023 36.8417L93.3343 36.5305ZM139.864 182.652L43.5382 86.3271L43.227 86.6383L139.552 182.964L139.864 182.652ZM118.232 11.6323L214.558 107.958L214.246 108.269L117.921 11.9435L118.232 11.6323ZM164.762 157.754L68.4363 61.4287L68.125 61.7399L164.45 158.065L164.762 157.754ZM110.765 19.1016L207.091 115.427L206.779 115.738L110.454 19.4128L110.765 19.1016ZM157.291 165.224L60.9653 68.8982L60.6541 69.2095L156.979 165.535L157.291 165.224ZM135.663 -5.7968L231.989 90.5286L231.677 90.8398L135.352 -5.48558L135.663 -5.7968ZM182.193 140.325L85.8672 44L85.556 44.3112L181.881 140.637L182.193 140.325ZM98.3162 31.5507L194.642 127.876L194.33 128.187L98.005 31.8619L98.3162 31.5507ZM144.846 177.673L48.5202 81.3474L48.209 81.6586L144.534 177.984L144.846 177.673ZM123.214 6.65233L219.54 102.978L219.228 103.289L122.903 6.96355L123.214 6.65233ZM169.74 152.775L73.4143 56.4492L73.1031 56.7604L169.428 153.086L169.74 152.775ZM108.272 21.5913L204.598 117.917L204.286 118.228L107.961 21.9026L108.272 21.5913ZM154.802 167.713L58.4763 71.3881L58.165 71.6993L154.49 168.025L154.802 167.713ZM133.174 -3.30681L229.5 93.0186L229.188 93.3298L132.863 -2.99558L133.174 -3.30681ZM179.704 142.815L83.3782 46.4897L83.067 46.8009L179.392 143.126L179.704 142.815ZM95.8233 34.0407L192.149 130.366L191.837 130.677L95.5121 34.3519L95.8233 34.0407ZM142.353 180.162L46.0273 83.8371L45.716 84.1483L142.041 180.474L142.353 180.162ZM120.725 9.14232L217.051 105.468L216.739 105.779L120.414 9.45355L120.725 9.14232ZM167.251 155.264L70.9253 58.9391L70.6141 59.2503L166.939 155.576L167.251 155.264Z" fill="#DA3C72" fill-opacity="0.48"/>
</g>
<path d="M10.4375 94V92.6328L11.6484 92.3984V84.2344L10.4375 84V82.625H15.4922C16.8307 82.625 17.875 82.8854 18.625 83.4062C19.375 83.9271 19.75 84.7057 19.75 85.7422C19.75 86.2682 19.6094 86.7396 19.3281 87.1562C19.0521 87.5677 18.6484 87.8776 18.1172 88.0859C18.7995 88.2318 19.3099 88.5443 19.6484 89.0234C19.9922 89.5026 20.1641 90.0573 20.1641 90.6875C20.1641 91.776 19.8047 92.6016 19.0859 93.1641C18.3672 93.7214 17.349 94 16.0312 94H10.4375ZM13.9297 87.3906H15.5703C16.1797 87.3906 16.6484 87.2656 16.9766 87.0156C17.3047 86.7656 17.4688 86.401 17.4688 85.9219C17.4688 84.8958 16.8099 84.3828 15.4922 84.3828H13.9297V87.3906ZM13.9297 92.25H16.0312C17.2708 92.25 17.8906 91.7292 17.8906 90.6875C17.8906 90.1302 17.7552 89.7057 17.4844 89.4141C17.2135 89.1172 16.7865 88.9688 16.2031 88.9688H13.9297V92.25ZM24.7381 94.1641C23.8423 94.1641 23.1418 93.8828 22.6366 93.3203C22.1314 92.7526 21.8787 91.8724 21.8787 90.6797V87.1562L20.9491 86.9219V85.5469H24.16V90.6953C24.16 91.2995 24.2642 91.7344 24.4725 92C24.686 92.2604 25.0064 92.3906 25.4334 92.3906C26.1157 92.3906 26.6287 92.1354 26.9725 91.625V87.1562L25.9647 86.9219V85.5469H29.2537V92.3984L30.2694 92.6328V94H27.2537L27.0975 92.9297C26.5402 93.7526 25.7537 94.1641 24.7381 94.1641ZM34.9059 94.1641C34.2757 94.1641 33.6872 94.1042 33.1403 93.9844C32.5986 93.8646 32.0778 93.6927 31.5778 93.4688L31.5544 91.0781H33.1403L33.445 92.2969C33.6221 92.3854 33.8148 92.4557 34.0231 92.5078C34.2367 92.5599 34.4789 92.5859 34.7497 92.5859C35.2601 92.5859 35.6195 92.5026 35.8278 92.3359C36.0361 92.1693 36.1403 91.9609 36.1403 91.7109C36.1403 91.4766 36.0283 91.2708 35.8044 91.0938C35.5804 90.9115 35.1403 90.7526 34.4841 90.6172C33.4789 90.4089 32.7393 90.0859 32.2653 89.6484C31.7966 89.2109 31.5622 88.651 31.5622 87.9688C31.5622 87.5052 31.6794 87.0781 31.9137 86.6875C32.1533 86.2969 32.5153 85.987 32.9997 85.7578C33.4893 85.5234 34.1143 85.4062 34.8747 85.4062C35.5101 85.4062 36.0908 85.4688 36.6169 85.5938C37.1481 85.7135 37.5934 85.8724 37.9528 86.0703L37.9762 88.3828H36.3981L36.1559 87.2734C35.8539 87.0651 35.4736 86.9609 35.0153 86.9609C34.6195 86.9609 34.3122 87.0443 34.0934 87.2109C33.8799 87.3724 33.7731 87.5781 33.7731 87.8281C33.7731 88.0469 33.8669 88.2448 34.0544 88.4219C34.2471 88.5938 34.6664 88.7526 35.3122 88.8984C36.3591 89.138 37.1221 89.4583 37.6012 89.8594C38.0804 90.2552 38.32 90.8125 38.32 91.5312C38.32 92.3177 38.0335 92.9531 37.4606 93.4375C36.8929 93.9219 36.0414 94.1641 34.9059 94.1641ZM39.4487 94V92.6328L40.5503 92.3984V87.1562L39.3316 86.9219V85.5469H42.8316V92.3984L43.9253 92.6328V94H39.4487ZM40.4722 83.7578V81.8125H42.8316V83.7578H40.4722ZM44.765 94V92.6328L45.8587 92.3984V87.1562L44.6478 86.9219V85.5469H47.9837L48.0853 86.7578C48.3666 86.3255 48.7129 85.9896 49.1244 85.75C49.541 85.5104 50.015 85.3906 50.5462 85.3906C51.3796 85.3906 52.0332 85.6589 52.5072 86.1953C52.9864 86.7318 53.2259 87.5729 53.2259 88.7188V92.3984L54.3197 92.6328V94H49.9603V92.6328L50.9369 92.3984V88.7266C50.9369 88.1589 50.8223 87.7578 50.5931 87.5234C50.3692 87.2839 50.0384 87.1641 49.6009 87.1641C48.9655 87.1641 48.4785 87.4297 48.14 87.9609V92.3984L49.0619 92.6328V94H44.765ZM59.1984 94.1641C58.3859 94.1641 57.6776 93.987 57.0734 93.6328C56.4745 93.2734 56.0083 92.7812 55.675 92.1562C55.3469 91.5312 55.1828 90.8177 55.1828 90.0156V89.7031C55.1828 88.8646 55.3391 88.1224 55.6516 87.4766C55.9641 86.8255 56.4042 86.3151 56.9719 85.9453C57.5448 85.5703 58.2193 85.3854 58.9953 85.3906C60.1359 85.3906 61.0083 85.7266 61.6125 86.3984C62.2167 87.0651 62.5187 88.0026 62.5187 89.2109V90.4531H57.55L57.5344 90.5C57.576 91.0573 57.7609 91.5156 58.0891 91.875C58.4172 92.2344 58.8833 92.4141 59.4875 92.4141C59.9042 92.4141 60.2922 92.362 60.6516 92.2578C61.0161 92.1484 61.3703 91.9896 61.7141 91.7812L62.3312 93.1875C61.9823 93.4688 61.5422 93.7031 61.0109 93.8906C60.4849 94.0729 59.8807 94.1641 59.1984 94.1641ZM57.5656 88.9453H60.3859V88.7422C60.3859 88.2318 60.2792 87.8281 60.0656 87.5312C59.8573 87.2292 59.5135 87.0781 59.0344 87.0781C58.576 87.0781 58.2271 87.2526 57.9875 87.6016C57.7479 87.9453 57.5995 88.3802 57.5422 88.9062L57.5656 88.9453ZM67.3584 94.1641C66.7282 94.1641 66.1397 94.1042 65.5928 93.9844C65.0511 93.8646 64.5303 93.6927 64.0303 93.4688L64.0069 91.0781H65.5928L65.8975 92.2969C66.0746 92.3854 66.2673 92.4557 66.4756 92.5078C66.6892 92.5599 66.9314 92.5859 67.2022 92.5859C67.7126 92.5859 68.072 92.5026 68.2803 92.3359C68.4886 92.1693 68.5928 91.9609 68.5928 91.7109C68.5928 91.4766 68.4808 91.2708 68.2569 91.0938C68.0329 90.9115 67.5928 90.7526 66.9366 90.6172C65.9314 90.4089 65.1918 90.0859 64.7178 89.6484C64.2491 89.2109 64.0147 88.651 64.0147 87.9688C64.0147 87.5052 64.1319 87.0781 64.3662 86.6875C64.6058 86.2969 64.9678 85.987 65.4522 85.7578C65.9418 85.5234 66.5668 85.4062 67.3272 85.4062C67.9626 85.4062 68.5433 85.4688 69.0694 85.5938C69.6006 85.7135 70.0459 85.8724 70.4053 86.0703L70.4287 88.3828H68.8506L68.6084 87.2734C68.3064 87.0651 67.9261 86.9609 67.4678 86.9609C67.072 86.9609 66.7647 87.0443 66.5459 87.2109C66.3324 87.3724 66.2256 87.5781 66.2256 87.8281C66.2256 88.0469 66.3194 88.2448 66.5069 88.4219C66.6996 88.5938 67.1189 88.7526 67.7647 88.8984C68.8116 89.138 69.5746 89.4583 70.0537 89.8594C70.5329 90.2552 70.7725 90.8125 70.7725 91.5312C70.7725 92.3177 70.486 92.9531 69.9131 93.4375C69.3454 93.9219 68.4939 94.1641 67.3584 94.1641ZM75.5966 94.1641C74.9664 94.1641 74.3778 94.1042 73.8309 93.9844C73.2893 93.8646 72.7684 93.6927 72.2684 93.4688L72.245 91.0781H73.8309L74.1356 92.2969C74.3127 92.3854 74.5054 92.4557 74.7137 92.5078C74.9273 92.5599 75.1695 92.5859 75.4403 92.5859C75.9507 92.5859 76.3101 92.5026 76.5184 92.3359C76.7268 92.1693 76.8309 91.9609 76.8309 91.7109C76.8309 91.4766 76.719 91.2708 76.495 91.0938C76.271 90.9115 75.8309 90.7526 75.1747 90.6172C74.1695 90.4089 73.4299 90.0859 72.9559 89.6484C72.4872 89.2109 72.2528 88.651 72.2528 87.9688C72.2528 87.5052 72.37 87.0781 72.6044 86.6875C72.844 86.2969 73.2059 85.987 73.6903 85.7578C74.1799 85.5234 74.8049 85.4062 75.5653 85.4062C76.2007 85.4062 76.7815 85.4688 77.3075 85.5938C77.8387 85.7135 78.2841 85.8724 78.6434 86.0703L78.6669 88.3828H77.0887L76.8466 87.2734C76.5445 87.0651 76.1643 86.9609 75.7059 86.9609C75.3101 86.9609 75.0028 87.0443 74.7841 87.2109C74.5705 87.3724 74.4637 87.5781 74.4637 87.8281C74.4637 88.0469 74.5575 88.2448 74.745 88.4219C74.9377 88.5938 75.357 88.7526 76.0028 88.8984C77.0497 89.138 77.8127 89.4583 78.2919 89.8594C78.771 90.2552 79.0106 90.8125 79.0106 91.5312C79.0106 92.3177 78.7242 92.9531 78.1512 93.4375C77.5835 93.9219 76.732 94.1641 75.5966 94.1641ZM80.7253 94V92H82.9987V94H80.7253Z" fill="#13262F"/>
<path d="M123.062 94.1641C122.156 94.1641 121.362 94.0078 120.68 93.6953C119.997 93.3828 119.466 92.9297 119.086 92.3359C118.706 91.7422 118.516 91.0208 118.516 90.1719V84.2344L117.305 84V82.625H122.016V84L120.797 84.2344V90.1719C120.797 90.9219 120.997 91.4844 121.398 91.8594C121.805 92.2292 122.359 92.4141 123.062 92.4141C123.776 92.4141 124.336 92.2292 124.742 91.8594C125.148 91.4896 125.352 90.9271 125.352 90.1719V84.2344L124.141 84V82.625H128.852V84L127.633 84.2344V90.1719C127.633 91.0208 127.44 91.7448 127.055 92.3438C126.674 92.9375 126.141 93.3906 125.453 93.7031C124.771 94.0104 123.974 94.1641 123.062 94.1641ZM133.433 94.1641C132.803 94.1641 132.215 94.1042 131.668 93.9844C131.126 93.8646 130.605 93.6927 130.105 93.4688L130.082 91.0781H131.668L131.972 92.2969C132.15 92.3854 132.342 92.4557 132.551 92.5078C132.764 92.5599 133.006 92.5859 133.277 92.5859C133.788 92.5859 134.147 92.5026 134.355 92.3359C134.564 92.1693 134.668 91.9609 134.668 91.7109C134.668 91.4766 134.556 91.2708 134.332 91.0938C134.108 90.9115 133.668 90.7526 133.012 90.6172C132.006 90.4089 131.267 90.0859 130.793 89.6484C130.324 89.2109 130.09 88.651 130.09 87.9688C130.09 87.5052 130.207 87.0781 130.441 86.6875C130.681 86.2969 131.043 85.987 131.527 85.7578C132.017 85.5234 132.642 85.4062 133.402 85.4062C134.038 85.4062 134.618 85.4688 135.144 85.5938C135.676 85.7135 136.121 85.8724 136.48 86.0703L136.504 88.3828H134.926L134.683 87.2734C134.381 87.0651 134.001 86.9609 133.543 86.9609C133.147 86.9609 132.84 87.0443 132.621 87.2109C132.407 87.3724 132.301 87.5781 132.301 87.8281C132.301 88.0469 132.394 88.2448 132.582 88.4219C132.775 88.5938 133.194 88.7526 133.84 88.8984C134.887 89.138 135.65 89.4583 136.129 89.8594C136.608 90.2552 136.847 90.8125 136.847 91.5312C136.847 92.3177 136.561 92.9531 135.988 93.4375C135.42 93.9219 134.569 94.1641 133.433 94.1641ZM142.093 94.1641C141.281 94.1641 140.573 93.987 139.968 93.6328C139.369 93.2734 138.903 92.7812 138.57 92.1562C138.242 91.5312 138.078 90.8177 138.078 90.0156V89.7031C138.078 88.8646 138.234 88.1224 138.547 87.4766C138.859 86.8255 139.299 86.3151 139.867 85.9453C140.44 85.5703 141.114 85.3854 141.89 85.3906C143.031 85.3906 143.903 85.7266 144.507 86.3984C145.112 87.0651 145.414 88.0026 145.414 89.2109V90.4531H140.445L140.429 90.5C140.471 91.0573 140.656 91.5156 140.984 91.875C141.312 92.2344 141.778 92.4141 142.382 92.4141C142.799 92.4141 143.187 92.362 143.547 92.2578C143.911 92.1484 144.265 91.9896 144.609 91.7812L145.226 93.1875C144.877 93.4688 144.437 93.7031 143.906 93.8906C143.38 94.0729 142.776 94.1641 142.093 94.1641ZM140.461 88.9453H143.281V88.7422C143.281 88.2318 143.174 87.8281 142.961 87.5312C142.752 87.2292 142.409 87.0781 141.929 87.0781C141.471 87.0781 141.122 87.2526 140.882 87.6016C140.643 87.9453 140.494 88.3802 140.437 88.9062L140.461 88.9453ZM146.8 94V92.6328L147.894 92.3984V87.1562L146.683 86.9219V85.5469H150.019L150.105 86.5938L150.121 86.7812C150.537 85.8542 151.162 85.3906 151.996 85.3906C152.131 85.3906 152.277 85.401 152.433 85.4219C152.595 85.4427 152.74 85.474 152.871 85.5156L152.628 87.6172L151.496 87.5547C151.173 87.5391 150.91 87.5938 150.707 87.7188C150.509 87.8438 150.332 88.0234 150.175 88.2578V92.3984L151.269 92.6328V94H146.8ZM157.335 94.1641C156.705 94.1641 156.117 94.1042 155.57 93.9844C155.028 93.8646 154.507 93.6927 154.007 93.4688L153.984 91.0781H155.57L155.874 92.2969C156.051 92.3854 156.244 92.4557 156.452 92.5078C156.666 92.5599 156.908 92.5859 157.179 92.5859C157.689 92.5859 158.049 92.5026 158.257 92.3359C158.466 92.1693 158.57 91.9609 158.57 91.7109C158.57 91.4766 158.458 91.2708 158.234 91.0938C158.01 90.9115 157.57 90.7526 156.913 90.6172C155.908 90.4089 155.169 90.0859 154.695 89.6484C154.226 89.2109 153.992 88.651 153.992 87.9688C153.992 87.5052 154.109 87.0781 154.343 86.6875C154.583 86.2969 154.945 85.987 155.429 85.7578C155.919 85.5234 156.544 85.4062 157.304 85.4062C157.939 85.4062 158.52 85.4688 159.046 85.5938C159.577 85.7135 160.023 85.8724 160.382 86.0703L160.406 88.3828H158.827L158.585 87.2734C158.283 87.0651 157.903 86.9609 157.445 86.9609C157.049 86.9609 156.742 87.0443 156.523 87.2109C156.309 87.3724 156.202 87.5781 156.202 87.8281C156.202 88.0469 156.296 88.2448 156.484 88.4219C156.676 88.5938 157.096 88.7526 157.742 88.8984C158.788 89.138 159.551 89.4583 160.031 89.8594C160.51 90.2552 160.749 90.8125 160.749 91.5312C160.749 92.3177 160.463 92.9531 159.89 93.4375C159.322 93.9219 158.471 94.1641 157.335 94.1641ZM162.464 94V92H164.737V94H162.464Z" fill="#13262F"/>
<path d="M213.055 94V92.6328L214.273 92.3984V84.3828H212.203L212.078 85.7422H210.352V82.625H220.5V85.7422H218.766L218.641 84.3828H216.555V92.3984L217.781 92.6328V94H213.055ZM224.933 94.1641C224.121 94.1641 223.413 93.987 222.808 93.6328C222.209 93.2734 221.743 92.7812 221.41 92.1562C221.082 91.5312 220.918 90.8177 220.918 90.0156V89.7031C220.918 88.8646 221.074 88.1224 221.387 87.4766C221.699 86.8255 222.139 86.3151 222.707 85.9453C223.28 85.5703 223.954 85.3854 224.73 85.3906C225.871 85.3906 226.743 85.7266 227.347 86.3984C227.952 87.0651 228.254 88.0026 228.254 89.2109V90.4531H223.285L223.269 90.5C223.311 91.0573 223.496 91.5156 223.824 91.875C224.152 92.2344 224.618 92.4141 225.222 92.4141C225.639 92.4141 226.027 92.362 226.387 92.2578C226.751 92.1484 227.105 91.9896 227.449 91.7812L228.066 93.1875C227.717 93.4688 227.277 93.7031 226.746 93.8906C226.22 94.0729 225.616 94.1641 224.933 94.1641ZM223.301 88.9453H226.121V88.7422C226.121 88.2318 226.014 87.8281 225.801 87.5312C225.592 87.2292 225.249 87.0781 224.769 87.0781C224.311 87.0781 223.962 87.2526 223.722 87.6016C223.483 87.9453 223.334 88.3802 223.277 88.9062L223.301 88.9453ZM233.445 94.1641C232.632 94.1641 231.929 93.9818 231.336 93.6172C230.747 93.2526 230.294 92.75 229.976 92.1094C229.659 91.4688 229.5 90.7318 229.5 89.8984V89.6641C229.5 88.8359 229.661 88.1016 229.984 87.4609C230.307 86.8151 230.763 86.3099 231.351 85.9453C231.94 85.5755 232.632 85.3906 233.429 85.3906C234.185 85.3906 234.838 85.5104 235.39 85.75C235.942 85.9844 236.39 86.2578 236.734 86.5703L236.718 88.9922H235L234.695 87.4844C234.57 87.3594 234.411 87.2578 234.218 87.1797C234.026 87.1016 233.83 87.0625 233.632 87.0625C233.007 87.0625 232.541 87.2943 232.234 87.7578C231.932 88.2161 231.781 88.8516 231.781 89.6641V89.8984C231.781 90.7682 231.945 91.4062 232.273 91.8125C232.601 92.2135 232.997 92.4141 233.461 92.4141C233.862 92.4141 234.182 92.3099 234.422 92.1016C234.666 91.888 234.836 91.5885 234.929 91.2031H236.875L236.898 91.25C236.763 92.151 236.429 92.862 235.898 93.3828C235.367 93.9036 234.549 94.1641 233.445 94.1641ZM237.957 94V92.6328L239.058 92.3984V83.4219L237.839 83.1875V81.8125H241.332V86.625C241.597 86.2344 241.925 85.9323 242.316 85.7188C242.712 85.5 243.16 85.3906 243.66 85.3906C244.509 85.3906 245.181 85.6745 245.675 86.2422C246.175 86.8047 246.425 87.6771 246.425 88.8594V92.3984L247.519 92.6328V94H243.16V92.6328L244.144 92.3984V88.8438C244.144 88.2344 244.029 87.8021 243.8 87.5469C243.571 87.2917 243.235 87.1641 242.792 87.1641C242.152 87.1641 241.665 87.4141 241.332 87.9141V92.3984L242.316 92.6328V94H237.957ZM248.929 94V92H251.202V94H248.929Z" fill="#13262F"/>
<circle cx="52" cy="88" r="51.5" stroke="#13262F"/>
<circle cx="142" cy="88" r="51.5" stroke="#13262F"/>
<circle cx="231" cy="88" r="51.5" stroke="#13262F"/>
</svg>
