<svg width="1252" height="301" viewBox="0 0 1252 301" fill="none" xmlns="http://www.w3.org/2000/svg">
<path d="M0.5 155H1251.5" stroke="url(#paint0_linear_329_1979)" stroke-dasharray="2 2"/>
<path d="M203.516 249.999V248.796L204.758 248.562V240.069L203.516 239.835V238.624H212.367V241.577H210.828L210.703 240.147H206.727V243.616H210.789V245.14H206.727V248.562L207.969 248.796V249.999H203.516ZM213.328 249.999V248.796L214.5 248.562V242.991L213.258 242.757V241.546H216.469V248.562L217.633 248.796V249.999H213.328ZM214.422 239.632V237.812H216.469V239.632H214.422ZM218.625 249.999V248.796L219.789 248.562V242.991L218.555 242.757V241.546H221.602L221.703 242.608L221.719 242.78C222.172 241.853 222.828 241.39 223.688 241.39C224.01 241.39 224.299 241.431 224.555 241.515L224.328 243.335L223.227 243.272C222.867 243.252 222.57 243.322 222.336 243.483C222.102 243.645 221.909 243.869 221.758 244.155V248.562L222.93 248.796V249.999H218.625ZM228.758 250.147C228.039 250.147 227.479 249.947 227.078 249.546C226.677 249.14 226.477 248.494 226.477 247.608V242.952H225.242V241.546H226.477V239.491H228.438V241.546H230.109V242.952H228.438V247.608C228.438 247.968 228.51 248.228 228.656 248.39C228.807 248.551 229.01 248.632 229.266 248.632C229.411 248.632 229.573 248.621 229.75 248.601C229.932 248.575 230.081 248.549 230.195 248.522L230.391 249.905C230.167 249.973 229.906 250.03 229.609 250.077C229.312 250.124 229.029 250.147 228.758 250.147ZM234.852 250.163C234.247 250.163 233.682 250.106 233.156 249.991C232.635 249.871 232.112 249.697 231.586 249.468L231.562 247.233H232.977L233.273 248.452C233.503 248.556 233.734 248.634 233.969 248.687C234.203 248.739 234.466 248.765 234.758 248.765C235.32 248.765 235.716 248.666 235.945 248.468C236.18 248.27 236.297 248.025 236.297 247.733C236.297 247.457 236.174 247.218 235.93 247.015C235.69 246.812 235.229 246.637 234.547 246.491C233.531 246.272 232.786 245.955 232.312 245.538C231.839 245.116 231.602 244.569 231.602 243.897C231.602 243.439 231.724 243.02 231.969 242.64C232.219 242.259 232.583 241.957 233.062 241.733C233.547 241.509 234.141 241.397 234.844 241.397C235.484 241.397 236.052 241.465 236.547 241.601C237.047 241.731 237.471 241.905 237.82 242.124L237.875 244.272H236.469L236.227 243.155C235.888 242.916 235.456 242.796 234.93 242.796C234.497 242.796 234.156 242.892 233.906 243.085C233.656 243.272 233.531 243.509 233.531 243.796C233.531 244.046 233.63 244.262 233.828 244.444C234.026 244.627 234.464 244.793 235.141 244.944C236.24 245.2 237.026 245.533 237.5 245.944C237.974 246.356 238.211 246.9 238.211 247.577C238.211 248.332 237.935 248.952 237.383 249.437C236.831 249.921 235.987 250.163 234.852 250.163ZM246.852 250.163C246.247 250.163 245.682 250.106 245.156 249.991C244.635 249.871 244.112 249.697 243.586 249.468L243.562 247.233H244.977L245.273 248.452C245.503 248.556 245.734 248.634 245.969 248.687C246.203 248.739 246.466 248.765 246.758 248.765C247.32 248.765 247.716 248.666 247.945 248.468C248.18 248.27 248.297 248.025 248.297 247.733C248.297 247.457 248.174 247.218 247.93 247.015C247.69 246.812 247.229 246.637 246.547 246.491C245.531 246.272 244.786 245.955 244.312 245.538C243.839 245.116 243.602 244.569 243.602 243.897C243.602 243.439 243.724 243.02 243.969 242.64C244.219 242.259 244.583 241.957 245.062 241.733C245.547 241.509 246.141 241.397 246.844 241.397C247.484 241.397 248.052 241.465 248.547 241.601C249.047 241.731 249.471 241.905 249.82 242.124L249.875 244.272H248.469L248.227 243.155C247.888 242.916 247.456 242.796 246.93 242.796C246.497 242.796 246.156 242.892 245.906 243.085C245.656 243.272 245.531 243.509 245.531 243.796C245.531 244.046 245.63 244.262 245.828 244.444C246.026 244.627 246.464 244.793 247.141 244.944C248.24 245.2 249.026 245.533 249.5 245.944C249.974 246.356 250.211 246.9 250.211 247.577C250.211 248.332 249.935 248.952 249.383 249.437C248.831 249.921 247.987 250.163 246.852 250.163ZM255.32 250.163C254.518 250.163 253.823 249.986 253.234 249.632C252.646 249.272 252.188 248.778 251.859 248.147C251.536 247.517 251.375 246.796 251.375 245.983V245.655C251.375 244.832 251.534 244.101 251.852 243.46C252.174 242.814 252.615 242.309 253.172 241.944C253.734 241.575 254.378 241.39 255.102 241.39C256.242 241.39 257.109 241.728 257.703 242.405C258.302 243.082 258.602 244.012 258.602 245.194V246.319H253.414L253.398 246.358C253.43 247.025 253.622 247.575 253.977 248.007C254.331 248.434 254.836 248.647 255.492 248.647C255.951 248.647 256.367 248.585 256.742 248.46C257.117 248.335 257.466 248.158 257.789 247.929L258.398 249.163C258.065 249.45 257.641 249.689 257.125 249.882C256.615 250.069 256.013 250.163 255.32 250.163ZM253.445 244.937H256.719V244.733C256.719 244.181 256.589 243.733 256.328 243.39C256.073 243.046 255.672 242.874 255.125 242.874C254.646 242.874 254.258 243.067 253.961 243.452C253.669 243.838 253.49 244.319 253.422 244.897L253.445 244.937ZM263.273 250.163C262.669 250.163 262.104 250.106 261.578 249.991C261.057 249.871 260.534 249.697 260.008 249.468L259.984 247.233H261.398L261.695 248.452C261.924 248.556 262.156 248.634 262.391 248.687C262.625 248.739 262.888 248.765 263.18 248.765C263.742 248.765 264.138 248.666 264.367 248.468C264.602 248.27 264.719 248.025 264.719 247.733C264.719 247.457 264.596 247.218 264.352 247.015C264.112 246.812 263.651 246.637 262.969 246.491C261.953 246.272 261.208 245.955 260.734 245.538C260.26 245.116 260.023 244.569 260.023 243.897C260.023 243.439 260.146 243.02 260.391 242.64C260.641 242.259 261.005 241.957 261.484 241.733C261.969 241.509 262.562 241.397 263.266 241.397C263.906 241.397 264.474 241.465 264.969 241.601C265.469 241.731 265.893 241.905 266.242 242.124L266.297 244.272H264.891L264.648 243.155C264.31 242.916 263.878 242.796 263.352 242.796C262.919 242.796 262.578 242.892 262.328 243.085C262.078 243.272 261.953 243.509 261.953 243.796C261.953 244.046 262.052 244.262 262.25 244.444C262.448 244.627 262.885 244.793 263.562 244.944C264.661 245.2 265.448 245.533 265.922 245.944C266.396 246.356 266.633 246.9 266.633 247.577C266.633 248.332 266.357 248.952 265.805 249.437C265.253 249.921 264.409 250.163 263.273 250.163ZM271.32 250.163C270.716 250.163 270.151 250.106 269.625 249.991C269.104 249.871 268.581 249.697 268.055 249.468L268.031 247.233H269.445L269.742 248.452C269.971 248.556 270.203 248.634 270.438 248.687C270.672 248.739 270.935 248.765 271.227 248.765C271.789 248.765 272.185 248.666 272.414 248.468C272.648 248.27 272.766 248.025 272.766 247.733C272.766 247.457 272.643 247.218 272.398 247.015C272.159 246.812 271.698 246.637 271.016 246.491C270 246.272 269.255 245.955 268.781 245.538C268.307 245.116 268.07 244.569 268.07 243.897C268.07 243.439 268.193 243.02 268.438 242.64C268.688 242.259 269.052 241.957 269.531 241.733C270.016 241.509 270.609 241.397 271.312 241.397C271.953 241.397 272.521 241.465 273.016 241.601C273.516 241.731 273.94 241.905 274.289 242.124L274.344 244.272H272.938L272.695 243.155C272.357 242.916 271.924 242.796 271.398 242.796C270.966 242.796 270.625 242.892 270.375 243.085C270.125 243.272 270 243.509 270 243.796C270 244.046 270.099 244.262 270.297 244.444C270.495 244.627 270.932 244.793 271.609 244.944C272.708 245.2 273.495 245.533 273.969 245.944C274.443 246.356 274.68 246.9 274.68 247.577C274.68 248.332 274.404 248.952 273.852 249.437C273.299 249.921 272.456 250.163 271.32 250.163ZM275.766 249.999V248.796L276.938 248.562V242.991L275.695 242.757V241.546H278.906V248.562L280.07 248.796V249.999H275.766ZM276.859 239.632V237.812H278.906V239.632H276.859ZM284.906 250.163C284.094 250.163 283.396 249.981 282.812 249.616C282.229 249.246 281.781 248.739 281.469 248.093C281.156 247.447 281 246.702 281 245.858V245.694C281 244.856 281.156 244.114 281.469 243.468C281.781 242.822 282.229 242.314 282.812 241.944C283.396 241.575 284.089 241.39 284.891 241.39C285.703 241.39 286.401 241.575 286.984 241.944C287.568 242.309 288.016 242.817 288.328 243.468C288.641 244.114 288.797 244.856 288.797 245.694V245.858C288.797 246.707 288.641 247.455 288.328 248.101C288.016 248.746 287.568 249.252 286.984 249.616C286.406 249.981 285.714 250.163 284.906 250.163ZM284.906 248.647C285.557 248.647 286.042 248.39 286.359 247.874C286.677 247.353 286.836 246.681 286.836 245.858V245.694C286.836 244.887 286.674 244.223 286.352 243.702C286.034 243.176 285.547 242.913 284.891 242.913C284.24 242.913 283.755 243.176 283.438 243.702C283.125 244.223 282.969 244.887 282.969 245.694V245.858C282.969 246.681 283.125 247.353 283.438 247.874C283.755 248.39 284.245 248.647 284.906 248.647ZM289.836 249.999V248.796L291.008 248.562V242.991L289.773 242.757V241.546H292.82L292.922 242.772C293.203 242.335 293.552 241.996 293.969 241.757C294.391 241.512 294.867 241.39 295.398 241.39C296.268 241.39 296.945 241.658 297.43 242.194C297.914 242.731 298.156 243.564 298.156 244.694V248.562L299.328 248.796V249.999H295.086V248.796L296.188 248.562V244.71C296.188 244.069 296.06 243.616 295.805 243.351C295.549 243.08 295.169 242.944 294.664 242.944C294.289 242.944 293.958 243.03 293.672 243.202C293.385 243.369 293.154 243.603 292.977 243.905V248.562L294.047 248.796V249.999H289.836ZM300.75 249.999V248.179H302.711V249.999H300.75Z" fill="white"/>
<path d="M164.469 290V278.625H167.68C168.669 278.625 169.544 278.844 170.305 279.281C171.065 279.719 171.651 280.341 172.062 281.148C172.479 281.956 172.69 282.883 172.695 283.93V284.656C172.695 285.729 172.487 286.669 172.07 287.477C171.659 288.284 171.068 288.904 170.297 289.336C169.531 289.768 168.638 289.99 167.617 290H164.469ZM165.969 279.859V288.773H167.547C168.703 288.773 169.602 288.414 170.242 287.695C170.888 286.977 171.211 285.953 171.211 284.625V283.961C171.211 282.669 170.906 281.667 170.297 280.953C169.693 280.234 168.833 279.87 167.719 279.859H165.969ZM178.25 290.156C177.104 290.156 176.172 289.781 175.453 289.031C174.734 288.276 174.375 287.268 174.375 286.008V285.742C174.375 284.904 174.534 284.156 174.852 283.5C175.174 282.839 175.622 282.323 176.195 281.953C176.773 281.578 177.398 281.391 178.07 281.391C179.169 281.391 180.023 281.753 180.633 282.477C181.242 283.201 181.547 284.237 181.547 285.586V286.188H175.82C175.841 287.021 176.083 287.695 176.547 288.211C177.016 288.721 177.609 288.977 178.328 288.977C178.839 288.977 179.271 288.872 179.625 288.664C179.979 288.456 180.289 288.18 180.555 287.836L181.438 288.523C180.729 289.612 179.667 290.156 178.25 290.156ZM178.07 282.578C177.487 282.578 176.997 282.792 176.602 283.219C176.206 283.641 175.961 284.234 175.867 285H180.102V284.891C180.06 284.156 179.862 283.589 179.508 283.188C179.154 282.781 178.674 282.578 178.07 282.578ZM185.906 288.039L188 281.547H189.477L186.445 290H185.344L182.281 281.547H183.758L185.906 288.039ZM194.266 290.156C193.12 290.156 192.188 289.781 191.469 289.031C190.75 288.276 190.391 287.268 190.391 286.008V285.742C190.391 284.904 190.549 284.156 190.867 283.5C191.19 282.839 191.638 282.323 192.211 281.953C192.789 281.578 193.414 281.391 194.086 281.391C195.185 281.391 196.039 281.753 196.648 282.477C197.258 283.201 197.562 284.237 197.562 285.586V286.188H191.836C191.857 287.021 192.099 287.695 192.562 288.211C193.031 288.721 193.625 288.977 194.344 288.977C194.854 288.977 195.286 288.872 195.641 288.664C195.995 288.456 196.305 288.18 196.57 287.836L197.453 288.523C196.745 289.612 195.682 290.156 194.266 290.156ZM194.086 282.578C193.503 282.578 193.013 282.792 192.617 283.219C192.221 283.641 191.977 284.234 191.883 285H196.117V284.891C196.076 284.156 195.878 283.589 195.523 283.188C195.169 282.781 194.69 282.578 194.086 282.578ZM200.812 290H199.367V278H200.812V290ZM202.75 285.695C202.75 284.867 202.911 284.122 203.234 283.461C203.562 282.799 204.016 282.289 204.594 281.93C205.177 281.57 205.841 281.391 206.586 281.391C207.737 281.391 208.667 281.789 209.375 282.586C210.089 283.383 210.445 284.443 210.445 285.766V285.867C210.445 286.69 210.286 287.43 209.969 288.086C209.656 288.737 209.206 289.245 208.617 289.609C208.034 289.974 207.362 290.156 206.602 290.156C205.456 290.156 204.526 289.758 203.812 288.961C203.104 288.164 202.75 287.109 202.75 285.797V285.695ZM204.203 285.867C204.203 286.805 204.419 287.557 204.852 288.125C205.289 288.693 205.872 288.977 206.602 288.977C207.336 288.977 207.919 288.69 208.352 288.117C208.784 287.539 209 286.732 209 285.695C209 284.768 208.779 284.018 208.336 283.445C207.898 282.867 207.315 282.578 206.586 282.578C205.872 282.578 205.297 282.862 204.859 283.43C204.422 283.997 204.203 284.81 204.203 285.867ZM219.398 285.867C219.398 287.154 219.104 288.19 218.516 288.977C217.927 289.763 217.13 290.156 216.125 290.156C215.099 290.156 214.292 289.831 213.703 289.18V293.25H212.258V281.547H213.578L213.648 282.484C214.237 281.755 215.055 281.391 216.102 281.391C217.117 281.391 217.919 281.773 218.508 282.539C219.102 283.305 219.398 284.37 219.398 285.734V285.867ZM217.953 285.703C217.953 284.75 217.75 283.997 217.344 283.445C216.938 282.893 216.38 282.617 215.672 282.617C214.797 282.617 214.141 283.005 213.703 283.781V287.82C214.135 288.591 214.797 288.977 215.688 288.977C216.38 288.977 216.93 288.703 217.336 288.156C217.747 287.604 217.953 286.786 217.953 285.703ZM224.75 290.156C223.604 290.156 222.672 289.781 221.953 289.031C221.234 288.276 220.875 287.268 220.875 286.008V285.742C220.875 284.904 221.034 284.156 221.352 283.5C221.674 282.839 222.122 282.323 222.695 281.953C223.273 281.578 223.898 281.391 224.57 281.391C225.669 281.391 226.523 281.753 227.133 282.477C227.742 283.201 228.047 284.237 228.047 285.586V286.188H222.32C222.341 287.021 222.583 287.695 223.047 288.211C223.516 288.721 224.109 288.977 224.828 288.977C225.339 288.977 225.771 288.872 226.125 288.664C226.479 288.456 226.789 288.18 227.055 287.836L227.938 288.523C227.229 289.612 226.167 290.156 224.75 290.156ZM224.57 282.578C223.987 282.578 223.497 282.792 223.102 283.219C222.706 283.641 222.461 284.234 222.367 285H226.602V284.891C226.56 284.156 226.362 283.589 226.008 283.188C225.654 282.781 225.174 282.578 224.57 282.578ZM233.812 282.844C233.594 282.807 233.357 282.789 233.102 282.789C232.154 282.789 231.51 283.193 231.172 284V290H229.727V281.547H231.133L231.156 282.523C231.63 281.768 232.302 281.391 233.172 281.391C233.453 281.391 233.667 281.427 233.812 281.5V282.844ZM240.07 287.758C240.07 287.367 239.922 287.065 239.625 286.852C239.333 286.633 238.82 286.445 238.086 286.289C237.357 286.133 236.776 285.945 236.344 285.727C235.917 285.508 235.599 285.247 235.391 284.945C235.188 284.643 235.086 284.284 235.086 283.867C235.086 283.174 235.378 282.589 235.961 282.109C236.549 281.63 237.299 281.391 238.211 281.391C239.169 281.391 239.945 281.638 240.539 282.133C241.138 282.628 241.438 283.26 241.438 284.031H239.984C239.984 283.635 239.815 283.294 239.477 283.008C239.143 282.721 238.721 282.578 238.211 282.578C237.685 282.578 237.273 282.693 236.977 282.922C236.68 283.151 236.531 283.451 236.531 283.82C236.531 284.169 236.669 284.432 236.945 284.609C237.221 284.786 237.719 284.956 238.438 285.117C239.161 285.279 239.747 285.471 240.195 285.695C240.643 285.919 240.974 286.19 241.188 286.508C241.406 286.82 241.516 287.203 241.516 287.656C241.516 288.411 241.214 289.018 240.609 289.477C240.005 289.93 239.221 290.156 238.258 290.156C237.581 290.156 236.982 290.036 236.461 289.797C235.94 289.557 235.531 289.224 235.234 288.797C234.943 288.365 234.797 287.898 234.797 287.398H236.242C236.268 287.883 236.461 288.268 236.82 288.555C237.185 288.836 237.664 288.977 238.258 288.977C238.805 288.977 239.242 288.867 239.57 288.648C239.904 288.424 240.07 288.128 240.07 287.758ZM249.328 279.5V281.547H250.906V282.664H249.328V287.906C249.328 288.245 249.398 288.5 249.539 288.672C249.68 288.839 249.919 288.922 250.258 288.922C250.424 288.922 250.654 288.891 250.945 288.828V290C250.565 290.104 250.195 290.156 249.836 290.156C249.19 290.156 248.703 289.961 248.375 289.57C248.047 289.18 247.883 288.625 247.883 287.906V282.664H246.344V281.547H247.883V279.5H249.328ZM256.688 282.844C256.469 282.807 256.232 282.789 255.977 282.789C255.029 282.789 254.385 283.193 254.047 284V290H252.602V281.547H254.008L254.031 282.523C254.505 281.768 255.177 281.391 256.047 281.391C256.328 281.391 256.542 281.427 256.688 281.5V282.844ZM262.93 290C262.846 289.833 262.779 289.536 262.727 289.109C262.055 289.807 261.253 290.156 260.32 290.156C259.487 290.156 258.802 289.922 258.266 289.453C257.734 288.979 257.469 288.38 257.469 287.656C257.469 286.776 257.802 286.094 258.469 285.609C259.141 285.12 260.083 284.875 261.297 284.875H262.703V284.211C262.703 283.706 262.552 283.305 262.25 283.008C261.948 282.706 261.503 282.555 260.914 282.555C260.398 282.555 259.966 282.685 259.617 282.945C259.268 283.206 259.094 283.521 259.094 283.891H257.641C257.641 283.469 257.789 283.062 258.086 282.672C258.388 282.276 258.794 281.964 259.305 281.734C259.82 281.505 260.385 281.391 261 281.391C261.974 281.391 262.737 281.635 263.289 282.125C263.841 282.609 264.128 283.279 264.148 284.133V288.023C264.148 288.799 264.247 289.417 264.445 289.875V290H262.93ZM260.531 288.898C260.984 288.898 261.414 288.781 261.82 288.547C262.227 288.312 262.521 288.008 262.703 287.633V285.898H261.57C259.799 285.898 258.914 286.417 258.914 287.453C258.914 287.906 259.065 288.26 259.367 288.516C259.669 288.771 260.057 288.898 260.531 288.898ZM267.984 290H266.539V281.547H267.984V290ZM266.422 279.305C266.422 279.07 266.492 278.872 266.633 278.711C266.779 278.549 266.992 278.469 267.273 278.469C267.555 278.469 267.768 278.549 267.914 278.711C268.06 278.872 268.133 279.07 268.133 279.305C268.133 279.539 268.06 279.734 267.914 279.891C267.768 280.047 267.555 280.125 267.273 280.125C266.992 280.125 266.779 280.047 266.633 279.891C266.492 279.734 266.422 279.539 266.422 279.305ZM271.672 281.547L271.719 282.609C272.365 281.797 273.208 281.391 274.25 281.391C276.036 281.391 276.938 282.398 276.953 284.414V290H275.508V284.406C275.503 283.797 275.362 283.346 275.086 283.055C274.815 282.763 274.391 282.617 273.812 282.617C273.344 282.617 272.932 282.742 272.578 282.992C272.224 283.242 271.948 283.57 271.75 283.977V290H270.305V281.547H271.672ZM282.75 285.703C282.75 284.406 283.057 283.365 283.672 282.578C284.286 281.786 285.091 281.391 286.086 281.391C287.076 281.391 287.859 281.729 288.438 282.406V278H289.883V290H288.555L288.484 289.094C287.906 289.802 287.102 290.156 286.07 290.156C285.091 290.156 284.292 289.755 283.672 288.953C283.057 288.151 282.75 287.104 282.75 285.812V285.703ZM284.195 285.867C284.195 286.826 284.393 287.576 284.789 288.117C285.185 288.659 285.732 288.93 286.43 288.93C287.346 288.93 288.016 288.518 288.438 287.695V283.812C288.005 283.016 287.341 282.617 286.445 282.617C285.737 282.617 285.185 282.891 284.789 283.438C284.393 283.984 284.195 284.794 284.195 285.867ZM295.641 290.156C294.495 290.156 293.562 289.781 292.844 289.031C292.125 288.276 291.766 287.268 291.766 286.008V285.742C291.766 284.904 291.924 284.156 292.242 283.5C292.565 282.839 293.013 282.323 293.586 281.953C294.164 281.578 294.789 281.391 295.461 281.391C296.56 281.391 297.414 281.753 298.023 282.477C298.633 283.201 298.938 284.237 298.938 285.586V286.188H293.211C293.232 287.021 293.474 287.695 293.938 288.211C294.406 288.721 295 288.977 295.719 288.977C296.229 288.977 296.661 288.872 297.016 288.664C297.37 288.456 297.68 288.18 297.945 287.836L298.828 288.523C298.12 289.612 297.057 290.156 295.641 290.156ZM295.461 282.578C294.878 282.578 294.388 282.792 293.992 283.219C293.596 283.641 293.352 284.234 293.258 285H297.492V284.891C297.451 284.156 297.253 283.589 296.898 283.188C296.544 282.781 296.065 282.578 295.461 282.578ZM305.539 287.758C305.539 287.367 305.391 287.065 305.094 286.852C304.802 286.633 304.289 286.445 303.555 286.289C302.826 286.133 302.245 285.945 301.812 285.727C301.385 285.508 301.068 285.247 300.859 284.945C300.656 284.643 300.555 284.284 300.555 283.867C300.555 283.174 300.846 282.589 301.43 282.109C302.018 281.63 302.768 281.391 303.68 281.391C304.638 281.391 305.414 281.638 306.008 282.133C306.607 282.628 306.906 283.26 306.906 284.031H305.453C305.453 283.635 305.284 283.294 304.945 283.008C304.612 282.721 304.19 282.578 303.68 282.578C303.154 282.578 302.742 282.693 302.445 282.922C302.148 283.151 302 283.451 302 283.82C302 284.169 302.138 284.432 302.414 284.609C302.69 284.786 303.188 284.956 303.906 285.117C304.63 285.279 305.216 285.471 305.664 285.695C306.112 285.919 306.443 286.19 306.656 286.508C306.875 286.82 306.984 287.203 306.984 287.656C306.984 288.411 306.682 289.018 306.078 289.477C305.474 289.93 304.69 290.156 303.727 290.156C303.049 290.156 302.451 290.036 301.93 289.797C301.409 289.557 301 289.224 300.703 288.797C300.411 288.365 300.266 287.898 300.266 287.398H301.711C301.737 287.883 301.93 288.268 302.289 288.555C302.654 288.836 303.133 288.977 303.727 288.977C304.273 288.977 304.711 288.867 305.039 288.648C305.372 288.424 305.539 288.128 305.539 287.758ZM310.438 290H308.992V281.547H310.438V290ZM308.875 279.305C308.875 279.07 308.945 278.872 309.086 278.711C309.232 278.549 309.445 278.469 309.727 278.469C310.008 278.469 310.221 278.549 310.367 278.711C310.513 278.872 310.586 279.07 310.586 279.305C310.586 279.539 310.513 279.734 310.367 279.891C310.221 280.047 310.008 280.125 309.727 280.125C309.445 280.125 309.232 280.047 309.086 279.891C308.945 279.734 308.875 279.539 308.875 279.305ZM312.414 285.703C312.414 284.385 312.719 283.339 313.328 282.562C313.938 281.781 314.745 281.391 315.75 281.391C316.781 281.391 317.586 281.755 318.164 282.484L318.234 281.547H319.555V289.797C319.555 290.891 319.229 291.753 318.578 292.383C317.932 293.013 317.062 293.328 315.969 293.328C315.359 293.328 314.763 293.198 314.18 292.938C313.596 292.677 313.151 292.32 312.844 291.867L313.594 291C314.214 291.766 314.971 292.148 315.867 292.148C316.57 292.148 317.117 291.951 317.508 291.555C317.904 291.159 318.102 290.602 318.102 289.883V289.156C317.523 289.823 316.734 290.156 315.734 290.156C314.745 290.156 313.943 289.758 313.328 288.961C312.719 288.164 312.414 287.078 312.414 285.703ZM313.867 285.867C313.867 286.82 314.062 287.57 314.453 288.117C314.844 288.659 315.391 288.93 316.094 288.93C317.005 288.93 317.674 288.516 318.102 287.688V283.828C317.659 283.021 316.995 282.617 316.109 282.617C315.406 282.617 314.857 282.891 314.461 283.438C314.065 283.984 313.867 284.794 313.867 285.867ZM323.109 281.547L323.156 282.609C323.802 281.797 324.646 281.391 325.688 281.391C327.474 281.391 328.375 282.398 328.391 284.414V290H326.945V284.406C326.94 283.797 326.799 283.346 326.523 283.055C326.253 282.763 325.828 282.617 325.25 282.617C324.781 282.617 324.37 282.742 324.016 282.992C323.661 283.242 323.385 283.57 323.188 283.977V290H321.742V281.547H323.109ZM334.078 290.156C332.932 290.156 332 289.781 331.281 289.031C330.562 288.276 330.203 287.268 330.203 286.008V285.742C330.203 284.904 330.362 284.156 330.68 283.5C331.003 282.839 331.451 282.323 332.023 281.953C332.602 281.578 333.227 281.391 333.898 281.391C334.997 281.391 335.852 281.753 336.461 282.477C337.07 283.201 337.375 284.237 337.375 285.586V286.188H331.648C331.669 287.021 331.911 287.695 332.375 288.211C332.844 288.721 333.438 288.977 334.156 288.977C334.667 288.977 335.099 288.872 335.453 288.664C335.807 288.456 336.117 288.18 336.383 287.836L337.266 288.523C336.557 289.612 335.495 290.156 334.078 290.156ZM333.898 282.578C333.315 282.578 332.826 282.792 332.43 283.219C332.034 283.641 331.789 284.234 331.695 285H335.93V284.891C335.888 284.156 335.69 283.589 335.336 283.188C334.982 282.781 334.503 282.578 333.898 282.578ZM343.141 282.844C342.922 282.807 342.685 282.789 342.43 282.789C341.482 282.789 340.839 283.193 340.5 284V290H339.055V281.547H340.461L340.484 282.523C340.958 281.768 341.63 281.391 342.5 281.391C342.781 281.391 342.995 281.427 343.141 281.5V282.844ZM349.398 287.758C349.398 287.367 349.25 287.065 348.953 286.852C348.661 286.633 348.148 286.445 347.414 286.289C346.685 286.133 346.104 285.945 345.672 285.727C345.245 285.508 344.927 285.247 344.719 284.945C344.516 284.643 344.414 284.284 344.414 283.867C344.414 283.174 344.706 282.589 345.289 282.109C345.878 281.63 346.628 281.391 347.539 281.391C348.497 281.391 349.273 281.638 349.867 282.133C350.466 282.628 350.766 283.26 350.766 284.031H349.312C349.312 283.635 349.143 283.294 348.805 283.008C348.471 282.721 348.049 282.578 347.539 282.578C347.013 282.578 346.602 282.693 346.305 282.922C346.008 283.151 345.859 283.451 345.859 283.82C345.859 284.169 345.997 284.432 346.273 284.609C346.549 284.786 347.047 284.956 347.766 285.117C348.49 285.279 349.076 285.471 349.523 285.695C349.971 285.919 350.302 286.19 350.516 286.508C350.734 286.82 350.844 287.203 350.844 287.656C350.844 288.411 350.542 289.018 349.938 289.477C349.333 289.93 348.549 290.156 347.586 290.156C346.909 290.156 346.31 290.036 345.789 289.797C345.268 289.557 344.859 289.224 344.562 288.797C344.271 288.365 344.125 287.898 344.125 287.398H345.57C345.596 287.883 345.789 288.268 346.148 288.555C346.513 288.836 346.992 288.977 347.586 288.977C348.133 288.977 348.57 288.867 348.898 288.648C349.232 288.424 349.398 288.128 349.398 287.758ZM352.758 289.242C352.758 288.992 352.831 288.784 352.977 288.617C353.128 288.451 353.352 288.367 353.648 288.367C353.945 288.367 354.169 288.451 354.32 288.617C354.477 288.784 354.555 288.992 354.555 289.242C354.555 289.482 354.477 289.682 354.32 289.844C354.169 290.005 353.945 290.086 353.648 290.086C353.352 290.086 353.128 290.005 352.977 289.844C352.831 289.682 352.758 289.482 352.758 289.242Z" fill="white"/>
<path d="M567.469 290V278.625H570.68C571.669 278.625 572.544 278.844 573.305 279.281C574.065 279.719 574.651 280.341 575.062 281.148C575.479 281.956 575.69 282.883 575.695 283.93V284.656C575.695 285.729 575.487 286.669 575.07 287.477C574.659 288.284 574.068 288.904 573.297 289.336C572.531 289.768 571.638 289.99 570.617 290H567.469ZM568.969 279.859V288.773H570.547C571.703 288.773 572.602 288.414 573.242 287.695C573.888 286.977 574.211 285.953 574.211 284.625V283.961C574.211 282.669 573.906 281.667 573.297 280.953C572.693 280.234 571.833 279.87 570.719 279.859H568.969ZM581.25 290.156C580.104 290.156 579.172 289.781 578.453 289.031C577.734 288.276 577.375 287.268 577.375 286.008V285.742C577.375 284.904 577.534 284.156 577.852 283.5C578.174 282.839 578.622 282.323 579.195 281.953C579.773 281.578 580.398 281.391 581.07 281.391C582.169 281.391 583.023 281.753 583.633 282.477C584.242 283.201 584.547 284.237 584.547 285.586V286.188H578.82C578.841 287.021 579.083 287.695 579.547 288.211C580.016 288.721 580.609 288.977 581.328 288.977C581.839 288.977 582.271 288.872 582.625 288.664C582.979 288.456 583.289 288.18 583.555 287.836L584.438 288.523C583.729 289.612 582.667 290.156 581.25 290.156ZM581.07 282.578C580.487 282.578 579.997 282.792 579.602 283.219C579.206 283.641 578.961 284.234 578.867 285H583.102V284.891C583.06 284.156 582.862 283.589 582.508 283.188C582.154 282.781 581.674 282.578 581.07 282.578ZM591.148 287.758C591.148 287.367 591 287.065 590.703 286.852C590.411 286.633 589.898 286.445 589.164 286.289C588.435 286.133 587.854 285.945 587.422 285.727C586.995 285.508 586.677 285.247 586.469 284.945C586.266 284.643 586.164 284.284 586.164 283.867C586.164 283.174 586.456 282.589 587.039 282.109C587.628 281.63 588.378 281.391 589.289 281.391C590.247 281.391 591.023 281.638 591.617 282.133C592.216 282.628 592.516 283.26 592.516 284.031H591.062C591.062 283.635 590.893 283.294 590.555 283.008C590.221 282.721 589.799 282.578 589.289 282.578C588.763 282.578 588.352 282.693 588.055 282.922C587.758 283.151 587.609 283.451 587.609 283.82C587.609 284.169 587.747 284.432 588.023 284.609C588.299 284.786 588.797 284.956 589.516 285.117C590.24 285.279 590.826 285.471 591.273 285.695C591.721 285.919 592.052 286.19 592.266 286.508C592.484 286.82 592.594 287.203 592.594 287.656C592.594 288.411 592.292 289.018 591.688 289.477C591.083 289.93 590.299 290.156 589.336 290.156C588.659 290.156 588.06 290.036 587.539 289.797C587.018 289.557 586.609 289.224 586.312 288.797C586.021 288.365 585.875 287.898 585.875 287.398H587.32C587.346 287.883 587.539 288.268 587.898 288.555C588.263 288.836 588.742 288.977 589.336 288.977C589.883 288.977 590.32 288.867 590.648 288.648C590.982 288.424 591.148 288.128 591.148 287.758ZM596.047 290H594.602V281.547H596.047V290ZM594.484 279.305C594.484 279.07 594.555 278.872 594.695 278.711C594.841 278.549 595.055 278.469 595.336 278.469C595.617 278.469 595.831 278.549 595.977 278.711C596.122 278.872 596.195 279.07 596.195 279.305C596.195 279.539 596.122 279.734 595.977 279.891C595.831 280.047 595.617 280.125 595.336 280.125C595.055 280.125 594.841 280.047 594.695 279.891C594.555 279.734 594.484 279.539 594.484 279.305ZM598.023 285.703C598.023 284.385 598.328 283.339 598.938 282.562C599.547 281.781 600.354 281.391 601.359 281.391C602.391 281.391 603.195 281.755 603.773 282.484L603.844 281.547H605.164V289.797C605.164 290.891 604.839 291.753 604.188 292.383C603.542 293.013 602.672 293.328 601.578 293.328C600.969 293.328 600.372 293.198 599.789 292.938C599.206 292.677 598.76 292.32 598.453 291.867L599.203 291C599.823 291.766 600.581 292.148 601.477 292.148C602.18 292.148 602.727 291.951 603.117 291.555C603.513 291.159 603.711 290.602 603.711 289.883V289.156C603.133 289.823 602.344 290.156 601.344 290.156C600.354 290.156 599.552 289.758 598.938 288.961C598.328 288.164 598.023 287.078 598.023 285.703ZM599.477 285.867C599.477 286.82 599.672 287.57 600.062 288.117C600.453 288.659 601 288.93 601.703 288.93C602.615 288.93 603.284 288.516 603.711 287.688V283.828C603.268 283.021 602.604 282.617 601.719 282.617C601.016 282.617 600.466 282.891 600.07 283.438C599.674 283.984 599.477 284.794 599.477 285.867ZM608.719 281.547L608.766 282.609C609.411 281.797 610.255 281.391 611.297 281.391C613.083 281.391 613.984 282.398 614 284.414V290H612.555V284.406C612.549 283.797 612.409 283.346 612.133 283.055C611.862 282.763 611.438 282.617 610.859 282.617C610.391 282.617 609.979 282.742 609.625 282.992C609.271 283.242 608.995 283.57 608.797 283.977V290H607.352V281.547H608.719ZM619.688 290.156C618.542 290.156 617.609 289.781 616.891 289.031C616.172 288.276 615.812 287.268 615.812 286.008V285.742C615.812 284.904 615.971 284.156 616.289 283.5C616.612 282.839 617.06 282.323 617.633 281.953C618.211 281.578 618.836 281.391 619.508 281.391C620.607 281.391 621.461 281.753 622.07 282.477C622.68 283.201 622.984 284.237 622.984 285.586V286.188H617.258C617.279 287.021 617.521 287.695 617.984 288.211C618.453 288.721 619.047 288.977 619.766 288.977C620.276 288.977 620.708 288.872 621.062 288.664C621.417 288.456 621.727 288.18 621.992 287.836L622.875 288.523C622.167 289.612 621.104 290.156 619.688 290.156ZM619.508 282.578C618.924 282.578 618.435 282.792 618.039 283.219C617.643 283.641 617.398 284.234 617.305 285H621.539V284.891C621.497 284.156 621.299 283.589 620.945 283.188C620.591 282.781 620.112 282.578 619.508 282.578ZM628.75 282.844C628.531 282.807 628.294 282.789 628.039 282.789C627.091 282.789 626.448 283.193 626.109 284V290H624.664V281.547H626.07L626.094 282.523C626.568 281.768 627.24 281.391 628.109 281.391C628.391 281.391 628.604 281.427 628.75 281.5V282.844ZM635.008 287.758C635.008 287.367 634.859 287.065 634.562 286.852C634.271 286.633 633.758 286.445 633.023 286.289C632.294 286.133 631.714 285.945 631.281 285.727C630.854 285.508 630.536 285.247 630.328 284.945C630.125 284.643 630.023 284.284 630.023 283.867C630.023 283.174 630.315 282.589 630.898 282.109C631.487 281.63 632.237 281.391 633.148 281.391C634.107 281.391 634.883 281.638 635.477 282.133C636.076 282.628 636.375 283.26 636.375 284.031H634.922C634.922 283.635 634.753 283.294 634.414 283.008C634.081 282.721 633.659 282.578 633.148 282.578C632.622 282.578 632.211 282.693 631.914 282.922C631.617 283.151 631.469 283.451 631.469 283.82C631.469 284.169 631.607 284.432 631.883 284.609C632.159 284.786 632.656 284.956 633.375 285.117C634.099 285.279 634.685 285.471 635.133 285.695C635.581 285.919 635.911 286.19 636.125 286.508C636.344 286.82 636.453 287.203 636.453 287.656C636.453 288.411 636.151 289.018 635.547 289.477C634.943 289.93 634.159 290.156 633.195 290.156C632.518 290.156 631.919 290.036 631.398 289.797C630.878 289.557 630.469 289.224 630.172 288.797C629.88 288.365 629.734 287.898 629.734 287.398H631.18C631.206 287.883 631.398 288.268 631.758 288.555C632.122 288.836 632.602 288.977 633.195 288.977C633.742 288.977 634.18 288.867 634.508 288.648C634.841 288.424 635.008 288.128 635.008 287.758ZM644.266 279.5V281.547H645.844V282.664H644.266V287.906C644.266 288.245 644.336 288.5 644.477 288.672C644.617 288.839 644.857 288.922 645.195 288.922C645.362 288.922 645.591 288.891 645.883 288.828V290C645.503 290.104 645.133 290.156 644.773 290.156C644.128 290.156 643.641 289.961 643.312 289.57C642.984 289.18 642.82 288.625 642.82 287.906V282.664H641.281V281.547H642.82V279.5H644.266ZM651.625 282.844C651.406 282.807 651.169 282.789 650.914 282.789C649.966 282.789 649.323 283.193 648.984 284V290H647.539V281.547H648.945L648.969 282.523C649.443 281.768 650.115 281.391 650.984 281.391C651.266 281.391 651.479 281.427 651.625 281.5V282.844ZM657.867 290C657.784 289.833 657.716 289.536 657.664 289.109C656.992 289.807 656.19 290.156 655.258 290.156C654.424 290.156 653.74 289.922 653.203 289.453C652.672 288.979 652.406 288.38 652.406 287.656C652.406 286.776 652.74 286.094 653.406 285.609C654.078 285.12 655.021 284.875 656.234 284.875H657.641V284.211C657.641 283.706 657.49 283.305 657.188 283.008C656.885 282.706 656.44 282.555 655.852 282.555C655.336 282.555 654.904 282.685 654.555 282.945C654.206 283.206 654.031 283.521 654.031 283.891H652.578C652.578 283.469 652.727 283.062 653.023 282.672C653.326 282.276 653.732 281.964 654.242 281.734C654.758 281.505 655.323 281.391 655.938 281.391C656.911 281.391 657.674 281.635 658.227 282.125C658.779 282.609 659.065 283.279 659.086 284.133V288.023C659.086 288.799 659.185 289.417 659.383 289.875V290H657.867ZM655.469 288.898C655.922 288.898 656.352 288.781 656.758 288.547C657.164 288.312 657.458 288.008 657.641 287.633V285.898H656.508C654.737 285.898 653.852 286.417 653.852 287.453C653.852 287.906 654.003 288.26 654.305 288.516C654.607 288.771 654.995 288.898 655.469 288.898ZM662.922 290H661.477V281.547H662.922V290ZM661.359 279.305C661.359 279.07 661.43 278.872 661.57 278.711C661.716 278.549 661.93 278.469 662.211 278.469C662.492 278.469 662.706 278.549 662.852 278.711C662.997 278.872 663.07 279.07 663.07 279.305C663.07 279.539 662.997 279.734 662.852 279.891C662.706 280.047 662.492 280.125 662.211 280.125C661.93 280.125 661.716 280.047 661.57 279.891C661.43 279.734 661.359 279.539 661.359 279.305ZM666.609 281.547L666.656 282.609C667.302 281.797 668.146 281.391 669.188 281.391C670.974 281.391 671.875 282.398 671.891 284.414V290H670.445V284.406C670.44 283.797 670.299 283.346 670.023 283.055C669.753 282.763 669.328 282.617 668.75 282.617C668.281 282.617 667.87 282.742 667.516 282.992C667.161 283.242 666.885 283.57 666.688 283.977V290H665.242V281.547H666.609ZM677.688 285.703C677.688 284.406 677.995 283.365 678.609 282.578C679.224 281.786 680.029 281.391 681.023 281.391C682.013 281.391 682.797 281.729 683.375 282.406V278H684.82V290H683.492L683.422 289.094C682.844 289.802 682.039 290.156 681.008 290.156C680.029 290.156 679.229 289.755 678.609 288.953C677.995 288.151 677.688 287.104 677.688 285.812V285.703ZM679.133 285.867C679.133 286.826 679.331 287.576 679.727 288.117C680.122 288.659 680.669 288.93 681.367 288.93C682.284 288.93 682.953 288.518 683.375 287.695V283.812C682.943 283.016 682.279 282.617 681.383 282.617C680.674 282.617 680.122 282.891 679.727 283.438C679.331 283.984 679.133 284.794 679.133 285.867ZM690.578 290.156C689.432 290.156 688.5 289.781 687.781 289.031C687.062 288.276 686.703 287.268 686.703 286.008V285.742C686.703 284.904 686.862 284.156 687.18 283.5C687.503 282.839 687.951 282.323 688.523 281.953C689.102 281.578 689.727 281.391 690.398 281.391C691.497 281.391 692.352 281.753 692.961 282.477C693.57 283.201 693.875 284.237 693.875 285.586V286.188H688.148C688.169 287.021 688.411 287.695 688.875 288.211C689.344 288.721 689.938 288.977 690.656 288.977C691.167 288.977 691.599 288.872 691.953 288.664C692.307 288.456 692.617 288.18 692.883 287.836L693.766 288.523C693.057 289.612 691.995 290.156 690.578 290.156ZM690.398 282.578C689.815 282.578 689.326 282.792 688.93 283.219C688.534 283.641 688.289 284.234 688.195 285H692.43V284.891C692.388 284.156 692.19 283.589 691.836 283.188C691.482 282.781 691.003 282.578 690.398 282.578ZM698.234 288.039L700.328 281.547H701.805L698.773 290H697.672L694.609 281.547H696.086L698.234 288.039ZM706.594 290.156C705.448 290.156 704.516 289.781 703.797 289.031C703.078 288.276 702.719 287.268 702.719 286.008V285.742C702.719 284.904 702.878 284.156 703.195 283.5C703.518 282.839 703.966 282.323 704.539 281.953C705.117 281.578 705.742 281.391 706.414 281.391C707.513 281.391 708.367 281.753 708.977 282.477C709.586 283.201 709.891 284.237 709.891 285.586V286.188H704.164C704.185 287.021 704.427 287.695 704.891 288.211C705.359 288.721 705.953 288.977 706.672 288.977C707.182 288.977 707.615 288.872 707.969 288.664C708.323 288.456 708.633 288.18 708.898 287.836L709.781 288.523C709.073 289.612 708.01 290.156 706.594 290.156ZM706.414 282.578C705.831 282.578 705.341 282.792 704.945 283.219C704.549 283.641 704.305 284.234 704.211 285H708.445V284.891C708.404 284.156 708.206 283.589 707.852 283.188C707.497 282.781 707.018 282.578 706.414 282.578ZM713.141 290H711.695V278H713.141V290ZM715.078 285.695C715.078 284.867 715.24 284.122 715.562 283.461C715.891 282.799 716.344 282.289 716.922 281.93C717.505 281.57 718.169 281.391 718.914 281.391C720.065 281.391 720.995 281.789 721.703 282.586C722.417 283.383 722.773 284.443 722.773 285.766V285.867C722.773 286.69 722.615 287.43 722.297 288.086C721.984 288.737 721.534 289.245 720.945 289.609C720.362 289.974 719.69 290.156 718.93 290.156C717.784 290.156 716.854 289.758 716.141 288.961C715.432 288.164 715.078 287.109 715.078 285.797V285.695ZM716.531 285.867C716.531 286.805 716.747 287.557 717.18 288.125C717.617 288.693 718.201 288.977 718.93 288.977C719.664 288.977 720.247 288.69 720.68 288.117C721.112 287.539 721.328 286.732 721.328 285.695C721.328 284.768 721.107 284.018 720.664 283.445C720.227 282.867 719.643 282.578 718.914 282.578C718.201 282.578 717.625 282.862 717.188 283.43C716.75 283.997 716.531 284.81 716.531 285.867ZM731.727 285.867C731.727 287.154 731.432 288.19 730.844 288.977C730.255 289.763 729.458 290.156 728.453 290.156C727.427 290.156 726.62 289.831 726.031 289.18V293.25H724.586V281.547H725.906L725.977 282.484C726.565 281.755 727.383 281.391 728.43 281.391C729.445 281.391 730.247 281.773 730.836 282.539C731.43 283.305 731.727 284.37 731.727 285.734V285.867ZM730.281 285.703C730.281 284.75 730.078 283.997 729.672 283.445C729.266 282.893 728.708 282.617 728 282.617C727.125 282.617 726.469 283.005 726.031 283.781V287.82C726.464 288.591 727.125 288.977 728.016 288.977C728.708 288.977 729.258 288.703 729.664 288.156C730.076 287.604 730.281 286.786 730.281 285.703ZM737.078 290.156C735.932 290.156 735 289.781 734.281 289.031C733.562 288.276 733.203 287.268 733.203 286.008V285.742C733.203 284.904 733.362 284.156 733.68 283.5C734.003 282.839 734.451 282.323 735.023 281.953C735.602 281.578 736.227 281.391 736.898 281.391C737.997 281.391 738.852 281.753 739.461 282.477C740.07 283.201 740.375 284.237 740.375 285.586V286.188H734.648C734.669 287.021 734.911 287.695 735.375 288.211C735.844 288.721 736.438 288.977 737.156 288.977C737.667 288.977 738.099 288.872 738.453 288.664C738.807 288.456 739.117 288.18 739.383 287.836L740.266 288.523C739.557 289.612 738.495 290.156 737.078 290.156ZM736.898 282.578C736.315 282.578 735.826 282.792 735.43 283.219C735.034 283.641 734.789 284.234 734.695 285H738.93V284.891C738.888 284.156 738.69 283.589 738.336 283.188C737.982 282.781 737.503 282.578 736.898 282.578ZM746.141 282.844C745.922 282.807 745.685 282.789 745.43 282.789C744.482 282.789 743.839 283.193 743.5 284V290H742.055V281.547H743.461L743.484 282.523C743.958 281.768 744.63 281.391 745.5 281.391C745.781 281.391 745.995 281.427 746.141 281.5V282.844ZM752.398 287.758C752.398 287.367 752.25 287.065 751.953 286.852C751.661 286.633 751.148 286.445 750.414 286.289C749.685 286.133 749.104 285.945 748.672 285.727C748.245 285.508 747.927 285.247 747.719 284.945C747.516 284.643 747.414 284.284 747.414 283.867C747.414 283.174 747.706 282.589 748.289 282.109C748.878 281.63 749.628 281.391 750.539 281.391C751.497 281.391 752.273 281.638 752.867 282.133C753.466 282.628 753.766 283.26 753.766 284.031H752.312C752.312 283.635 752.143 283.294 751.805 283.008C751.471 282.721 751.049 282.578 750.539 282.578C750.013 282.578 749.602 282.693 749.305 282.922C749.008 283.151 748.859 283.451 748.859 283.82C748.859 284.169 748.997 284.432 749.273 284.609C749.549 284.786 750.047 284.956 750.766 285.117C751.49 285.279 752.076 285.471 752.523 285.695C752.971 285.919 753.302 286.19 753.516 286.508C753.734 286.82 753.844 287.203 753.844 287.656C753.844 288.411 753.542 289.018 752.938 289.477C752.333 289.93 751.549 290.156 750.586 290.156C749.909 290.156 749.31 290.036 748.789 289.797C748.268 289.557 747.859 289.224 747.562 288.797C747.271 288.365 747.125 287.898 747.125 287.398H748.57C748.596 287.883 748.789 288.268 749.148 288.555C749.513 288.836 749.992 288.977 750.586 288.977C751.133 288.977 751.57 288.867 751.898 288.648C752.232 288.424 752.398 288.128 752.398 287.758ZM755.758 289.242C755.758 288.992 755.831 288.784 755.977 288.617C756.128 288.451 756.352 288.367 756.648 288.367C756.945 288.367 757.169 288.451 757.32 288.617C757.477 288.784 757.555 288.992 757.555 289.242C757.555 289.482 757.477 289.682 757.32 289.844C757.169 290.005 756.945 290.086 756.648 290.086C756.352 290.086 756.128 290.005 755.977 289.844C755.831 289.682 755.758 289.482 755.758 289.242Z" fill="white"/>
<path d="M952.414 284.742H947.484V288.773H953.211V290H945.984V278.625H953.133V279.859H947.484V283.516H952.414V284.742ZM957.438 288.039L959.531 281.547H961.008L957.977 290H956.875L953.812 281.547H955.289L957.438 288.039ZM965.797 290.156C964.651 290.156 963.719 289.781 963 289.031C962.281 288.276 961.922 287.268 961.922 286.008V285.742C961.922 284.904 962.081 284.156 962.398 283.5C962.721 282.839 963.169 282.323 963.742 281.953C964.32 281.578 964.945 281.391 965.617 281.391C966.716 281.391 967.57 281.753 968.18 282.477C968.789 283.201 969.094 284.237 969.094 285.586V286.188H963.367C963.388 287.021 963.63 287.695 964.094 288.211C964.562 288.721 965.156 288.977 965.875 288.977C966.385 288.977 966.818 288.872 967.172 288.664C967.526 288.456 967.836 288.18 968.102 287.836L968.984 288.523C968.276 289.612 967.214 290.156 965.797 290.156ZM965.617 282.578C965.034 282.578 964.544 282.792 964.148 283.219C963.753 283.641 963.508 284.234 963.414 285H967.648V284.891C967.607 284.156 967.409 283.589 967.055 283.188C966.701 282.781 966.221 282.578 965.617 282.578ZM974.859 282.844C974.641 282.807 974.404 282.789 974.148 282.789C973.201 282.789 972.557 283.193 972.219 284V290H970.773V281.547H972.18L972.203 282.523C972.677 281.768 973.349 281.391 974.219 281.391C974.5 281.391 974.714 281.427 974.859 281.5V282.844ZM979.102 287.883L981.07 281.547H982.617L979.219 291.305C978.693 292.711 977.857 293.414 976.711 293.414L976.438 293.391L975.898 293.289V292.117L976.289 292.148C976.779 292.148 977.159 292.049 977.43 291.852C977.706 291.654 977.932 291.292 978.109 290.766L978.43 289.906L975.414 281.547H976.992L979.102 287.883ZM983.406 285.695C983.406 284.867 983.568 284.122 983.891 283.461C984.219 282.799 984.672 282.289 985.25 281.93C985.833 281.57 986.497 281.391 987.242 281.391C988.393 281.391 989.323 281.789 990.031 282.586C990.745 283.383 991.102 284.443 991.102 285.766V285.867C991.102 286.69 990.943 287.43 990.625 288.086C990.312 288.737 989.862 289.245 989.273 289.609C988.69 289.974 988.018 290.156 987.258 290.156C986.112 290.156 985.182 289.758 984.469 288.961C983.76 288.164 983.406 287.109 983.406 285.797V285.695ZM984.859 285.867C984.859 286.805 985.076 287.557 985.508 288.125C985.945 288.693 986.529 288.977 987.258 288.977C987.992 288.977 988.576 288.69 989.008 288.117C989.44 287.539 989.656 286.732 989.656 285.695C989.656 284.768 989.435 284.018 988.992 283.445C988.555 282.867 987.971 282.578 987.242 282.578C986.529 282.578 985.953 282.862 985.516 283.43C985.078 283.997 984.859 284.81 984.859 285.867ZM994.281 281.547L994.328 282.609C994.974 281.797 995.818 281.391 996.859 281.391C998.646 281.391 999.547 282.398 999.562 284.414V290H998.117V284.406C998.112 283.797 997.971 283.346 997.695 283.055C997.424 282.763 997 282.617 996.422 282.617C995.953 282.617 995.542 282.742 995.188 282.992C994.833 283.242 994.557 283.57 994.359 283.977V290H992.914V281.547H994.281ZM1005.25 290.156C1004.1 290.156 1003.17 289.781 1002.45 289.031C1001.73 288.276 1001.38 287.268 1001.38 286.008V285.742C1001.38 284.904 1001.53 284.156 1001.85 283.5C1002.17 282.839 1002.62 282.323 1003.2 281.953C1003.77 281.578 1004.4 281.391 1005.07 281.391C1006.17 281.391 1007.02 281.753 1007.63 282.477C1008.24 283.201 1008.55 284.237 1008.55 285.586V286.188H1002.82C1002.84 287.021 1003.08 287.695 1003.55 288.211C1004.02 288.721 1004.61 288.977 1005.33 288.977C1005.84 288.977 1006.27 288.872 1006.62 288.664C1006.98 288.456 1007.29 288.18 1007.55 287.836L1008.44 288.523C1007.73 289.612 1006.67 290.156 1005.25 290.156ZM1005.07 282.578C1004.49 282.578 1004 282.792 1003.6 283.219C1003.21 283.641 1002.96 284.234 1002.87 285H1007.1V284.891C1007.06 284.156 1006.86 283.589 1006.51 283.188C1006.15 282.781 1005.67 282.578 1005.07 282.578ZM1021.68 288.008L1023.3 281.547H1024.75L1022.29 290H1021.12L1019.06 283.594L1017.06 290H1015.89L1013.44 281.547H1014.88L1016.54 287.875L1018.51 281.547H1019.67L1021.68 288.008ZM1025.84 285.695C1025.84 284.867 1026.01 284.122 1026.33 283.461C1026.66 282.799 1027.11 282.289 1027.69 281.93C1028.27 281.57 1028.93 281.391 1029.68 281.391C1030.83 281.391 1031.76 281.789 1032.47 282.586C1033.18 283.383 1033.54 284.443 1033.54 285.766V285.867C1033.54 286.69 1033.38 287.43 1033.06 288.086C1032.75 288.737 1032.3 289.245 1031.71 289.609C1031.13 289.974 1030.46 290.156 1029.7 290.156C1028.55 290.156 1027.62 289.758 1026.91 288.961C1026.2 288.164 1025.84 287.109 1025.84 285.797V285.695ZM1027.3 285.867C1027.3 286.805 1027.51 287.557 1027.95 288.125C1028.38 288.693 1028.97 288.977 1029.7 288.977C1030.43 288.977 1031.01 288.69 1031.45 288.117C1031.88 287.539 1032.09 286.732 1032.09 285.695C1032.09 284.768 1031.87 284.018 1031.43 283.445C1030.99 282.867 1030.41 282.578 1029.68 282.578C1028.97 282.578 1028.39 282.862 1027.95 283.43C1027.52 283.997 1027.3 284.81 1027.3 285.867ZM1039.44 282.844C1039.22 282.807 1038.98 282.789 1038.73 282.789C1037.78 282.789 1037.14 283.193 1036.8 284V290H1035.35V281.547H1036.76L1036.78 282.523C1037.26 281.768 1037.93 281.391 1038.8 281.391C1039.08 281.391 1039.29 281.427 1039.44 281.5V282.844ZM1043.13 286.086L1042.23 287.031V290H1040.78V278H1042.23V285.258L1043 284.328L1045.63 281.547H1047.39L1044.1 285.078L1047.77 290H1046.08L1043.13 286.086ZM1050.45 290H1049.01V281.547H1050.45V290ZM1048.89 279.305C1048.89 279.07 1048.96 278.872 1049.1 278.711C1049.25 278.549 1049.46 278.469 1049.74 278.469C1050.02 278.469 1050.24 278.549 1050.38 278.711C1050.53 278.872 1050.6 279.07 1050.6 279.305C1050.6 279.539 1050.53 279.734 1050.38 279.891C1050.24 280.047 1050.02 280.125 1049.74 280.125C1049.46 280.125 1049.25 280.047 1049.1 279.891C1048.96 279.734 1048.89 279.539 1048.89 279.305ZM1054.14 281.547L1054.19 282.609C1054.83 281.797 1055.68 281.391 1056.72 281.391C1058.51 281.391 1059.41 282.398 1059.42 284.414V290H1057.98V284.406C1057.97 283.797 1057.83 283.346 1057.55 283.055C1057.28 282.763 1056.86 282.617 1056.28 282.617C1055.81 282.617 1055.4 282.742 1055.05 282.992C1054.69 283.242 1054.42 283.57 1054.22 283.977V290H1052.77V281.547H1054.14ZM1061.26 285.703C1061.26 284.385 1061.56 283.339 1062.17 282.562C1062.78 281.781 1063.59 281.391 1064.59 281.391C1065.62 281.391 1066.43 281.755 1067.01 282.484L1067.08 281.547H1068.4V289.797C1068.4 290.891 1068.07 291.753 1067.42 292.383C1066.78 293.013 1065.91 293.328 1064.81 293.328C1064.2 293.328 1063.61 293.198 1063.02 292.938C1062.44 292.677 1061.99 292.32 1061.69 291.867L1062.44 291C1063.06 291.766 1063.82 292.148 1064.71 292.148C1065.41 292.148 1065.96 291.951 1066.35 291.555C1066.75 291.159 1066.95 290.602 1066.95 289.883V289.156C1066.37 289.823 1065.58 290.156 1064.58 290.156C1063.59 290.156 1062.79 289.758 1062.17 288.961C1061.56 288.164 1061.26 287.078 1061.26 285.703ZM1062.71 285.867C1062.71 286.82 1062.91 287.57 1063.3 288.117C1063.69 288.659 1064.23 288.93 1064.94 288.93C1065.85 288.93 1066.52 288.516 1066.95 287.688V283.828C1066.5 283.021 1065.84 282.617 1064.95 282.617C1064.25 282.617 1063.7 282.891 1063.3 283.438C1062.91 283.984 1062.71 284.794 1062.71 285.867ZM1076.52 279.5V281.547H1078.09V282.664H1076.52V287.906C1076.52 288.245 1076.59 288.5 1076.73 288.672C1076.87 288.839 1077.11 288.922 1077.45 288.922C1077.61 288.922 1077.84 288.891 1078.13 288.828V290C1077.75 290.104 1077.38 290.156 1077.02 290.156C1076.38 290.156 1075.89 289.961 1075.56 289.57C1075.23 289.18 1075.07 288.625 1075.07 287.906V282.664H1073.53V281.547H1075.07V279.5H1076.52ZM1079.25 285.695C1079.25 284.867 1079.41 284.122 1079.73 283.461C1080.06 282.799 1080.52 282.289 1081.09 281.93C1081.68 281.57 1082.34 281.391 1083.09 281.391C1084.24 281.391 1085.17 281.789 1085.88 282.586C1086.59 283.383 1086.95 284.443 1086.95 285.766V285.867C1086.95 286.69 1086.79 287.43 1086.47 288.086C1086.16 288.737 1085.71 289.245 1085.12 289.609C1084.53 289.974 1083.86 290.156 1083.1 290.156C1081.96 290.156 1081.03 289.758 1080.31 288.961C1079.6 288.164 1079.25 287.109 1079.25 285.797V285.695ZM1080.7 285.867C1080.7 286.805 1080.92 287.557 1081.35 288.125C1081.79 288.693 1082.37 288.977 1083.1 288.977C1083.84 288.977 1084.42 288.69 1084.85 288.117C1085.28 287.539 1085.5 286.732 1085.5 285.695C1085.5 284.768 1085.28 284.018 1084.84 283.445C1084.4 282.867 1083.82 282.578 1083.09 282.578C1082.37 282.578 1081.8 282.862 1081.36 283.43C1080.92 283.997 1080.7 284.81 1080.7 285.867ZM1088.41 285.703C1088.41 284.385 1088.72 283.339 1089.33 282.562C1089.94 281.781 1090.74 281.391 1091.75 281.391C1092.78 281.391 1093.59 281.755 1094.16 282.484L1094.23 281.547H1095.55V289.797C1095.55 290.891 1095.23 291.753 1094.58 292.383C1093.93 293.013 1093.06 293.328 1091.97 293.328C1091.36 293.328 1090.76 293.198 1090.18 292.938C1089.6 292.677 1089.15 292.32 1088.84 291.867L1089.59 291C1090.21 291.766 1090.97 292.148 1091.87 292.148C1092.57 292.148 1093.12 291.951 1093.51 291.555C1093.9 291.159 1094.1 290.602 1094.1 289.883V289.156C1093.52 289.823 1092.73 290.156 1091.73 290.156C1090.74 290.156 1089.94 289.758 1089.33 288.961C1088.72 288.164 1088.41 287.078 1088.41 285.703ZM1089.87 285.867C1089.87 286.82 1090.06 287.57 1090.45 288.117C1090.84 288.659 1091.39 288.93 1092.09 288.93C1093.01 288.93 1093.67 288.516 1094.1 287.688V283.828C1093.66 283.021 1092.99 282.617 1092.11 282.617C1091.41 282.617 1090.86 282.891 1090.46 283.438C1090.07 283.984 1089.87 284.794 1089.87 285.867ZM1101.25 290.156C1100.1 290.156 1099.17 289.781 1098.45 289.031C1097.73 288.276 1097.38 287.268 1097.38 286.008V285.742C1097.38 284.904 1097.53 284.156 1097.85 283.5C1098.17 282.839 1098.62 282.323 1099.2 281.953C1099.77 281.578 1100.4 281.391 1101.07 281.391C1102.17 281.391 1103.02 281.753 1103.63 282.477C1104.24 283.201 1104.55 284.237 1104.55 285.586V286.188H1098.82C1098.84 287.021 1099.08 287.695 1099.55 288.211C1100.02 288.721 1100.61 288.977 1101.33 288.977C1101.84 288.977 1102.27 288.872 1102.62 288.664C1102.98 288.456 1103.29 288.18 1103.55 287.836L1104.44 288.523C1103.73 289.612 1102.67 290.156 1101.25 290.156ZM1101.07 282.578C1100.49 282.578 1100 282.792 1099.6 283.219C1099.21 283.641 1098.96 284.234 1098.87 285H1103.1V284.891C1103.06 284.156 1102.86 283.589 1102.51 283.188C1102.15 282.781 1101.67 282.578 1101.07 282.578ZM1108.19 279.5V281.547H1109.77V282.664H1108.19V287.906C1108.19 288.245 1108.26 288.5 1108.4 288.672C1108.54 288.839 1108.78 288.922 1109.12 288.922C1109.28 288.922 1109.51 288.891 1109.8 288.828V290C1109.42 290.104 1109.05 290.156 1108.7 290.156C1108.05 290.156 1107.56 289.961 1107.23 289.57C1106.91 289.18 1106.74 288.625 1106.74 287.906V282.664H1105.2V281.547H1106.74V279.5H1108.19ZM1112.91 282.57C1113.55 281.784 1114.38 281.391 1115.41 281.391C1117.19 281.391 1118.09 282.398 1118.11 284.414V290H1116.66V284.406C1116.66 283.797 1116.52 283.346 1116.24 283.055C1115.97 282.763 1115.55 282.617 1114.97 282.617C1114.5 282.617 1114.09 282.742 1113.73 282.992C1113.38 283.242 1113.1 283.57 1112.91 283.977V290H1111.46V278H1112.91V282.57ZM1123.78 290.156C1122.64 290.156 1121.7 289.781 1120.98 289.031C1120.27 288.276 1119.91 287.268 1119.91 286.008V285.742C1119.91 284.904 1120.07 284.156 1120.38 283.5C1120.71 282.839 1121.15 282.323 1121.73 281.953C1122.3 281.578 1122.93 281.391 1123.6 281.391C1124.7 281.391 1125.55 281.753 1126.16 282.477C1126.77 283.201 1127.08 284.237 1127.08 285.586V286.188H1121.35C1121.37 287.021 1121.61 287.695 1122.08 288.211C1122.55 288.721 1123.14 288.977 1123.86 288.977C1124.37 288.977 1124.8 288.872 1125.16 288.664C1125.51 288.456 1125.82 288.18 1126.09 287.836L1126.97 288.523C1126.26 289.612 1125.2 290.156 1123.78 290.156ZM1123.6 282.578C1123.02 282.578 1122.53 282.792 1122.13 283.219C1121.74 283.641 1121.49 284.234 1121.4 285H1125.63V284.891C1125.59 284.156 1125.39 283.589 1125.04 283.188C1124.68 282.781 1124.21 282.578 1123.6 282.578ZM1132.84 282.844C1132.62 282.807 1132.39 282.789 1132.13 282.789C1131.18 282.789 1130.54 283.193 1130.2 284V290H1128.76V281.547H1130.16L1130.19 282.523C1130.66 281.768 1131.33 281.391 1132.2 281.391C1132.48 281.391 1132.7 281.427 1132.84 281.5V282.844ZM1133.24 289.242C1133.24 288.992 1133.32 288.784 1133.46 288.617C1133.61 288.451 1133.84 288.367 1134.13 288.367C1134.43 288.367 1134.65 288.451 1134.8 288.617C1134.96 288.784 1135.04 288.992 1135.04 289.242C1135.04 289.482 1134.96 289.682 1134.8 289.844C1134.65 290.005 1134.43 290.086 1134.13 290.086C1133.84 290.086 1133.61 290.005 1133.46 289.844C1133.32 289.682 1133.24 289.482 1133.24 289.242Z" fill="white"/>
<circle cx="253.5" cy="154.499" r="16.5" transform="rotate(-90 253.5 154.499)" fill="#FCFAFF" stroke="#FF95C8" stroke-width="2"/>
<circle cx="250.5" cy="157.499" r="3.5" transform="rotate(-90 250.5 157.499)" fill="#FEBCDB"/>
<circle cx="259.5" cy="162.499" r="1.5" transform="rotate(-90 259.5 162.499)" fill="#FEBCDB"/>
<path d="M596.93 250.164C596.159 250.164 595.438 250.068 594.766 249.875C594.099 249.682 593.451 249.362 592.82 248.914V246.297H594.344L594.594 247.984C594.865 248.188 595.203 248.349 595.609 248.469C596.021 248.589 596.461 248.648 596.93 248.648C597.617 248.648 598.146 248.503 598.516 248.211C598.885 247.919 599.07 247.529 599.07 247.039C599.07 246.586 598.898 246.208 598.555 245.906C598.216 245.599 597.615 245.328 596.75 245.094C595.474 244.75 594.513 244.307 593.867 243.766C593.221 243.224 592.898 242.505 592.898 241.609C592.898 241 593.062 240.461 593.391 239.992C593.724 239.523 594.185 239.154 594.773 238.883C595.362 238.612 596.042 238.474 596.812 238.469C597.656 238.458 598.401 238.568 599.047 238.797C599.698 239.026 600.247 239.326 600.695 239.695V242.141H599.203L598.922 240.547C598.708 240.396 598.43 240.268 598.086 240.164C597.747 240.055 597.346 240 596.883 240C596.289 240 595.805 240.143 595.43 240.43C595.055 240.711 594.867 241.099 594.867 241.594C594.867 242.021 595.042 242.372 595.391 242.648C595.745 242.924 596.378 243.193 597.289 243.453C598.518 243.781 599.451 244.234 600.086 244.812C600.727 245.385 601.047 246.122 601.047 247.023C601.047 247.659 600.875 248.211 600.531 248.68C600.193 249.148 599.714 249.513 599.094 249.773C598.479 250.034 597.758 250.164 596.93 250.164ZM606.102 250.164C605.299 250.164 604.604 249.987 604.016 249.633C603.427 249.273 602.969 248.779 602.641 248.148C602.318 247.518 602.156 246.797 602.156 245.984V245.656C602.156 244.833 602.315 244.102 602.633 243.461C602.956 242.815 603.396 242.31 603.953 241.945C604.516 241.576 605.159 241.391 605.883 241.391C607.023 241.391 607.891 241.729 608.484 242.406C609.083 243.083 609.383 244.013 609.383 245.195V246.32H604.195L604.18 246.359C604.211 247.026 604.404 247.576 604.758 248.008C605.112 248.435 605.617 248.648 606.273 248.648C606.732 248.648 607.148 248.586 607.523 248.461C607.898 248.336 608.247 248.159 608.57 247.93L609.18 249.164C608.846 249.451 608.422 249.69 607.906 249.883C607.396 250.07 606.794 250.164 606.102 250.164ZM604.227 244.938H607.5V244.734C607.5 244.182 607.37 243.734 607.109 243.391C606.854 243.047 606.453 242.875 605.906 242.875C605.427 242.875 605.039 243.068 604.742 243.453C604.451 243.839 604.271 244.32 604.203 244.898L604.227 244.938ZM614.547 250.164C613.755 250.164 613.068 249.984 612.484 249.625C611.906 249.26 611.458 248.76 611.141 248.125C610.828 247.484 610.672 246.747 610.672 245.914V245.641C610.672 244.823 610.828 244.094 611.141 243.453C611.453 242.812 611.898 242.31 612.477 241.945C613.06 241.576 613.747 241.391 614.539 241.391C615.263 241.391 615.893 241.508 616.43 241.742C616.966 241.971 617.406 242.258 617.75 242.602L617.758 244.859H616.258L615.969 243.367C615.823 243.216 615.638 243.096 615.414 243.008C615.19 242.914 614.945 242.867 614.68 242.867C614.029 242.867 613.526 243.125 613.172 243.641C612.818 244.151 612.641 244.818 612.641 245.641V245.914C612.641 246.81 612.818 247.49 613.172 247.953C613.531 248.417 613.992 248.648 614.555 248.648C615.003 248.648 615.37 248.526 615.656 248.281C615.943 248.036 616.13 247.698 616.219 247.266H617.922L617.945 247.312C617.852 248.141 617.531 248.823 616.984 249.359C616.443 249.896 615.63 250.164 614.547 250.164ZM623.062 250.164C622.25 250.164 621.552 249.982 620.969 249.617C620.385 249.247 619.938 248.74 619.625 248.094C619.312 247.448 619.156 246.703 619.156 245.859V245.695C619.156 244.857 619.312 244.115 619.625 243.469C619.938 242.823 620.385 242.315 620.969 241.945C621.552 241.576 622.245 241.391 623.047 241.391C623.859 241.391 624.557 241.576 625.141 241.945C625.724 242.31 626.172 242.818 626.484 243.469C626.797 244.115 626.953 244.857 626.953 245.695V245.859C626.953 246.708 626.797 247.456 626.484 248.102C626.172 248.747 625.724 249.253 625.141 249.617C624.562 249.982 623.87 250.164 623.062 250.164ZM623.062 248.648C623.714 248.648 624.198 248.391 624.516 247.875C624.833 247.354 624.992 246.682 624.992 245.859V245.695C624.992 244.888 624.831 244.224 624.508 243.703C624.19 243.177 623.703 242.914 623.047 242.914C622.396 242.914 621.911 243.177 621.594 243.703C621.281 244.224 621.125 244.888 621.125 245.695V245.859C621.125 246.682 621.281 247.354 621.594 247.875C621.911 248.391 622.401 248.648 623.062 248.648ZM627.992 250V248.797L629.164 248.562V242.992L627.93 242.758V241.547H630.977L631.078 242.773C631.359 242.336 631.708 241.997 632.125 241.758C632.547 241.513 633.023 241.391 633.555 241.391C634.424 241.391 635.102 241.659 635.586 242.195C636.07 242.732 636.312 243.565 636.312 244.695V248.562L637.484 248.797V250H633.242V248.797L634.344 248.562V244.711C634.344 244.07 634.216 243.617 633.961 243.352C633.706 243.081 633.326 242.945 632.82 242.945C632.445 242.945 632.115 243.031 631.828 243.203C631.542 243.37 631.31 243.604 631.133 243.906V248.562L632.203 248.797V250H627.992ZM641.562 250.164C640.88 250.164 640.297 249.992 639.812 249.648C639.328 249.305 638.956 248.826 638.695 248.211C638.44 247.591 638.312 246.87 638.312 246.047V245.883C638.312 244.987 638.44 244.203 638.695 243.531C638.956 242.854 639.328 242.328 639.812 241.953C640.297 241.578 640.878 241.391 641.555 241.391C642.039 241.391 642.461 241.484 642.82 241.672C643.185 241.854 643.497 242.117 643.758 242.461V239.258L642.516 239.023V237.812H645.727V248.562L646.898 248.797V250H644.023L643.867 248.977C643.32 249.768 642.552 250.164 641.562 250.164ZM642.117 248.609C642.492 248.609 642.815 248.526 643.086 248.359C643.357 248.193 643.581 247.956 643.758 247.648V243.922C643.586 243.615 643.362 243.375 643.086 243.203C642.815 243.031 642.497 242.945 642.133 242.945C641.492 242.945 641.023 243.216 640.727 243.758C640.43 244.299 640.281 245.008 640.281 245.883V246.047C640.281 246.828 640.424 247.451 640.711 247.914C641.003 248.378 641.471 248.609 642.117 248.609ZM655.258 250.164C654.654 250.164 654.089 250.107 653.562 249.992C653.042 249.872 652.518 249.698 651.992 249.469L651.969 247.234H653.383L653.68 248.453C653.909 248.557 654.141 248.635 654.375 248.688C654.609 248.74 654.872 248.766 655.164 248.766C655.727 248.766 656.122 248.667 656.352 248.469C656.586 248.271 656.703 248.026 656.703 247.734C656.703 247.458 656.581 247.219 656.336 247.016C656.096 246.812 655.635 246.638 654.953 246.492C653.938 246.273 653.193 245.956 652.719 245.539C652.245 245.117 652.008 244.57 652.008 243.898C652.008 243.44 652.13 243.021 652.375 242.641C652.625 242.26 652.99 241.958 653.469 241.734C653.953 241.51 654.547 241.398 655.25 241.398C655.891 241.398 656.458 241.466 656.953 241.602C657.453 241.732 657.878 241.906 658.227 242.125L658.281 244.273H656.875L656.633 243.156C656.294 242.917 655.862 242.797 655.336 242.797C654.904 242.797 654.562 242.893 654.312 243.086C654.062 243.273 653.938 243.51 653.938 243.797C653.938 244.047 654.036 244.263 654.234 244.445C654.432 244.628 654.87 244.794 655.547 244.945C656.646 245.201 657.432 245.534 657.906 245.945C658.38 246.357 658.617 246.901 658.617 247.578C658.617 248.333 658.341 248.953 657.789 249.438C657.237 249.922 656.393 250.164 655.258 250.164ZM663.727 250.164C662.924 250.164 662.229 249.987 661.641 249.633C661.052 249.273 660.594 248.779 660.266 248.148C659.943 247.518 659.781 246.797 659.781 245.984V245.656C659.781 244.833 659.94 244.102 660.258 243.461C660.581 242.815 661.021 242.31 661.578 241.945C662.141 241.576 662.784 241.391 663.508 241.391C664.648 241.391 665.516 241.729 666.109 242.406C666.708 243.083 667.008 244.013 667.008 245.195V246.32H661.82L661.805 246.359C661.836 247.026 662.029 247.576 662.383 248.008C662.737 248.435 663.242 248.648 663.898 248.648C664.357 248.648 664.773 248.586 665.148 248.461C665.523 248.336 665.872 248.159 666.195 247.93L666.805 249.164C666.471 249.451 666.047 249.69 665.531 249.883C665.021 250.07 664.419 250.164 663.727 250.164ZM661.852 244.938H665.125V244.734C665.125 244.182 664.995 243.734 664.734 243.391C664.479 243.047 664.078 242.875 663.531 242.875C663.052 242.875 662.664 243.068 662.367 243.453C662.076 243.839 661.896 244.32 661.828 244.898L661.852 244.938ZM671.68 250.164C671.076 250.164 670.51 250.107 669.984 249.992C669.464 249.872 668.94 249.698 668.414 249.469L668.391 247.234H669.805L670.102 248.453C670.331 248.557 670.562 248.635 670.797 248.688C671.031 248.74 671.294 248.766 671.586 248.766C672.148 248.766 672.544 248.667 672.773 248.469C673.008 248.271 673.125 248.026 673.125 247.734C673.125 247.458 673.003 247.219 672.758 247.016C672.518 246.812 672.057 246.638 671.375 246.492C670.359 246.273 669.615 245.956 669.141 245.539C668.667 245.117 668.43 244.57 668.43 243.898C668.43 243.44 668.552 243.021 668.797 242.641C669.047 242.26 669.411 241.958 669.891 241.734C670.375 241.51 670.969 241.398 671.672 241.398C672.312 241.398 672.88 241.466 673.375 241.602C673.875 241.732 674.299 241.906 674.648 242.125L674.703 244.273H673.297L673.055 243.156C672.716 242.917 672.284 242.797 671.758 242.797C671.326 242.797 670.984 242.893 670.734 243.086C670.484 243.273 670.359 243.51 670.359 243.797C670.359 244.047 670.458 244.263 670.656 244.445C670.854 244.628 671.292 244.794 671.969 244.945C673.068 245.201 673.854 245.534 674.328 245.945C674.802 246.357 675.039 246.901 675.039 247.578C675.039 248.333 674.763 248.953 674.211 249.438C673.659 249.922 672.815 250.164 671.68 250.164ZM679.727 250.164C679.122 250.164 678.557 250.107 678.031 249.992C677.51 249.872 676.987 249.698 676.461 249.469L676.438 247.234H677.852L678.148 248.453C678.378 248.557 678.609 248.635 678.844 248.688C679.078 248.74 679.341 248.766 679.633 248.766C680.195 248.766 680.591 248.667 680.82 248.469C681.055 248.271 681.172 248.026 681.172 247.734C681.172 247.458 681.049 247.219 680.805 247.016C680.565 246.812 680.104 246.638 679.422 246.492C678.406 246.273 677.661 245.956 677.188 245.539C676.714 245.117 676.477 244.57 676.477 243.898C676.477 243.44 676.599 243.021 676.844 242.641C677.094 242.26 677.458 241.958 677.938 241.734C678.422 241.51 679.016 241.398 679.719 241.398C680.359 241.398 680.927 241.466 681.422 241.602C681.922 241.732 682.346 241.906 682.695 242.125L682.75 244.273H681.344L681.102 243.156C680.763 242.917 680.331 242.797 679.805 242.797C679.372 242.797 679.031 242.893 678.781 243.086C678.531 243.273 678.406 243.51 678.406 243.797C678.406 244.047 678.505 244.263 678.703 244.445C678.901 244.628 679.339 244.794 680.016 244.945C681.115 245.201 681.901 245.534 682.375 245.945C682.849 246.357 683.086 246.901 683.086 247.578C683.086 248.333 682.81 248.953 682.258 249.438C681.706 249.922 680.862 250.164 679.727 250.164ZM684.172 250V248.797L685.344 248.562V242.992L684.102 242.758V241.547H687.312V248.562L688.477 248.797V250H684.172ZM685.266 239.633V237.812H687.312V239.633H685.266ZM693.312 250.164C692.5 250.164 691.802 249.982 691.219 249.617C690.635 249.247 690.188 248.74 689.875 248.094C689.562 247.448 689.406 246.703 689.406 245.859V245.695C689.406 244.857 689.562 244.115 689.875 243.469C690.188 242.823 690.635 242.315 691.219 241.945C691.802 241.576 692.495 241.391 693.297 241.391C694.109 241.391 694.807 241.576 695.391 241.945C695.974 242.31 696.422 242.818 696.734 243.469C697.047 244.115 697.203 244.857 697.203 245.695V245.859C697.203 246.708 697.047 247.456 696.734 248.102C696.422 248.747 695.974 249.253 695.391 249.617C694.812 249.982 694.12 250.164 693.312 250.164ZM693.312 248.648C693.964 248.648 694.448 248.391 694.766 247.875C695.083 247.354 695.242 246.682 695.242 245.859V245.695C695.242 244.888 695.081 244.224 694.758 243.703C694.44 243.177 693.953 242.914 693.297 242.914C692.646 242.914 692.161 243.177 691.844 243.703C691.531 244.224 691.375 244.888 691.375 245.695V245.859C691.375 246.682 691.531 247.354 691.844 247.875C692.161 248.391 692.651 248.648 693.312 248.648ZM698.242 250V248.797L699.414 248.562V242.992L698.18 242.758V241.547H701.227L701.328 242.773C701.609 242.336 701.958 241.997 702.375 241.758C702.797 241.513 703.273 241.391 703.805 241.391C704.674 241.391 705.352 241.659 705.836 242.195C706.32 242.732 706.562 243.565 706.562 244.695V248.562L707.734 248.797V250H703.492V248.797L704.594 248.562V244.711C704.594 244.07 704.466 243.617 704.211 243.352C703.956 243.081 703.576 242.945 703.07 242.945C702.695 242.945 702.365 243.031 702.078 243.203C701.792 243.37 701.56 243.604 701.383 243.906V248.562L702.453 248.797V250H698.242ZM709.156 250V248.18H711.117V250H709.156Z" fill="white"/>
<circle cx="645.5" cy="154.5" r="16.5" transform="rotate(-90 645.5 154.5)" fill="#FCFAFF" stroke="#FF95C8" stroke-width="2"/>
<path d="M669.566 142L623.555 168.564" stroke="#FF95C8" stroke-width="3.33333" stroke-linecap="round"/>
<circle cx="651.5" cy="162.5" r="1.5" transform="rotate(-90 651.5 162.5)" fill="#FEBCDB"/>
<circle cx="622" cy="248" r="2" transform="rotate(-90 622 248)" fill="#DBE0E7"/>
<path d="M968.818 252V250.291L970.342 249.998V239.979H967.754L967.598 241.678H965.439V237.781H978.125V241.678H975.957L975.801 239.979H973.193V249.998L974.727 250.291V252H968.818ZM979.033 252V250.291L980.41 249.998V238.777L978.887 238.484V236.766H983.252V242.781C983.584 242.293 983.994 241.915 984.482 241.648C984.977 241.375 985.537 241.238 986.162 241.238C987.223 241.238 988.063 241.593 988.682 242.303C989.307 243.006 989.619 244.096 989.619 245.574V249.998L990.986 250.291V252H985.537V250.291L986.768 249.998V245.555C986.768 244.793 986.624 244.253 986.338 243.934C986.051 243.615 985.632 243.455 985.078 243.455C984.277 243.455 983.669 243.768 983.252 244.393V249.998L984.482 250.291V252H979.033ZM991.816 252V250.291L993.193 249.998V243.445L991.67 243.152V241.434H996.045V249.998L997.412 250.291V252H991.816ZM993.096 239.197V236.766H996.045V239.197H993.096ZM998.584 252V250.291L999.951 249.998V243.445L998.438 243.152V241.434H1002.61L1002.71 242.742L1002.73 242.977C1003.26 241.818 1004.04 241.238 1005.08 241.238C1005.25 241.238 1005.43 241.251 1005.62 241.277C1005.83 241.303 1006.01 241.342 1006.17 241.395L1005.87 244.021L1004.45 243.943C1004.05 243.924 1003.72 243.992 1003.47 244.148C1003.22 244.305 1003 244.529 1002.8 244.822V249.998L1004.17 250.291V252H998.584ZM1010.89 252.205C1010.05 252.205 1009.33 251.99 1008.72 251.561C1008.12 251.124 1007.66 250.519 1007.34 249.744C1007.02 248.963 1006.87 248.051 1006.87 247.01V246.805C1006.87 245.691 1007.02 244.718 1007.34 243.885C1007.67 243.051 1008.13 242.404 1008.73 241.941C1009.33 241.473 1010.05 241.238 1010.88 241.238C1011.46 241.238 1011.97 241.355 1012.4 241.59C1012.84 241.818 1013.22 242.143 1013.54 242.566V238.777L1012.01 238.484V236.766H1016.39V249.998L1017.75 250.291V252H1013.92L1013.7 250.711C1013.37 251.199 1012.97 251.57 1012.51 251.824C1012.05 252.078 1011.51 252.205 1010.89 252.205ZM1011.74 249.988C1012.53 249.988 1013.12 249.66 1013.54 249.002V244.52C1013.12 243.81 1012.53 243.455 1011.76 243.455C1011.04 243.455 1010.52 243.764 1010.2 244.383C1009.88 245.001 1009.72 245.809 1009.72 246.805V247.01C1009.72 247.934 1009.87 248.663 1010.19 249.197C1010.5 249.725 1011.02 249.988 1011.74 249.988ZM1028.1 252.205C1027.31 252.205 1026.57 252.13 1025.89 251.98C1025.21 251.831 1024.56 251.616 1023.94 251.336L1023.91 248.348H1025.89L1026.27 249.871C1026.49 249.982 1026.73 250.07 1026.99 250.135C1027.26 250.2 1027.56 250.232 1027.9 250.232C1028.54 250.232 1028.99 250.128 1029.25 249.92C1029.51 249.712 1029.64 249.451 1029.64 249.139C1029.64 248.846 1029.5 248.589 1029.22 248.367C1028.94 248.139 1028.39 247.941 1027.57 247.771C1026.31 247.511 1025.39 247.107 1024.79 246.561C1024.21 246.014 1023.92 245.314 1023.92 244.461C1023.92 243.882 1024.06 243.348 1024.36 242.859C1024.65 242.371 1025.11 241.984 1025.71 241.697C1026.32 241.404 1027.11 241.258 1028.06 241.258C1028.85 241.258 1029.58 241.336 1030.23 241.492C1030.9 241.642 1031.46 241.84 1031.9 242.088L1031.93 244.979H1029.96L1029.66 243.592C1029.28 243.331 1028.81 243.201 1028.23 243.201C1027.74 243.201 1027.35 243.305 1027.08 243.514C1026.81 243.715 1026.68 243.973 1026.68 244.285C1026.68 244.559 1026.8 244.806 1027.03 245.027C1027.27 245.242 1027.8 245.441 1028.6 245.623C1029.91 245.923 1030.87 246.323 1031.46 246.824C1032.06 247.319 1032.36 248.016 1032.36 248.914C1032.36 249.897 1032.01 250.691 1031.29 251.297C1030.58 251.902 1029.51 252.205 1028.1 252.205ZM1038.72 252.205C1037.71 252.205 1036.82 251.984 1036.06 251.541C1035.32 251.092 1034.73 250.477 1034.32 249.695C1033.91 248.914 1033.7 248.022 1033.7 247.02V246.629C1033.7 245.581 1033.9 244.653 1034.29 243.846C1034.68 243.032 1035.23 242.394 1035.94 241.932C1036.65 241.463 1037.5 241.232 1038.47 241.238C1039.89 241.238 1040.98 241.658 1041.74 242.498C1042.49 243.331 1042.87 244.503 1042.87 246.014V247.566H1036.66L1036.64 247.625C1036.69 248.322 1036.92 248.895 1037.33 249.344C1037.74 249.793 1038.33 250.018 1039.08 250.018C1039.6 250.018 1040.09 249.952 1040.54 249.822C1040.99 249.686 1041.44 249.487 1041.87 249.227L1042.64 250.984C1042.2 251.336 1041.65 251.629 1040.99 251.863C1040.33 252.091 1039.57 252.205 1038.72 252.205ZM1036.68 245.682H1040.21V245.428C1040.21 244.79 1040.07 244.285 1039.8 243.914C1039.54 243.536 1039.11 243.348 1038.52 243.348C1037.94 243.348 1037.51 243.566 1037.21 244.002C1036.91 244.432 1036.72 244.975 1036.65 245.633L1036.68 245.682ZM1048.72 252.205C1047.93 252.205 1047.2 252.13 1046.51 251.98C1045.84 251.831 1045.19 251.616 1044.56 251.336L1044.53 248.348H1046.51L1046.89 249.871C1047.12 249.982 1047.36 250.07 1047.62 250.135C1047.88 250.2 1048.19 250.232 1048.53 250.232C1049.16 250.232 1049.61 250.128 1049.87 249.92C1050.13 249.712 1050.26 249.451 1050.26 249.139C1050.26 248.846 1050.12 248.589 1049.84 248.367C1049.56 248.139 1049.01 247.941 1048.19 247.771C1046.94 247.511 1046.01 247.107 1045.42 246.561C1044.83 246.014 1044.54 245.314 1044.54 244.461C1044.54 243.882 1044.69 243.348 1044.98 242.859C1045.28 242.371 1045.73 241.984 1046.34 241.697C1046.95 241.404 1047.73 241.258 1048.68 241.258C1049.48 241.258 1050.2 241.336 1050.86 241.492C1051.52 241.642 1052.08 241.84 1052.53 242.088L1052.56 244.979H1050.59L1050.28 243.592C1049.91 243.331 1049.43 243.201 1048.86 243.201C1048.36 243.201 1047.98 243.305 1047.71 243.514C1047.44 243.715 1047.3 243.973 1047.3 244.285C1047.3 244.559 1047.42 244.806 1047.66 245.027C1047.9 245.242 1048.42 245.441 1049.23 245.623C1050.54 245.923 1051.49 246.323 1052.09 246.824C1052.69 247.319 1052.99 248.016 1052.99 248.914C1052.99 249.897 1052.63 250.691 1051.91 251.297C1051.2 251.902 1050.14 252.205 1048.72 252.205ZM1058.82 252.205C1058.03 252.205 1057.29 252.13 1056.61 251.98C1055.93 251.831 1055.28 251.616 1054.66 251.336L1054.63 248.348H1056.61L1056.99 249.871C1057.21 249.982 1057.45 250.07 1057.71 250.135C1057.98 250.2 1058.28 250.232 1058.62 250.232C1059.26 250.232 1059.71 250.128 1059.97 249.92C1060.23 249.712 1060.36 249.451 1060.36 249.139C1060.36 248.846 1060.22 248.589 1059.94 248.367C1059.66 248.139 1059.11 247.941 1058.29 247.771C1057.03 247.511 1056.11 247.107 1055.52 246.561C1054.93 246.014 1054.64 245.314 1054.64 244.461C1054.64 243.882 1054.79 243.348 1055.08 242.859C1055.38 242.371 1055.83 241.984 1056.44 241.697C1057.05 241.404 1057.83 241.258 1058.78 241.258C1059.57 241.258 1060.3 241.336 1060.96 241.492C1061.62 241.642 1062.18 241.84 1062.63 242.088L1062.66 244.979H1060.68L1060.38 243.592C1060 243.331 1059.53 243.201 1058.96 243.201C1058.46 243.201 1058.08 243.305 1057.8 243.514C1057.54 243.715 1057.4 243.973 1057.4 244.285C1057.4 244.559 1057.52 244.806 1057.75 245.027C1057.99 245.242 1058.52 245.441 1059.33 245.623C1060.63 245.923 1061.59 246.323 1062.19 246.824C1062.79 247.319 1063.09 248.016 1063.09 248.914C1063.09 249.897 1062.73 250.691 1062.01 251.297C1061.3 251.902 1060.24 252.205 1058.82 252.205ZM1064.3 252V250.291L1065.67 249.998V243.445L1064.15 243.152V241.434L1068.53 241.434V249.998L1069.89 250.291V252H1064.3ZM1065.58 239.197V236.766H1068.53V239.197H1065.58ZM1075.89 252.205C1074.84 252.205 1073.94 251.977 1073.19 251.521C1072.45 251.066 1071.88 250.434 1071.48 249.627C1071.09 248.813 1070.89 247.879 1070.89 246.824V246.619C1070.89 245.571 1071.09 244.643 1071.48 243.836C1071.88 243.022 1072.45 242.387 1073.19 241.932C1073.94 241.469 1074.83 241.238 1075.87 241.238C1076.91 241.238 1077.8 241.466 1078.54 241.922C1079.29 242.378 1079.87 243.012 1080.26 243.826C1080.66 244.633 1080.86 245.564 1080.86 246.619V246.824C1080.86 247.879 1080.66 248.813 1080.26 249.627C1079.87 250.434 1079.3 251.066 1078.55 251.521C1077.81 251.977 1076.92 252.205 1075.89 252.205ZM1075.89 250.018C1076.62 250.018 1077.16 249.725 1077.5 249.139C1077.85 248.553 1078.02 247.781 1078.02 246.824V246.619C1078.02 245.682 1077.85 244.917 1077.5 244.324C1077.15 243.732 1076.61 243.436 1075.87 243.436C1075.13 243.436 1074.59 243.732 1074.25 244.324C1073.91 244.917 1073.74 245.682 1073.74 246.619V246.824C1073.74 247.788 1073.91 248.563 1074.25 249.148C1074.59 249.728 1075.13 250.018 1075.89 250.018ZM1082.03 252V250.291L1083.4 249.998V243.445L1081.88 243.152V241.434H1086.05L1086.18 242.947C1086.53 242.407 1086.97 241.987 1087.48 241.688C1088 241.388 1088.59 241.238 1089.26 241.238C1090.3 241.238 1091.12 241.574 1091.71 242.244C1092.31 242.915 1092.61 243.966 1092.61 245.398V249.998L1093.97 250.291V252H1088.53V250.291L1089.75 249.998V245.408C1089.75 244.699 1089.6 244.197 1089.32 243.904C1089.04 243.605 1088.62 243.455 1088.08 243.455C1087.28 243.455 1086.67 243.787 1086.25 244.451V249.998L1087.4 250.291V252H1082.03ZM1095.56 252V249.5H1098.4V252H1095.56Z" fill="white"/>
<circle cx="1027" cy="157" r="29" transform="rotate(-90 1027 157)" fill="#FCFAFF" stroke="#88B8FF" stroke-width="2"/>
<path d="M1054.17 154H1030" stroke="#88B8FF" stroke-width="3.33333" stroke-linecap="round"/>
<circle cx="1025.75" cy="175.75" r="2.91667" transform="rotate(-90 1025.75 175.75)" fill="#88B8FF"/>
<path d="M1054.17 159.828H1040.84" stroke="#88B8FF" stroke-width="3.33333" stroke-linecap="round"/>
<circle cx="994.996" cy="136.965" r="2" transform="rotate(-15 994.996 136.965)" fill="#DBE0E7"/>
<path d="M969.202 32.7141L970.255 25.6828C970.385 24.8186 971.483 24.5246 972.027 25.2081L976.45 30.7643C976.616 30.9729 976.859 31.1066 977.124 31.1356L984.598 31.9533C985.417 32.0429 985.782 33.0294 985.219 33.6309L979.339 39.9101C979.204 40.0543 979.115 40.2354 979.083 40.4304L977.944 47.3152C977.804 48.1631 976.73 48.4508 976.185 47.7866L971.75 42.3861C971.628 42.2381 971.467 42.128 971.284 42.0691L963.303 39.4916C962.533 39.2428 962.362 38.229 963.009 37.7415L968.815 33.3643C969.024 33.2066 969.163 32.9731 969.202 32.7141Z" fill="#410E75"/>
<path d="M1204.99 253.714L1206.04 246.683C1206.17 245.819 1207.27 245.525 1207.82 246.208L1212.24 251.764C1212.41 251.973 1212.65 252.107 1212.91 252.136L1220.39 252.953C1221.21 253.043 1221.57 254.029 1221.01 254.631L1215.13 260.91C1214.99 261.054 1214.9 261.235 1214.87 261.43L1213.73 268.315C1213.59 269.163 1212.52 269.451 1211.97 268.787L1207.54 263.386C1207.42 263.238 1207.26 263.128 1207.07 263.069L1199.09 260.492C1198.32 260.243 1198.15 259.229 1198.8 258.742L1204.6 254.364C1204.81 254.207 1204.95 253.973 1204.99 253.714Z" fill="#410E75"/>
<path d="M122.991 233.714L124.045 226.683C124.174 225.819 125.272 225.525 125.816 226.208L130.239 231.764C130.405 231.973 130.648 232.107 130.913 232.136L138.387 232.953C139.206 233.043 139.571 234.029 139.008 234.631L133.128 240.91C132.993 241.054 132.904 241.235 132.872 241.43L131.733 248.315C131.593 249.163 130.519 249.451 129.974 248.787L125.539 243.386C125.417 243.238 125.256 243.128 125.073 243.069L117.093 240.492C116.322 240.243 116.151 239.229 116.798 238.742L122.604 234.364C122.813 234.207 122.952 233.973 122.991 233.714Z" fill="#410E75"/>
<circle cx="699.5" cy="87.5" r="3.5" fill="#3C1A5E"/>
<circle cx="475.5" cy="199.5" r="3.5" fill="#3C1A5E"/>
<circle cx="185.5" cy="52.5" r="3.5" fill="#3C1A5E"/>
<circle cx="890.5" cy="251.5" r="3.5" fill="#3C1A5E"/>
<circle cx="504.5" cy="3.5" r="3.5" fill="#3C1A5E"/>
<defs>
<linearGradient id="paint0_linear_329_1979" x1="1084" y1="155" x2="-7.99994" y2="155" gradientUnits="userSpaceOnUse">
<stop stop-color="#88B8FF" stop-opacity="0"/>
<stop offset="0.186662" stop-color="#88B8FF" stop-opacity="0.914526"/>
<stop offset="0.658829" stop-color="#88B8FF"/>
<stop offset="1" stop-color="#88B8FF" stop-opacity="0"/>
</linearGradient>
</defs>
</svg>
