<svg width="121" height="95" viewBox="0 0 121 95" fill="none" xmlns="http://www.w3.org/2000/svg">
<rect width="94.4" height="95" fill="#C9F1E1"/>
<rect x="25.6016" width="94.4" height="95" fill="#FFCCC2"/>
<path d="M68.7225 24.9575H54.2074C53.3238 24.9575 52.6074 25.6784 52.6074 26.5677V34.9321C52.6074 35.8214 53.3238 36.5423 54.2074 36.5423H68.7225C69.6061 36.5423 70.3225 35.8214 70.3225 34.9321V26.5677C70.3225 25.6784 69.6061 24.9575 68.7225 24.9575Z" fill="#F4F6FC" stroke="#343438" stroke-width="2"/>
<path d="M51.6016 27.5112H86.9053H87.546C89.7553 27.5112 91.5464 29.3153 91.5464 31.5371V61.8234C91.5464 64.0468 89.7524 65.8492 87.5426 65.8492H55.6053C53.3941 65.8492 51.6016 64.0451 51.6016 61.8234V27.5112Z" fill="#F4F6FC" stroke="#343438" stroke-width="2"/>
<path d="M81.4861 37.8066H62.7148V55.8571H81.4861V37.8066Z" stroke="#B5C0E2" stroke-width="2"/>
<path d="M65.8435 34.7983H59.1953V41.1912H65.8435V34.7983Z" fill="white" stroke="#C9F1E1" stroke-width="4"/>
<path d="M84.615 34.7983H77.9668V41.1912H84.615V34.7983Z" fill="white" stroke="#C9F1E1" stroke-width="4"/>
<path d="M84.615 52.4727H77.9668V58.8655H84.615V52.4727Z" fill="white" stroke="#C9F1E1" stroke-width="4"/>
<path d="M65.8435 52.4727H59.1953V58.8655H65.8435V52.4727Z" fill="white" stroke="#C9F1E1" stroke-width="4"/>
<path d="M65.8435 34.7983H59.1953V41.1912H65.8435V34.7983Z" fill="white"/>
<path d="M84.615 34.7983H77.9668V41.1912H84.615V34.7983Z" fill="white"/>
<path d="M84.615 52.4727H77.9668V58.8655H84.615V52.4727Z" fill="white"/>
<path d="M65.8435 52.4727H59.1953V58.8655H65.8435V52.4727Z" fill="white"/>
<path fill-rule="evenodd" clip-rule="evenodd" d="M89.5926 60.4024L91.1673 59.711C92.7826 59.0016 92.7288 57.9931 91.0404 57.4612L80.2407 54.0594C79.3975 53.7938 78.9724 54.2515 79.2876 55.0806L83.1214 65.1632C83.6754 66.62 84.697 66.6722 85.4058 65.2867L86.4085 63.3265L86.4636 63.2647L92.0363 67.82C92.894 68.5212 94.1641 68.3993 94.8736 67.5484L94.8964 67.5211C95.6058 66.6703 95.4955 65.3999 94.6499 64.684L89.5926 60.4024Z" fill="white" stroke="#343438" stroke-width="2" stroke-linecap="round" stroke-linejoin="round"/>
</svg>
