<?xml version="1.0" encoding="utf-8"?>
<!-- Generator: Adobe Illustrator 18.0.0, SVG Export Plug-In . SVG Version: 6.00 Build 0)  -->
<!DOCTYPE svg PUBLIC "-//W3C//DTD SVG 1.1//EN" "http://www.w3.org/Graphics/SVG/1.1/DTD/svg11.dtd">
<svg version="1.1" id="Layer_1" xmlns="http://www.w3.org/2000/svg" xmlns:xlink="http://www.w3.org/1999/xlink" x="0px" y="0px"
	 viewBox="0 0 875 626" enable-background="new 0 0 875 626" xml:space="preserve">
<path fill="#727789" d="M199.2,53.9V155h103.5V53.9H199.2z M294.5,147h-86.8V62.1h86.8V147z M234.2,109.8c1,0.2,2.3,0.3,3.8,0.3
	c5.5,0,10.4-1.5,13.5-4.6c2.4-2.3,3.7-5.7,3.7-9.7c0-0.2,0-0.4,0-0.5c0-0.1,0-0.2,0-0.3c0-4-1.7-7.4-4.2-9.5
	c-2.7-2.3-6.9-3.5-12.6-3.5c-5.3,0-9.1,0.4-11.9,0.9v43.1h7.7V109.8z M234.2,89.1c0.8-0.2,2.3-0.4,4.5-0.4c5.2,0,8.5,2.4,8.7,6.9
	c-0.2,4.7-3.7,7.4-9.4,7.4c-1.6,0-2.9-0.1-3.8-0.3V89.1z M265.4,126.6c8.2,0,12.6-4.1,12.6-9.7c0-0.1,0-0.3,0-0.4c0-0.1,0-0.3,0-0.4
	c-0.1-4.6-2.7-7.4-8.3-9.5c-3.6-1.3-5.1-2.2-5.4-3.8c0.2-1.7,1.7-2.9,4.3-2.9c2.7,0,5.2,1,6.5,1.8l1.5-5.5c-0.1,0-0.1-0.1-0.2-0.1
	l0.2-0.8c-1.8-1-4.8-1.8-8.2-1.8c-7.2,0-11.7,4.3-11.7,9.7c0,0.2,0,0.4,0,0.6c0,0.1,0,0.2,0,0.3c-0.1,3.6,2.5,6.9,8.5,9
	c3.5,1.2,4.9,2.3,5.1,4.1c-0.2,1.8-1.7,3-4.9,3c-2.8,0-6.2-1.1-7.9-2.2l-1.5,5.6c0.1,0,0.1,0.1,0.2,0.1l-0.2,0.8
	C258.3,125.6,261.7,126.6,265.4,126.6z"/>
<g>
	<path fill="#727789" d="M219.7,166.5c0.6-0.1,1.5-0.2,2.6-0.2c1.2,0,2.1,0.3,2.7,0.8c0.6,0.5,0.9,1.2,0.9,2.1
		c0,0.9-0.3,1.6-0.8,2.1c-0.7,0.7-1.7,1-3,1c-0.3,0-0.6,0-0.8-0.1v3.5h-1.7V166.5z M221.4,170.8c0.2,0.1,0.5,0.1,0.8,0.1
		c1.3,0,2.1-0.6,2.1-1.7c0-1-0.7-1.6-1.9-1.6c-0.5,0-0.8,0-1,0.1V170.8z"/>
	<path fill="#727789" d="M227.3,165.9h1.7v4h0c0.2-0.3,0.5-0.6,0.8-0.8c0.3-0.2,0.7-0.3,1.2-0.3c1.2,0,2.4,0.8,2.4,2.9v4h-1.7v-3.8
		c0-1-0.4-1.7-1.3-1.7c-0.7,0-1.1,0.4-1.3,1c-0.1,0.2-0.1,0.3-0.1,0.5v4h-1.7V165.9z"/>
	<path fill="#727789" d="M241.7,172.3c0,2.5-1.7,3.6-3.5,3.6c-1.9,0-3.4-1.3-3.4-3.5c0-2.2,1.5-3.6,3.5-3.6
		C240.3,168.8,241.7,170.2,241.7,172.3z M236.6,172.3c0,1.3,0.7,2.3,1.7,2.3c1,0,1.6-0.9,1.6-2.3c0-1.1-0.5-2.3-1.6-2.3
		C237.1,170,236.6,171.2,236.6,172.3z"/>
	<path fill="#727789" d="M245,167.2v1.7h1.6v1.3H245v3c0,0.8,0.2,1.2,0.9,1.2c0.3,0,0.5,0,0.7-0.1l0,1.3c-0.2,0.1-0.7,0.2-1.2,0.2
		c-0.6,0-1.2-0.2-1.5-0.6c-0.4-0.4-0.5-1-0.5-1.9v-3.2h-1V169h1v-1.3L245,167.2z"/>
	<path fill="#727789" d="M254.3,172.3c0,2.5-1.7,3.6-3.5,3.6c-1.9,0-3.4-1.3-3.4-3.5c0-2.2,1.5-3.6,3.5-3.6
		C252.9,168.8,254.3,170.2,254.3,172.3z M249.2,172.3c0,1.3,0.7,2.3,1.7,2.3c1,0,1.6-0.9,1.6-2.3c0-1.1-0.5-2.3-1.6-2.3
		C249.7,170,249.2,171.2,249.2,172.3z"/>
	<path fill="#727789" d="M255.6,174.1c0.4,0.2,1.1,0.5,1.7,0.5c0.7,0,1.1-0.3,1.1-0.8c0-0.5-0.3-0.7-1.1-1c-1.3-0.4-1.9-1.2-1.9-2
		c0-1.2,1-2.1,2.6-2.1c0.7,0,1.4,0.2,1.8,0.4l-0.3,1.2c-0.3-0.2-0.8-0.4-1.4-0.4c-0.6,0-0.9,0.3-0.9,0.7c0,0.4,0.3,0.6,1.2,0.9
		c1.2,0.4,1.8,1.1,1.8,2.1c0,1.2-1,2.1-2.7,2.1c-0.8,0-1.6-0.2-2.1-0.5L255.6,174.1z"/>
	<path fill="#727789" d="M261.5,165.9h1.7v4h0c0.2-0.3,0.5-0.6,0.8-0.8c0.3-0.2,0.7-0.3,1.2-0.3c1.2,0,2.4,0.8,2.4,2.9v4h-1.7v-3.8
		c0-1-0.4-1.7-1.3-1.7c-0.7,0-1.1,0.4-1.3,1c-0.1,0.2-0.1,0.3-0.1,0.5v4h-1.7V165.9z"/>
	<path fill="#727789" d="M275.8,172.3c0,2.5-1.7,3.6-3.5,3.6c-1.9,0-3.4-1.3-3.4-3.5c0-2.2,1.5-3.6,3.5-3.6
		C274.5,168.8,275.8,170.2,275.8,172.3z M270.7,172.3c0,1.3,0.7,2.3,1.7,2.3c1,0,1.6-0.9,1.6-2.3c0-1.1-0.5-2.3-1.6-2.3
		C271.2,170,270.7,171.2,270.7,172.3z"/>
	<path fill="#727789" d="M277.2,171.2c0-0.9,0-1.6-0.1-2.2h1.5l0.1,1h0c0.5-0.8,1.3-1.2,2.3-1.2c1.6,0,2.8,1.3,2.8,3.4
		c0,2.4-1.5,3.6-3.1,3.6c-0.8,0-1.6-0.4-1.9-0.9h0v3.5h-1.7V171.2z M278.9,172.9c0,0.2,0,0.3,0,0.5c0.2,0.7,0.8,1.2,1.5,1.2
		c1.1,0,1.7-0.9,1.7-2.2c0-1.2-0.6-2.2-1.7-2.2c-0.7,0-1.4,0.5-1.5,1.3c0,0.1-0.1,0.3-0.1,0.4V172.9z"/>
</g>
<g>
	
		<image overflow="visible" opacity="0.4" width="110" height="108" xlink:href="6232DFEFFAC6A7BA.png"  transform="matrix(1 0 0 1 50.4272 49.4014)">
	</image>
	<g>
		<g>
			<path fill="#727789" d="M53.3,51.5v101.1h103.5V51.5H53.3z M148.5,144.6H61.7V59.7h86.8V144.6z"/>
		</g>
	</g>
</g>
<g>
	<g opacity="0.1">
		<path d="M91,111.5l-3.7,12.1h-8.1l13.7-42.8h10l13.9,42.8h-8.4l-3.9-12.1H91z M103.2,105.6l-3.4-10.5c-0.8-2.6-1.5-5.5-2.2-8h-0.1
			c-0.6,2.5-1.3,5.5-2,8l-3.3,10.5H103.2z"/>
	</g>
	<g>
		<g>
			<path fill="#727789" d="M91,110.7l-3.7,12.1h-8.1L92.9,80h10l13.9,42.8h-8.4l-3.9-12.1H91z M103.2,104.8l-3.4-10.5
				c-0.8-2.6-1.5-5.5-2.2-8h-0.1c-0.6,2.5-1.3,5.5-2,8l-3.3,10.5H103.2z"/>
		</g>
	</g>
</g>
<g>
	<g opacity="0.1">
		<path d="M128.2,84.1c0,2.3-1.7,4.2-4.4,4.2c-2.6,0-4.3-1.8-4.3-4.2c0-2.4,1.8-4.3,4.4-4.3C126.5,79.9,128.1,81.7,128.2,84.1z
			 M119.9,123.7V92.7h7.9v30.9H119.9z"/>
	</g>
	<g>
		<g>
			<path fill="#727789" d="M128.2,83.2c0,2.3-1.7,4.2-4.4,4.2c-2.6,0-4.3-1.8-4.3-4.2c0-2.4,1.8-4.3,4.4-4.3
				C126.5,79,128.1,80.8,128.2,83.2z M119.9,122.8V91.9h7.9v30.9H119.9z"/>
		</g>
	</g>
</g>
<g>
	<path fill="#727789" d="M73.4,163.6v9.3h-1.7v-9.3H73.4z"/>
	<path fill="#727789" d="M75.4,163.1h1.7v9.8h-1.7V163.1z"/>
	<path fill="#727789" d="M78.9,163.1h1.7v9.8h-1.7V163.1z"/>
	<path fill="#727789" d="M88.5,170.9c0,0.8,0,1.5,0.1,2h-1.5l-0.1-1h0c-0.3,0.5-1,1.2-2.2,1.2c-1.2,0-2.3-0.7-2.3-2.9v-4h1.7v3.7
		c0,1.1,0.4,1.8,1.3,1.8c0.7,0,1.1-0.5,1.3-0.9c0.1-0.1,0.1-0.3,0.1-0.5v-4.1h1.7V170.9z"/>
	<path fill="#727789" d="M90.3,171.4c0.4,0.2,1.1,0.5,1.7,0.5c0.7,0,1.1-0.3,1.1-0.8c0-0.5-0.3-0.7-1.1-1c-1.3-0.4-1.9-1.2-1.9-2
		c0-1.2,1-2.1,2.6-2.1c0.7,0,1.4,0.2,1.8,0.4l-0.3,1.2c-0.3-0.2-0.8-0.4-1.4-0.4c-0.6,0-0.9,0.3-0.9,0.7c0,0.4,0.3,0.6,1.2,0.9
		c1.2,0.4,1.8,1.1,1.8,2.1c0,1.2-1,2.1-2.7,2.1c-0.8,0-1.6-0.2-2.1-0.5L90.3,171.4z"/>
	<path fill="#727789" d="M98.1,164.5v1.7h1.6v1.3h-1.6v3c0,0.8,0.2,1.2,0.9,1.2c0.3,0,0.5,0,0.7-0.1l0,1.3c-0.2,0.1-0.7,0.2-1.2,0.2
		c-0.6,0-1.2-0.2-1.5-0.6c-0.4-0.4-0.5-1-0.5-1.9v-3.2h-1v-1.3h1v-1.3L98.1,164.5z"/>
	<path fill="#727789" d="M101,168.4c0-0.9,0-1.6-0.1-2.2h1.5l0.1,1.3h0c0.3-0.9,1.1-1.4,1.9-1.4c0.2,0,0.3,0,0.4,0v1.6
		c-0.2,0-0.3,0-0.5,0c-0.8,0-1.4,0.5-1.5,1.3c0,0.2,0,0.3,0,0.5v3.5H101V168.4z"/>
	<path fill="#727789" d="M111.1,171.3c0,0.6,0,1.2,0.1,1.6h-1.5l-0.1-0.7h0c-0.4,0.5-1.1,0.9-2,0.9c-1.4,0-2.1-1-2.1-2
		c0-1.7,1.5-2.6,4-2.6v-0.1c0-0.4-0.2-1.2-1.4-1.2c-0.7,0-1.4,0.2-1.8,0.5l-0.3-1.1c0.5-0.3,1.4-0.6,2.4-0.6c2.2,0,2.8,1.4,2.8,2.9
		V171.3z M109.4,169.7c-1.2,0-2.4,0.2-2.4,1.3c0,0.7,0.4,1,1,1c0.7,0,1.2-0.4,1.3-0.9c0-0.1,0-0.2,0-0.4V169.7z"/>
	<path fill="#727789" d="M114.7,164.5v1.7h1.6v1.3h-1.6v3c0,0.8,0.2,1.2,0.9,1.2c0.3,0,0.5,0,0.7-0.1l0,1.3
		c-0.2,0.1-0.7,0.2-1.2,0.2c-0.6,0-1.2-0.2-1.5-0.6c-0.4-0.4-0.5-1-0.5-1.9v-3.2h-1v-1.3h1v-1.3L114.7,164.5z"/>
	<path fill="#727789" d="M124,169.5c0,2.5-1.7,3.6-3.5,3.6c-1.9,0-3.4-1.3-3.4-3.5c0-2.2,1.5-3.6,3.5-3.6
		C122.6,166.1,124,167.5,124,169.5z M118.9,169.6c0,1.3,0.7,2.3,1.7,2.3c1,0,1.6-0.9,1.6-2.3c0-1.1-0.5-2.3-1.6-2.3
		C119.4,167.3,118.9,168.5,118.9,169.6z"/>
	<path fill="#727789" d="M125.4,168.4c0-0.9,0-1.6-0.1-2.2h1.5l0.1,1.3h0c0.3-0.9,1.1-1.4,1.9-1.4c0.2,0,0.3,0,0.4,0v1.6
		c-0.2,0-0.3,0-0.5,0c-0.8,0-1.4,0.5-1.5,1.3c0,0.2,0,0.3,0,0.5v3.5h-1.7V168.4z"/>
</g>
<g>
	<path fill="#727789" d="M295.5,252.5c-32.1,0-64.1,0-96.2,0c-0.5,0-0.9,0-1.4,0c-0.9,0-1.2,0.3-1.1,1.2c0.1,1.1,0.2,2.2,0.3,3.4
		c0.3,3.9,0.7,7.8,1,11.7c0.5,5.3,1,10.6,1.5,15.9c0.5,5.1,0.9,10.1,1.3,15.2c0.6,6.4,1.2,12.8,1.8,19.2c0.5,5.1,0.8,10.2,1.3,15.3
		c0.6,6.6,1.2,13.2,1.8,19.8c0.1,1.1,0.5,1.6,1.5,1.9c12.9,3.6,25.8,7.1,38.7,10.7c0.8,0.2,1.7,0.2,2.6,0c4.6-1.2,9.2-2.5,13.8-3.8
		c8.3-2.3,16.6-4.6,24.9-6.9c1-0.3,1.5-0.7,1.4-1.8c0-1.4,0.2-2.8,0.4-4.1c0.5-5.2,1-10.4,1.4-15.6c0.5-5.2,0.9-10.3,1.4-15.5
		c0.5-5.3,1-10.5,1.4-15.8c0.4-3.9,0.7-7.9,1-11.8c0.5-5.2,1-10.4,1.4-15.6c0.4-4.2,0.8-8.5,1.2-12.7c0.3-3.4,0.6-6.8,0.9-10.5
		C296.8,252.5,296.2,252.5,295.5,252.5z M287.1,280.5c-0.4,4.3-0.7,8.7-1,13c-0.5,5.8-1,11.5-1.5,17.3c-0.4,4.2-0.6,8.5-1,12.7
		c-0.4,4.7-0.8,9.3-1.2,14c-0.3,3.1-0.6,6.2-0.7,9.4c-0.1,1.5-0.5,2.3-2.1,2.7c-10.5,2.9-20.9,5.8-31.4,8.7
		c-0.7,0.2-1.5,0.2-2.2-0.1c-10.7-3.3-21.4-6.7-32-10c-1-0.3-1.4-0.7-1.4-1.8c-0.4-6.1-1-12.2-1.5-18.3c-0.5-5.7-1-11.4-1.4-17
		c-0.5-5.7-0.9-11.4-1.3-17c-0.5-5.7-1-11.4-1.4-17c-0.4-4.4-0.7-8.8-1-13.2c-0.1-1.1-0.2-2.1-0.3-3.3c27.8,0,55.4,0,83.2,0
		C288.2,267.3,287.6,273.9,287.1,280.5z"/>
	<path fill="#727789" d="M239.2,232c2.1,1.6,4.2,3.2,6.3,4.8c0,0.1-0.1,0.2-0.1,0.4c-2.4,0-4.8,0-7.2,0c0,2.2,0,4.2,0,6.2
		c6.1,0,12,0,18.1,0c0-1.4-0.1-2.7,0-4c0.1-1.5-0.3-2.5-1.6-3.3c-2-1.4-3.9-3.1-5.9-4.6c0-0.1,0.1-0.2,0.1-0.3c2.4,0,4.8,0,7.2,0
		c0-2.4,0-4.6,0-6.9c-6.1,0-12.1,0-18.1,0c0,1.9,0.1,3.7,0,5.5C238,230.8,238.4,231.4,239.2,232z"/>
	<path fill="#727789" d="M260.5,232.3c2,1.4,3.9,3,5.9,4.5c0,0.1-0.1,0.2-0.1,0.4c-2.4,0-4.8,0-7.2,0c0,2.2,0,4.1,0,6.1
		c6,0,12,0,18,0c0-1.6-0.1-3.2,0-4.7c0.1-1-0.3-1.7-1.1-2.3c-2.1-1.6-4.2-3.3-6.2-4.9c0-0.1,0.1-0.2,0.1-0.3c2.4,0,4.7,0,7.1,0
		c0-2.4,0-4.7,0-7c-6,0-12,0-18,0c0,1.7,0.1,3.4,0,5C258.8,230.6,259.3,231.5,260.5,232.3z"/>
	<path fill="#727789" d="M235.2,237.1c-3.4,0-6.7,0-9.9,0c0-2.2,0-4.1,0-6.2c3.4,0,6.7,0,9.9,0c0-2.4,0-4.6,0-6.8
		c-6,0-11.9,0-17.7,0c0,6.5,0,12.8,0,19.2c5.9,0,11.8,0,17.8,0C235.2,241.3,235.2,239.3,235.2,237.1z"/>
	<path fill="#727789" d="M260.4,289.2c-0.3,3.2-0.7,6.3-1,9.4c-11.3,0-22.3,0-33.5,0c0.3,3.1,0.5,6,0.8,9.1c10.6,0,21.2,0,31.9,0
		c-0.4,3.9-0.7,7.6-1.1,11.3c0,0.2-0.4,0.6-0.7,0.6c-2.4,0.7-4.8,1.4-7.2,2c-1,0.2-2.1,0.5-3.1,0.3c-2.9-0.6-5.8-1.5-8.7-2.2
		c-0.9-0.2-1.2-0.6-1.2-1.5c-0.1-2.1-0.3-4.1-0.5-6.2c-3.2,0-6.3,0-9.4,0c0.4,4.9,0.9,9.6,1.3,14.6c0.2,0.1,0.4,0.2,0.6,0.3
		c6,1.7,11.9,3.3,17.9,4.9c0.4,0.1,0.9,0.1,1.3,0c5.8-1.6,11.5-3.2,17.3-4.8c0.7-0.2,1-0.6,1-1.3c1.2-13.6,2.4-27.1,3.5-40.7
		c0.1-1.5,0.2-3.1,0.4-4.8c-15.3,0-30.4,0-45.7,0c0.3,3,0.5,5.9,0.8,9C236.9,289.2,248.6,289.2,260.4,289.2z"/>
</g>
<g>
	<path fill="#727789" d="M56.9,252.5c0,0.7,0,1.3,0,1.8c0.5,5.3,1,10.5,1.5,15.8c0.6,6.3,1.1,12.6,1.6,18.9c0.7,7.5,1.4,15,2.1,22.6
		c0.6,6.3,1.1,12.6,1.6,18.9c0.7,7.8,1.4,15.7,2.1,23.5c0.1,1.3,0.5,1.9,1.8,2.2c12.8,3.5,25.5,7.1,38.3,10.6c0.9,0.2,2,0.3,2.8,0
		c12.6-3.4,25.2-7,37.8-10.4c1.8-0.5,2.6-1.3,2.5-3.1c0-0.2,0-0.3,0-0.5c0.6-6.3,1.1-12.7,1.7-19c0.6-6.5,1.2-13,1.7-19.5
		c0.6-6.2,1.1-12.4,1.6-18.6c0.6-6.4,1.2-12.9,1.7-19.3c0.5-5.3,1-10.5,1.4-15.8c0.2-2.6,0.4-5.3,0.7-8.1
		C124.2,252.5,90.7,252.5,56.9,252.5z M148.8,262.3c-0.8,9.3-1.6,18.6-2.4,27.9c-0.9,10-1.8,20.1-2.7,30.1c-0.7,7.7-1.3,15.4-1.9,23
		c-0.1,1.7-0.5,3.5-0.5,5.2c0,1.2-0.7,1.5-1.6,1.8c-8,2.2-16,4.1-23.9,6.6c-5.4,1.8-10.4,1.7-15.8,0c-8.1-2.6-16.4-4.6-24.6-6.8
		c-1.5-0.4-1.9-1.1-2-2.5c-0.6-7-1.3-14-2-21c-0.6-5.8-1.1-11.6-1.6-17.3c-0.7-7.2-1.4-14.3-2.1-21.5c-0.6-5.9-1.1-11.8-1.7-17.6
		c-0.3-3.3-0.7-6.5-1-9.9c0.4,0,0.9-0.1,1.5-0.1c26.8,0,53.6,0,80.4,0C149,260.2,149,260.2,148.8,262.3z"/>
	<path fill="#727789" d="M114.8,234.7c0.1,0,0.2,0,0.3,0c1.3,2,2.7,4.1,4.1,6.2c1.5-2.2,2.8-4.3,4.1-6.3c0.1,0,0.2,0.1,0.4,0.1
		c0,2.9,0,5.7,0,8.7c2.2,0,4.2,0,6.4,0c0-6.5,0-12.8,0-19.3c-1.9,0-3.7,0.1-5.5,0c-0.9,0-1.4,0.3-1.8,1.1c-1.1,1.9-2.2,3.7-3.5,5.7
		c-1.3-2.1-2.4-4-3.6-5.8c-0.3-0.4-0.9-0.9-1.4-0.9c-1.9-0.1-3.8,0-5.8,0c0,6.5,0,12.9,0,19.3c2.1,0,4,0,6.3,0
		C114.8,240.5,114.8,237.6,114.8,234.7z"/>
	<path fill="#727789" d="M72.6,237.1c2,0,3.9,0,5.8,0c0,2.1,0,4.2,0,6.2c2.2,0,4.3,0,6.4,0c0-6.5,0-12.8,0-19.2c-2.2,0-4.3,0-6.5,0
		c0,2.1,0,4.2,0,6.2c-2,0-3.8,0-5.8,0c0-2.1,0-4.2,0-6.3c-2.2,0-4.3,0-6.5,0c0,6.4,0,12.8,0,19.2c2.2,0,4.2,0,6.5,0
		C72.6,241.2,72.6,239.2,72.6,237.1z"/>
	<path fill="#727789" d="M93.4,243.4c2.2,0,4.3,0,6.5,0c0-4.3,0-8.5,0-12.8c2,0,3.8,0,5.6,0c0-2.2,0-4.2,0-6.3c-5.9,0-11.8,0-17.8,0
		c0,2.1,0,4.2,0,6.4c1.9,0,3.7,0,5.7,0C93.4,234.9,93.4,239.2,93.4,243.4z"/>
	<path fill="#727789" d="M148.7,237c-3,0-5.9,0-9,0c0-4.4,0-8.6,0-12.8c-2.2,0-4.3,0-6.3,0c0,6.5,0,12.8,0,19.2c5.2,0,10.2,0,15.3,0
		C148.7,241.2,148.7,239.2,148.7,237z"/>
	<path fill="#727789" d="M85.6,281.3c0.7,8.4,1.5,16.8,2.2,25.2c0.1,1.2,0.5,1.4,1.6,1.4c9.7,0,19.3,0,29,0c0.4,0,0.8,0,1.2,0
		c0,0.4,0,0.8,0,1.1c-0.3,3.3-0.6,6.7-0.9,10c-0.1,0.7-0.3,1-1,1.2c-2.9,0.8-5.9,1.6-8.8,2.3c-0.4,0.1-0.9,0.1-1.3,0
		c-2.9-0.8-5.8-1.6-8.7-2.3c-0.7-0.2-0.9-0.5-0.9-1.2c-0.1-1.9-0.3-3.7-0.4-5.5c0-0.7-0.3-0.9-0.9-0.9c-1.5,0-3,0-4.6,0
		c-1.2,0-2.4,0-3.7,0c0.4,4.6,0.8,9,1.2,13.4c0.1,0.7,0.3,1,1,1.2c5.7,1.6,11.4,3.2,17.2,4.7c0.4,0.1,1,0.1,1.4,0
		c3.1-0.8,6.2-1.7,9.2-2.5c2.9-0.8,5.9-1.6,8.8-2.4c0.8-9.4,1.7-18.7,2.5-28.1c-11.2,0-22.3,0-33.4,0c-0.3-3.2-0.6-6.3-0.8-9.6
		c11.8,0,23.5,0,35.1,0c0.3-3.1,0.5-6,0.8-9c-15.3,0-30.4,0-45.7,0C85.6,280.6,85.6,280.9,85.6,281.3z"/>
</g>
<g>
	<path fill="#727789" d="M430.3,252.5c-22.5,0-45.1,0-67.6,0c-9.8,0-19.7,0-29.5,0c-1.3,0-1.7,0.4-1.6,1.7c0.2,2.2,0.4,4.4,0.6,6.6
		c0.4,5,0.9,10,1.3,15c0.5,5.4,1,10.7,1.5,16.1c0.4,5,0.9,10,1.3,15c0.5,5.3,1,10.5,1.5,15.8c0.5,5.1,0.9,10.2,1.3,15.3
		c0.5,5.4,1,10.7,1.4,16.1c0.1,1.2,0.5,1.7,1.6,2c12.8,3.5,25.6,7.1,38.4,10.6c0.9,0.2,1.9,0.2,2.8,0c6.1-1.6,12.2-3.3,18.3-5
		c6.8-1.9,13.6-3.7,20.3-5.6c0.6-0.2,1.4-0.7,1.4-1.2c0.6-5.7,1.1-11.3,1.6-17c0.5-5.2,0.9-10.3,1.4-15.5c0.5-5.2,1-10.3,1.4-15.5
		c0.5-5.2,0.9-10.3,1.3-15.5c0.5-5.4,1-10.7,1.5-16.1c0.4-4,0.8-8.1,1.1-12.1c0.3-3.5,0.6-6.9,0.9-10.7
		C431.6,252.5,430.9,252.5,430.3,252.5z M423.9,263.4c-0.4,4.6-1,10-1.4,15.3c-0.5,4.9-0.9,9.8-1.3,14.7c-0.5,5.3-1,10.6-1.5,15.9
		c-0.4,4.9-0.9,9.8-1.3,14.7c-0.6,6.4-1.2,12.9-1.8,19.3c-0.1,1.4-0.4,2.8-0.3,4.1c0,1.3-0.6,1.7-1.7,2.1
		c-7.6,2.1-15.1,4.3-22.6,6.4c-2.8,0.8-5.5,1.6-8.3,2.3c-0.7,0.2-1.4,0.2-2.1,0c-10.5-2.8-22.8-5.6-33.4-8.4c-1-0.3-8-90-8-90
		s70.4,0,82.1,0.2C424,260.1,424,260.1,423.9,263.4z"/>
	<path fill="#727789" d="M384,231.7c1.8,1.5,3.6,2.8,5.5,4.3c0.4,0.3,0.7,0.6,1.1,0.9c-0.1,0.1-0.1,0.3-0.2,0.4c-2.4,0-4.8,0-7.1,0
		c0,2.2,0,4.1,0,6.1c6,0,11.9,0,18,0c0-1.8-0.1-3.3,0-4.9c0-0.9-0.3-1.5-1-2c-2.2-1.6-4.2-3.3-6.4-5c0-0.1,0.1-0.2,0.1-0.3
		c2.4,0,4.7,0,7.1,0c0-2.5,0-4.7,0-7c-6.1,0-12,0-18,0c0,2.2-0.1,4.2,0,6.2C383.2,230.9,383.6,231.4,384,231.7z"/>
	<path fill="#727789" d="M380.1,224.2c-2.6,0-5,0-7.7,0c0,4.1,0,8.2,0,12.4c-3.4,0-6.7,0-10,0c0,2.5,0,4.6,0,6.8c6,0,11.8,0,17.7,0
		C380.1,236.9,380.1,230.6,380.1,224.2z"/>
	<path fill="#727789" d="M360.8,289.2c11.9,0,23.7,0,35.5,0c0,0.7-0.1,1.2-0.1,1.8c-0.4,4.4-0.8,8.8-1.3,13.2
		c-0.5,4.9-0.9,9.8-1.4,14.6c-0.1,0.8-0.3,1.1-1.1,1.3c-2.7,0.7-5.4,1.5-8.2,2.2c-0.5,0.1-1.2,0.2-1.7,0c-2.9-0.7-5.7-1.5-8.5-2.2
		c-0.7-0.2-1.3-0.4-1.2-1.4c0.1-0.6-0.1-1.3-0.2-2c-0.2-1.4-0.3-2.8-0.5-4.2c-3.2,0-6.1,0-9.1,0c0,0.2-0.1,0.3,0,0.4
		c0.4,4.3,0.8,8.6,1.1,12.9c0.1,0.9,0.4,1.2,1.2,1.4c5.7,1.5,11.3,3.1,17,4.6c0.5,0.1,1,0.1,1.5,0c5.7-1.6,11.5-3.2,17.2-4.7
		c0.7-0.2,1-0.5,1.1-1.3c0.4-5.2,0.9-10.4,1.4-15.5c0.7-7.9,1.4-15.7,2.1-23.6c0.2-2.2,0.4-4.3,0.6-6.7c-15.4,0-30.6,0-46,0
		C360.3,283.1,360.5,286.1,360.8,289.2z"/>
</g>
<g>
	<path fill="#727789" d="M138.2,435.8c2.9,0.1,5.3-1,7.4-3c1.7-1.7,2.8-3.6,3.7-5.7c0.2-0.4,0.7-0.7,0.2-1.2
		c-0.4-0.4-0.9-0.1-1.3,0.1c-0.6,0.2-1.2,0.5-1.7,0.9c-1.2,0.9-2.5,1.1-3.9,1.2c-0.6,0-1.4,0.3-1.8-0.4c-0.3-0.6,0.3-1.1,0.6-1.5
		c1.1-1.4,2.2-2.8,3.3-4.3c0.3-0.4,0.9-0.7,0-1.2c-0.2-0.1-0.3-0.2-0.5-0.3c-0.1,0-0.2,0-0.3,0c-3.4-0.7-3.4-0.7-2.1-3.7
		c0.1-0.1,0.1-0.2,0.2-0.3c0.5-1.1,0.3-1.7-1-1.7c-1,0-1.9-0.1-2.9-0.1c-1.2-1.4-2.5,0.2-3.8-0.3c0-0.1-0.1-0.2-0.1-0.4
		c-0.1-0.7-0.6-0.8-1.1-0.6c-1.7-0.2-3.3,1.1-5,0.2c0.7-0.9,1.3-1.8,2-2.7c-0.9-0.7-1.9-0.4-2.8-0.3c-2.9,0.3-5.7,0.9-8.5,1.8
		c-0.5,0.1-1.2,0.6-1.5-0.2c-0.4-1.3-1.2-0.8-2-0.6c-0.8,0.2-1.4,0.9-2.4,0.6c0-0.4,0-0.6,0.1-0.8c0.6-1.5,0.3-2.2-1.5-1.7
		c-1.4,0.4-2.9,0.6-4.3,0.9c-1.8,0.8-3.7,1.4-5.5,2.4c-1.4,0.7-2,0.5-2.1-1c-0.1-1.4-0.9-1.5-1.9-0.9c-0.4,0.3-0.9,0.4-1.4,0.7
		c-1.9,1.2-1.9,1.2-2.5-0.9c0-0.1-0.2-0.1-0.4-0.3c-1.4,1.8-2.4,3.9-3,6.1c-0.7,0.2-0.4-1-1.2-0.7c-0.3,1.3-0.6,2.6-0.9,3.9
		c-0.2,0.8,0,2.1-0.9,2.4c-0.8,0.3-1.2-0.9-1.7-1.5c-0.3-0.4-0.6-0.8-1.1-0.6c-0.4,0.1-0.5,0.5-0.6,0.9c-0.2,1-0.3,2-0.5,3
		c-0.1,0.6-0.1,1.1-0.3,1.7c-0.1,0.6,0.2,1.5-0.6,1.6c-0.8,0.1-1.1-0.7-1.3-1.4c-0.5,0.1-0.9,0.4-1.1,0.9c-0.9,3-1.8,6-2.4,9.1
		c-0.1,0.5,0.2,1.2-0.4,1.3c-0.7,0.2-0.9-0.5-1.2-1c-0.7-1.4-0.8-3-1-4.5c-0.2-0.1,0-0.9-0.4-0.4c-0.3,0.3-0.3,0.9-0.5,1.4
		c-1.3,5.3-1.7,10.7-1.5,16.2c0,0.6,0.2,1.4-0.2,2c-1.3-0.9-1.1-2.5-2.4-3.5c-1.1,4-0.7,7.9-0.4,11.9c-1-0.2-0.6-1.3-1.5-1.4
		c-0.1,0.4-0.3,0.9-0.4,1.3c-0.1,2.3-1.3,3.4-3.5,4c-2.9,0.7-4.9,2.7-6,5.5c-0.9,2.2-0.6,4.5-0.6,6.9c0.1,0.8-0.1,1.7,0.2,2.5
		c1.7,4.5,4.5,8.2,8,11.5c0.5-0.9-0.7-1.7-0.1-2.6c2.1,1.4,1.8,4.2,3.5,5.7c0.8-0.9,0.5-2.1,1.7-2.9c0.5,1.4,0.7,2.8,1.4,4
		c2.4,3.8,1.3,6.9-1.5,9.9c-1.4,1.5-2.8,2.5-4.9,2.5c-1,0-2.1-0.3-3,0.4c-1.6,0.7,0.2,1.4,0.1,2.1c0,0.3,0.1,0.7,0.5,0.5
		c0.2-0.1,0.2-0.6,0.3-0.8c0.8,0.4,0.9,1.1,1.1,1.9c0.3,2,0.4,4,0.3,6c0.1,1.1,0.1,2.1,0.7,3.1c1.1-0.2,0.8-2.2,1.9-1.8
		c0.9,0.4,0.5,1.9,0.9,2.8c0,0.1,0,0.1,0,0.2c0.8,2,0.8,4.6,4,4.5c0.2,0,0.4,0.3,0.6,0.5c0.8,1,2,1.4,3.2,1.6
		c7.4-0.1,14.8-0.3,22.3-0.8c2.2-0.1,2.4-0.5,1.3-2.3c-0.2-0.3-0.4-0.5-0.5-0.8c-1.9-2.8-4.7-4.4-7.8-6c0.7-0.2,1.1-0.4,1.5-0.5
		c0.5-0.2,1-0.3,1.5-0.5c4.7,2.2,9.5,4.1,13.8,7c0.5,0.3,1,1,1.7,0.8c0.7-0.3,0.4-1.1,0.4-1.7c0-1.3,0.4-1.5,1.4-0.8
		c1.1,0.8,2.1,1.6,3.2,2.4c0.1,0,0.2,0,0.3,0.1c0,0.8,0.5,1.1,1.3,1c0.2,0.1,0.5,0.2,0.7,0.3c0,0.6,0.4,0.6,0.8,0.4
		c0.4,0,0.7,0.1,1.1,0.1c0,0,0,0,0,0c2.4,0.6,4.8,0.5,7.3,0c1.6,0,3.1,0,4.7,0c0,0,0,0,0,0c0.2,0.1,0.5,0.2,0.7,0.3
		c0.8-0.3,0.8-0.9,0.8-1.6c0.1-0.2,0.2-0.5,0.3-0.7c2-3.9,4-7.8,6.1-11.8c-1.5-0.1-2.3,1.1-3.5,1c2.9-6.4,8.7-11.1,9.8-18.6
		c-1.2,0.7-2.2,1.4-3.3,2c-0.7,0.4-1.4,0.4-1.2-0.6c0.5-2.3-0.6-1.6-1.8-1.1c-0.5,0.2-0.9,0.4-1.4,0.6c-0.6,0.6-1.4,0.8-2.2,1.2
		c-3.4,1.5-3.4,1.5-6-1.2c0.5-0.2,1.3-0.1,1.3-0.9c0-0.7-0.7-0.6-1.2-0.7c3.3-7.1,4.3-14.2,1.1-21.6c0,0,0,0,0,0
		c0.6-0.3,1.3,0.6,1.7-0.1c0.3-0.5-0.2-1.1-0.5-1.6c-1.6-3.7-4.2-6.6-7.5-8.7c-1-0.6-1.3-1.1-0.5-2.3c0.8-1.2,1.6-2.4,2.5-3.5
		c0,0,0,0,0,0c0-0.1,0.1-0.2,0.1-0.3c0.5-0.8,0.7-1.5-0.4-2c0-0.2,0-0.5,0-0.7c2.4-4.7,5-9.4,7.2-14.3
		C135,436.6,136,435.8,138.2,435.8z M126.1,455.3c0.1,0.2,0.2,0.4,0.4,0.5C126.3,455.7,126.2,455.5,126.1,455.3z M126.7,455.9
		c0.1,0,0.3,0.1,0.4,0.1C126.9,456,126.8,455.9,126.7,455.9z M126.5,455.8c0.1,0,0.1,0.1,0.2,0.1
		C126.6,455.9,126.5,455.8,126.5,455.8z"/>
	<path fill="#727789" d="M136.8,495.1c0,0,0.1,0,0.2-0.1c0-0.1,0-0.1,0-0.2c-0.1,0-0.2,0.1-0.2,0.1
		C136.7,495,136.8,495.1,136.8,495.1z"/>
	<path fill="#727789" d="M55.8,537.7c0,0.1,0,0.2-0.1,0.3c0.1,0,0.1,0,0.2,0c0-0.1,0.1-0.1,0-0.2C55.9,537.7,55.8,537.7,55.8,537.7z
		"/>
</g>
<g>
	<path fill="#727789" d="M52.2,556.4h6.9v1.4h-5.2v4.3h4.8v1.4h-4.8v5.8h-1.7V556.4z"/>
	<path fill="#727789" d="M69.1,564.5c0,3.4-2.4,4.9-4.6,4.9c-2.5,0-4.4-1.8-4.4-4.7c0-3.1,2-4.9,4.6-4.9
		C67.3,559.8,69.1,561.7,69.1,564.5z M61.8,564.6c0,2,1.2,3.5,2.8,3.5c1.6,0,2.8-1.5,2.8-3.6c0-1.6-0.8-3.5-2.8-3.5
		S61.8,562.9,61.8,564.6z"/>
	<path fill="#727789" d="M78.9,566.7c0,1,0,1.8,0.1,2.5h-1.5l-0.1-1.5h0c-0.4,0.7-1.4,1.7-3,1.7c-1.4,0-3.2-0.8-3.2-4V560h1.7v5.1
		c0,1.7,0.5,2.9,2.1,2.9c1.1,0,1.9-0.8,2.2-1.5c0.1-0.2,0.2-0.6,0.2-0.9V560h1.7V566.7z"/>
	<path fill="#727789" d="M81.7,562.5c0-1,0-1.7-0.1-2.5h1.5l0.1,1.5h0c0.5-0.9,1.5-1.7,3-1.7c1.3,0,3.2,0.8,3.2,3.9v5.5h-1.7v-5.3
		c0-1.5-0.6-2.7-2.1-2.7c-1.1,0-2,0.8-2.2,1.7c-0.1,0.2-0.1,0.5-0.1,0.8v5.5h-1.7V562.5z"/>
	<path fill="#727789" d="M100.2,555.7v11.1c0,0.8,0,1.7,0.1,2.4h-1.5l-0.1-1.6h0c-0.5,1-1.6,1.8-3.1,1.8c-2.2,0-3.9-1.9-3.9-4.7
		c0-3.1,1.9-4.9,4.1-4.9c1.4,0,2.4,0.7,2.8,1.4h0v-5.5H100.2z M98.5,563.8c0-0.2,0-0.5-0.1-0.7c-0.2-1.1-1.2-1.9-2.4-1.9
		c-1.7,0-2.8,1.5-2.8,3.6c0,1.9,0.9,3.4,2.7,3.4c1.1,0,2.1-0.7,2.5-2c0.1-0.2,0.1-0.5,0.1-0.7V563.8z"/>
	<path fill="#727789" d="M108.1,569.2l-0.1-1.2h-0.1c-0.5,0.7-1.5,1.4-2.8,1.4c-1.9,0-2.8-1.3-2.8-2.6c0-2.2,2-3.4,5.5-3.4v-0.2
		c0-0.8-0.2-2.1-2.1-2.1c-0.9,0-1.7,0.3-2.4,0.7l-0.4-1.1c0.8-0.5,1.9-0.8,3-0.8c2.8,0,3.5,1.9,3.5,3.8v3.4c0,0.8,0,1.6,0.2,2.2
		H108.1z M107.8,564.5c-1.8,0-3.9,0.3-3.9,2.1c0,1.1,0.7,1.6,1.6,1.6c1.2,0,2-0.8,2.2-1.5c0.1-0.2,0.1-0.4,0.1-0.5V564.5z"/>
	<path fill="#727789" d="M114.1,557.4v2.6h2.4v1.3h-2.4v5c0,1.1,0.3,1.8,1.3,1.8c0.4,0,0.8-0.1,1-0.1l0.1,1.3
		c-0.3,0.1-0.8,0.2-1.5,0.2c-0.8,0-1.4-0.2-1.8-0.7c-0.5-0.5-0.6-1.3-0.6-2.4v-5H111V560h1.4v-2.2L114.1,557.4z"/>
	<path fill="#727789" d="M120.2,557.4c0,0.6-0.4,1-1.1,1c-0.6,0-1-0.5-1-1c0-0.6,0.4-1,1-1C119.8,556.4,120.2,556.8,120.2,557.4z
		 M118.3,569.2V560h1.7v9.2H118.3z"/>
	<path fill="#727789" d="M131.1,564.5c0,3.4-2.4,4.9-4.6,4.9c-2.5,0-4.4-1.8-4.4-4.7c0-3.1,2-4.9,4.6-4.9
		C129.3,559.8,131.1,561.7,131.1,564.5z M123.8,564.6c0,2,1.2,3.5,2.8,3.5c1.6,0,2.8-1.5,2.8-3.6c0-1.6-0.8-3.5-2.8-3.5
		S123.8,562.9,123.8,564.6z"/>
	<path fill="#727789" d="M133.2,562.5c0-1,0-1.7-0.1-2.5h1.5l0.1,1.5h0c0.5-0.9,1.5-1.7,3-1.7c1.3,0,3.2,0.8,3.2,3.9v5.5h-1.7v-5.3
		c0-1.5-0.6-2.7-2.1-2.7c-1.1,0-2,0.8-2.2,1.7c-0.1,0.2-0.1,0.5-0.1,0.8v5.5h-1.7V562.5z"/>
	<path fill="#727789" d="M154.3,558c-0.3,0-0.8,0-1.3,0.1c-2.6,0.4-4,2.4-4.3,4.4h0.1c0.6-0.8,1.6-1.4,3-1.4c2.2,0,3.7,1.6,3.7,4
		c0,2.3-1.5,4.4-4.1,4.4c-2.6,0-4.4-2.1-4.4-5.3c0-2.4,0.9-4.4,2.1-5.6c1-1,2.4-1.6,4-1.8c0.5-0.1,0.9-0.1,1.2-0.1V558z
		 M153.8,565.2c0-1.8-1-2.8-2.5-2.8c-1,0-1.9,0.6-2.4,1.5c-0.1,0.2-0.2,0.4-0.2,0.7c0,2,1,3.5,2.7,3.5
		C152.9,568.1,153.8,566.9,153.8,565.2z"/>
</g>
<g>
	<path fill="#727789" d="M643.3,562.4l-1.3,4h-1.7l4.4-12.8h2l4.4,12.8h-1.8l-1.4-4H643.3z M647.5,561.1l-1.3-3.7
		c-0.3-0.8-0.5-1.6-0.7-2.3h0c-0.2,0.8-0.4,1.5-0.6,2.3l-1.3,3.7H647.5z"/>
	<path fill="#727789" d="M652.7,559.7c0-1,0-1.7-0.1-2.5h1.5l0.1,1.5h0c0.5-0.9,1.5-1.7,3-1.7c1.3,0,3.2,0.8,3.2,3.9v5.5h-1.7v-5.3
		c0-1.5-0.6-2.7-2.1-2.7c-1.1,0-2,0.8-2.2,1.7c-0.1,0.2-0.1,0.5-0.1,0.8v5.5h-1.7V559.7z"/>
	<path fill="#727789" d="M671.2,557.2c0,0.7-0.1,1.4-0.1,2.5v5.3c0,2.1-0.4,3.4-1.3,4.2c-0.9,0.8-2.2,1.1-3.3,1.1
		c-1.1,0-2.3-0.3-3.1-0.8l0.4-1.3c0.6,0.4,1.6,0.7,2.7,0.7c1.7,0,3-0.9,3-3.2v-1h0c-0.5,0.9-1.5,1.5-2.9,1.5c-2.3,0-3.9-1.9-3.9-4.5
		c0-3.1,2-4.9,4.1-4.9c1.6,0,2.5,0.8,2.9,1.6h0l0.1-1.4H671.2z M669.5,560.9c0-0.3,0-0.5-0.1-0.8c-0.3-1-1.1-1.8-2.3-1.8
		c-1.6,0-2.7,1.3-2.7,3.5c0,1.8,0.9,3.3,2.7,3.3c1,0,2-0.6,2.3-1.7c0.1-0.3,0.1-0.6,0.1-0.9V560.9z"/>
	<path fill="#727789" d="M681.6,563.9c0,1,0,1.8,0.1,2.5h-1.5l-0.1-1.5h0c-0.4,0.7-1.4,1.7-3,1.7c-1.4,0-3.2-0.8-3.2-4v-5.4h1.7v5.1
		c0,1.7,0.5,2.9,2.1,2.9c1.1,0,1.9-0.8,2.2-1.5c0.1-0.2,0.2-0.6,0.2-0.9v-5.6h1.7V563.9z"/>
	<path fill="#727789" d="M684.4,553h1.7v13.5h-1.7V553z"/>
	<path fill="#727789" d="M693.9,566.4l-0.1-1.2h-0.1c-0.5,0.7-1.5,1.4-2.8,1.4c-1.9,0-2.8-1.3-2.8-2.6c0-2.2,2-3.4,5.5-3.4v-0.2
		c0-0.8-0.2-2.1-2.1-2.1c-0.9,0-1.7,0.3-2.4,0.7l-0.4-1.1c0.8-0.5,1.9-0.8,3-0.8c2.8,0,3.5,1.9,3.5,3.8v3.4c0,0.8,0,1.6,0.2,2.2
		H693.9z M693.7,561.8c-1.8,0-3.9,0.3-3.9,2.1c0,1.1,0.7,1.6,1.6,1.6c1.2,0,2-0.8,2.2-1.5c0.1-0.2,0.1-0.4,0.1-0.5V561.8z"/>
	<path fill="#727789" d="M698,560.1c0-1.1,0-2-0.1-2.9h1.5l0.1,1.8h0.1c0.4-1.2,1.4-2,2.5-2c0.2,0,0.3,0,0.5,0.1v1.6
		c-0.2,0-0.3-0.1-0.6-0.1c-1.2,0-2,0.9-2.2,2.1c0,0.2-0.1,0.5-0.1,0.8v4.9H698V560.1z"/>
	<path fill="#727789" d="M707.7,566.4v-1l1.3-1.3c3.2-3,4.6-4.6,4.6-6.5c0-1.3-0.6-2.4-2.5-2.4c-1.1,0-2.1,0.6-2.6,1l-0.5-1.2
		c0.9-0.7,2.1-1.3,3.5-1.3c2.7,0,3.8,1.8,3.8,3.6c0,2.3-1.7,4.1-4.3,6.6l-1,0.9v0h5.5v1.4H707.7z"/>
	<path fill="#727789" d="M717.6,565.5c0-0.7,0.5-1.2,1.1-1.2c0.7,0,1.1,0.5,1.1,1.2c0,0.7-0.4,1.2-1.1,1.2
		C718,566.7,717.6,566.1,717.6,565.5z"/>
	<path fill="#727789" d="M729.6,560.1c0,4.2-1.6,6.5-4.3,6.5c-2.4,0-4-2.3-4.1-6.3c0-4.1,1.8-6.4,4.3-6.4
		C728.1,553.9,729.6,556.2,729.6,560.1z M722.9,560.3c0,3.2,1,5,2.5,5c1.7,0,2.5-2,2.5-5.1c0-3-0.8-5-2.5-5
		C724,555.2,722.9,557,722.9,560.3z"/>
</g>
<path fill="#727789" d="M363.4,489.1c-5.5,0-10.2,1.3-14.2,3.3c-1.5-2.9-2.9-5.4-3.2-7.3c-0.3-2.2-0.6-3.5-0.3-6.2
	c0.3-2.6,1.9-6.3,1.9-6.6c0-0.3-0.3-1.6-3.5-1.6s-5.9,0.6-6.2,1.4s-0.9,2.7-1.3,4.7c-0.5,2.9-6.3,13-9.5,18.4
	c-1.1-2.1-2-3.9-2.2-5.4c-0.3-2.2-0.6-3.5-0.3-6.2c0.3-2.6,1.9-6.3,1.9-6.6c0-0.3-0.3-1.6-3.5-1.6c-3.1,0-5.9,0.6-6.2,1.4
	s-0.6,2.8-1.3,4.7c-0.6,1.9-8.3,18.8-10.2,23.3c-1,2.3-1.9,4.1-2.5,5.3c-0.6,1.2,0,0.1-0.1,0.2c-0.5,1-0.9,1.6-0.9,1.6v0
	c-0.4,0.8-0.9,1.5-1.1,1.5c-0.2,0-0.5-2,0.1-4.8c1.1-5.9,3.9-15.1,3.8-15.4c0-0.2,0.5-1.8-1.8-2.6c-2.2-0.8-3,0.5-3.2,0.5
	s-0.3,0.5-0.3,0.5s2.5-10.3-4.7-10.3c-4.5,0-10.7,4.9-13.8,9.4c-2,1.1-6.1,3.3-10.5,5.7c-1.7,0.9-3.4,1.9-5.1,2.8l-0.3-0.4
	c-8.7-9.3-24.9-15.9-24.2-28.4c0.2-4.5,1.8-16.5,31-31c23.9-11.9,43-8.6,46.3-1.4c4.7,10.4-10.2,29.6-35,32.4
	c-9.5,1.1-14.4-2.6-15.7-4c-1.3-1.4-1.5-1.5-2-1.2c-0.8,0.4-0.3,1.7,0,2.5c0.7,1.9,3.8,5.3,9,7c4.5,1.5,15.6,2.3,29.1-2.9
	c15-5.8,26.8-22,23.3-35.5c-3.5-13.8-26.3-18.3-47.9-10.6c-12.8,4.6-26.7,11.7-36.7,21.1c-11.9,11.1-13.8,20.8-13,24.8
	c2.8,14.4,22.6,23.7,30.5,30.6c-0.4,0.2-0.8,0.4-1.1,0.6c-4,2-19.1,9.9-22.8,18.2c-4.3,9.5,0.7,16.3,4,17.2
	c10.2,2.8,20.6-2.3,26.3-10.6c5.6-8.4,4.9-19.3,2.3-24.2l-0.1-0.2l3.1-1.8c2-1.2,4-2.3,5.7-3.2c-1,2.7-1.7,5.8-2,10.4
	c-0.4,5.4,1.8,12.3,4.7,15.1c1.3,1.2,2.8,1.2,3.8,1.2c3.4,0,4.9-2.8,6.6-6.1c2.1-4.1,3.9-8.8,3.9-8.8s-2.3,12.7,4,12.7
	c2.3,0,4.6-3,5.6-4.5v0c0,0,0.1-0.1,0.2-0.3c0.2-0.4,0.4-0.6,0.4-0.6v-0.1c0.9-1.6,3-5.2,6-11.2c3.9-7.7,7.7-17.4,7.7-17.4
	s0.4,2.4,1.5,6.3c0.7,2.3,2.1,4.8,3.3,7.3c-0.9,1.3-1.5,2-1.5,2l0,0c-0.7,1-1.6,2-2.4,3c-3.1,3.7-6.8,8-7.3,9.2
	c-0.6,1.4-0.5,2.5,0.7,3.4c0.8,0.6,2.3,0.7,3.8,0.6c2.8-0.2,4.8-0.9,5.7-1.3c1.5-0.5,3.3-1.4,4.9-2.6c3-2.3,4.9-5.5,4.7-9.7
	c-0.1-2.3-0.9-4.7-1.8-6.9c0.3-0.4,0.5-0.8,0.8-1.2c4.8-7,8.5-14.8,8.5-14.8s0.4,2.4,1.5,6.3c0.6,2,1.7,4.1,2.8,6.3
	c-4.5,3.7-7.3,8-8.3,10.8c-1.8,5.2-0.4,7.5,2.3,8.1c1.2,0.2,2.9-0.3,4.2-0.9c1.6-0.5,3.5-1.4,5.3-2.7c3-2.3,6-5.4,5.8-9.6
	c-0.1-2-0.6-3.9-1.3-5.7c3.8-1.6,8.8-2.5,15.1-1.7c13.6,1.6,16.3,10.1,15.7,13.6s-3.4,5.5-4.3,6.1c-0.9,0.6-1.3,0.8-1.2,1.2
	c0.1,0.6,0.5,0.6,1.4,0.5c1.1-0.2,7.1-2.9,7.4-9.4C385.5,498.2,377.5,489,363.4,489.1L363.4,489.1z M258.7,524.4
	c-4.5,4.9-10.8,6.8-13.5,5.2c-2.9-1.7-1.8-8.9,3.8-14.1c3.4-3.2,7.7-6.1,10.6-7.9c0.6-0.4,1.6-1,2.8-1.7c0.2-0.1,0.3-0.2,0.3-0.2
	c0.2-0.1,0.5-0.3,0.7-0.4C265.4,512.7,263.4,519.3,258.7,524.4L258.7,524.4z M291.5,502.1c-1.6,3.8-4.8,13.6-6.8,13.1
	c-1.7-0.5-2.7-7.9-0.3-15.2c1.2-3.7,3.8-8.1,5.3-9.8c2.5-2.7,5.2-3.7,5.8-2.5C296.3,489.1,292.5,499.8,291.5,502.1z M318.5,515.1
	c-0.7,0.3-1.3,0.6-1.6,0.4c-0.2-0.1,0.3-0.6,0.3-0.6s3.4-3.6,4.7-5.3c0.8-1,1.7-2.1,2.7-3.4v0.4
	C324.6,510.9,320.4,513.9,318.5,515.1z M339.4,510.3c-0.5-0.4-0.4-1.5,1.2-5c0.6-1.4,2.1-3.8,4.6-6c0.3,0.9,0.5,1.8,0.5,2.6
	C345.7,507.4,341.8,509.5,339.4,510.3z"/>
<g>
	<path fill="#727789" d="M448.9,532.3c-0.6,0-0.9,0.2-1,0.7c-0.6,2.7-1.3,5.4-1.8,8.2c-0.5,2.7-1.1,5.3-2.4,7.7
		c-0.3,0.5-0.6,0.9-1.3,0.8c-0.6,0-1.2,0.1-1.8,0.2c-0.2,0-0.5,0.2-0.6,0.4c-0.4,1.5-0.7,3-1.1,4.6c0.5,0.1,1,0.2,1.5,0.3
		c1.3,0,2.6,0,3.9,0c0.1,0,0.2-0.1,0.4-0.1c2.4-0.3,4-1.6,4.8-3.9c0.2-0.6,0.5-1.3,0.6-1.9c1.2-4.9,2.3-9.8,3.4-14.7
		c0.2-0.7,0.3-1.5,0.5-2.3C452.2,532.4,450.6,532.4,448.9,532.3z"/>
	<path fill="#727789" d="M468.8,492.5c12.3,13.8,27.7,19.4,46,16.3c10-1.7,18.1-6.9,24.3-14.9c1.4-1.8,2.5-3.8,3.7-5.7
		c-0.2-0.1-0.3-0.1-0.3-0.1c-0.1,0.1-0.3,0.3-0.4,0.4c-2.7,2.6-5.7,4.7-9.1,6.4c-6.5,3.1-13.3,4.3-20.4,4.1
		c-4.2-0.2-8.3-0.8-12.4-2.1c-5.8-1.8-11-5-15.9-8.5c-5.6-4.1-10.4-9-13.9-15c-5.4-9.4-6.3-19.6-4.6-30.1c0.2-1.3,0.5-2.7,0.7-4
		c-0.1,0-0.1-0.1-0.2-0.1c-0.2,0.2-0.4,0.3-0.6,0.5c-1.2,1.6-2.6,3-3.7,4.7c-5.3,8.2-6.2,17.1-4.3,26.5
		C459.5,479,463.2,486.2,468.8,492.5z"/>
	<path fill="#727789" d="M490.1,468.1c8.9,10.7,20.2,15.4,34.2,13c5.5-0.9,10.4-3.2,14.6-6.9c2.7-2.5,4.8-5.4,6.1-8.9
		c-0.2,0.2-0.4,0.4-0.6,0.5c-7.7,7.5-16.8,9.9-27.2,7.6c-6.1-1.3-11.4-4.3-16.2-8c-8.1-6.2-12.3-14.4-12.4-24.7
		c0-3.2,0.4-6.4,0.6-9.4c0.1-0.1-0.1,0-0.2,0.2c-5.5,6.4-7,13.8-5.7,22C484.3,459,486.6,463.8,490.1,468.1z"/>
	<path fill="#727789" d="M481,532.6c0.8-2.7,0.5-5.4-1-7.9c-1.9-3.1-4.8-4.4-8.3-4.5c-5.2-0.2-9.5,1.6-12.4,6.1
		c-2.7,4.2-3.7,8.7-3.2,13.6c0.4,3.8,3.1,6.5,7,6.7c4.1,0.2,8.3,0.1,12.4,0.2c1.4,0,2.9,0,4.3,0c0.4-1.7,0.8-3.4,1.2-5.1
		c-1-0.1-1.9-0.1-2.9-0.2c0.1-0.4,0.2-0.6,0.3-0.9C479.4,537.9,480.3,535.2,481,532.6z M475.1,530.8c-0.8,3.5-1.7,7-2.7,10.7
		c-2.4-0.1-4.8,0-7.1-0.3c-2.1-0.3-3.1-1.9-3-3.9c0.3-2.8,0.9-5.6,2-8.2c1.5-3.6,6.3-4.1,8.7-2.6C474.8,527.4,475.5,529,475.1,530.8
		z"/>
	<path fill="#727789" d="M520.3,526c-4.4-1.4-8.5-0.5-12.1,2.3c-0.8,0.7-1.5,1.6-2,2.6c-1.5,3.2-2.2,6.6-2.4,10.1
		c-0.2,3,1.7,5.3,4.7,5.5c4.2,0.3,8.5,0.2,12.8,0.3c0.4-1.8,0.7-3.3,1.1-5c-0.3,0-0.5,0-0.6-0.1c-2.2,0-4.3,0-6.5-0.1
		c-1.3,0-2.6-0.1-3.9-0.3c-1.2-0.2-1.7-1.1-1.5-2.3c0.1-0.6,0.4-0.8,1-0.8c2.4,0,4.8,0,7.3,0c1.6,0,3.1,0,4.7,0
		c0.2,0,0.6-0.2,0.7-0.4c0.3-2,0.7-3.9,0.9-5.9C524.6,529,523.2,526.9,520.3,526z M518.3,533.7c-2.4,0-4.9,0-7.3,0
		c0.7-2.8,4.1-4.3,6.5-2.7C518.3,531.6,518.6,532.5,518.3,533.7z"/>
	<path fill="#727789" d="M498.7,526.1c-0.1,0.3-0.2,0.6-0.2,1c-1,4.6-2,9.3-3.1,13.9c0,0.2-0.3,0.6-0.5,0.6c-1.8,0-3.6,0-5.5,0
		c-0.1-0.5-0.2-1-0.2-1.4c0.2-2,0.3-3.9,0.6-5.8c0.5-2.7,1.1-5.4,1.7-8.2c-1.8,0-3.4,0-4.9,0c-0.5,0-0.7,0.1-0.8,0.6
		c-0.6,2.8-1.2,5.6-1.7,8.5c-0.4,2.1-0.7,4.3-0.8,6.5c-0.1,2.9,1.6,4.8,4.5,5c3.9,0.2,7.9,0,12,0c1.4-6.8,2.9-13.7,4.3-20.5
		C502.3,526.1,500.5,526.1,498.7,526.1z"/>
	<path fill="#727789" d="M515.1,453.8c4.3,2.8,9.1,3.7,14.1,3.4c3.2-0.2,6.1-1.2,8.7-3.2c1.3-1,2.4-2.2,3.4-3.8
		c-0.4,0.2-0.7,0.3-0.9,0.4c-4.1,1.8-8.3,2.6-12.7,1.7c-5.9-1.2-10.7-4.2-14.6-8.7c-3.1-3.6-4.7-7.9-4.8-12.6c0-1.5,0.1-3.1,0.2-4.7
		c-2.7,3.6-4.2,7.6-3.4,12C506.1,444.9,509.6,450.1,515.1,453.8z"/>
	<path fill="#727789" d="M557.2,522.9c-0.6,0-0.9,0.2-1.2,0.6c-2.5,3.7-5.1,7.4-7.6,11.1c-0.2,0.3-0.5,0.7-0.8,1.1
		c-0.2-0.7-0.4-1.2-0.6-1.8c-0.5-1.5-0.5-1.5-2-1.5c-1.5,0-2.9,0-4.5,0c0.1,0.4,0.1,0.6,0.1,0.8c0.4,1.3,0.7,2.7,1.1,4
		c0.6,2,1.2,4,0.9,6.1c-0.2,1.1-0.5,2.1-0.8,3.2c0,0,0.1,0,0.2,0c1.2,0,2.3,0,3.5,0c0.8,0,1.7,0.2,2.2-0.1c0.5-0.3,0.6-1.3,0.9-1.9
		c1.6-4.1,4.2-7.5,6.9-11c2.5-3.2,4.9-6.6,7.3-9.9c0.2-0.2,0.3-0.5,0.5-0.8C561,522.9,559.1,522.9,557.2,522.9z"/>
	<path fill="#727789" d="M545.8,528.6c-0.5-1.8-1.3-2.6-3.1-2.6c-4.5-0.1-9,0-13.6,0c-1.5,6.8-2.9,13.7-4.4,20.7c1.8,0,3.5,0,5.1,0
		c0.5,0,0.5-0.3,0.6-0.7c0.6-2.9,1.3-5.9,1.9-8.8c0.4-2,0.9-4.1,1.3-6.2c4.2,0,8.4,0,12.6,0C546,530.2,545.9,529.4,545.8,528.6z"/>
	<path fill="#727789" d="M449.9,526c-0.2,0-0.4,0.2-0.5,0.3c-0.4,1.4-0.7,2.9-1,4.4c1.9,0,3.7,0,5.5,0c0.2,0,0.5-0.2,0.5-0.4
		c0.3-1.4,0.6-2.8,0.9-4.4C453.4,526,451.6,525.9,449.9,526z"/>
</g>
<path fill="#727789" d="M633.3,444.8c0.5-0.4,1.2-1.1,2.1-1.4c13.8-4.9,27.7-9.5,41.3-14.9c6.4-2.5,12-2.4,18.4,0
	c13.9,5.2,28,9.8,42.1,14.5c2,0.7,2.3,1.5,2,3.5c-2.4,18.4-4.7,36.8-7,55.2c-0.4,3.2-0.7,6.4-1.3,9.5c-0.2,1.1-1.1,2.4-2.1,2.9
	c-13.7,7.7-27.5,15.3-41.4,22.9c-0.9,0.5-2.6,0.5-3.5,0c-13.8-7.5-27.4-15.1-41.1-22.7c-0.9-0.5-1.7-1.7-1.9-2.7
	c-2.6-21.7-5.1-43.4-7.5-65.1C633.4,446,633.4,445.7,633.3,444.8z M720.1,511.2c-11.6-24.8-22.8-48.9-34.5-73.8
	c-11.3,25.1-22.1,49.2-33.1,73.7c3.9,0,7.2,0.2,10.5-0.1c1.1-0.1,2.6-1.1,3-2.1c1.8-4,3.4-8.1,5-12.3c0.6-1.5,1.3-2.2,3-2.1
	c8.2,0.1,16.5,0.1,24.7-0.1c2,0,2.8,0.8,3.5,2.4c1.7,4.2,3.5,8.3,5.4,12.4c0.4,0.8,1.4,1.8,2.2,1.9
	C713,511.4,716.2,511.2,720.1,511.2z"/>
<path fill="#727789" d="M677,484c2.9-7,5.7-13.7,8.7-21c3.5,7.2,6.8,13.9,10.2,21C689.5,484,683.4,484,677,484z"/>
<path fill="#727789" d="M389.4,149.7c-17.7-23.7-35.2-47.1-52.9-70.7c4.9-5.6,9.6-11.2,14.7-16.5c1.3-1.3,3.5-1.7,5.2-2.6
	c8.9-4.9,18.3-6.6,28.4-5.9c6.7,0.5,13.4,0,20.1,0.2c2.6,0.1,5.2,0.8,7.7,1.5c10.8,3.1,19.2,9.4,25.7,18.6c1.2,1.7,2.7,3.1,4.1,4.8
	C424.7,102.5,407.2,125.9,389.4,149.7z M389.4,143.6c8.4-15,16.5-29.3,24.8-44.1c-16.7,0-32.9,0-49.5,0
	C372.9,114.3,381,128.7,389.4,143.6z M363.4,93.7c17.6,0,34.6,0,52,0c-3.5-6.2-6.7-12-10.1-17.7c-0.4-0.6-1.6-1.1-2.4-1.1
	c-9-0.1-17.9-0.1-26.9,0c-0.8,0-2.1,0.5-2.4,1.1C370.1,81.7,366.9,87.5,363.4,93.7z M419,63.8c-8.3-4.9-14.1-6.5-22.8-6.5
	c-6,0-12,0.2-18,0c-6.9-0.2-12,4.2-18,6.3c3.3,1.9,6.6,3.4,9.8,5.1c2.9,1.5,5.8,2.1,9,2c7.6-0.1,15.2,0,22.7-0.1
	c1.1,0,2.3,0.1,3.2-0.3C409.5,68.3,414,66.1,419,63.8z M356.6,90.8c3.9-5.6,7.5-10.9,11.3-16.5c-5.1-2.4-9.9-4.7-14.7-6.9
	c-0.5-0.2-1.6,0-2,0.4c-3,3.9-5.9,7.8-8.9,12C347.1,83.5,351.7,87,356.6,90.8z M410.7,74.3c3.9,5.6,7.5,10.9,11.3,16.5
	c4.9-3.8,9.5-7.3,14.2-11c-3-4.1-5.8-7.9-8.7-11.7c-0.4-0.5-1.8-0.9-2.3-0.7C420.5,69.6,415.9,71.9,410.7,74.3z M376.6,129.7
	c0.1-0.1,0.3-0.3,0.4-0.4c-6-9.8-11.8-19.8-18.2-29.3c-2.4-3.6-6.1-6.2-9.3-9.3c-0.2,0.2-0.5,0.5-0.7,0.7
	C358.1,104.2,367.3,116.9,376.6,129.7z M429.8,91.5c-0.3-0.3-0.5-0.5-0.8-0.8c-3.1,3.1-6.8,5.8-9.2,9.4c-5.7,8.5-10.9,17.3-16.2,26
	c-0.5,0.8-0.9,1.6-1.3,2.4c0.2,0.1,0.3,0.2,0.5,0.3C411.7,116.4,420.7,103.9,429.8,91.5z"/>
<g>
	<path fill="#727789" d="M368.4,170.8c0.6,0.3,1.4,0.6,2.3,0.6c1,0,1.5-0.4,1.5-1c0-0.6-0.4-0.9-1.6-1.3c-1.5-0.5-2.6-1.4-2.6-2.7
		c0-1.6,1.3-2.8,3.5-2.8c1,0,1.8,0.2,2.4,0.5l-0.5,1.7c-0.4-0.2-1-0.4-1.9-0.4c-0.9,0-1.4,0.4-1.4,0.9c0,0.6,0.5,0.9,1.7,1.3
		c1.6,0.6,2.4,1.5,2.4,2.8c0,1.6-1.2,2.9-3.8,2.9c-1.1,0-2.1-0.3-2.6-0.6L368.4,170.8z"/>
	<path fill="#727789" d="M377.7,169L377.7,169c0.2-0.3,0.3-0.6,0.5-0.8l1.4-2h2.5l-2.4,2.7l2.8,4h-2.6l-1.6-2.8l-0.5,0.7v2.1h-2.1
		v-9.8h2.1V169z"/>
	<path fill="#727789" d="M384.5,170.2c0.1,0.9,0.9,1.3,1.9,1.3c0.7,0,1.3-0.1,1.9-0.3l0.3,1.4c-0.7,0.3-1.5,0.4-2.4,0.4
		c-2.3,0-3.6-1.3-3.6-3.4c0-1.7,1.1-3.6,3.4-3.6c2.2,0,3,1.7,3,3.4c0,0.4,0,0.7-0.1,0.8H384.5z M387,168.8c0-0.5-0.2-1.4-1.2-1.4
		c-0.9,0-1.2,0.8-1.3,1.4H387z"/>
	<path fill="#727789" d="M392.5,164.2v1.9h1.5v1.5h-1.5v2.4c0,0.8,0.2,1.2,0.8,1.2c0.3,0,0.5,0,0.6-0.1l0,1.6
		c-0.3,0.1-0.8,0.2-1.4,0.2c-0.7,0-1.2-0.2-1.6-0.6c-0.4-0.4-0.6-1-0.6-2v-2.8h-0.9v-1.5h0.9v-1.5L392.5,164.2z"/>
	<path fill="#727789" d="M400.3,172.8c-0.4,0.2-1.1,0.3-1.9,0.3c-2.2,0-3.6-1.3-3.6-3.5c0-2,1.4-3.6,3.9-3.6c0.6,0,1.2,0.1,1.6,0.3
		l-0.3,1.6c-0.2-0.1-0.6-0.2-1.2-0.2c-1.1,0-1.8,0.8-1.8,1.9c0,1.2,0.8,1.9,1.9,1.9c0.5,0,0.9-0.1,1.2-0.2L400.3,172.8z"/>
	<path fill="#727789" d="M401.4,163.1h2.1v3.9h0c0.2-0.3,0.5-0.5,0.8-0.7c0.3-0.2,0.7-0.3,1.1-0.3c1.3,0,2.4,0.9,2.4,3v4h-2.1v-3.7
		c0-0.9-0.3-1.5-1.1-1.5c-0.6,0-0.9,0.4-1,0.7c-0.1,0.1-0.1,0.3-0.1,0.5v4h-2.1V163.1z"/>
</g>
</svg>
