<?xml version="1.0" encoding="utf-8"?>
<!-- Generator: Adobe Illustrator 18.0.0, SVG Export Plug-In . SVG Version: 6.00 Build 0)  -->
<!DOCTYPE svg PUBLIC "-//W3C//DTD SVG 1.1//EN" "http://www.w3.org/Graphics/SVG/1.1/DTD/svg11.dtd">
<svg version="1.1" xmlns="http://www.w3.org/2000/svg" xmlns:xlink="http://www.w3.org/1999/xlink" x="0px" y="0px"
	 viewBox="0 0 262 282" enable-background="new 0 0 262 282" xml:space="preserve">
<g id="Layer_1">
	<g>
		<path fill="#021E11" d="M46.7,179.1c-8.4-0.6-13.3-4.1-14.5-10.3c-1.3-6.4,1.8-11.1,11.1-16c-2.1-3-4-6.1-6.3-8.8
			c-9.9-11.5-8.9-18.8,3.8-27.2c0.7-0.4,1.4-0.8,1.7-1c-0.5-9-1.5-17.6-1.3-26.2c0.2-5.3,1.4-11,3.8-15.8c1.9-3.8,6.2-6.5,10.2-10.4
			c-4.4-12.9,3.9-21.3,14.4-28.7c0.1-0.1,0.3-0.2,0.4-0.3c18.4-17.7,41.6-17.7,64.6-16.8c15.6,0.6,29.3,8.3,43,15
			c6.8,3.3,10.8,9.7,14.2,16.3c4.4,8.5,9,16.7,18.8,20.5c-1.7,0.2-3.5,0.4-5.4,0.5c0.6,15.4,1.2,30.8,1.8,46.7
			c6.7-2.9,11.7,0.3,16.2,5.3c5.8,6.5,5.9,11.9,0.3,18.7c-3.1,3.8-6.1,7.7-8.4,10.4c3.9,4.4,7.5,7.5,9.7,11.4c1.2,2,0.7,5.6-0.1,8.1
			c-2.1,6.5-7.9,9-16.5,7.5c-1.4,10.5-2.8,21.1-4.1,31.6c-0.5,4-2.4,6.6-5.9,8.6c-15.1,8.7-28.6,19.4-40.1,32.6
			c-7.7,8.8-17.8,12.2-30.2,12.5c-15.4,0.4-26.1-5.9-35.4-16.8C83,235.6,71.1,227,58.3,219.8c-5.2-3-7.6-7-8.2-12.7
			C49.1,197.8,47.9,188.6,46.7,179.1z M165.9,236.3c10.1-6.9,19.8-13.8,29.8-20.2c3.3-2.1,4.9-4.7,5.3-8.4
			c0.6-5.6,1.4-11.2,2.1-16.8c0.7-5.5,1.2-11.1,1.9-17.3c2.3,0.9,3.8,1.7,5.3,2.2c5,1.5,10.2-1.2,12-6.3c1.7-4.6-0.8-9.9-5.4-12
			c-1.8-0.8-4.5-1.8-4.7-3.1c-0.3-2,0.7-4.7,1.9-6.5c2.3-3.4,5.2-6.4,7.8-9.7c4-5.1,3.9-8.4-0.4-13.3c-1.3-1.5-2.8-2.9-4.4-4.1
			c-3.9-3.1-8.2-2.8-10.7,1.4c-1.8,3-2.4,6.8-3.6,10.2c-0.3,1-0.6,1.9-1.1,3.6c-0.9-1.2-1.4-1.6-1.7-2.1c-3.1-5.6-6.1-11.1-9.1-16.7
			c-1.8-3.4-4.5-6.8-4.9-10.4c-0.9-7.7-1.4-15.7-0.7-23.4c1-12-2.8-20.5-13.2-27.2c-8-5.2-15.1-6.7-23.6-2
			c-11.1,6.2-23.1,8.4-35.7,6.1c-6.9-1.3-13.6-3.4-20.4-4.5c-12.2-2-20.7,4.7-21.6,16.8c-0.4,5.3,0,10.6,0.2,15.9
			c0.3,8.8-2.2,16.5-8.6,22.6c-3,2.8-6.2,5.3-9.3,7.9c5.1,8.6,5.9,13.9,2.7,15.8c-1.2-3.8-2.2-7.9-3.8-11.6
			c-1.7-3.9-5.3-5.2-9.2-3.8c-9.5,3.4-12,13.1-5.6,20.7c2.9,3.4,5.5,7.1,7.7,10.9c1.6,2.8,1.8,5.4-3,6.3c-5.5,1.1-8.3,6.9-6.6,12.1
			c1.8,5.5,7.3,8.1,12.8,6.2c1.4-0.5,2.8-0.9,3.7-1.2c-0.4,3.4-1.1,6.2-0.8,9c0.5,6.8,1.7,13.6,2.1,20.4c0.5,7,3.4,11.6,9.8,14.7
			c4.9,2.4,9.3,5.9,13.7,9.1c3.7,2.7,7.2,5.6,11.5,9c0-3.7,0-6.5,0-9.3c0-8.2-0.2-16.3,0.1-24.5c0.4-9.7,4.4-13.4,14.1-13.4
			c17,0,34,0,51,0c10.6,0,12.5,1.9,12.5,12.4C165.9,213.3,165.9,224.9,165.9,236.3z M150.3,219.9c0,0-0.1,0-0.1,0
			c0-3.8-0.1-7.7,0-11.5c0.2-4.3-2.2-6.1-6.1-6.1c-11.3-0.1-22.6-0.1-34,0c-4.5,0-7.3,2.4-7.5,7c-0.2,5.1,0.3,10.4-0.4,15.4
			c-1.2,8.9,3.3,14.4,10,18.9c7.1,4.8,21.8,4.3,28.8-0.7c6.7-4.8,10.9-10.5,9.3-19.2C150.1,222.6,150.3,221.3,150.3,219.9z"/>
		<path fill="#021E11" d="M189.2,132c-9.2-8.3-18.9-7.9-28.7-5.6c-5,1.2-9.9,2.7-14.9,4c-3.7,1-7.3,0.3-9.2-3.1
			c-1.1-2.1-1.5-5.2-0.9-7.4c0.3-1.1,3.6-1.7,5.6-1.9c6.2-0.7,12.6-0.7,18.7-1.7C175.2,113.7,183.8,117.8,189.2,132z"/>
		<path fill="#021E11" d="M67,131.1c5.2-13.4,13.7-17.4,28.9-14.8c6,1,12.2,1,18.2,1.8c2.4,0.3,6.6,1.9,6.5,2.5
			c-0.4,3-1.2,6.5-3.2,8.6c-1.4,1.4-5,1.5-7.4,1.1c-4.9-0.9-9.6-2.6-14.5-3.8C83.4,123.5,77.8,124.4,67,131.1z"/>
		<path fill="#021E11" d="M128.1,125.7c0.4,1.8,1,3.5,1.3,5.3c1.9,10.6,3.1,21.4,5.7,31.9c1.5,6,5.3,11.5,8.2,17.7
			c-5.7,3.4-12.8,6.2-20.7,2.3c-3.6-1.8-6.5-4.3-6.7-9.9c3.9,3,6.8,6.4,10.4,7.5c3.6,1.1,7.9,0,12.8-0.2
			c-10.3-17.7-11.9-35.8-13.2-54C126.7,126,127.4,125.8,128.1,125.7z"/>
		<path fill="#021E11" d="M110,138.1c-2.2-0.5-3.2-0.7-4.3-1c-1.1-0.3-2.2-0.6-3.4-0.9c-0.6,7.4-2.5,9.6-7.1,9
			c-4.3-0.6-5.7-3.6-4.3-11.7c-5.7,3.5-10.3,6.3-14.9,9.2c-0.2-0.4-0.5-0.8-0.7-1.2c2.8-5,7.5-7.9,13.2-9.3
			C95.6,130.6,106.3,133.2,110,138.1z"/>
		<path fill="#021E11" d="M153.7,136.3c-2.5,0.5-4.8,1-7.8,1.6c3.6-4.9,14.6-7.3,21.8-5.6c6.3,1.5,11.3,5.7,12,10.4
			c-4.7-2.9-9.2-5.8-13.7-8.6c-0.8,3.9-1.2,6.8-2.2,9.5c-0.4,0.9-2.5,1.5-3.9,1.6C155.5,145.6,153.7,143,153.7,136.3z"/>
		<path fill="#021E11" d="M50.9,166.4c0,3.4-3,6.4-6.4,6.3c-3.4-0.1-6.5-3.2-6.1-6.6c0.4-3.5,2.5-5.8,6.2-6
			C48.1,159.9,50.9,162.9,50.9,166.4z"/>
		<path fill="#021E11" d="M219.3,166.3c0,3.6-2.7,6.4-6.2,6.4c-3.4-0.1-6.3-3.1-6.1-6.5c0.2-3.7,2.4-5.8,6-6.1
			C216.5,159.9,219.3,162.8,219.3,166.3z"/>
		<path fill="#021E11" d="M113.1,182.3c-1.1-2.4-2.8-4.7-3-7.2c-0.3-3.9,1.6-7.1,5.9-8.7c-3,4.9-7.1,9.6-0.2,15
			C114.9,181.7,114,182,113.1,182.3z"/>
		<path fill="#021E11" d="M110.6,216c11.3,4.2,22.5,2.7,33.8-0.5c0.2,0.6,0.3,1.2,0.5,1.8c-1,0.8-1.9,1.9-3.1,2.3
			c-9.5,3-19.2,3.2-28.9,0.8c-1.3-0.3-2.2-1.9-3.3-2.9C109.9,217,110.3,216.5,110.6,216z"/>
		<path fill="#021E11" d="M118.1,224.7c6.3,0,12.5,0,20.2,0c-6,4.6-11.7,3.6-17.2,3.2c-1.3-0.1-2.6-1.3-3.9-2
			C117.5,225.5,117.8,225.1,118.1,224.7z"/>
		<ellipse fill="#021E11" cx="166.9" cy="166.6" rx="1.8" ry="2.8"/>
	</g>
</g>
<g id="Layer_2">
</g>
</svg>
